<?xml version="1.0" encoding="UTF-8"?><svg id="Layer_2" xmlns="http://www.w3.org/2000/svg" viewBox="0 0 192.75 219.39"><defs><style>.cls-1{fill:#f5f5f5;}.cls-2{fill:#ffba69;}.cls-3{fill:#afa0c9;}.cls-4{fill:#584f7f;}</style></defs><g id="Layer_1-2"><g><g><path class="cls-4" d="M192.73,158.86c0-.43-.02-.86-.01-1.27-.05-13.38-1.85-27.15-5.33-40.94,.41-8.92,.13-17.59-.81-25.77-2.34-20.32-10.09-49.81-24.2-66.04C144.15,3.86,118.33,.62,100.5,0c-1.38-.05-2.66,.43-3.61,1.33-.28,.27-.52,.57-.74,.9-6.19-1.17-12.61-1.15-19.15,.05C55.12,6.31,35.15,20.37,20.76,41.86,3.97,66.95-3.12,98.84,1.27,128.48v.09l.02,.08s0,.02,0,.03c.14,.87,.28,1.74,.43,2.61v.06c.23,1.29,.47,2.56,.74,3.83,.12,3.48,.22,7.02,.32,10.45,.31,10.98,.64,22.33,1.65,33.43,.36,4.05,1.98,7.2,4.8,9.36,4.8,3.67,11.91,3.7,19.4,2.72h0c.65-.08,1.3-.18,1.96-.28-.97-1.7-1.82-3.43-2.55-5.18-.63,.09-1.26,.16-1.91,.23h0c-5.12,.54-10.52,.46-13.56-1.87-1.57-1.2-2.45-2.99-2.67-5.48-.99-10.92-1.31-22.19-1.62-33.09-.05-1.64-.09-3.31-.15-4.98h0c-.02-.78-.04-1.56-.07-2.33-.03-1.14-.07-2.28-.11-3.4v-.24l-.06-.23c-1.13-5.31-1.85-10.73-2.19-16.18h0c-.06-.94-.1-1.88-.14-2.82h0c-.9-24.59,6.03-49.85,19.76-70.34C38.89,24.67,57.59,11.45,78,7.7c3.8-.67,7.64-.97,11.5-.75,2.89,.17,5.69,.68,8.49,1.32,1.41,.32,2.75-.74,2.76-2.18,0-.19,0-.38,0-.58,26.83,1,44.57,8.07,57.48,22.91,13.3,15.29,20.64,43.53,22.89,63.07,.44,3.83,.73,7.77,.86,11.79h0c.04,1.12,.07,2.25,.07,3.38h0c.05,3.33-.02,6.71-.18,10.12l-.02,.41,.1,.4c.25,.96,.48,1.91,.7,2.88h0c.21,.87,.41,1.73,.6,2.59h0c2.58,11.66,3.92,23.25,3.96,34.54,0,.43,0,.87,.01,1.32,.07,4.8-.09,8.31-2.8,9.83-1.37,.77-3.21,.96-5.16,1.17-.52,.06-1.03,.11-1.53,.18l-6.32,.81-1.92,.25c-.4,2.21-.94,4.41-1.66,6.6h0c.61-.23,1.21-.5,1.81-.8,.15-.08,.3-.16,.45-.25,.07-.04,.14-.07,.2-.11l8.13-1.04c.47-.06,.94-.11,1.42-.16,2.3-.24,4.91-.52,7.27-1.85,5.76-3.24,5.67-9.86,5.61-14.69Z"/><g><path class="cls-1" d="M7.96,134.74c.04,1.13,.08,2.27,.11,3.4-2.96-2.5-4.97-6.07-5.03-10.94-.01-.88,.04-1.77,.17-2.63,.23-1.58,.7-3.11,1.38-4.54,.32-.67,.7-1.33,1.12-1.96,.33,5.46,1.06,10.88,2.19,16.18l.05,.23v.24Z"/><path class="cls-1" d="M182.67,120.48c-.23-.96-.46-1.92-.7-2.88l-.1-.4,.02-.41c.16-3.42,.23-6.79,.18-10.11h0c.83,1.52,1.43,3.26,1.74,5.22,.52,3.3,.04,6.15-1.13,8.57Z"/></g><path class="cls-4" d="M125.17,113.26c-6.17-2.32-9.11,8.05-3.39,10.28,1.49,.58,3.13,.54,4.5-.33,1.48-.94,1.94-2.58,1.99-4.23,.04-1.38-.22-2.81-.93-3.93-.49-.78-1.2-1.41-2.17-1.78Z"/><path class="cls-4" d="M62.53,118.88c-6.17-2.32-9.11,8.05-3.39,10.28,1.49,.58,3.13,.54,4.5-.33,1.48-.94,1.94-2.58,1.99-4.23,.04-1.38-.22-2.81-.93-3.93-.49-.78-1.2-1.41-2.17-1.78Z"/><path class="cls-4" d="M185.6,111.62c-1.52-9.59-9.66-15.05-18.56-16.07-.45-.1-1.43-.55-2.26-.93,.09-.32,.16-.66,.16-1.04,0-1.45-.03-2.9-.08-4.35-2.26-.38-4.56-.56-6.86-.72,.08,1.61,.15,3.22,.21,4.85,.11,2.73,.89,9.06,4.62,8.83,6.9-.43,14.57,2.57,16.03,10.08,1.5,7.71-5.29,12.29-12.03,13.42-1.87,.31-3.17,1.72-3.09,3.66,1.1,25.06,7.6,45.27-12.01,65.46-8.85,9.12-22.11,13.79-34.56,14.8-3.45,.28-27.15,2.16-30.48,2.55-.51,.06-1.03,.11-1.54,.16-12.45,1.09-26.3-1.28-36.56-8.78-22.73-16.61-19.72-37.62-22.85-62.51-.24-1.93-1.76-3.09-3.66-3.09-6.84,.02-14.31-3.35-14.12-11.21,.18-7.65,7.24-11.9,14.12-12.64,3.88-.42,2.72-5.79,2.87-8.59,.11-1.99,.21-3.98,.25-5.97-.56,.39-1.12,.77-1.69,1.14-1.76,1.15-3.61,2.29-5.54,3.16,0,.58,0,1.17,.05,1.74-.08,.61,0,1.15,.17,1.63l-.05,.04c-.25,.17-.5,.35-.75,.52-.16,.11-2.78,1.28-2.84,1.3-1.69,.69-3.31,1.5-4.82,2.53-1.43,.97-2.76,2.11-3.91,3.4-1.15,1.28-2.12,2.72-2.87,4.27-.77,1.6-1.29,3.32-1.54,5.07-.14,.96-.2,1.94-.19,2.91,.13,10.55,8.72,16.22,18.12,17.27,2.84,25.39,1.27,44.23,22.42,62.26,10.26,8.75,24.28,12.48,37.58,12.62,5.47,.06,35.17-2.71,38.89-3.03,1.96-.17,3.92-.4,5.86-.75,13.08-2.37,26.27-8.41,34.92-18.76,17.82-21.33,13.1-39.64,11.64-65.14,9.09-2.62,16.61-9.65,14.96-20.07Z"/><path class="cls-4" d="M126.03,15.58c-8.11-2.28-16.75-2.05-25.08-2.41-23.53-1.04-44.27,9.89-59.41,26.56-6.92,7.61-13.05,17.93-17.88,28.45h0c-2.07,4.51-3.91,9.06-5.46,13.44h0v.02c-.7,1.99-1.35,3.94-1.93,5.85-.88,2.88-1.74,5.75-2.66,8.61-.82,2.57-2.43,5.39-1.55,8.14,.21,.66,.59,1.31,1.19,1.65,.4,.23,.86,.31,1.32,.34,1.25,.09,2.39-.2,3.45-.68h0c.61-.29,1.2-.64,1.78-1.02,1.26-.86,2.45-1.88,3.65-2.75,.56-.41,1.15-.8,1.73-1.16h0c3.16-1.99,6.6-3.4,10.14-4.66,10.27-3.68,20.49-6.17,31.36-7.23,10.08-.98,20.21-1.32,30.33-1.69,10.31-.38,20.45-.7,30.75,.32,1.66,.17,3.45-.73,3.72-2.55,.38-2.61,1.4-5,2.56-7.35,1.14,3.72,2.29,7.44,3.41,11.17,.36,1.2,1.97,2.34,3.26,2.07,5.72-1.2,11.61-1.15,17.39-.24h0c1.68,.26,3.35,.59,5,.99h0c.61,.15,1.22,.31,1.83,.47,1.56,.42,3.11,.9,4.64,1.42,2.28,.78,4.68-.54,4.55-3.15-1.46-30.1-16.45-65.7-48.08-74.59Zm36.79,69.3c-6.63-1.45-13.47-2-20.16-.99-1.67-5.49-3.4-10.96-4.98-16.47-.01-.04-.02-.07-.04-.11-.83-2.62-3.75-2.32-5.28-.72h0c-.37,.38-.65,.84-.81,1.35-1.45,4.55-4.3,8.37-5.7,12.87-8.94-.69-17.8-.57-26.78-.24-10.99,.42-21.98,.72-32.93,1.78-10.59,1.03-20.59,3.31-30.65,6.77-4.21,1.45-8.4,2.99-12.29,5.2-.96,.54-1.88,1.18-2.79,1.85h0c-.07,.05-.14,.1-.21,.15,.07-.23,.15-.47,.22-.71,1.77-5.64,3.19-11.31,5.62-16.7,1.89-4.2,3.83-8.31,5.92-12.29,8.8-16.83,19.96-31.3,38.8-39.69,6.12-2.72,15.03-6.49,21.78-7.27,7.55-.88,15.91-.14,23.45,.63,14.57,1.49,26.92,9.82,35.78,21.3,9.36,12.12,14.22,29.02,15.65,44.45-1.52-.43-3.05-.81-4.59-1.15Z"/><path class="cls-4" d="M102.03,149.51c-2.59,2.58-8.86,8.79-12.87,4.81-3.36-3.33,.86-11.3,1.7-15.1,2.02-9.16,1.95-18.67,.07-27.85-.82-3.97-7.19-3.48-6.36,.54,1.56,7.6,1.91,15.32,.63,23-1.02,6.1-4.67,12.7-3.21,18.94,1.09,4.65,4.91,7.56,9.61,7.86,6.37,.4,11.09-3.87,15.32-8.08,2.91-2.9-1.99-7-4.88-4.12Z"/><path class="cls-4" d="M70.11,103.03c-8.75-1.16-15.81,1.39-24.06,3.67-3.95,1.1-1.73,7.08,2.21,5.99,7.09-1.96,13.14-4.39,20.67-3.39,4.06,.54,5.25-5.73,1.17-6.28Z"/><path class="cls-4" d="M110.22,100.33c8.43-2.62,15.82-1.29,24.33-.42,4.08,.41,2.9,6.69-1.17,6.28-7.32-.74-13.69-2.11-20.95,.14-3.91,1.21-6.14-4.77-2.21-5.99Z"/><path class="cls-2" d="M24.66,135.79c-2.34-.54-5.16,.07-6.25,1.96-2.26,3.94-2.64,9.65-2.95,14.05-.33,4.68,.3,11.63,6.58,11.37,9.83-.41,7.71-14.67,6.89-21.11-.19-1.48-.4-3.02-1.18-4.29-.62-1.01-1.77-1.67-3.08-1.98Z"/><path class="cls-2" d="M173.45,126.46c-1.63-2.64-4.26-4.67-7.41-3.21-3.71,1.73-3.69,7.28-3.66,10.72,.03,4.14,.16,10.54,3.18,13.87,1.47,1.61,3.51,2.07,5.4,.89,6.37-3.99,5.74-12.52,3.96-18.91-.3-1.09-.8-2.27-1.48-3.36Z"/><g><path class="cls-2" d="M55.57,160.45c-2.37-2.05-5.56,1.63-3.19,3.69,2.37,2.05,5.56-1.63,3.19-3.69Z"/><path class="cls-2" d="M60.16,154.71c-1.32-1.14-3.09,.91-1.77,2.05,1.32,1.14,3.09-.91,1.77-2.05Z"/><path class="cls-2" d="M61.13,166.69c-1.32-1.14-3.09,.91-1.77,2.05,1.32,1.14,3.09-.91,1.77-2.05Z"/><path class="cls-2" d="M50.17,169.08c.07-.16,.09-.33,.07-.51,0-.18-.06-.35-.15-.5-.07-.17-.17-.31-.32-.43l-.3-.2c-.22-.1-.44-.14-.68-.13-.11,.02-.23,.05-.34,.07-.23,.08-.43,.21-.59,.4l-.09,.1c-.13,.14-.21,.29-.25,.47-.07,.16-.09,.33-.07,.51,0,.18,.06,.35,.15,.5,.07,.17,.17,.31,.32,.43l.3,.2c.22,.1,.44,.14,.68,.13l.34-.07c.23-.08,.43-.21,.59-.4l.09-.1c.13-.14,.21-.29,.25-.47Z"/><path class="cls-2" d="M48.5,155.95c-1.32-1.14-3.09,.91-1.77,2.05,1.32,1.14,3.09-.91,1.77-2.05Z"/><path class="cls-2" d="M45.1,164.07c.03-.07,.04-.13,.03-.21,0-.07-.02-.14-.06-.2-.03-.07-.07-.13-.13-.17l-.12-.08c-.09-.04-.18-.06-.27-.05l-.14,.03c-.09,.03-.17,.08-.23,.16l-.07,.08c-.05,.05-.08,.12-.1,.19-.03,.07-.04,.13-.03,.2,0,.07,.02,.14,.06,.2,.03,.07,.07,.13,.13,.17l.12,.08c.09,.04,.18,.06,.27,.05l.14-.03c.09-.03,.17-.08,.23-.16l.07-.08c.05-.05,.08-.12,.1-.19Z"/><path class="cls-2" d="M53.55,153.54c-.53-.46-1.24,.36-.71,.82,.53,.46,1.24-.36,.71-.82Z"/><path class="cls-2" d="M62.64,161.25c-.53-.46-1.24,.36-.71,.82,.53,.46,1.24-.36,.71-.82Z"/><path class="cls-2" d="M54.99,171.8c.03-.07,.04-.13,.03-.21,0-.07-.02-.14-.06-.2-.03-.07-.07-.13-.13-.17l-.12-.08c-.09-.04-.18-.06-.27-.05l-.14,.03c-.09,.03-.17,.08-.23,.16l-.07,.08c-.05,.05-.08,.12-.1,.19-.03,.07-.04,.13-.03,.2,0,.07,.02,.14,.06,.2,.03,.07,.07,.13,.13,.17l.12,.08c.09,.04,.18,.06,.27,.05l.14-.03c.09-.03,.17-.08,.23-.16l.07-.08c.05-.05,.08-.12,.1-.19Z"/></g><g><path class="cls-2" d="M136.07,149.92c-2.37-2.05-5.56,1.63-3.19,3.69,2.37,2.05,5.56-1.63,3.19-3.69Z"/><path class="cls-2" d="M140.67,144.18c-1.32-1.14-3.09,.91-1.77,2.05,1.32,1.14,3.09-.91,1.77-2.05Z"/><path class="cls-2" d="M141.64,156.16c-1.32-1.14-3.09,.91-1.77,2.05,1.32,1.14,3.09-.91,1.77-2.05Z"/><path class="cls-2" d="M130.68,158.56c.07-.16,.09-.33,.07-.51,0-.18-.06-.35-.15-.5-.07-.17-.17-.31-.32-.43l-.3-.2c-.22-.1-.44-.14-.68-.13l-.34,.07c-.23,.08-.43,.21-.59,.4l-.09,.1c-.13,.14-.21,.29-.25,.47-.07,.16-.09,.33-.07,.51,0,.18,.06,.35,.15,.5,.07,.17,.17,.31,.32,.43l.3,.2c.22,.1,.44,.14,.68,.13l.34-.07c.23-.08,.43-.21,.59-.4l.09-.1c.13-.14,.21-.29,.25-.47Z"/><path class="cls-2" d="M129,145.42c-1.32-1.14-3.09,.91-1.77,2.05,1.32,1.14,3.09-.91,1.77-2.05Z"/><path class="cls-2" d="M125.6,153.55c.03-.07,.04-.13,.03-.21,0-.07-.02-.14-.06-.2-.03-.07-.07-.13-.13-.17l-.12-.08c-.09-.04-.18-.06-.27-.05l-.14,.03c-.09,.03-.17,.08-.23,.16l-.07,.08c-.05,.05-.08,.12-.1,.19-.03,.07-.04,.13-.03,.2,0,.07,.02,.14,.06,.2,.03,.07,.07,.13,.13,.17l.12,.08c.09,.04,.18,.06,.27,.05l.14-.03c.09-.03,.17-.08,.23-.16l.07-.08c.05-.05,.08-.12,.1-.19Z"/><path class="cls-2" d="M134.06,143.01c-.53-.46-1.24,.36-.71,.82,.53,.46,1.24-.36,.71-.82Z"/><path class="cls-2" d="M143.14,150.73c-.53-.46-1.24,.36-.71,.82,.53,.46,1.24-.36,.71-.82Z"/><path class="cls-2" d="M135.5,161.28c.03-.07,.04-.13,.03-.21,0-.07-.02-.14-.06-.2-.03-.07-.07-.13-.13-.17l-.12-.08c-.09-.04-.18-.06-.27-.05l-.14,.03c-.09,.03-.17,.08-.23,.16l-.07,.08c-.05,.05-.08,.12-.1,.19-.03,.07-.04,.13-.03,.2,0,.07,.02,.14,.06,.2,.03,.07,.07,.13,.13,.17l.12,.08c.09,.04,.18,.06,.27,.05l.14-.03c.09-.03,.17-.08,.23-.16l.07-.08c.05-.05,.08-.12,.1-.19Z"/></g><path class="cls-4" d="M103.71,174.62c-3.1,1.44-5.81,2.91-9.34,2.94-2.7,.03-6.3-.38-8.34-2.3-1.47-1.38-3.68,.83-2.21,2.21,2.57,2.42,6.43,3.09,9.86,3.21,4.36,.15,7.8-1.59,11.62-3.36,1.83-.85,.24-3.55-1.58-2.7Z"/><path class="cls-4" d="M97.8,184.62c-1.33,2.08-5.77,1.23-7.23-.17-1.45-1.39-3.67,.82-2.21,2.21,3,2.88,9.66,3.42,12.15-.47,1.09-1.7-1.62-3.27-2.7-1.58Z"/></g><g><path class="cls-3" d="M14.55,109.02c.05-.02,2.68-1.19,2.84-1.3,.25-.17,.5-.35,.75-.52l.05-.04c-.17-.48-.25-1.02-.17-1.63v-.04h0c-1.07,.49-2.21,.77-3.45,.68-.45-.03-.92-.11-1.32-.34-.6-.34-.99-.99-1.19-1.65-.88-2.75,.73-5.57,1.55-8.14,.93-2.86,1.79-5.74,2.66-8.61,.58-1.91,1.23-3.86,1.93-5.85h0v-.02c1.55-4.39,3.38-8.93,5.45-13.44h0c4.83-10.52,10.97-20.84,17.88-28.45,15.15-16.67,35.89-27.6,59.41-26.56,8.34,.36,16.98,.13,25.08,2.41,31.63,8.88,46.63,44.48,48.08,74.59,.13,2.61-2.27,3.93-4.55,3.15-1.53-.52-3.07-1-4.64-1.42h0c0,.56,.02,1.12,.02,1.69,0,.38-.07,.72-.16,1.04,.83,.38,1.81,.83,2.26,.93,5.88,.68,11.42,3.29,14.95,7.74h0c-.14-4.03-.42-7.97-.86-11.79-2.25-19.54-9.6-47.78-22.89-63.07-12.91-14.84-30.64-21.92-57.48-22.91,0,.19,0,.38,0,.58-.01,1.44-1.35,2.51-2.76,2.18-2.8-.64-5.6-1.15-8.49-1.32-3.86-.22-7.7,.07-11.5,.75-20.41,3.76-39.11,16.97-52.67,37.22C11.61,65.38,4.67,90.64,5.58,115.22h0c.08-.08,.16-.18,.24-.28,1.15-1.29,2.48-2.43,3.91-3.4,1.51-1.03,3.13-1.83,4.82-2.53Z"/><path class="cls-3" d="M151.77,41.55c-8.86-11.48-21.21-19.81-35.78-21.3-7.54-.77-15.9-1.51-23.45-.63-6.75,.78-15.65,4.55-21.78,7.27-18.84,8.4-30,22.86-38.8,39.69-2.09,3.98-4.03,8.09-5.92,12.29-2.43,5.39-3.85,11.07-5.62,16.7-.07,.24-.15,.47-.22,.71,.07-.05,.14-.1,.21-.15h0c.91-.67,1.83-1.3,2.79-1.85,3.88-2.21,8.07-3.75,12.29-5.2,10.05-3.46,20.06-5.74,30.65-6.77,10.95-1.07,21.95-1.37,32.93-1.78,8.98-.33,17.84-.45,26.78,.24,1.4-4.5,4.25-8.32,5.7-12.87,.16-.51,.45-.97,.81-1.35h0c1.53-1.6,4.45-1.9,5.28,.72,.01,.03,.02,.07,.04,.11,1.58,5.52,3.31,10.98,4.98,16.47,6.69-1,13.53-.45,20.16,.99,1.54,.34,3.07,.72,4.59,1.15-1.42-15.43-6.29-32.33-15.65-44.45Z"/><path class="cls-3" d="M15.46,151.77c.17-2.39,.36-5.15,.86-7.82-2.99-.67-5.8-1.84-8.17-3.52h0c.05,1.68,.1,3.34,.15,4.98,.31,10.9,.63,22.17,1.62,33.09,.23,2.49,1.1,4.28,2.67,5.48,3.04,2.33,8.43,2.4,13.56,1.87h0c-2.9-7.09-4.13-14.58-5-22.74-5.44-.41-6-6.9-5.69-11.35Z"/><path class="cls-3" d="M187.23,157.57c-.04-11.29-1.37-22.88-3.96-34.53h0c-1.95,2.97-4.88,5.31-8.28,6.96,1.64,6.05,2.22,13.92-3.14,18.07,.57,8.06,.81,15.51-.42,22.81h0l6.32-.81c.5-.06,1.02-.12,1.53-.18,1.95-.21,3.79-.4,5.16-1.17,2.71-1.52,2.87-5.03,2.8-9.83,0-.45-.01-.89-.01-1.32Z"/></g></g></g></svg>