<?xml version="1.0" encoding="UTF-8"?><svg id="Layer_2" xmlns="http://www.w3.org/2000/svg" viewBox="0 0 219.24 215.17"><defs><style>.cls-1{fill:#ffba69;}.cls-2{fill:#584f7f;}</style></defs><g id="Layer_1-2"><g><g><g><path class="cls-2" d="M107.07,152.66c7.23-.5,16.95,.9,17.28-9.15,.45-13.83-6.67-27.5-11.41-40.09-1.29-3.42-6.69-1.63-5.4,1.81,3.89,10.33,8.78,20.56,10.51,31.55,.52,3.32,2.22,9.03-2.22,9.95-2.92,.6-6.11,.05-9.07,.26-3.65,.25-3.35,5.93,.31,5.68Z"/><path class="cls-2" d="M75.44,96.81c3.2-2.65,7.18-4.6,10.99-1.88,2.95,2.11,6.78-2.11,3.8-4.24-5.92-4.22-12.48-3.14-17.93,1.37-2.79,2.31,.31,7.09,3.14,4.75Z"/><path class="cls-2" d="M129.25,93.53c3.2-2.65,7.18-4.6,10.99-1.88,2.95,2.11,6.78-2.11,3.8-4.24-5.92-4.22-12.48-3.14-17.93,1.37-2.79,2.31,.31,7.09,3.14,4.75Z"/><g><path class="cls-2" d="M102.46,171.63c4.82,2.05,9.73,3.41,15.01,2.56,2.41-.39,4.89-1.21,7.09-2.28,1.64-.79,3.54-2.16,3.71-4.14,.4-4.8-7.51-3.88-10.22-3.48-2.77,.41-5.49,1.11-8.17,1.87-2.04,.58-4.03,1.43-6.02,2.15-.82,.3-1.6,.61-1.95,1.47-.28,.68-.22,1.53,.54,1.85Zm4.89-1.69c1.83-.78,3.79-1.32,5.72-1.79,2.07-.5,4.2-1,6.31-1.23,1.47-.17,3.84-.56,5.26,.1,2.15,.99-1.86,2.68-2.72,3-1.85,.7-3.78,1.36-5.76,1.55-3.36,.33-6.49-.24-9.58-1.3,.26-.11,.52-.22,.76-.33Z"/><g><path class="cls-2" d="M114.12,181c3.08,.32,6.43,.43,9.16-1.3,1.51-.96,.11-3.37-1.41-2.41-2.31,1.47-5.17,1.19-7.76,.92-1.78-.19-1.77,2.61,0,2.79Z"/><path class="cls-2" d="M190.02,92.91c-2.45-8.67-11.76-14.8-21.64-14.25-1.13,.06-2.26,.22-3.34,.46l-2.05,.46,.07-2.09c.4-12.37-2.88-25.41-3.54-37.69-.04-.79-.31-1.41-.8-1.84-.54-.48-1.33-.73-2.18-.69-1.31,.07-2.81,.86-2.7,2.85,.78,14.62,3.97,30,3.28,44.62-.03,.59,.19,1.12,.64,1.57,.61,.61,1.59,.97,2.48,.92,.48-.03,.91-.17,1.25-.41,2.1-1.48,4.66-2.34,7.41-2.49,6.85-.38,13.35,3.63,15.45,9.54,1.35,3.79,.75,7.87-1.66,11.5-2.8,4.21-7.69,7.09-12.47,7.36-1.14,.06-2.27-.02-3.35-.25-.21-.04-.44-.06-.67-.05-.84,.05-1.7,.48-2.25,1.13-.3,.36-.65,.96-.55,1.74l.08,.67c2.31,18.78,4.66,37.49-1,56.03-4.68,15.34-14.67,27.05-27.39,32.13-7.5,2.99-15.54,4.29-23.56,4.9-7.97,.6-9.12,.59-17.06-.51-2.81-.39-5.59-.94-8.32-1.7-13.2-3.65-24.41-14.19-30.75-28.93-7.66-17.81-7.37-36.66-7.13-55.59v-.67c.02-.79-.39-1.34-.73-1.67-.61-.59-1.52-.93-2.36-.88-.23,.01-.45,.05-.66,.12-1.05,.35-2.16,.55-3.31,.62-4.77,.26-9.95-2.07-13.2-5.94-2.8-3.35-3.84-7.34-2.92-11.25,1.44-6.1,7.46-10.8,14.31-11.17,2.75-.15,5.39,.42,7.64,1.66,.36,.2,.81,.29,1.28,.27,.9-.05,1.83-.51,2.37-1.19,.4-.5,.56-1.04,.46-1.63-1.98-12.48-1.61-25.16-2.01-37.8-1.57,1.73-3.17,3.42-4.88,5.02-.26,.24-.54,.37-.81,.41,0,8.61-.22,17.25,1.01,25.81l.3,2.07-2.08-.23c-1.1-.12-2.23-.15-3.37-.09-9.89,.54-18.46,7.65-19.95,16.54-.91,5.45,.72,10.91,4.58,15.39,4.32,5.01,10.65,7.92,16.94,7.8l1.67-.03-.02,1.67c-.16,17.11,.2,34.45,6.67,50.63,4.79,11.98,12.75,23.13,24.04,29.73,12.6,7.37,20.78,8.22,34.97,7.42,14.68-.83,29.35-3.74,41.38-12.72,9.69-7.23,15.86-19.63,19.01-31,4.66-16.8,3.11-34.07,1.08-51.06l-.2-1.66,1.66-.15c6.27-.57,12.24-4.17,15.99-9.62,3.35-4.88,4.37-10.49,2.87-15.8Z"/></g></g></g><path class="cls-1" d="M157.94,102.48c-.26-1.63-.46-3.27-.66-4.86-.36-2.82-.72-5.75-1.41-8.56l.02-.46c.04-.12,.08-.22,.1-.36,.4-2.29,.65-4.63,.83-6.95,.13-1.55,.23-3.11,.32-4.64h0v-.05h0v-.02h0c0-.1,.01-.2,.02-.29,.21-3.4,.42-6.93,.92-10.38,.12-.83-.2-1.38-.49-1.7-.37-.4-.9-.67-1.45-.75h0c-.15-.02-.3-.03-.45-.02-.5,.03-1.38,.26-1.56,1.49-.49,3.39-.7,6.88-.91,10.25-.13,2.18-.27,4.41-.48,6.63-.09,.97-.2,1.94-.32,2.9l-.5,.65c-2.47,1-4.89,1.87-7.27,2.61h0c-5.37,1.68-10.59,2.75-16.02,3.29-1.14,.12-2.32,.22-3.56,.31h0c-1.49,.12-3.06,.22-4.73,.31-3.29,.18-6.64,.3-9.87,.42-2.71,.1-5.42,.2-8.12,.33-3.71,.18-7.42,.37-11.12,.57h-.27c-2.68,.16-5.19,.31-7.57,.46h-.01c-.9,.06-1.77,.11-2.63,.17h-.02c-.87,.06-1.72,.12-2.56,.17-.35,.02-.7,.05-1.05,.07-1.66,.09-3.35,.13-4.98,.16-.3,0-.61,.01-.91,.02-1.33,.03-2.68,.07-4,.14-1.82,.1-3.4,.25-4.83,.48l-.91-.59s.02,.06,.03,.08c-.59-.82-5.82-3.64-10.47-6.14,0,.39,0,.79-.03,1.19h0c-.08,1.24-.35,2.45-1.05,3.41h0c-.07,.1-.14,.19-.22,.28,3.6,2.08,5.31,3.45,5.82,4.62l.06,.45c0,.09-.02,.18-.01,.29,.35,5.54,1.11,10.98,2.14,17.44,.11,.7,.23,1.58,.36,2.56,.48,3.56,1.2,8.95,2.5,11.27,2.66,4.73,8.58,6.87,17.62,6.38l.32-.02c4.48-.27,12.71-1.73,17.47-8.44,3.03-4.27,3.7-14.94,3.93-18.45l.33-.6c2.15-1.59,4.7-2.68,7.36-3.16,.71-.13,1.43-.21,2.15-.25,1.36-.07,2.68,.01,3.94,.24,3.15,.58,5.91,2.1,7.98,4.43l.09,.08,.21,.44,.31,1.97c.09,.6,.18,1.21,.27,1.82,.45,3.24,.92,6.58,2.71,9.17,3.1,4.49,7.95,6.48,14.81,6.11h0c2.16-.12,4.53-.47,7.27-1.08,7.42-1.65,11.05-6.01,11.44-13.74,.17-3.52-.1-7.5-.85-12.17Zm-62.41,4.78c-.05,.89-.07,1.99-.09,3.16-.1,4.86-.22,10.9-2.23,14.18-3.65,5.93-10.89,7.23-14.88,7.47l-.43,.02c-3.32,.18-12.16,.67-14.5-6.09-2.18-6.31-3.08-17.06-3.62-25.72l.6-.84c2.21-.59,4.67-.93,7.72-1.1,1.76-.09,3.55-.13,5.28-.15,1.71-.03,3.47-.06,5.18-.15,.58-.03,1.16-.07,1.74-.12,2.72-.24,5.66-.44,8.97-.62,1.89-.1,3.77-.2,5.66-.28l.62,.25c.27,.28,.5,.51-.03,10Zm24.05-4.08c-2.59-1.28-5.65-1.96-9.08-2-.55,0-1.1,0-1.62,.03-2.77,.15-5.27,.82-7.66,2.05l-1.18-.7c-.04-1.76-.12-3.48-.2-4.93l.78-.85,5.15-.21c1.74-.08,3.48-.14,5.23-.2,2.67-.1,5.34-.2,8.01-.32l.84,.68c.26,1.63,.52,3.25,.77,4.88l.11,.72-1.16,.86Zm34.66,15.04c-1.11,3.9-3.71,5.27-7.28,6.12-2.69,.65-5,1.01-7.06,1.13-6.79,.37-10.99-2.04-12.48-7.18-1.41-4.87-2.05-10.14-2.68-15.24-.25-2.12-.53-4.32-.84-6.42l.74-.93c2.33-.17,4.45-.37,6.47-.61,6.57-.77,13.09-2.41,19.9-5l1.08,.56c1.6,6.27,2.18,13.3,2.55,19.34v.16c.17,2.67,.34,5.43-.42,8.07Z"/><g><g><path class="cls-2" d="M44.17,127.15l.03-3.34-3.34,.06c-5.81,.11-11.68-2.6-15.68-7.24-3.55-4.11-5.04-9.1-4.21-14.06,1.37-8.15,9.29-14.68,18.44-15.18,1.05-.06,2.09-.03,3.1,.08l4.17,.46-.14-.98h0c.57,.11,1.15,.18,1.77,.2,.78,.02,1.57-.01,2.36-.1h0c5.93-.65,12.09-4.19,15.82-8.55,4.59-5.34,6.86-12.23,14.06-14.75,2.74-.96,5.71-1.06,8.58-.84,.25,.02,.5,.06,.75,.09,1.74,2.23,4.83,7.16,6.64,8.86,6.72,6.28,14.64,9.69,23.9,10.02,5.73,.2,11.17-2.95,16.74-2.13,5.2,.76,10.28,2.15,15.57,2.09,.12,0,.24,0,.36,0,1.19-.03,2.44-.21,3.73-.52,.13-.03,.25-.06,.38-.1h0c1.35-.35,2.74-.84,4.14-1.44h0l-.06,1.87,4.09-.91c.99-.22,2.03-.36,3.07-.42,3.84-.21,7.58,.67,10.8,2.34-.89-5.28-1.66-10.59-2.07-15.93,4.4-1.2,6.82-4.53,8.18-9.38,.39-1.38,.86-2.34,.29-3.27-3.43,1.4-7.08,2.03-10.86,1.5-.1-.01-1.48-8.3-1.63-8.93-.87-3.56-1.91-7.08-3.18-10.52-2.46-6.67-5.82-13.05-10.43-18.44C142.27-2.58,106.8-7.34,88.3,13.53c-2.65,2.99-5.37,6.16-7.03,9.85-12.02-3.41-25.76-1.39-36.79,4.09-8.16,4.06-15.54,10.31-19.73,18.64-4.81,9.56-5.91,21.08-6.86,31.63-1.41,15.69-2.68,33.5-10.39,47.46-1.56,2.82-3.48,5.54-5.88,7.69,.39,.77,1.08,1.38,1.89,1.5,8.33,1.27,16.11-2.08,22-7.91-.82,.82-.4,6.36-.51,7.66-.22,2.72-.57,5.43-.85,8.15-.47,4.65-1.42,9.22-2.62,13.74-3.84,14.4-10.09,29.33-20.78,39.84-.23,.23-.48,.46-.72,.68-.16,.95,.22,1.99,.9,2.63,9.55,9.19,26.34,5.56,37.52,2.18,6.33-1.91,12.27-4.62,17.95-8.03,.78-.47,1.56-.96,2.34-1.47-3.65-5.05-6.24-10.28-8.01-14.71-6.33-15.82-6.71-32.69-6.55-50.01Z"/><path class="cls-2" d="M218.2,190.51c-10.2-4.41-18.73-12.73-23.99-22.62-2.35-4.41-4.04-9.18-5-14.07,2.1-5.98,2.2-12.64,1.79-19.06-.3-4.74-.56-9.63-1.55-14.28-.89-4.17-2.51-8.09-4.15-12-3.49,4.66-8.77,7.72-14.29,8.23l-3.33,.3,.4,3.32c2.06,17.21,3.53,34.01-1.03,50.43-1.31,4.72-3.02,9.16-5.05,13.2,2.32,2.66,4.48,5.52,6.71,7.08,6.84,4.78,16.19,5.65,24.24,5.44,8.71-.22,17.58-1.94,25.67-5.22,.22-.09,.42-.21,.62-.35-.35-.14-.7-.27-1.04-.42Z"/></g><path class="cls-2" d="M168.3,49.06c.74-.39-.85-4,0,0h0Z"/></g><path class="cls-2" d="M84.63,109.97c-.42-.71-1.03-1.29-1.89-1.64-5.44-2.23-8.33,6.93-3.29,9.07,1.31,.56,2.77,.57,4.02-.18,1.34-.8,1.8-2.25,1.89-3.72,.08-1.23-.12-2.51-.73-3.53Z"/><path class="cls-2" d="M144.39,105.08c-.42-.71-1.03-1.29-1.89-1.64-5.44-2.23-8.33,6.93-3.29,9.07,1.31,.56,2.77,.57,4.02-.18,1.34-.8,1.8-2.25,1.89-3.72,.08-1.23-.12-2.51-.73-3.53Z"/></g><g><path class="cls-1" d="M77.78,151.76c-2.57,0-2.57,3.99,0,3.99s2.57-3.99,0-3.99Z"/><path class="cls-1" d="M77.56,145.74c-1.43,0-1.43,2.22,0,2.22s1.43-2.22,0-2.22Z"/><path class="cls-1" d="M84.57,152.65c-1.43,0-1.43,2.22,0,2.22s1.43-2.22,0-2.22Z"/><path class="cls-1" d="M79.06,159.99c-.04-.14-.12-.26-.23-.36-.1-.11-.22-.18-.36-.23-.13-.07-.27-.1-.43-.1l-.29,.04c-.19,.05-.35,.15-.49,.28l-.17,.22c-.1,.17-.15,.36-.15,.56v.11c0,.15,.03,.29,.1,.43,.04,.14,.12,.26,.23,.36,.1,.11,.22,.18,.36,.23,.13,.07,.27,.1,.43,.1l.29-.04c.19-.05,.35-.15,.49-.28l.17-.22c.1-.17,.15-.36,.15-.56v-.11c0-.15-.03-.29-.1-.43Z"/><path class="cls-1" d="M70.99,152.76c-1.43,0-1.43,2.22,0,2.22s1.43-2.22,0-2.22Z"/><path class="cls-1" d="M73.24,159.61c-.02-.05-.05-.1-.09-.14-.04-.04-.09-.07-.14-.09-.05-.03-.11-.04-.17-.04l-.12,.02c-.08,.02-.14,.06-.2,.11l-.07,.09c-.04,.07-.06,.14-.06,.22v.08c0,.06,.01,.12,.04,.17,.02,.05,.05,.1,.09,.14,.04,.04,.09,.07,.14,.09,.05,.03,.11,.04,.17,.04l.12-.02c.08-.02,.14-.06,.2-.11l.07-.09c.04-.07,.06-.14,.06-.22v-.08c0-.06-.01-.12-.04-.17Z"/><path class="cls-1" d="M72.83,148.56c-.57,0-.57,.89,0,.89s.57-.89,0-.89Z"/><path class="cls-1" d="M82.59,148.47c-.57,0-.57,.89,0,.89s.57-.89,0-.89Z"/><path class="cls-1" d="M83.5,159.1c-.02-.05-.05-.1-.09-.14-.04-.04-.09-.07-.14-.09-.05-.03-.11-.04-.17-.04l-.12,.02c-.08,.02-.14,.06-.2,.11l-.07,.09c-.04,.07-.06,.14-.06,.22v.08c0,.06,.01,.12,.04,.17,.02,.05,.05,.1,.09,.14,.04,.04,.09,.07,.14,.09,.05,.03,.11,.04,.17,.04l.12-.02c.08-.02,.14-.06,.2-.11l.07-.09c.04-.07,.06-.14,.06-.22v-.08c0-.06-.01-.12-.04-.17Z"/></g><g><path class="cls-1" d="M147.22,143.81c-2.57,0-2.57,3.99,0,3.99s2.57-3.99,0-3.99Z"/><path class="cls-1" d="M146.99,137.8c-1.43,0-1.43,2.22,0,2.22s1.43-2.22,0-2.22Z"/><path class="cls-1" d="M154.01,144.7c-1.43,0-1.43,2.22,0,2.22s1.43-2.22,0-2.22Z"/><path class="cls-1" d="M148.5,152.05c-.04-.14-.12-.26-.23-.36-.1-.11-.22-.18-.36-.23-.13-.07-.27-.1-.43-.1l-.29,.04c-.19,.05-.35,.15-.49,.28l-.17,.22c-.1,.17-.15,.36-.15,.56v.11c0,.15,.03,.29,.1,.43,.04,.14,.12,.26,.23,.36,.1,.11,.22,.18,.36,.23,.13,.07,.27,.1,.43,.1l.29-.04c.19-.05,.35-.15,.49-.28l.17-.22c.1-.17,.15-.36,.15-.56v-.11c0-.15-.03-.29-.1-.43Z"/><path class="cls-1" d="M140.43,144.81c-1.43,0-1.43,2.22,0,2.22s1.43-2.22,0-2.22Z"/><path class="cls-1" d="M142.67,151.66c-.02-.05-.05-.1-.09-.14-.04-.04-.09-.07-.14-.09-.05-.03-.11-.04-.17-.04l-.12,.02c-.08,.02-.14,.06-.2,.11l-.07,.09c-.04,.07-.06,.14-.06,.22v.08c0,.06,.01,.12,.04,.17,.02,.05,.05,.1,.09,.14,.04,.04,.09,.07,.14,.09,.05,.03,.11,.04,.17,.04l.12-.02c.08-.02,.14-.06,.2-.11l.07-.09c.04-.07,.06-.14,.06-.22v-.08c0-.06-.01-.12-.04-.17Z"/><path class="cls-1" d="M142.27,140.61c-.57,0-.57,.89,0,.89s.57-.89,0-.89Z"/><path class="cls-1" d="M152.03,140.53c-.57,0-.57,.89,0,.89s.57-.89,0-.89Z"/><path class="cls-1" d="M152.94,151.15c-.02-.05-.05-.1-.09-.14-.04-.04-.09-.07-.14-.09-.05-.03-.11-.04-.17-.04l-.12,.02c-.08,.02-.14,.06-.2,.11l-.07,.09c-.04,.07-.06,.14-.06,.22v.08c0,.06,.01,.12,.04,.17,.02,.05,.05,.1,.09,.14,.04,.04,.09,.07,.14,.09,.05,.03,.11,.04,.17,.04l.12-.02c.08-.02,.14-.06,.2-.11l.07-.09c.04-.07,.06-.14,.06-.22v-.08c0-.06-.01-.12-.04-.17Z"/></g></g></g></svg>