<?xml version="1.0" encoding="UTF-8"?><svg id="Layer_2" xmlns="http://www.w3.org/2000/svg" viewBox="0 0 194.46 256.41"><defs><style>.cls-1{fill:#afa0c9;}.cls-2{fill:#584f7f;}.cls-3{fill:#495ca5;}</style></defs><g id="Layer_1-2"><g><g><g><path class="cls-3" d="M89.04,133.67c3.15,2.17,7.12,.43,10.5-.04,3.56-.49,3.38-6.13-.22-5.63-1.77,.24-6.16,1.96-7.14,.54-.57-.83-.09-3.19-.09-4.21,.01-2.04-.05-4.07-.02-6.11,.15-8.83,1.41-17.64,1.23-26.47-.08-3.63-5.71-3.41-5.63,.22,.12,5.81-.57,11.56-.95,17.35-.35,5.35-.25,10.72-.29,16.07-.02,2.94-.11,6.4,2.6,8.27Z"/><g><path class="cls-3" d="M99.07,158.01c1.61-.76,.21-3.14-1.4-2.39-2.32,1.09-6.45,2.61-8.65,.48-1.28-1.24-3.23,.71-1.95,1.95,3.23,3.15,8.45,1.62,12-.05Z"/><path class="cls-3" d="M88.59,165.5c1.86,1.33,4.37,.81,6.45,.4,1.74-.34,1.01-3.01-.73-2.67-1.36,.27-3.1,.75-4.32-.13-1.45-1.04-2.83,1.36-1.4,2.39Z"/></g></g><path class="cls-2" d="M190.46,155.65c-1.37-34.83,1.18-68.72-7.4-102.78-2.45-9.72-5.2-19.86-10.92-28.23C158.07,4.06,132.1,.28,111.35,9.76,94.26-2.71,69.85-1.82,50.53,4.59c-10.04,3.33-18.84,8.4-25.97,16.31-.57,.63-1.12,1.27-1.66,1.92-3.33,2.74-6.37,5.94-9.04,9.73C-4.24,58.26,.5,93.85,.82,123.42c.2,18.58-.17,37.18-.33,55.76-.13,14.41-1.26,29.17,.42,43.53,2.29-.25,4.59-.43,6.9-.54,5.96-.3,11.94-.22,17.91-.23,5.99-.01,11.98-.27,17.96-.56,9.23-.45,18.47-1,27.72-.94,1.27-7.4,1.28-15.1,.18-22.33,3.5,3.26,6.46,5.95,8.03,7.26,3.84,3.21,8.4,5.73,13.31,6.8,4.64,1.01,9.23,.17,13.49-1.73-.31,1.2-.42,2.46-.51,3.7-1,14.08-.63,28.26,1.06,42.27,6.15-.16,12.3-.38,18.44-.68,15.3-.74,30.58-1.92,45.8-3.66,7.78-.89,15.55-1.93,23.28-3.13-1.35-31.05-3.58-62.14-4-93.29Zm-92.81,51.79c-2.74,.22-5.68-1.35-8.1-2.47-2.59-1.19-5-2.74-7.13-4.62-4.26-3.75-18.82-17.47-25.97-24.87-.07-.15-.1-.3-.08-.44-.39-.29-.78-.58-1.17-.87-.78-.83-1.42-1.55-1.89-2.11-4.1-4.91-8.37-9.59-11.29-15.34-3.42-6.73-4.58-13.98-5.03-21.45-.88-14.44-.84-17.62-2.24-32.03-.15-1.56-1.33-2.71-2.93-2.71-8.45,0-10.01-15.7-1.6-13.91,1.83,.39,3.48-1.01,3.46-2.86-.03-2.69-.26-5.35-.57-8.01,10.84-4.04,22.23-6.34,33.33-9.81,14.14-4.42,31.04-10.22,39.2-23.57,.79-1.3,1.44-2.63,1.98-4,2.7,8.11,7.87,15.08,15.3,20.54,9.03,6.64,19.45,10.95,29.56,15.71,0,1.42,.03,2.83,.12,4.25,.13,1.84,1.88,3.11,3.67,2.58,8.24-2.45,7.91,13.33-.51,13.99-1.6,.13-2.68,1.36-2.71,2.93-.27,14.48,.02,17.64,.27,32.11,.13,7.48-.45,14.8-3.34,21.78-2.46,5.96-6.36,10.96-10.06,16.17-3.98,5.61-22.1,25.64-26.8,30.48-2.09,2.16-4.52,3.97-7.17,5.4-2.58,1.39-5.33,2.89-8.31,3.13Z"/><path class="cls-3" d="M121.46,90.6c-1.45-.03-2.66,.82-3.31,2.01-.28,.34-.49,.73-.65,1.19-.58,1.69-.22,3.64,1.04,4.92,1.26,1.28,3.34,1.5,4.86,.56,1.52-.95,2.32-2.93,2.14-4.69-.23-2.18-1.8-3.94-4.07-3.99Z"/><path class="cls-3" d="M66.68,92.74c-1.45-.03-2.66,.82-3.31,2.01-.28,.34-.49,.73-.65,1.19-.58,1.69-.22,3.64,1.04,4.92,1.26,1.28,3.34,1.5,4.86,.56,1.52-.95,2.32-2.93,2.14-4.69-.23-2.18-1.8-3.94-4.07-3.99Z"/><path class="cls-3" d="M79.17,88.25c-.1,.09-.22,.17-.35,.23-.49,.23-1.05,.22-1.6,.2-8.53-.22-17.06-.44-25.59-.68-.43-.01-.86-.02-1.3-.04-.9-.03-1.78-.73-1.43-1.91,.25-.85,1.1-1.43,1.79-1.67,1.11-.39,2.34-.27,3.5-.43,6.86-.91,13.73-1.82,20.59-2.75,.64-.09,1.3-.17,1.96,0,1.81,.5,4.06,5.57,2.44,7.04Z"/><path class="cls-3" d="M110.84,87.35c.11,.08,.23,.15,.37,.2,.51,.19,1.07,.14,1.61,.08,8.48-.83,16.97-1.67,25.45-2.53,.43-.04,.86-.09,1.29-.13,.89-.09,1.72-.85,1.28-1.99-.32-.82-1.21-1.33-1.92-1.51-1.14-.3-2.35-.1-3.52-.17-6.91-.4-13.82-.8-20.73-1.22-.65-.04-1.31-.08-1.95,.15-1.76,.63-3.61,5.78-1.88,7.11Z"/><path class="cls-1" d="M171.4,16.42c-.3-1.17-1.62-2.03-2.8-1.96-1.14,.06-2.27,.07-3.41,.07-3.72-3.7-7.28-7.73-12.47-9.29-6.39-1.91-36.22-3.09-43.55-1.93-3.23,.51-5.5,2.32-7.52,4.52-1.59-.37-3.21-.6-4.94-.59-3.41,.02-6.75,.72-9.89,1.92-2.4-2.35-4.98-4.35-8.61-4.63-7.4-.58-37.04,2.93-43.26,5.34-5.55,2.15-8.9,7.11-12.71,11.39-.33,.36-.55,.75-.7,1.13-1.04,.25-2.08,.47-3.16,.59-1.56,.18-2.71,1.3-2.71,2.93,.01,16.15,1.94,32.44,3.38,48.56,2.56-3.21,5.46-6.19,8.55-8.91-.27-4.37-.66-8.74-.75-13.1-.13-5.91,.19-11.89,.12-17.83,2.24,2.51,4.79,4.59,7.98,4.45,7.41-.34,40.56-7.93,43.79-8.93,5.62-1.74,7.9-7.4,10.81-12.1,.29-.46,.8-.68,1.06-1.1,1.73-.47,3.73-.55,5.14-.72,.25-.03,.49-.05,.74-.07,.35,.02,.71,.05,1.06,.09,.31,.58,.93,.88,1.4,1.44,3.47,4.14,5.98,9.92,11.72,11.22,3.3,.75,36.94,5.72,44.35,5.48,3.19-.11,5.58-2.39,7.62-5.07-.66,6.21-1.81,12.44-2.16,18.61-.14,2.5-.15,5.05-.22,7.6,3.23,2.6,6.19,5.55,8.79,8.78,.48-3.08,.84-6.16,1.14-9.27,.64-6.72,.82-13.43,1.02-20.18,.17-5.78,1.62-12.78,.2-18.39Z"/></g><g><path class="cls-1" d="M59.05,133.89c-2.35-.96-3.85,2.69-1.5,3.66,2.35,.96,3.85-2.69,1.5-3.66Z"/><path class="cls-1" d="M61.1,128.29c-1.31-.54-2.14,1.5-.83,2.03,1.31,.54,2.14-1.5,.83-2.03Z"/><path class="cls-1" d="M64.94,137.25c-1.31-.54-2.14,1.5-.83,2.03,1.31,.54,2.14-1.5,.83-2.03Z"/><path class="cls-1" d="M57.14,141.92c.01-.14-.01-.28-.08-.41-.05-.14-.13-.25-.24-.34-.1-.11-.21-.2-.36-.25l-.28-.07c-.19-.02-.38,0-.56,.08l-.24,.14c-.16,.12-.27,.27-.35,.46l-.04,.1c-.06,.14-.09,.28-.07,.43-.01,.14,.01,.28,.08,.41,.05,.14,.13,.25,.24,.34,.09,.11,.21,.2,.36,.25l.28,.07c.19,.02,.38,0,.56-.08l.24-.14c.16-.12,.27-.27,.35-.46l.04-.1c.06-.14,.09-.28,.07-.43Z"/><path class="cls-1" d="M52.46,132.26c-1.31-.54-2.14,1.5-.83,2.03,1.31,.54,2.14-1.5,.83-2.03Z"/><path class="cls-1" d="M51.94,139.38c0-.06,0-.11-.03-.17-.02-.05-.05-.1-.1-.14-.04-.05-.09-.08-.14-.1l-.11-.03c-.08,0-.15,0-.22,.03l-.1,.06c-.06,.05-.11,.11-.14,.18l-.03,.08c-.03,.06-.03,.11-.03,.17,0,.06,0,.11,.03,.17,.02,.05,.05,.1,.1,.14,.04,.05,.09,.08,.14,.1l.11,.03c.08,0,.15,0,.22-.03l.1-.06c.06-.05,.11-.11,.14-.18l.03-.08c.03-.06,.03-.11,.03-.17Z"/><path class="cls-1" d="M55.72,129.1c-.52-.21-.86,.6-.33,.81,.52,.21,.86-.6,.33-.81Z"/><path class="cls-1" d="M64.7,132.69c-.52-.21-.86,.6-.33,.81,.52,.21,.86-.6,.33-.81Z"/><path class="cls-1" d="M61.55,142.77c0-.06,0-.11-.03-.17-.02-.05-.05-.1-.1-.14-.04-.05-.09-.08-.14-.1l-.11-.03c-.08,0-.15,0-.22,.03l-.1,.06c-.06,.05-.11,.11-.14,.18l-.03,.08c-.03,.06-.03,.11-.03,.17,0,.06,0,.11,.03,.17,.02,.05,.05,.1,.1,.14,.04,.05,.09,.08,.14,.1l.11,.03c.08,0,.15,0,.22-.03l.1-.06c.06-.05,.11-.11,.14-.18l.03-.08c.03-.06,.03-.11,.03-.17Z"/></g><g><path class="cls-1" d="M128.52,133.87c-2.35-.96-3.85,2.69-1.5,3.66,2.35,.96,3.85-2.69,1.5-3.66Z"/><path class="cls-1" d="M130.57,128.27c-1.31-.54-2.14,1.5-.83,2.03,1.31,.54,2.14-1.5,.83-2.03Z"/><path class="cls-1" d="M134.41,137.23c-1.31-.54-2.14,1.5-.83,2.03,1.31,.54,2.14-1.5,.83-2.03Z"/><path class="cls-1" d="M126.61,141.9c.01-.14-.01-.28-.08-.41-.05-.14-.13-.25-.24-.34-.1-.11-.21-.2-.36-.25l-.28-.07c-.19-.02-.38,0-.56,.08l-.24,.14c-.16,.12-.27,.27-.35,.46l-.04,.1c-.06,.14-.09,.28-.07,.43-.01,.14,.01,.28,.08,.41,.05,.14,.13,.25,.24,.34,.09,.11,.21,.2,.36,.25l.28,.07c.19,.02,.38,0,.56-.08l.24-.14c.16-.12,.27-.27,.35-.46l.04-.1c.06-.14,.09-.28,.07-.43Z"/><path class="cls-1" d="M121.92,132.24c-1.31-.54-2.14,1.5-.83,2.03,1.31,.54,2.14-1.5,.83-2.03Z"/><path class="cls-1" d="M121.41,139.36c0-.06,0-.11-.03-.17-.02-.05-.05-.1-.1-.14-.04-.05-.09-.08-.14-.1l-.11-.03c-.08,0-.15,0-.22,.03l-.1,.06c-.06,.05-.11,.11-.14,.18l-.03,.08c-.02,.06-.03,.11-.03,.17,0,.06,0,.11,.03,.17,.02,.05,.05,.1,.1,.14,.04,.05,.09,.08,.14,.1l.11,.03c.08,0,.15,0,.22-.03l.1-.06c.06-.05,.11-.11,.14-.18l.03-.08c.03-.06,.03-.11,.03-.17Z"/><path class="cls-1" d="M125.19,129.07c-.52-.21-.86,.6-.33,.81,.52,.21,.86-.6,.33-.81Z"/><path class="cls-1" d="M134.16,132.66c-.52-.21-.86,.6-.33,.81,.52,.21,.86-.6,.33-.81Z"/><path class="cls-1" d="M131.01,142.74c0-.06,0-.11-.03-.17-.02-.05-.05-.1-.1-.14-.04-.05-.09-.08-.14-.1l-.11-.03c-.08,0-.15,0-.22,.03l-.1,.06c-.06,.05-.11,.11-.14,.18l-.03,.08c-.03,.06-.03,.11-.03,.17,0,.06,0,.11,.03,.17,.02,.05,.05,.1,.1,.14,.04,.05,.09,.08,.14,.1l.11,.03c.08,0,.15,0,.22-.03l.1-.06c.06-.05,.11-.11,.14-.18l.03-.08c.03-.06,.03-.11,.03-.17Z"/></g></g></g></svg>