<?xml version="1.0" encoding="UTF-8"?><svg id="Layer_2" xmlns="http://www.w3.org/2000/svg" viewBox="0 0 292.44 222.79"><defs><style>.cls-1{fill:#afa0c9;}.cls-2{fill:#584f7f;}</style></defs><g id="Layer_1-2"><g><g><path class="cls-2" d="M128.97,174.96c2.68,2.53,6.29,3.02,9.61,3.09,3.85,.08,7.61-1.84,10.42-4.94,1.39-1.53-.68-4.01-2.07-2.48-2.25,2.48-5.28,3.97-8.35,3.91-2.41-.05-5.57-.21-7.54-2.06-1.47-1.38-3.55,1.09-2.07,2.48Z"/><g><path class="cls-2" d="M146.11,184.19c1.11-1.83-1.43-3.58-2.53-1.77-1.71,2.8-7.97,3.62-9.11-.25-.62-2.12-3.45-1.21-2.83,.93,2.05,6.98,11.23,6.4,14.47,1.09Z"/><path class="cls-2" d="M231.64,115.28c-.1-.44-.22-.88-.35-1.31-2.06-6.63-7.97-11.45-13.84-10.63-1.43,.2-3.13,.59-4.1-.68-.68-.89-.67-2.24-.62-3.45,.26-6.29,.52-12.58,.78-18.88,.12-3-.64-7.15-3.14-6.98-2.22,.14-2.91,3.63-2.98,6.3-.16,6.4-.32,12.8-.48,19.2-.1,4.1,.2,9.08,3.24,10.98,2.6,1.62,5.75,0,8.67,.34,5.35,.63,8.67,8.59,6.8,14.63-1.87,6.04-7.56,9.55-12.94,9.33-2.5-.1-5.81-.32-6.65,2.51-.26,.87-.17,1.82-.1,2.73,2.23,28.55-12.32,57.34-33.76,70.11-8.59,5.11-18.21,6.88-27.77,6.1-7.3-.6-14.46-2.23-20.98-6.22-22.33-13.7-36.68-45-32.74-74.68,.16-1.24,.35-2.57-.1-3.7-.92-2.33-3.63-2.27-5.78-2.33-5.46-.15-11.1-4-12.75-10.23-1.65-6.24,2.16-14.13,7.62-14.22,2.67-.04,5.38,1.6,7.92,.63,3.79-1.44,4.6-7.31,4.75-12.06,.18-5.73,.36-11.47,.54-17.2,.06-1.78,.09-3.65-.59-5.23-.68-1.58-2.36-2.7-3.69-1.92-1.4,.82-1.64,3.05-1.7,4.92-.2,6.92-.4,13.84-.59,20.76-.04,1.36-.23,3-1.27,3.55-.69,.37-1.49,.08-2.22-.14-14.05-4.19-22.18,18.12-13.24,29.78,3.87,5.05,9.56,7.63,15.22,8.67-3.31,28.2,7.81,58.13,27.52,74.06,19.72,15.93,47.05,17.08,67.65,2.85,20.6-14.23,33.45-43.15,31.8-71.56,5.91,.24,11.98-2.38,15.97-7.59,3.73-4.88,5.4-12.08,3.92-18.41Z"/></g></g><path class="cls-2" d="M284.55,171.57c-2.99-.49-6.29,.65-8.74-2.23-2.22-2.59-3.17-7.14-2.84-10.97,.63-7.24,3.86-12.52,1.56-19.93-1.73-5.61-5.42-9.56-8.69-13.55-3.97-4.85-7.27-9.62-6.96-17.32,.31-7.79,2.75-15.24,2.3-23.11-.19-3.34-.87-6.47-2.15-9.35-1.53-3.47-4.04-6.42-4.99-10.31-1.03-4.2-.14-8.99-.45-13.33-.23-3.27-.88-6.42-1.89-9.4-4.25-12.54-14.5-20.3-24.42-22.21-6.84-1.32-13.95,1.02-20.68-1.33-6.09-2.14-10.34-9.2-16.33-11.78-6.41-2.76-13.27-.11-19.58,1.98-3.93,1.3-7.84,2.7-11.74,4.17-4.97-5.29-10.36-9.68-16.7-11.73-5.57-1.79-11.47-1.73-16.82,1.33-5.39,3.08-9.45,8.83-14.21,13.2-10.2,9.35-22.02,.77-32.72,7.02-11.04,6.45-8.79,22.82-14.29,34.34-5.52,11.54-18.78,8.24-25.3,18.74-7.27,11.71,1.11,30.7-9.91,38.95-6.66,4.99-16.85,7.03-18.6,18.83-.53,3.55,.13,6.94,.47,10.45,.44,4.68-.98,7.7-3,11.35-3.25,5.87-8.88,13.44-7.71,20.71,2.71,16.9,17.87,5.78,26.44,5.53,13.44-.39,22.86,12.23,35.95,13.48,3.03,.29,6.06,.03,9.09,.2,3.03,.17,6.04,.6,9.04,1.18,2.15,.41,4.29,.9,6.44,1.41,6.04,.48,12.07,1.48,18.04,2.51-14.08-16.36-21.43-40.78-18.68-64.18l.23-2-1.66-.31c-4.29-.79-10.23-2.83-14.22-8.03-3.59-4.69-4.32-11.81-1.88-18.16,2.18-5.65,6.24-8.9,10.87-8.71,.84,.04,1.71,.19,2.59,.45l.16,.05c.46,.14,.99,.3,1.56,.32,.58,.02,1.11-.09,1.59-.35,2.16-1.15,2.25-4.31,2.28-5.35l.02-.64h0c.55,.24,1.1,.44,1.67,.6,.87,.25,1.72,.37,2.55,.41h0c4.68,.22,8.77-2.53,13.33-4.38,7.01-2.85,13.08,2.87,19.88,4.3,7.02,1.48,13.27-.43,20.05-2.63,3.51-1.14,6.93-1.83,10.47-.6,2.99,1.04,5.74,2.92,8.57,4.48,5.14,2.83,10.12,4.04,15.48,1.38,2.51-1.25,4.8-3.14,7.35-4.25,3.55-1.54,6.68-.17,10.02,1.43,2.48,1.19,4.98,2.23,7.51,2.73,.11,.02,.22,.04,.33,.06,.57,.1,1.14,.18,1.71,.22,1.37,.1,2.76,.01,4.16-.32l-.09,2.17c-.05,1.17-.14,3.35,1.07,4.93,.74,.98,1.79,1.5,3.11,1.56,.72,.03,1.44-.07,2.07-.17l.38-.05c.48-.07,.97-.09,1.47-.07,4.51,.19,8.96,4.14,10.58,9.38,.12,.38,.22,.76,.31,1.15,1.29,5.52-.1,11.99-3.53,16.48-3.49,4.57-8.97,7.16-14.65,6.93l-1.89-.07,.13,2.26c1.18,20.33-5.17,40.79-16.57,55.74,6.03,1.59,12.02,2.78,18.21,1.99,6.4-.82,12.59-3.15,18.77-5.49,6.36-2.41,12.86-5.06,19.5-5.42,6.87-.38,12.4,2.67,18.52,6.32,5.31,3.17,11.51,5.53,17.17,2.24,4.13-2.4,6.82-7.6,6.79-13.66-.03-6.28-3.29-10.82-7.89-11.59Z"/><path class="cls-2" d="M139.43,145c-1.05,1.04-2.33,2.01-3.61,2.59-.14,.06-.32,.11-.5,.16,.12-.82,.28-1.63,.5-2.41,1.38-5.44,4.07-12.02,7.04-16.48,2.4-3.6-2.67-7.4-5.05-3.83-2.69,4.03-4.45,9.19-6.26,13.85-1.43,3.67-3.47,9.39-1.65,13.36,2.93,6.37,10.36,1.22,13.59-1.97,2.97-2.94-1.12-8.17-4.07-5.24Z"/><path class="cls-2" d="M172.51,123.53c-5.48-3.42-9.37,7.73-4.31,10.99,1.32,.85,2.85,1.03,4.22,.23,1.48-.85,2.09-2.61,2.33-4.45,.2-1.53,.11-3.16-.42-4.51-.37-.94-.96-1.74-1.82-2.27Z"/><path class="cls-2" d="M113.63,121.33c-5.48-3.42-9.37,7.73-4.31,10.99,1.32,.85,2.85,1.03,4.22,.23,1.48-.85,2.1-2.61,2.33-4.45,.2-1.53,.11-3.16-.42-4.51-.37-.94-.96-1.74-1.82-2.27Z"/><path class="cls-1" d="M216.72,100.9c3.38-1.71,6.78-3.32,10.16-5.07,.95-.49,3.22-1.17,3.85-2.13,.67-1.02,.8-2.4,.31-3.86-.49-1.45-.97-2.89-1.46-4.34-.43-1.27-1.7-1.94-2.86-1.86-1.4,.09-3.66,2.17-4.88,3-6.5,4.38-11.66,7.14-18.2,11.45-.33,.22-.67,.44-.9,.8-1.21,1.86,2.35,4.95,3.29,6.03,.17,.19,.34,.39,.55,.5,1.31,.69,2.02-.08,3.15-.74,2.3-1.35,4.64-2.58,6.99-3.77Z"/><g><path class="cls-1" d="M173.72,162.24c-2.04-2.11-4.78,1.68-2.74,3.8,2.04,2.11,4.78-1.68,2.74-3.8Z"/><path class="cls-1" d="M177.67,156.33c-1.13-1.17-2.66,.93-1.52,2.11,1.13,1.17,2.66-.93,1.52-2.11Z"/><path class="cls-1" d="M178.51,168.67c-1.13-1.17-2.66,.93-1.52,2.11,1.13,1.17,2.66-.93,1.52-2.11Z"/><path class="cls-1" d="M169.08,171.14c.06-.17,.08-.34,.06-.53,0-.19-.05-.36-.13-.51-.06-.17-.15-.32-.27-.44l-.26-.2c-.19-.1-.38-.15-.58-.13-.1,.02-.19,.05-.29,.07-.2,.08-.37,.22-.5,.41l-.08,.11c-.11,.14-.18,.3-.22,.48-.06,.17-.08,.34-.06,.53,0,.19,.05,.36,.13,.51,.06,.17,.15,.32,.27,.44l.26,.2c.19,.1,.38,.15,.58,.13l.29-.07c.2-.08,.37-.22,.5-.41l.08-.11c.11-.14,.18-.3,.22-.48Z"/><path class="cls-1" d="M167.64,157.61c-1.13-1.17-2.66,.93-1.52,2.11,1.13,1.17,2.66-.93,1.52-2.11Z"/><path class="cls-1" d="M164.71,165.97c.02-.07,.03-.14,.03-.21,0-.07-.02-.14-.05-.2-.02-.07-.06-.13-.11-.18l-.1-.08c-.07-.04-.15-.06-.23-.05l-.12,.03c-.08,.03-.15,.09-.2,.16l-.06,.08c-.04,.06-.07,.12-.09,.19-.02,.07-.03,.14-.03,.21,0,.07,.02,.14,.05,.2,.02,.07,.06,.13,.11,.18l.1,.08c.07,.04,.15,.06,.23,.05l.12-.03c.08-.03,.15-.09,.2-.16l.06-.08c.04-.06,.07-.12,.09-.19Z"/><path class="cls-1" d="M171.98,155.12c-.45-.47-1.06,.37-.61,.84,.45,.47,1.06-.37,.61-.84Z"/><path class="cls-1" d="M179.8,163.07c-.45-.47-1.06,.37-.61,.84,.45,.47,1.06-.37,.61-.84Z"/><path class="cls-1" d="M173.22,173.94c.02-.07,.03-.14,.03-.21,0-.07-.02-.14-.05-.2-.02-.07-.06-.13-.11-.18l-.1-.08c-.07-.04-.15-.06-.23-.05l-.12,.03c-.08,.03-.15,.09-.2,.16l-.06,.08c-.04,.06-.07,.12-.09,.19-.02,.07-.03,.14-.03,.21,0,.07,.02,.14,.05,.2,.02,.07,.06,.13,.11,.18l.1,.08c.07,.04,.15,.06,.23,.05l.12-.03c.08-.03,.15-.09,.2-.16l.06-.08c.04-.06,.07-.12,.09-.19Z"/></g><g><path class="cls-1" d="M109.73,156.33c-2.04-2.11-4.78,1.68-2.74,3.8,2.04,2.11,4.78-1.68,2.74-3.8Z"/><path class="cls-1" d="M113.68,150.42c-1.13-1.17-2.66,.93-1.52,2.11,1.13,1.17,2.66-.93,1.52-2.11Z"/><path class="cls-1" d="M114.52,162.76c-1.13-1.17-2.66,.93-1.52,2.11,1.13,1.17,2.66-.93,1.52-2.11Z"/><path class="cls-1" d="M105.09,165.22c.06-.17,.08-.34,.06-.53,0-.19-.05-.36-.13-.51-.06-.17-.15-.32-.27-.44l-.26-.2c-.19-.1-.38-.15-.58-.13-.1,.02-.19,.05-.29,.07-.2,.08-.37,.22-.5,.41l-.08,.11c-.11,.14-.18,.3-.22,.48-.06,.17-.08,.34-.06,.53,0,.19,.05,.36,.13,.51,.06,.17,.15,.32,.27,.44l.26,.2c.19,.1,.38,.15,.58,.13l.29-.07c.2-.08,.37-.22,.5-.41l.08-.11c.11-.14,.18-.3,.22-.48Z"/><path class="cls-1" d="M103.65,151.7c-1.13-1.17-2.66,.93-1.52,2.11,1.13,1.17,2.66-.93,1.52-2.11Z"/><path class="cls-1" d="M100.73,160.06c.02-.07,.03-.14,.03-.21,0-.07-.02-.14-.05-.2-.02-.07-.06-.13-.11-.18l-.1-.08c-.07-.04-.15-.06-.23-.05l-.12,.03c-.08,.03-.15,.09-.2,.16l-.06,.08c-.04,.06-.07,.12-.09,.19-.02,.07-.03,.14-.03,.21,0,.07,.02,.14,.05,.2,.02,.07,.06,.13,.11,.18l.1,.08c.07,.04,.15,.06,.23,.05l.12-.03c.08-.03,.15-.09,.2-.16l.06-.08c.04-.06,.07-.12,.09-.19Z"/><path class="cls-1" d="M107.99,149.21c-.45-.47-1.06,.37-.61,.84,.45,.47,1.06-.37,.61-.84Z"/><path class="cls-1" d="M115.81,157.16c-.45-.47-1.06,.37-.61,.84,.45,.47,1.06-.37,.61-.84Z"/><path class="cls-1" d="M109.24,168.03c.02-.07,.03-.14,.03-.21,0-.07-.02-.14-.05-.2-.02-.07-.06-.13-.11-.18l-.1-.08c-.07-.04-.15-.06-.23-.05l-.12,.03c-.08,.03-.15,.09-.2,.16l-.06,.08c-.04,.06-.07,.12-.09,.19-.02,.07-.03,.14-.03,.21,0,.07,.02,.14,.05,.2,.02,.07,.06,.13,.11,.18l.1,.08c.07,.04,.15,.06,.23,.05l.12-.03c.08-.03,.15-.09,.2-.16l.06-.08c.04-.06,.07-.12,.09-.19Z"/></g></g></g></svg>