<?xml version="1.0" encoding="UTF-8"?><svg id="Layer_2" xmlns="http://www.w3.org/2000/svg" viewBox="0 0 175.8 227.35"><defs><style>.cls-1{fill:#584f7f;}</style></defs><g id="Layer_1-2"><g><g><path class="cls-1" d="M77.66,183.04c2.29,.96,4.81,.95,7.25,.94,2.54-.01,5.09-.24,7.55-.87,1.92-.48,1.1-3.45-.82-2.97-3.91,.99-9.36,1.52-13.17-.07-1.82-.76-2.62,2.21-.82,2.97Z"/><g><path class="cls-1" d="M81.26,189c1.85,.3,3.63,.11,5.49,.05,1.97-.06,1.98-3.13,0-3.08-1.54,.04-3.14,.31-4.67,.05-.83-.14-1.65,.22-1.89,1.07-.21,.73,.26,1.76,1.07,1.89Z"/><path class="cls-1" d="M163.75,109.03l-.64-.21,1.19-30.97c.06-1.58,.13-3.38-.53-4.84-.51-1.14-1.58-1.98-2.61-2.04-.2-.01-.4,0-.59,.05-1.81,.44-2.32,3.12-2.43,5.29l-1.49,30.46c-.14,2.82-.01,6.23,2.22,7.58,.74,.45,1.64,.62,2.6,.81,.8,.15,1.63,.31,2.43,.65,1.73,.72,3.02,2.06,3.75,3.9,1.46,3.66,.45,8.37-.86,11.29-.58,1.29-1.29,2.58-2.6,3.26-.71,.37-1.51,.53-2.44,.46-.89-.06-1.77-.3-2.63-.54-.39-.11-.79-.22-1.17-.3-.29-.07-.57-.11-.83-.13-2.8-.18-3.3,2.65-3.72,6.67-.1,.97-.19,1.89-.36,2.66-2.16,9.93-3.63,19.6-5.18,29.84-.25,1.67-.51,3.35-.78,5.11-1.39,9.44-2.97,20.14-11.17,26.29-7.84,5.88-18.78,9.71-29.32,13.12-4.59,1.49-8.8,2.5-12.84,3.1h-.19c-.3-.01-.56,0-.82,.04-1.36,.23-2.78,.39-4.22,.49l-.38,.02c-.27,.02-.55,.02-.82,.03h-.24c-.48,.02-.96,.03-1.44,.03h-.42c-.54-.01-1.07-.02-1.62-.05-.22-.01-1.27-.08-1.27-.08-.22-.01-.45-.03-.67-.05-.54-.05-1.07-.11-1.6-.17l-.42-.05c-.47-.06-.95-.14-1.43-.21l-.24-.04c-.27-.04-.54-.09-.8-.14l-.39-.08c-1.41-.28-2.79-.63-4.11-1.03-.25-.08-.51-.12-.81-.14h-.1l-.09-.03c-3.94-1.12-7.97-2.68-12.33-4.76-10-4.77-20.35-10-27.34-16.85-7.32-7.17-7.48-17.98-7.63-27.61-.04-1.7-.07-3.4-.1-5.09-.19-10.35-.38-20.14-1.22-30.26-.06-.78-.04-1.7,0-2.68,.12-4.04-.01-6.91-2.81-7.1-.26-.02-.54-.01-.84,.01-.39,.04-.8,.09-1.2,.15-.88,.12-1.78,.25-2.67,.19-.93-.06-1.7-.32-2.36-.78-1.2-.85-1.74-2.22-2.15-3.58-.91-3.07-1.3-7.87,.62-11.3,.97-1.73,2.43-2.9,4.23-3.38,.84-.22,1.68-.27,2.5-.32,.97-.06,1.89-.11,2.68-.46,2.39-1.05,2.96-4.41,3.19-7.23l2.52-30.39c.18-2.17,.03-4.89-1.71-5.57-.18-.07-.38-.11-.58-.13-1.02-.07-2.2,.63-2.85,1.68-.84,1.36-1.01,3.15-1.16,4.73l-2.88,30.85-.66,.13c-7.39,1.41-13.39,8.69-13.38,16.21,.01,7.53,6.04,14.78,13.44,16.17l.73,.14v.74c.04,3.53,.05,7.06,.06,10.59,.04,10.32,.09,20.98,.54,31.45,.42,9.66,1.96,20.54,10.27,28.06,8.33,7.53,19.76,13.32,29.84,18,5.64,2.61,11.21,4.48,16.57,5.54l.18,.04c.45,.09,.9,.17,1.36,.25,.47,.08,.94,.16,1.41,.23l.46,.06c.59,.08,1.18,.16,1.77,.22l.67,.06c.45,.04,.89,.08,1.4,.11h.06c.45,.03,.9,.05,1.34,.07l.67,.03c.59,.02,1.19,.02,1.78,.02h.46c.48-.01,.95-.03,1.43-.05,.46-.02,.92-.04,1.44-.07h.13c5.44-.36,11.21-1.48,17.14-3.33,10.61-3.31,22.7-7.55,31.95-13.93,9.23-6.36,12.19-16.95,13.86-26.47,1.82-10.31,3.26-20.87,4.65-31.09,.48-3.51,.96-7.01,1.45-10.51l.1-.73,.74-.04c7.51-.41,14.44-6.81,15.44-14.26,1-7.46-4-15.46-11.14-17.83Z"/></g></g><path class="cls-1" d="M174.74,61.44c-.36-2.97-.82-5.94-1.38-8.88-1.8-9.59-4.7-19.21-10.49-27.06-6.64-9-16.59-15-26.76-19.67-5.61-2.58-11.47-4.84-17.61-5.51-6.14-.67-12.65,.38-17.68,3.96-1.32,.94-2.69,2.1-4.31,2.06-1.95-.05-3.36-1.77-4.85-3.02-4.71-3.95-11.59-3.68-17.65-2.68C39.98,6.26,8.62,27.36,2.07,62.76-.3,75.56-.09,88.68,.12,101.7c.06,3.51,.66,7.83,3.96,9.04,4.28,1.56,8.08-3.77,12.62-4.17,1.46-.13,3.03,.25,4.33-.42,.92-.48,1.53-1.41,2.42-1.93,2.09-1.21,4.64,.21,7,.73,6.32,1.38,12.01-3.99,18.31-5.46,3.72-.87,7.92-.44,11.04-2.65,.21,2.9,2.31,5.58,5.08,6.48s6.04-.05,7.91-2.28c2.52,1.54-1.64,5.41-.66,8.2,.58,1.67,2.71,2.11,4.48,2.13,7.75,.11,15.51-2.75,21.33-7.88,2.99,3.84,8.12,5.53,12.98,5.36,4.86-.17,9.51-1.97,13.9-4.07,3.69-1.76,7.86-3.79,11.67-2.32,1.78,.69,3.19,2.05,4.63,3.3,4.64,3.98,10.14,6.96,16.01,8.67,3.87,1.13,8.37,1.6,11.65-.75,3.15-2.25,4.2-6.39,4.87-10.21,2.44-13.86,2.81-28.08,1.1-42.05Z"/><path class="cls-1" d="M56.78,112.17c-.36-.83-.96-1.55-1.85-2.05-5.65-3.16-10.03,6.48-4.8,9.49,1.36,.78,2.96,.99,4.42,.34,1.58-.7,2.26-2.22,2.56-3.82,.24-1.33,.2-2.76-.33-3.96Z"/><path class="cls-1" d="M123.08,116.53c-.36-.83-.96-1.55-1.85-2.05-5.65-3.16-10.03,6.48-4.8,9.49,1.36,.78,2.96,.99,4.42,.34,1.58-.7,2.26-2.22,2.56-3.82,.24-1.33,.2-2.76-.33-3.96Z"/><path class="cls-1" d="M88.88,157.17c-1.1,.19-2.26,.46-3.38,.45-2.46-.02-2.82-1.79-2.53-3.97,.23-1.72,1-3.4,1.19-5.21,.54-5.27,.7-10.6,1.04-15.89,.67-10.33,1.34-20.67,2.01-31,.26-4.03-6-4.45-6.26-.41-.94,14.47-1.87,28.94-2.81,43.4-.13,2.02-.19,3.88-.79,5.82-.42,1.37-1.22,2.69-1.51,4.09-.41,1.99,.11,3.94,1.26,5.58,3.03,4.32,8.41,4.08,13.04,3.27,3.98-.69,2.72-6.83-1.27-6.14Z"/><g><path class="cls-1" d="M119.07,133.01c-2.83,0-2.83,4.4,0,4.4,2.83,0,2.83-4.4,0-4.4Z"/><path class="cls-1" d="M126.29,133.49c-1.57,0-1.57,2.44,0,2.44s1.57-2.44,0-2.44Z"/><path class="cls-1" d="M120.22,141.59c-.05-.15-.13-.28-.25-.39-.11-.12-.24-.2-.39-.25-.15-.08-.3-.11-.47-.11l-.32,.04c-.21,.06-.39,.16-.54,.31l-.19,.25c-.11,.19-.17,.4-.17,.62v.12c0,.17,.03,.32,.11,.47,.05,.15,.13,.28,.25,.39,.11,.12,.24,.2,.39,.25,.15,.08,.3,.11,.47,.11l.32-.04c.21-.06,.39-.16,.54-.31l.19-.25c.11-.19,.17-.4,.17-.62v-.12c0-.17-.03-.32-.11-.47Z"/><path class="cls-1" d="M111.33,133.62c-1.57,0-1.57,2.44,0,2.44s1.57-2.44,0-2.44Z"/><path class="cls-1" d="M113.8,141.16c-.02-.06-.05-.11-.1-.16-.04-.05-.1-.08-.16-.1-.06-.03-.12-.04-.19-.04l-.13,.02c-.08,.02-.15,.07-.22,.13l-.08,.1c-.04,.08-.07,.16-.07,.25v.09c0,.07,.01,.13,.04,.19,.02,.06,.05,.11,.1,.16,.04,.05,.1,.08,.16,.1,.06,.03,.12,.04,.19,.04l.13-.02c.08-.02,.15-.07,.22-.13l.08-.1c.04-.08,.07-.16,.07-.25v-.09c0-.07-.01-.13-.04-.19Z"/><path class="cls-1" d="M125.12,140.6c-.02-.06-.05-.11-.1-.16-.04-.05-.1-.08-.16-.1-.06-.03-.12-.04-.19-.04l-.13,.02c-.08,.02-.15,.07-.22,.13l-.08,.1c-.04,.08-.07,.16-.07,.25v.09c0,.07,.01,.13,.04,.19,.02,.06,.05,.11,.1,.16,.04,.05,.1,.08,.16,.1,.06,.03,.12,.04,.19,.04l.13-.02c.08-.02,.15-.07,.22-.13l.08-.1c.04-.08,.07-.16,.07-.25v-.09c0-.07-.01-.13-.04-.19Z"/></g><g><path class="cls-1" d="M50.39,129.52c-2.83,0-2.83,4.4,0,4.4s2.83-4.4,0-4.4Z"/><path class="cls-1" d="M57.61,130c-1.57,0-1.57,2.44,0,2.44s1.57-2.44,0-2.44Z"/><path class="cls-1" d="M51.54,138.09c-.05-.15-.13-.28-.25-.39-.11-.12-.24-.2-.39-.25-.15-.08-.3-.11-.47-.11l-.32,.04c-.21,.06-.39,.16-.54,.31l-.19,.25c-.11,.19-.17,.4-.17,.62v.12c0,.17,.03,.32,.11,.47,.05,.15,.13,.28,.25,.39,.11,.12,.24,.2,.39,.25,.15,.08,.3,.11,.47,.11l.32-.04c.21-.06,.39-.16,.54-.31l.19-.25c.11-.19,.17-.4,.17-.62v-.12c0-.17-.03-.32-.11-.47Z"/><path class="cls-1" d="M42.65,130.12c-1.57,0-1.57,2.44,0,2.44s1.57-2.44,0-2.44Z"/><path class="cls-1" d="M45.12,137.67c-.02-.06-.05-.11-.1-.16-.04-.05-.1-.08-.16-.1-.06-.03-.12-.04-.19-.04l-.13,.02c-.08,.02-.15,.07-.22,.13l-.08,.1c-.04,.08-.07,.16-.07,.25v.09c0,.07,.01,.13,.04,.19,.02,.06,.05,.11,.1,.16,.04,.05,.1,.08,.16,.1,.06,.03,.12,.04,.19,.04l.13-.02c.08-.02,.15-.07,.22-.13l.08-.1c.04-.08,.07-.16,.07-.25v-.09c0-.07-.01-.13-.04-.19Z"/><path class="cls-1" d="M56.44,137.11c-.02-.06-.05-.11-.1-.16-.04-.05-.1-.08-.16-.1-.06-.03-.12-.04-.19-.04l-.13,.02c-.08,.02-.15,.07-.22,.13l-.08,.1c-.04,.08-.07,.16-.07,.25v.09c0,.07,.01,.13,.04,.19,.02,.06,.05,.11,.1,.16,.04,.05,.1,.08,.16,.1,.06,.03,.12,.04,.19,.04l.13-.02c.08-.02,.15-.07,.22-.13l.08-.1c.04-.08,.07-.16,.07-.25v-.09c0-.07-.01-.13-.04-.19Z"/></g></g></g></svg>