<?xml version="1.0" encoding="UTF-8"?><svg id="Layer_2" xmlns="http://www.w3.org/2000/svg" viewBox="0 0 200.75 238.86"><defs><style>.cls-1{fill:#afa0c9;}.cls-2{fill:#584f7f;}.cls-3{fill:#495ca5;}</style></defs><g id="Layer_1-2"><g><g><g><path class="cls-3" d="M77.98,143.24c-.83,4.22-1.35,9.2,2.41,12.24,3.3,2.67,7.85,1.94,11.73,1.47,4.02-.48,3.33-6.75-.71-6.27-1.89,.23-6.22,1.44-7.48-.62-.74-1.21-.19-3.28,.03-4.54,.32-1.84,.81-3.67,.99-5.54,.5-5.02,.79-10.03,1.43-15.04,.7-5.45,1.55-10.88,2.41-16.31,.63-4.01-5.6-5-6.23-.98-.99,6.3-1.98,12.61-2.73,18.95-.66,5.55-.78,11.15-1.86,16.64Z"/><g><path class="cls-3" d="M180.34,85.1c-.36-3.31-5.26-4.55-6.2-.84-.04,.18-.08,.35-.13,.53-.26,.07-.51,.18-.73,.34-.62-.68-1.47-1.13-2.74-1.18-1.1-.04-2.15,.34-3.01,.99-.96-.93-2.66-1-3.82-.3-1.1-.46-2.44-.31-3.35,.5h-.07c.57-3.62-5.12-5.05-6.17-1.27-1.19,4.32,.37,12.61,5.41,13.96,2.37,.64,14.02,.81,18.16,.71,2.13-.05,3.86-.9,3.99-3.04,.22-3.57-.98-6.9-1.36-10.41Z"/><g><path class="cls-3" d="M77.69,184.97c5.07,2.25,11.23,2.63,16.52,.9,5.04-1.65,10.2-4.39,12.75-9.25,1.07-2.05-2.04-3.88-3.11-1.82-4.14,7.9-16.63,10.48-24.34,7.06-2.1-.93-3.94,2.17-1.82,3.11Z"/><g><path class="cls-3" d="M79.73,194.13c5.46,1.25,11.26,2.66,16.4-.35,2-1.17,.19-4.29-1.82-3.11-4.21,2.47-9.19,1.01-13.62,0-2.26-.52-3.22,2.96-.96,3.48Z"/><path class="cls-2" d="M186.31,97.62l-.76-.2-1-36.31c-.05-1.86-.11-3.96-.99-5.62-.69-1.29-2-2.19-3.21-2.19-.23,0-.46,.03-.68,.1-2.09,.66-2.47,3.83-2.43,6.38l.6,35.73c.06,3.31,.47,7.29,3.18,8.7,.9,.47,1.97,.6,3.1,.74,.95,.12,1.93,.24,2.9,.57,2.07,.7,3.69,2.18,4.69,4.28,1.98,4.17,1.17,13.36-.14,16.87-.58,1.56-1.31,6.72-2.79,7.62-.81,.49-1.73,.73-2.82,.73s-2.1-.22-3.11-.43c-.47-.1-.94-.19-1.39-.27-.35-.05-.68-.08-.98-.08-3.28,0-3.66,3.35-3.83,8.09-.04,1.15-.08,2.23-.22,3.14-1.77,11.77-2.73,12.7-3.76,24.79-.17,1.98-.34,3.96-.51,5.95-.91,11.25-1.94,23.88-11.05,31.7-8.71,7.48-21.22,12.8-33.28,17.6-5.26,2.1-10.09,3.61-14.78,4.62l-.11,.02h-.11c-.35,0-.65,.03-.95,.1-1.58,.37-3.22,.67-4.89,.89l-.46,.06c-.31,.04-.63,.07-.94,.1l-.28,.03c-.57,.05-1.12,.1-1.68,.14l-.5,.03c-.63,.04-1.26,.06-1.89,.08-.27,0-.53,0-.79,0,0,0-1.23,0-1.49,0-.63-.01-1.26-.04-1.89-.08l-.49-.03c-.56-.04-1.12-.09-1.68-.14l-.28-.03c-.32-.03-.64-.06-.96-.1l-.44-.06c-1.68-.22-3.33-.52-4.9-.89-.3-.07-.6-.1-.95-.1h-.11l-.11-.02c-4.69-1.01-9.52-2.52-14.78-4.62-12.06-4.81-24.57-10.12-33.28-17.6-9.11-7.82-10.14-20.46-11.04-31.61-.18-2.08-.35-4.06-.51-6.04-.56-6.59-1.86-38.78-2.94-66.73,3.56-.44,6.59-1.73,6.93-5.05,.24-2.26-.48-4.49-.67-6.71-.27-3.18-.46-6.38-1.57-9.47-.67-1.86-3.44-2.67-5.58-2.07-.45-12.12-.75-20.45-.75-20.45,.04-2.55-.34-5.72-2.43-6.38-.22-.07-.45-.1-.68-.1-1.2,0-2.52,.9-3.2,2.19-.88,1.65-.94,3.76-.99,5.62,0,0,.35,8.9,.89,21.9-.27,.01-.54,.07-.78,.18-.88-1.25-3.19-1.39-3.63,.52-1.13,4.84-.07,10.35,.68,15.2,.47,3.05,2.09,4.84,4.61,5.35,1.35,31.91,3.11,71,3.88,78.02,1.23,11.26,3.88,23.88,14.18,32.03,10.32,8.17,24.13,14.06,36.29,18.75,6.8,2.62,13.46,4.37,19.79,5.21l.15,.02c.6,.08,1.14,.14,1.67,.2,.56,.06,1.12,.12,1.67,.16l.54,.04c.69,.05,1.39,.09,2.08,.12l.79,.02c.52,.01,1.05,.03,1.57,.03h.07c.59,0,1.12-.01,1.64-.03l.79-.02c.69-.03,1.39-.07,2.08-.12l.54-.04c.55-.05,1.11-.1,1.67-.16,.54-.06,1.08-.12,1.61-.19l.21-.03c6.35-.83,13.01-2.58,19.81-5.21,12.15-4.69,25.97-10.58,36.29-18.75,10.3-8.15,12.95-20.77,14.18-32.03,1.33-12.21,2.2-14.18,3.05-26.24,.29-4.13,.58-8.26,.88-12.39l.06-.86,.86-.1c8.76-1.05,16.37-12.68,16.96-21.48,.6-8.8-5.87-21.37-14.4-23.6Z"/></g></g><path class="cls-3" d="M190.42,85.69c-.29-3.62-4.92-4.19-6.2-.84-.5,1.3-.78,2.67-.98,4.05-2.35,.71-4.73,1.24-7.21,1.17-.71-.02-1.3,.16-1.76,.47-.1,0-.21,0-.31,0-4.06,0-4.07,6.31,0,6.31,4.66,0,9.1,1.77,13.77,1.81,1.75,.02,3.09-1.46,3.15-3.15,.13-3.28-.21-6.54-.47-9.8Z"/></g></g><path class="cls-3" d="M123,121.37c.49-.94,1.24-1.74,2.32-2.25,6.86-3.26,11.23,8.35,4.89,11.47-1.65,.81-3.54,.93-5.2,.05-1.79-.94-2.48-2.78-2.7-4.67-.18-1.58-.02-3.25,.69-4.61Z"/><path class="cls-3" d="M50.73,122.09c.49-.94,1.24-1.74,2.32-2.25,6.86-3.26,11.23,8.35,4.89,11.47-1.65,.81-3.54,.93-5.2,.05-1.79-.94-2.48-2.78-2.7-4.67-.18-1.58-.02-3.25,.69-4.61Z"/></g><path class="cls-1" d="M193.83,63.2c-.57-5.73-1.53-12.07-7.69-14.62-.82-.34-1.66-.63-2.51-.88-1.5-.45-3.05-.77-4.62-1.02-3.43-7.96-7.87-15.46-13.61-22.04-9.67-11.08-22.8-18.45-37.04-21.85-16.1-3.84-33.4-3.36-49.65-.73-14.68,2.37-29.1,7.49-40.78,16.9-8.51,6.86-14.63,15.75-18.66,25.61-2.12,.12-4.25,.24-6.37,.37h0c-1.61,.1-3.22,.2-4.82,.31-.61,.04-1.23,.08-1.84,.12C-2.22,45.95,.16,73.27,.78,77.31c.7,4.62,3.07,7.8,7,9.4,1.12,.45,2.36,.78,3.72,.98,.38,.05,.77,.1,1.15,.15,5.34,.6,11.03,.09,16.64-.44,1.46-.13,2.91-.27,4.34-.39,2-.17,3.97-.3,5.91-.34,2.01-.05,4.02-.08,6.03-.1,1.25-.02,2.5-.03,3.74-.04,5.67-.04,11.33,0,17,.07,1.41,.02,2.83,.04,4.25,.06,4.75,.08,9.49,.19,14.24,.32,1.3,.03,2.6,.07,3.89,.1,4.47,.13,8.93,.26,13.4,.4,1.42,.04,2.84,.09,4.27,.13,2.13,.06,4.27,.13,6.4,.19,3.84,.11,7.75,.27,11.7,.46,1.53,.07,3.06,.14,4.6,.22h0c5.16,.25,10.38,.5,15.61,.69,1.46,.05,2.92,.1,4.38,.14,4.85,.14,9.7,.2,14.51,.12,1.72-.02,3.43-.07,5.14-.14,3.38-.13,6.74-.34,10.05-.65,1.84-.17,3.66-.37,5.47-.61,.89-.11,1.78-.24,2.66-.37,5.79-.88,7.19-5.45,7.61-10.46,.4-4.7-.18-9.33-.65-14Z"/><path class="cls-3" d="M12.65,87.84c-.39-.04-.77-.09-1.15-.15-1.37-.2-2.6-.53-3.72-.98-.78-1.9-.7-4.29-.82-6.2-.28-4.36-.5-8.68-.42-13.05,.09-4.84,.18-9.7,.34-14.54,.08-2.53-.11-5.48,1.22-7.68,.33-.55,.76-1.05,1.31-1.49,1.4-1.1,3.2-.09,3.51,1.18h0c.14,.57-.01,1.19-.65,1.69-2.1,1.66-1.37,6.53-1.39,8.93-.04,3.97-.21,7.93-.29,11.91-.07,3.88,0,7.77,.31,11.65,.15,1.83-.36,5.5,1.2,6.75,.73,.59,.82,1.34,.55,1.97Z"/><path class="cls-3" d="M30.29,52.91c.31,4.23,.27,8.33,.19,12.56-.09,4.39,.02,8.79,.42,13.17,.09,1.02,.14,2.05,.28,3.07,.08,.59,.18,1.2,.36,1.78,.09,.28,.55,.98,.17,.93,1.42,.17,2.06,1.5,1.91,2.6-1.44,.12-2.89,.26-4.34,.39-1.56-1.41-1.97-3.93-2.2-6.14-.51-4.97-.74-9.95-.67-14.94,.04-2.95,.29-5.89,.15-8.84-.13-2.78-.51-5.54-.5-8.32,0-2.02,.39-3.68,1.25-5.01h0c.84-1.3,2.14-2.29,4.03-2.97,1.79-.65,2.84,1.25,2.33,2.68-.18,.53-.59,.99-1.25,1.23-3.25,1.19-2.34,5.01-2.14,7.83Z"/><path class="cls-3" d="M49.45,85.75c0,.29-.05,.55-.14,.78-1.25,0-2.5,.02-3.74,.04-.11-.23-.17-.51-.18-.82-.05-3.29-.48-6.57-.58-9.86-.1-3.55-.03-7.1,.08-10.64,.23-7.3-.3-14.53-.36-21.82,0-.16,0-.32,0-.47-.02-2.61,4.04-2.61,4.06,0,0,.12,0,.23,0,.35,.05,7.34,.58,14.6,.36,21.94-.11,3.55-.18,7.1-.08,10.64,.09,3.29,.53,6.57,.58,9.86Z"/><g><path class="cls-3" d="M66.72,85.24c-.42,.33-.35,.46-.22,.43,.06-.13,.14-.25,.24-.36,0-.02-.01-.05-.02-.07Z"/><path class="cls-3" d="M70.78,83.44c-.06-2.05-.28-4.09-.33-6.14-.17-6.06-.14-12.12-.11-18.19,.02-3.92-.06-7.87-.64-11.76-.21-1.38-.5-3.1-1.18-4.5-.68-1.41-1.75-2.51-3.5-2.63-1.66-.11-2.26,1.49-1.8,2.71,.23,.61,.72,1.13,1.47,1.29,.04,.02,.15,.13,.18,.4,.04,.44,.34,.96,.45,1.39,.39,1.5,.56,3.05,.68,4.59,.25,3.07,.28,6.15,.26,9.23-.03,5.1-.04,10.21,.06,15.31,.04,2.04,.12,4.07,.26,6.11,.06,.88,.12,1.77,.13,2.66,0,.23-.12,1.09-.02,1.3,0,0,0,0,0,.01,.13-.11,.31-.23,.56-.38-.22,.13-.4,.28-.54,.45,.05,.21-.12,.34-.23,.36-.15,.29-.2,.61-.19,.93,1.41,.02,2.83,.04,4.25,.06,.31-1.02,.25-2.23,.22-3.22Z"/></g><path class="cls-3" d="M88.97,61.1c0,8.45-.18,16.89-.18,25.34,0,.24-.03,.46-.09,.65-1.3-.04-2.6-.07-3.89-.1-.05-.17-.07-.35-.07-.55,0-7.85,.12-15.7,.17-23.56,.02-3.72,.03-7.44-.14-11.15-.11-2.45,.19-5.67-1.31-7.75-.3-.41-.41-.83-.36-1.21,.14-1.55,2.65-2.53,3.87-.84,.19,.27,.36,.55,.52,.85,1.1,2.14,1.14,4.82,1.25,7.15,.18,3.72,.23,7.44,.23,11.17Z"/><path class="cls-3" d="M105.89,50.47c0,3.94-.2,7.88-.18,11.81,.02,4.24,.27,8.49,.24,12.73-.01,3.25-.81,6.89-.23,10.15,.67,.57,1.01,1.6,.65,2.45-1.42-.04-2.84-.09-4.27-.13h0c-1.3-4.22-.19-8.99-.2-13.32-.02-4.83-.26-9.66-.24-14.49,0-3.85,.14-7.7,.13-11.55,0-1.52,0-3.64,.75-5.2,.36-.75,.89-1.37,1.68-1.73,1.55-.71,2.97,.56,3.09,1.82,.06,.65-.23,1.31-1.04,1.68-.92,.43-.37,4.7-.36,5.76Z"/><path class="cls-3" d="M129.06,88.48h0c-1.54-.08-3.07-.15-4.6-.22-.04-.68,.24-1.35,.93-1.69,.06-.23,.1-.45,.12-.68,.08-.63,.08-1.28,.08-1.91,0-1.06-.06-2.12-.12-3.18-.24-4.34-.56-8.68-.82-13.02-.28-4.64-.15-9.25-.29-13.89-.05-1.72-.17-3.44-.26-5.15-.06-1.25-.02-3.01-1.27-3.68-.73-.39-1.02-1.01-1.01-1.64,.03-1.34,1.49-2.71,3.06-1.87,.97,.52,1.64,1.23,2.11,2.05h0c1.27,2.18,1.11,5.18,1.27,7.68,.36,5.78,.14,11.57,.49,17.36,.29,4.72,.73,9.44,.86,14.17,.05,1.49,.18,3.97-.56,5.68Z"/><path class="cls-3" d="M149.14,88.77c0,.19-.03,.37-.09,.55-1.46-.04-2.92-.09-4.38-.14-.07-.57,.08-1.17,.43-1.64,.14-7.51-.09-15.03-.16-22.54-.03-3.7,.16-7.4,.1-11.1-.04-2.4,.3-6.79-1.42-8.7-.25-.27-.41-.57-.48-.87-.47-1.79,1.85-3.66,3.35-2,.63,.7,1.09,1.46,1.41,2.26h0c.73,1.78,.86,3.75,.99,5.75,.27,4.02,.08,8,.09,12.03,.04,8.8,.36,17.61,.16,26.41Z"/><path class="cls-3" d="M170.42,67.05c-.46,4.87-.83,9.76-.87,14.65-.01,2.03,.16,4.14-.25,6.15-.13,.62-.34,1.06-.61,1.45-1.71,.07-3.42,.11-5.14,.14,.06-.18,.17-.37,.31-.56,1.06-1.38,1.55-1.64,1.62-3.51,.07-1.96,0-3.92,.05-5.88,.11-4.15,.44-8.3,.82-12.43,.4-4.28,.51-8.48,.34-12.78-.14-3.33-1.75-5.63-3.69-8.22-.13-.18-.23-.35-.29-.52-.7-1.87,2.37-3.41,3.79-1.52,.45,.6,.89,1.21,1.3,1.82,1.51,2.23,2.67,4.55,2.9,7.37,.37,4.61,.14,9.26-.29,13.86Z"/><path class="cls-3" d="M185.07,70.86c-.06,4.58-.12,9.18-.38,13.76-.06,1.07-.17,2.29-.48,3.42-1.81,.24-3.63,.44-5.47,.61,.23-.41,.62-.73,1.2-.88,1.04-.27,.75-5.2,.78-6.23,.14-4.13,.26-8.25,.3-12.38,.04-4.19,.02-8.39-.12-12.58-.1-2.86,.03-6.82-2.03-9.07-.26-.29-.42-.59-.5-.91-.43-1.77,1.87-3.6,3.37-1.96,.84,.91,1.45,1.96,1.89,3.08,.93,2.33,1.15,4.98,1.27,7.46,.26,5.22,.23,10.47,.16,15.69Z"/><g><path class="cls-1" d="M140.4,161.25c-2.51-2.17-5.88,1.73-3.37,3.9,2.51,2.17,5.88-1.73,3.37-3.9Z"/><path class="cls-1" d="M145.26,155.18c-1.39-1.2-3.27,.96-1.87,2.17,1.39,1.2,3.27-.96,1.87-2.17Z"/><path class="cls-1" d="M146.28,167.85c-1.39-1.2-3.27,.96-1.87,2.17,1.39,1.2,3.27-.96,1.87-2.17Z"/><path class="cls-1" d="M134.69,170.38c.07-.17,.1-.35,.08-.54,0-.19-.06-.37-.15-.53-.07-.18-.18-.33-.34-.45l-.32-.21c-.23-.11-.47-.15-.72-.13-.12,.02-.24,.05-.36,.07-.24,.08-.45,.22-.62,.42l-.1,.11c-.13,.14-.22,.31-.27,.5-.07,.17-.1,.35-.08,.54,0,.19,.06,.37,.15,.53,.07,.18,.18,.33,.34,.45l.32,.21c.23,.11,.47,.15,.72,.13l.36-.07c.24-.08,.45-.22,.62-.42l.1-.11c.13-.14,.22-.31,.27-.5Z"/><path class="cls-1" d="M132.92,156.49c-1.39-1.2-3.27,.96-1.87,2.17,1.39,1.2,3.27-.96,1.87-2.17Z"/><path class="cls-1" d="M129.32,165.08c.03-.07,.04-.14,.03-.22,0-.08-.02-.15-.06-.21-.03-.07-.07-.13-.13-.18l-.13-.08c-.09-.04-.19-.06-.29-.05l-.14,.03c-.1,.03-.18,.09-.25,.17l-.07,.08c-.05,.06-.09,.12-.11,.2-.03,.07-.04,.14-.03,.22,0,.08,.02,.15,.06,.21,.03,.07,.07,.13,.13,.18l.13,.08c.09,.04,.19,.06,.29,.05l.14-.03c.1-.03,.18-.09,.25-.17l.07-.08c.05-.06,.09-.12,.11-.2Z"/><path class="cls-1" d="M138.26,153.94c-.56-.48-1.31,.38-.75,.87,.56,.48,1.31-.38,.75-.87Z"/><path class="cls-1" d="M147.87,162.1c-.56-.48-1.31,.38-.75,.87,.56,.48,1.31-.38,.75-.87Z"/><path class="cls-1" d="M139.79,173.26c.03-.07,.04-.14,.03-.22,0-.08-.02-.15-.06-.21-.03-.07-.07-.13-.13-.18l-.13-.08c-.09-.04-.19-.06-.29-.05l-.14,.03c-.1,.03-.18,.09-.25,.17l-.07,.08c-.05,.06-.09,.12-.11,.2-.03,.07-.04,.14-.03,.22,0,.08,.02,.15,.06,.21,.03,.07,.07,.13,.13,.18l.13,.08c.09,.04,.19,.06,.29,.05l.14-.03c.1-.03,.18-.09,.25-.17l.07-.08c.05-.06,.09-.12,.11-.2Z"/></g><g><path class="cls-1" d="M50.21,160.02c-2.51-2.17-5.88,1.73-3.37,3.9,2.51,2.17,5.88-1.73,3.37-3.9Z"/><path class="cls-1" d="M55.07,153.95c-1.39-1.2-3.27,.96-1.87,2.17,1.39,1.2,3.27-.96,1.87-2.17Z"/><path class="cls-1" d="M56.09,166.62c-1.39-1.2-3.27,.96-1.87,2.17,1.39,1.2,3.27-.96,1.87-2.17Z"/><path class="cls-1" d="M44.5,169.15c.07-.17,.1-.35,.08-.54,0-.19-.06-.37-.15-.53-.07-.18-.18-.33-.34-.45l-.32-.21c-.23-.11-.47-.15-.72-.13-.12,.02-.24,.05-.36,.07-.24,.08-.45,.22-.62,.42l-.1,.11c-.13,.14-.22,.31-.27,.5-.07,.17-.1,.35-.08,.54,0,.19,.06,.37,.15,.53,.07,.18,.18,.33,.34,.45l.32,.21c.23,.11,.47,.15,.72,.13l.36-.07c.24-.08,.45-.22,.62-.42l.1-.11c.13-.14,.22-.31,.27-.5Z"/><path class="cls-1" d="M42.73,155.26c-1.39-1.2-3.27,.96-1.87,2.17,1.39,1.2,3.27-.96,1.87-2.17Z"/><path class="cls-1" d="M39.13,163.85c.03-.07,.04-.14,.03-.22,0-.08-.02-.15-.06-.21-.03-.07-.07-.13-.13-.18l-.13-.08c-.09-.04-.19-.06-.29-.05l-.14,.03c-.1,.03-.18,.09-.25,.17l-.07,.08c-.05,.06-.09,.12-.11,.2-.03,.07-.04,.14-.03,.22,0,.08,.02,.15,.06,.21,.03,.07,.07,.13,.13,.18l.13,.08c.09,.04,.19,.06,.29,.05l.14-.03c.1-.03,.18-.09,.25-.17l.07-.08c.05-.06,.09-.12,.11-.2Z"/><path class="cls-1" d="M48.07,152.71c-.56-.48-1.31,.38-.75,.87,.56,.48,1.31-.38,.75-.87Z"/><path class="cls-1" d="M57.68,160.87c-.56-.48-1.31,.38-.75,.87,.56,.48,1.31-.38,.75-.87Z"/><path class="cls-1" d="M49.6,172.02c.03-.07,.04-.14,.03-.22,0-.08-.02-.15-.06-.21-.03-.07-.07-.13-.13-.18l-.13-.08c-.09-.04-.19-.06-.29-.05l-.14,.03c-.1,.03-.18,.09-.25,.17l-.07,.08c-.05,.06-.09,.12-.11,.2-.03,.07-.04,.14-.03,.22,0,.08,.02,.15,.06,.21,.03,.07,.07,.13,.13,.18l.13,.08c.09,.04,.19,.06,.29,.05l.14-.03c.1-.03,.18-.09,.25-.17l.07-.08c.05-.06,.09-.12,.11-.2Z"/></g></g></g></svg>