<?xml version="1.0" encoding="UTF-8"?><svg id="Layer_2" xmlns="http://www.w3.org/2000/svg" viewBox="0 0 225.2 240.44"><defs><style>.cls-1{fill:#afa0c9;}.cls-2{fill:#95a2b8;}.cls-3{fill:#584f7f;}.cls-4{fill:#495ca5;}</style></defs><g id="Layer_1-2"><g><path class="cls-2" d="M111.39,129.09c-.92,.75-2.03,1.45-3.15,1.85-.12,.04-.28,.08-.43,.11,.11-.59,.26-1.18,.45-1.75,1.23-3.94,3.6-8.7,6.22-11.92,2.11-2.6-2.28-5.39-4.37-2.82-2.36,2.91-3.92,6.64-5.52,10.01-1.26,2.65-3.07,6.8-1.51,9.69,2.51,4.65,9,.96,11.83-1.34,2.6-2.12-.92-5.94-3.51-3.83Z"/><path class="cls-2" d="M140.27,113.73c-4.74-2.52-8.2,5.55-3.81,7.95,1.14,.63,2.47,.76,3.67,.2,1.29-.61,1.84-1.88,2.05-3.21,.18-1.11,.12-2.29-.34-3.28-.32-.68-.82-1.27-1.57-1.66Z"/><path class="cls-2" d="M89.09,111.73c-4.74-2.52-8.2,5.55-3.81,7.95,1.14,.63,2.47,.76,3.67,.2,1.29-.61,1.84-1.88,2.05-3.21,.18-1.11,.12-2.29-.34-3.28-.32-.68-.82-1.27-1.57-1.66Z"/><path class="cls-1" d="M202.85,115.76v.02c-.22,4.48-1.07,8.97-2.84,13.49-1.22,3.1-6.18,1.52-4.95-1.6,4.8-12.24,2.27-24.63-1.22-36.78,.17,1.87,.34,3.62,.54,5.24,.29,2.53-2.82,4.81-4.8,2.5-2.39-2.8-4.41-4.78-7.79-6.39-1.12-.53-2.24-1.08-3.36-1.63-1.49-.74-2.99-1.49-4.49-2.23-1.03-.5-2.05-.98-3.07-1.42-5.53-2.39-10.92-3.85-17.09-4.75-13.67-2.01-27.7-6.15-41.61-5.41-6.47,.34-13.23,1.27-19.54,2.7-6.74,1.51-12.62,4.66-18.77,7.66-3.66,1.79-7.38,3.37-11.15,4.85-1.74,.68-3.49,1.34-5.26,1.99-1.03,.38-2.06,.76-3.1,1.12-3.36,1.2-6.91,2.21-10.12,3.77-2.58,1.26-4.3,3.52-6.82,4.82-1.39,.71-2.66,.2-3.4-.74-.43-.12-.84-.33-1.18-.61-.24-.19-.45-.43-.61-.69h0c-.03-.05-.05-.1-.08-.15-.01-.02-.03-.05-.04-.07-.03-.05-.04-.1-.06-.15-.01-.04-.03-.07-.04-.11,0-.04-.02-.08-.03-.11,0-.03-.02-.05-.02-.08,0-.03-.01-.05-.02-.08,0-.03,0-.05-.02-.08,0-.03,0-.06-.01-.08,0-.02,0-.04,0-.05,0,0,0-.02,0-.03,0-.02,0-.04,0-.05h0c-.02-.34,.02-.71,.15-1.09,.08-.25,.16-.49,.24-.74,.02-.06,.03-.11,.05-.17h0v-.02l.02-.03v-.04c.15-.42,.28-.85,.41-1.27,.19-.61,.37-1.21,.55-1.82,.26-.85,.51-1.7,.77-2.56,.07-.25,.15-.49,.22-.74,.07-.25,.15-.49,.23-.74,.03-.1,.06-.19,.09-.29,.05-.15,.09-.3,.14-.45,.11-.34,.21-.67,.32-1.01,.11-.34,.22-.67,.33-1.01,.1-.31,.21-.61,.31-.91h0c.32-.91,.64-1.8,1-2.69,2.06-5.17,4.09-10.32,5.75-15.65,1.55-4.97,3.15-14.71,4.83-24.54,.31-1.78,.61-3.57,.93-5.32,.31-1.74,.62-3.44,.93-5.1,.14-.76,.29-1.52,.44-2.26,.13-.69,.27-1.36,.4-2.03,.44-2.11,.88-4.07,1.34-5.83,.53-2.07,1.07-3.85,1.62-5.24,2.81-7.05,7.17-11.52,14.18-14.68C74.77,.95,83.13-.05,91.44,0c1.03,0,2.06,.02,3.09,.04,1.46,.03,2.91,.07,4.37,.12,1.34,.04,2.67,.1,4.01,.15,.1,0,.19,0,.29,.01,1.1,.04,2.21,.09,3.31,.14,.22,0,.44,.02,.66,.03,1.82,.08,3.64,.15,5.46,.22,1.55,.06,3.09,.11,4.63,.15l.76,.02c.41,0,.82,.02,1.23,.02,.35,0,.71,.02,1.06,.02,.54,0,1.07,.01,1.6,.02,1.12,0,2.24,0,3.36,0,7.93-.04,15.88-.3,23.79,.56,5.1,.56,10.42,1.19,15.45,2.62,2.52,.71,4.96,1.63,7.27,2.84,4.41,2.3,7.69,5.93,10.17,10.09,1.29,2.16,2.36,4.47,3.27,6.8,1.71,4.41,3.06,10.98,4.12,18.18,.38,2.54,.72,5.15,1.03,7.77,.65,5.53,1.17,11.1,1.57,16.08,1.34,6.57,3.73,12.88,5.61,19.31h0c.02,.09,.04,.16,.07,.23,.02,.07,.04,.15,.07,.22,.04,.15,.08,.3,.12,.45,.34,1.18,.68,2.36,1,3.54,.11,.39,.22,.78,.32,1.18,.21,.78,.43,1.57,.63,2.35,.32,1.23,.63,2.46,.92,3.69,.08,.33,.16,.66,.23,.99,.06,.24,.11,.47,.16,.71,.06,.26,.12,.53,.17,.79,.05,.25,.11,.49,.15,.74,.03,.12,.05,.25,.08,.38h0c.07,.32,.13,.63,.18,.95,.06,.29,.11,.59,.16,.88,.05,.29,.1,.59,.15,.88,.03,.15,.05,.3,.07,.44,.02,.15,.05,.3,.07,.44,.05,.29,.09,.59,.13,.88,.52,3.6,.77,7.2,.6,10.81Z"/><path class="cls-4" d="M63.18,95.72c-.65-3.98-.89-8.73-.93-13.28-1.7,.68-3.4,1.34-5.02,2.21-.17,.09-.33,.19-.49,.29,.11,4.82,.56,9.39,1.52,13.37,1.65-.84,3.28-1.71,4.91-2.59Z"/><path class="cls-4" d="M170.53,100.39c.2,.06,.34,.19,.45,.35,.22,.18,.35,.41,.36,.68,.13,.09,.26,.17,.4,.25,.39,.23,.8,.43,1.2,.64,.07,.04,.14,.07,.21,.11,.28,0,.55,.17,.73,.39h.02s-.02-.03,.01,.02c.38,.22,.75,.45,1.1,.72,.45-1.33,.85-2.73,1.2-4.19-1.63-1.18-3.24-2.38-4.85-3.58-.28,1.6-.6,3.14-.96,4.58,.04,.01,.09,.02,.13,.04Z"/><path class="cls-1" d="M196.14,137.03c-2.24,2.96-5.04,5.44-8.37,7.15-4.11,2.11-10.09,4-14.99,3.01,.23-3.58,.37-7.34,.61-11.31,.02-.3,.04-.61,.06-.92,.04-.61,.08-1.23,.12-1.86,.64-.1,1.28-.22,1.91-.38,.63-.15,1.24-.34,1.85-.55,.1-.04,.2-.07,.3-.11,.6-.22,1.18-.47,1.74-.75,.09-.05,.19-.09,.28-.14,.28-.14,.55-.29,.81-.45h0c.18-.1,.35-.21,.52-.32h0c.17-.11,.34-.22,.51-.34h0c.33-.23,.66-.48,.97-.74h0c.16-.13,.3-.26,.45-.4,.15-.13,.3-.27,.44-.42,1.33-1.33,2.37-2.93,2.97-4.8,.43-1.33,.65-2.8,.6-4.41-.02-.58-.07-1.15-.15-1.7-.02-.11-.03-.22-.05-.33-.04-.22-.08-.43-.13-.64h0c-.04-.22-.1-.43-.15-.63-.09-.31-.18-.62-.28-.92-.1-.3-.22-.59-.35-.88-.08-.19-.17-.38-.26-.57-.09-.19-.18-.37-.29-.55-.2-.36-.41-.72-.65-1.06-.17-.26-.35-.51-.54-.75-.12-.16-.25-.32-.39-.48-.13-.16-.27-.31-.41-.46-1.78-1.94-4.09-3.42-6.65-4.38-.73-.28-1.49-.51-2.25-.7h-.01c-.66-.38-1.26-.73-1.8-1.05-.01,0-.02-.01-.03-.02-.29-.17-.57-.34-.82-.49-2.38-1.44-3.44-2.22-3.97-2.62-9.46-7.22-22.23-12.36-33.77-14.75-12.36-2.55-23.76-2.24-36.14-.87-5.96,.67-13.2,2.68-18.96,4.42-4.54,1.37-10.39,4.72-15.38,7.6-.18,.15-.39,.31-.61,.46-1.55,1.12-3.87,2.36-4.12,2.23-.57,.09-1.14,.2-1.7,.34-.02,0-.04,.01-.05,.01-3.72,.91-7.09,2.88-9.32,5.83-.19,.25-.38,.51-.55,.78-.01,.01-.02,.02-.02,.03-.19,.3-.38,.61-.54,.92-.07,.13-.14,.26-.21,.4,0,0-.01,.02-.01,.03-.15,.3-.29,.6-.41,.92-.06,.15-.12,.3-.18,.46-.12,.33-.22,.66-.32,.99,0,0,0,.02,0,.03-.05,.17-.09,.34-.13,.51-.03,.13-.06,.27-.09,.4-.02,.08-.03,.15-.05,.23-.02,.11-.04,.22-.06,.34-.02,.11-.04,.22-.05,.33,0,0,0,.02,0,.03-.01,.11-.03,.22-.04,.33-.32,2.76,.17,5.18,1.23,7.24h0c.09,.18,.19,.36,.29,.53,.05,.09,.1,.18,.16,.26,.13,.21,.27,.42,.42,.63,.08,.12,.17,.24,.26,.36,.09,.12,.18,.24,.28,.35,.1,.12,.19,.24,.3,.35h0c.07,.08,.13,.15,.2,.23,.03,.04,.07,.07,.1,.11,.07,.08,.14,.15,.22,.22,.07,.07,.13,.14,.2,.21,.11,.11,.22,.21,.34,.32h0c.12,.11,.24,.21,.36,.32,.42,.36,.87,.7,1.33,1.02,.14,.1,.28,.19,.42,.28,.15,.1,.3,.19,.46,.28,.15,.09,.3,.18,.44,.26,.09,.06,.19,.1,.28,.16,.25,.13,.5,.26,.76,.38,.12,.06,.25,.12,.37,.18,.56,.25,1.13,.48,1.72,.69,.05,.01,.09,.03,.14,.05,.59,.2,1.19,.38,1.8,.53,0,.41-.01,.82-.02,1.21,0,.28-.01,.56-.02,.84-.12,4.75-.37,9.19-.44,13.42-3.84-.3-7.71-.35-11.42-1.39-1.27-.36-2.5-.85-3.65-1.46-3.46-1.81-6.37-4.65-8.51-7.92-5.14-7.88-6.14-16.39-4.29-24.48,.61-2.7,1.54-5.36,2.75-7.93,.26-.56,.53-1.12,.82-1.67h0c1.79-3.46,4.07-6.74,6.7-9.75,7.1-8.1,15.71-14.63,25.21-19.58,1.58-.83,3.19-1.6,4.81-2.34,6.27-2.84,12.82-5.33,19.55-7.04,6.05-1.54,12.23-2.43,18.48-2.37,2.95,.03,5.91,.07,8.88,.16,.14,0,.27,0,.41,.01,2.13,.06,4.26,.14,6.39,.26,6.76,.36,13.5,1.04,20.13,2.35h.01c2.31,.46,4.61,.99,6.9,1.62,4.46,1.22,8.83,2.78,13.05,4.66,2.65,1.18,5.25,2.48,7.77,3.91,6.29,3.54,13.48,7.96,18.27,13.4,6.26,7.11,11.42,15.88,13.24,25.29,.4,2.06,.64,4.15,.7,6.25,0,.11,0,.22,0,.33v.02c.12,7.32-2.16,15.25-6.71,21.25Z"/><g><path class="cls-3" d="M89.69,178.79c-1.65-.75-3.26-1.56-4.76-2.54-1.79-.3-3.52-.81-5.13-2.01-.52-.39-1-.81-1.47-1.24-.67-.37-1.31-.79-1.93-1.24,.01,.68-1.01,1.06-1.58,.57-2.48-2.1-4.48-4.61-6.11-7.35-.04-.02-.08-.03-.12-.07-2.95-2.4-4.65-5.92-6.46-9.18-.79-1.42-1.92-3.48-2.21-5.43-.36-.78-.63-1.84-.82-3.43-.82-7.17,.98-14.62-2.99-21.12-.32-.52-.74-.87-1.19-1.06,.33-1.41-.4-3.23-2.28-3.51-8.8-1.3-12.52,6.37-11.85,14.06,.32,3.65,2.27,9.17-1.12,11.88-3.33,2.67-8.54,2.72-12.43,4.3-4.12,1.67-7.54,4.84-8.96,9.14-1.5,4.56,.07,8.97,.69,13.51,.64,4.66-.73,9.49-4,12.91-3.24,3.4-7.93,5.07-10.77,8.9C.43,201,0,207.57,0,213.69c0,.41,0,.81,0,1.22,.02,4.95,2.42,9.07,7.83,9.51,2.89,.24,5.46-1.48,8.41-1.01,1.97,.31,3.85,1.13,5.43,2.33,2.94,2.24,4.81,5.47,7.19,8.23,2.77,3.19,6.32,5.15,10.63,5.07,4.31-.08,7.98-2.63,11.5-4.83,3.58-2.24,7.43-4.3,11.78-4.02,3.09,.2,5.79,1.83,8.69,2.74,1.93,.6,4.07,.85,5.93,.06,1.24-.53,2.25-1.48,3.21-2.43,3.78-3.72,7.34-7.66,10.64-11.8,3.44-4.3,2.85-8.4,.59-13.27-2.68-5.77-7.29-20.64-2.15-26.67Z"/><path class="cls-3" d="M219.61,214.63c-.14-1.79,.02-3.62,.93-5.66,1.79-4.02,4.88-7.67,4.65-12.32-.22-4.5-3.21-8.02-6.55-10.75-3.73-3.05-8.64-5.25-9.97-10.29-1.07-4.06,.03-8.51,.66-12.56,.64-4.09,1.45-8.68-.05-12.68-.64-1.7-1.68-3.25-3.16-4.34-1.93-1.42-3.7-1.28-5.9-1.67-4.82-.86-3.85-6.63-4.2-10.38-.33-3.54-1.62-6.73-4.79-8.62-2.75-1.64-6.96-2.45-9.92-1-.82,.4-1.23,1.05-1.34,1.73-4.1,1.33-8.37,4.11-10.11,7.53-1.1,2.16-1.21,4.66-1.35,7.04-.2,3.38-.5,6.76-.85,10.13-.75,7.36-1.26,7.69-4.92,14.25-1.66,2.98-3.74,5.68-6.2,8.04-2.66,2.56-5.68,3.14-9.04,4.3-2.41,.84-4.72,1.97-7.16,2.7-.06,.8-.06,1.61,.02,2.42,.18,1.84,.97,3.11,2.43,4.19,2.06,1.53,4.26,2.81,6,4.75,1.61,1.8,2.73,3.99,2.96,6.41,.64,6.85-4.82,19.46-6.67,25.61-1.62,5.37,.86,10.39,6.57,11.31,2.52,.41,5.12,.17,7.64,.59,1.17,.19,2.31,.52,3.49,.57,.89,.03,1.78-.09,2.67-.11,7.77-.18,17.18,10.01,23.2,.69,1.04-1.61,1.6-3.56,3.02-4.85,1.38-1.25,3.38-1.65,5.24-1.46,4.43,.44,8.27,3.35,12.71,3.79,3.02,.3,6.27-.37,8.46-2.47,2.09-2.01,2.92-5.06,2.85-7.96-.08-3.31-1.1-6.06-1.33-8.92Z"/></g><g><path class="cls-3" d="M79.77,105.28c3.33-3,8.42-4.45,12.5-2.08,2.89,1.68,5.72-2.69,2.82-4.37-6.13-3.56-13.7-2.01-18.83,2.61-2.49,2.24,1.02,6.08,3.51,3.83Z"/><path class="cls-3" d="M145.44,108.17c-3.06-3.28-8-5.17-12.27-3.17-3.03,1.42-5.46-3.18-2.42-4.6,6.42-3,13.82-.8,18.53,4.26,2.28,2.45-1.55,5.96-3.83,3.51Z"/><g><path class="cls-3" d="M100.28,148.76c5.61,4.39,13.72,4.3,19.39,.08,1.3-.97,.03-3.18-1.29-2.2-4.67,3.47-11.55,4.04-16.3,.32-1.28-1-3.09,.79-1.8,1.8Z"/><g><path class="cls-3" d="M114.44,156.85c1.27-1.04-.54-2.84-1.8-1.8-2.09,1.72-4.61,1.57-6.62-.18-1.23-1.07-3.04,.72-1.8,1.8,3.12,2.72,7.01,2.82,10.22,.18Z"/><path class="cls-3" d="M186.94,119.3c-.21-7.45-5.88-12.41-12.55-14.06-.57-.21-2.22-1.34-2.54-1.5-.72-.37-1.41-.76-2.04-1.25-.4,1.26-.84,2.4-1.33,3.37-.89,1.73-.04,3.87,2.07,4.01,5.29,.35,10.84,3.39,11.21,9.26,.39,6.02-5.23,8.84-10.48,9.04-1.46,.05-2.59,1-2.71,2.48-1.63,19.19,1.66,27.8-15.26,41.24-7.64,6.07-18.19,8.32-27.77,7.87-2.65-.12-20.89-1.02-23.46-1.06-.4,0-.79-.01-1.19-.03-9.59-.39-19.9-3.56-26.97-10.28-15.67-14.88-11.64-23.16-11.57-42.42,0-1.49-1.04-2.53-2.48-2.71-5.21-.66-10.56-3.96-9.65-9.92,.89-5.81,6.68-8.35,11.99-8.23,2.11,.05,3.14-2,2.41-3.81-.43-1.07-.79-2.34-1.09-3.73,.01,.06-1.08,.58-1.19,.63-.41,.22-.83,.44-1.24,.66-.41,.21-.81,.43-1.22,.64-.21,.11-.42,.21-.62,.32-.13,.07-2.24,.7-2.29,.71-1.35,.36-2.67,.82-3.92,1.45-1.19,.6-2.31,1.33-3.31,2.2-1,.86-1.88,1.86-2.6,2.97-.74,1.14-1.31,2.4-1.67,3.71-.2,.72-.34,1.45-.43,2.2-.94,8.05,5.05,13.21,12.1,14.93-.33,19.61-3.06,26.38,11.27,42.19,6.95,7.67,17.26,11.89,27.37,13.31,4.16,.58,27.04,1.4,29.91,1.52,1.51,.06,3.02,.08,4.54,0,10.19-.52,20.83-3.82,28.43-10.85,15.67-14.49,13.55-21.47,14.94-41.04,7.18-1.1,13.59-5.71,13.36-13.81Z"/></g></g></g><g><g><path class="cls-3" d="M155.06,53.47c.88,.11,1.77,.13,2.66,.14,.56,0,1.12,.04,1.68,.05-1.26,1.86-2.05,3.99-2,6.36,.03,1.51,1.87,1.83,2.67,.72,.93-1.28,1.75-2.64,2.37-4.09,.02-.05,.04-.11,.06-.16,.69,1.64,1.45,3.23,3.18,4,.86,.38,2.31-.03,2.16-1.24-.17-1.37-.69-2.53-1.25-3.77-.25-.56-.47-1.13-.7-1.7,1.57,.35,3.26,.54,4.82,.14,1.38-.35,2.45-1.59,1.63-3.01-.77-1.35-2.26-1.36-3.62-1.47-1.18-.1-2.34-.03-3.51,.03,.38-.51,.73-1.05,1.01-1.67,.46-1.02,.79-2.12,1.16-3.18,.57-1.65,1.81-4.73-.05-6.01-2.04-1.4-3.53,.92-3.95,2.64-.26,1.07-.39,2.09-.76,3.14-.42,1.18-.96,2.32-1.51,3.45-.14-.31-.27-.62-.4-.94-.1-1.02,.04-2.13-.01-3.14-.13-2.22-.63-4.46-2.36-5.99-.79-.69-2.11-.47-2.4,.63-.82,3.15,.8,6.36,2,9.23,0,.02,0,.04,0,.06,.05,.33,.12,.64,.21,.94-2.14-.37-4.36-.14-6.56,.22-.59,.1-1.08,.81-1.05,1.38,.12,2.36,2.54,2.99,4.51,3.23Z"/><path class="cls-3" d="M197.81,86.1c-.08-.29-.17-.59-.26-.89-.22-.32-.43-.64-.66-.95-4.47-6.3-10.81-12-17.36-16.1-7.25-4.54-15.55-6.23-23.54-8.95-8.37-2.85-16.43-5.65-25.31-6.45-9.07-.81-18.2-.19-27.25,.52-8.59,.67-17.08,1.29-25.39,3.74-8.19,2.42-14.93,6.51-21.57,11.8-7.36,5.88-14.39,11.96-20.76,18.9h0c-1.36,3.9-2.39,7.86-3.69,11.8-.27,.84-.17,1.56,.18,2.14,.89-1.65,1.8-3.3,2.83-4.89,4.29-6.64,10.88-12.47,16.87-17.57,6.16-5.25,12.65-11,20.02-14.45,7.4-3.47,15.88-5.05,23.97-5.72,16.78-1.36,33.89-3.16,50.16,2.23,7.7,2.55,15.68,4.7,23.24,7.63,7.49,2.89,14.01,7.92,19.5,13.72,5.93,6.26,9.77,14.57,13.43,22.34-.9-6.28-2.64-12.55-4.44-18.86Z"/></g><path class="cls-3" d="M111.39,129.09c-.92,.75-2.03,1.45-3.15,1.85-.12,.04-.28,.08-.43,.11,.11-.59,.26-1.18,.45-1.75,1.23-3.94,3.6-8.7,6.22-11.92,2.11-2.6-2.28-5.39-4.37-2.82-2.36,2.91-3.92,6.64-5.52,10.01-1.26,2.65-3.07,6.8-1.51,9.69,2.51,4.65,9,.96,11.83-1.34,2.6-2.12-.92-5.94-3.51-3.83Z"/><path class="cls-3" d="M140.27,113.73c-4.74-2.52-8.2,5.55-3.81,7.95,1.14,.63,2.47,.76,3.67,.2,1.29-.61,1.84-1.88,2.05-3.21,.18-1.11,.12-2.29-.34-3.28-.32-.68-.82-1.27-1.57-1.66Z"/><path class="cls-3" d="M89.09,111.73c-4.74-2.52-8.2,5.55-3.81,7.95,1.14,.63,2.47,.76,3.67,.2,1.29-.61,1.84-1.88,2.05-3.21,.18-1.11,.12-2.29-.34-3.28-.32-.68-.82-1.27-1.57-1.66Z"/></g><path class="cls-3" d="M69.26,38.4c-1.26,2.22-3.77,2.87-6.15,3.12-.42,.05-.88,.09-1.35,.12,.11,0,3.04,3.45,3.22,3.78,.53,.96,.21,2.41-1.09,2.34-2.15-.13-3.74-1.26-4.95-2.81-.36,.93-.78,1.82-1.01,2.8-.29,1.21-.42,2.43-.79,3.62-.48,1.52-2.84,1.27-2.82-.38,.05-2.99,0-6,.79-8.84l-.49,.04c-1.27,.11-1.93,.45-3.01,1.09-1.19,.71-2.85,1.63-4.29,1.57,.31-1.78,.61-3.57,.93-5.32,1.1-.53,2.31-.84,3.59-1.06,.78-.13,1.58-.12,2.37-.13-1.41-1.8-3.25-2.69-5.03-3.91,.14-.76,.29-1.52,.44-2.26,.13-.69,.27-1.36,.4-2.03,1.39,.65,2.86,2.04,3.43,2.69,.26,.3,3.09,3.14,3.09,3.15,.08-.31,.17-.62,.24-.93,.38-1.66,.57-3.38,.78-5.07,.23-1.89,.56-5.24,3.04-5.44,3.08-.24,3.56,3.61,3.16,5.79-.47,2.54-1.56,5.01-2.7,7.38,.97-.02,1.95-.11,2.83-.37,1.4-.42,2.64-1.07,4.13-1.1,1.1-.02,1.77,1.23,1.24,2.16Z"/><path class="cls-3" d="M182.34,20.42c.04,1.65-2.37,1.9-2.82,.38-.57-1.97-1.88-3.65-2.39-5.63-.28-1.05-.24-2.14-.25-3.22-.47,.5-.91,1.02-1.37,1.45-.91,.83-1.78,1.72-2.74,2.49-1.2,.96-4.7,2.66-5.04-.12-.22-1.77,2.13-3.33,3.34-4.24,.4-.3,.82-.59,1.23-.86-.6-.1-1.19-.31-1.76-.66-.91-.56-1.56-1.4-2.33-2.13-.96-.91-2.12-1.07-3.25-1.69-.76-.41-.84-1.41-.45-2.06,2.52,.71,4.96,1.63,7.27,2.84,4.41,2.3,7.69,5.93,10.17,10.09,.19,1.12,.36,2.24,.39,3.38Z"/><path class="cls-3" d="M120.18,6.56c-.67,.34-1.36,.52-2.06,.61,.82,.83,1.69,1.59,2.76,2.23,1.62,.97,3.01,1.94,3.77,3.73,.53,1.24-.9,2.14-1.96,1.77-2.49-.88-4.76-2.64-6.69-4.61-.04,.28-.09,.55-.13,.83-.29,1.75-.47,3.52-.62,5.29-.16,1.79,.35,6.45-2.97,5.22-2.63-.98-2.62-4.44-2.07-6.69,.5-2.09,2.24-4.06,2.72-6.17-1.65,.42-3.1,1.46-4.57,2.37-1.96,1.21-4.01,2.26-6.36,2.3-1.15,.02-1.78-1-1.41-2.04,1.03-2.93,3.46-4.07,6.29-4.87,.28-.08,.56-.16,.85-.24-.74-.4-1.45-.81-2.08-1.16-2.13-1.14-5-2.46-6.45-4.49-.11-.14-.19-.3-.27-.46,1.34,.04,2.67,.1,4.01,.15,.1,0,.19,0,.29,.01,1.1,.04,2.21,.09,3.31,.14,.47,.26,.94,.5,1.44,.72,1.74,.78,3.33,1.65,4.86,2.68,0-1.05-.06-2.1-.19-3.15,1.55,.06,3.09,.11,4.63,.15-.08,.52-.18,1.02-.28,1.51,.72-.56,1.48-1.07,2.28-1.47,.35,0,.71,.02,1.06,.02,.54,0,1.07,.01,1.6,.02,1.12,0,2.24,0,3.36,0,1.02,.75,.85,2.55-.62,2.64-1.87,.12-2.85,2.17-4.47,2.98Z"/><path class="cls-3" d="M112.22,49.97c.56-2-1.47-2.99-3.14-2.45-.8,.26-1.52,.69-2.26,1.08-.97,.51-1.91,.59-2.98,.74-1.24,.18-2.37,.5-3.5,1.05-.4,.2-.8,.42-1.2,.63,.44-1.69,.83-3.37,.94-5.18,.14-2.42,.12-4.92-.49-7.28-.28-1.06-1.4-1.54-2.32-.87-1.9,1.38-1.82,4.12-1.71,6.22,.07,1.29,.17,2.53,.06,3.82-.04,.5-.1,1-.16,1.49-1.12-3.17-1.44-6.43-4.34-8.61-.63-.47-1.54-.29-2,.32-1.43,1.87,.22,4.7,1.14,6.43,.6,1.14,1.12,2.28,1.64,3.46,.27,.61,.58,1.15,.92,1.64-.94-.22-1.9-.33-2.85-.44-2.71-.31-5.41-.7-8.08-1.27-1.04-.22-1.92,1.13-1.44,2.02,1.45,2.68,5.22,2.79,7.9,2.99,1.55,.12,3.12,.39,4.68,.34,.63-.02,1.2-.08,1.78-.2,.68,.05,1.34-.03,1.96-.38,.09-.05,.17-.11,.24-.17,.02,0,.05,0,.06,0,.68,.09,1.14-.24,1.36-.72,1.4-.28,2.84-.86,4.16-.85,2.1,0,4.27,.27,6.27-.57,1.32-.55,2.97-1.79,3.37-3.24Z"/><g><path class="cls-1" d="M84.14,132.38c2.33,.28,2.76-3.34,.43-3.62-2.33-.28-2.76,3.34-.43,3.62Z"/><path class="cls-1" d="M83.69,137.86c1.29,.15,1.53-1.86,.24-2.01-1.29-.15-1.53,1.86-.24,2.01Z"/><path class="cls-1" d="M78.07,130.84c1.29,.15,1.53-1.86,.24-2.01-1.29-.15-1.53,1.86-.24,2.01Z"/><path class="cls-1" d="M90.4,132.2c1.29,.15,1.53-1.86,.24-2.01-1.29-.15-1.53,1.86-.24,2.01Z"/><path class="cls-1" d="M88.28,135.82c.52,.06,.61-.74,.1-.8-.52-.06-.61,.74-.1,.8Z"/><path class="cls-1" d="M79.42,134.84c.52,.06,.61-.74,.1-.8-.52-.06-.61,.74-.1,.8Z"/></g><g><path class="cls-1" d="M139.86,133.11c2.33-.27,1.92-3.89-.41-3.62-2.33,.27-1.92,3.89,.41,3.62Z"/><path class="cls-1" d="M140.69,138.54c1.29-.15,1.07-2.16-.23-2.01-1.29,.15-1.07,2.16,.23,2.01Z"/><path class="cls-1" d="M133.61,133.01c1.29-.15,1.07-2.16-.23-2.01-1.29,.15-1.07,2.16,.23,2.01Z"/><path class="cls-1" d="M145.92,131.49c1.29-.15,1.07-2.16-.23-2.01-1.29,.15-1.07,2.16,.23,2.01Z"/><path class="cls-1" d="M144.69,135.5c.52-.06,.43-.86-.09-.8-.52,.06-.43,.86,.09,.8Z"/><path class="cls-1" d="M135.84,136.59c.52-.06,.43-.86-.09-.8-.52,.06-.43,.86,.09,.8Z"/></g></g></g></svg>