<?xml version="1.0" encoding="UTF-8"?><svg id="Layer_2" xmlns="http://www.w3.org/2000/svg" viewBox="0 0 192.9 225.99"><defs><style>.cls-1{fill:#ffba69;}.cls-2{fill:#584f7f;}</style></defs><g id="Layer_1-2"><g><g><g><path class="cls-2" d="M74.93,175.5c3.95,2.45,9.01,2.94,13.57,2.97,2.61,.02,5.24-.24,7.78-.84,1.65-.39,5.56-1.19,6.35-2.89,.64-1.36-.8-3.39-2.3-2.3-.07,.06-.15,.11-.24,.15-.16,.09-.28,.2-.39,.32-.15-.03-.65,.26-.67,.27-.64,.19-1.27,.51-1.92,.72-1.03,.33-2.08,.59-3.14,.78-2.08,.37-4.2,.47-6.31,.41-3.72-.1-7.8-.49-11.03-2.5-1.85-1.15-3.54,1.77-1.7,2.91Z"/><g><path class="cls-2" d="M94,185.89c2.14-.19,2.16-3.56,0-3.37-1.68,.15-9.56,2.05-9.99-.21-.4-2.13-3.65-1.23-3.25,.9,1.02,5.41,9.69,3,13.24,2.69Z"/><path class="cls-2" d="M175.52,106.72l-.7-.24,1.52-33.91c.08-1.73,.17-3.7-.54-5.3-.55-1.25-1.72-2.18-2.84-2.26-.22-.02-.44,0-.64,.05-1.99,.47-2.57,3.4-2.7,5.78l-1.85,33.35c-.17,3.09-.06,6.83,2.38,8.32,.8,.49,1.79,.69,2.84,.9,.88,.18,1.79,.36,2.66,.73,1.88,.8,3.3,2.28,4.08,4.3,1.57,4.02,.43,9.17-1.03,12.36-.64,1.41-1.44,2.82-2.87,3.56-.78,.4-1.66,.56-2.68,.49-.98-.07-1.94-.34-2.87-.61-.43-.12-.86-.24-1.28-.34-.32-.07-.63-.12-.91-.14-3.06-.22-3.64,2.88-4.12,7.28-.12,1.07-.23,2.07-.41,2.91-2.44,10.86-3.4,11.65-5.17,22.86-.29,1.83-.58,3.67-.89,5.6-1.59,10.33-3.4,22.04-12.43,28.72-8.63,6.38-20.64,10.5-32.21,14.16-5.04,1.6-9.65,2.68-14.09,3.31h-.21c-.33-.02-.61,0-.89,.04-1.49,.24-3.04,.41-4.63,.5l-.41,.02c-.3,.01-.6,.02-.9,.03h-.27c-.53,.02-1.05,.03-1.58,.02h-.46c-.59-.02-1.18-.04-1.77-.07-.25-.01-1.39-.09-1.39-.09-.24-.02-.49-.04-.74-.06-.59-.06-1.17-.12-1.75-.2l-.46-.06c-.52-.07-1.04-.16-1.56-.25l-.26-.04c-.29-.05-.59-.1-.87-.16l-.42-.08c-1.54-.32-3.05-.71-4.49-1.16-.28-.09-.56-.14-.88-.16h-.1l-.1-.04c-4.3-1.26-8.71-2.99-13.47-5.3-10.92-5.29-22.22-11.1-29.83-18.65-7.97-7.91-8.07-19.75-8.16-30.3-.03-1.86-.05-3.72-.07-5.58-.14-11.34-.98-12.27-1.83-23.37-.07-.85-.03-1.87,0-2.94,.16-4.43,.03-7.57-3.03-7.8-.28-.02-.59-.02-.92,.01-.43,.04-.87,.1-1.32,.15-.96,.13-1.95,.26-2.93,.19-1.02-.07-1.86-.36-2.58-.87-1.31-.94-1.89-2.44-2.33-3.93-.98-3.36-1.37-8.62,.77-12.38,1.07-1.89,2.68-3.16,4.66-3.67,.92-.24,1.84-.29,2.74-.34,1.07-.06,2.07-.11,2.94-.48,2.62-1.13,3.27-4.81,3.55-7.89l2.97-33.27c.21-2.37,.07-5.36-1.84-6.11-.2-.08-.41-.13-.63-.14-1.12-.08-2.41,.67-3.14,1.82-.93,1.49-1.13,3.44-1.3,5.17l-3.38,33.78-.72,.13C6.67,96.59,.04,104.51,0,112.76c-.04,8.24,6.51,16.23,14.6,17.8l.79,.15v.81c0,3.87,0,7.74-.01,11.61-.03,11.3,.65,13.2,1.07,24.67,.39,10.58,2,22.52,11.05,30.81,9.07,8.31,21.55,14.74,32.56,19.93,6.16,2.9,12.25,4.99,18.11,6.19l.19,.04c.49,.1,.99,.19,1.49,.28,.51,.09,1.03,.18,1.54,.26l.5,.07c.64,.09,1.29,.18,1.93,.25l.73,.07c.49,.05,.98,.09,1.53,.13h.06c.49,.04,.98,.06,1.47,.09l.74,.03c.65,.02,1.3,.03,1.95,.03h.5c.52,0,1.04-.02,1.57-.04,.5-.02,1.01-.04,1.57-.07h.14c5.96-.36,12.29-1.54,18.8-3.53,11.65-3.55,24.92-8.11,35.09-15.03,10.15-6.9,13.47-18.48,15.38-28.9,2.06-11.28,3.01-13.05,4.61-24.23,.55-3.84,1.1-7.67,1.66-11.51l.12-.8,.81-.04c8.23-.39,15.87-7.35,17.02-15.52,1.15-8.16-4.27-16.96-12.08-19.61Z"/></g></g><path class="cls-2" d="M95.94,141.96c-3.19,2.31-10.9,7.85-14.49,2.95-3.01-4.11,2.81-11.87,4.34-15.77,3.68-9.41,5.21-19.53,4.75-29.6-.2-4.36-7.06-4.91-6.85-.5,.39,8.35-.55,16.61-3.2,24.56-2.11,6.31-7.1,12.72-6.59,19.6,.38,5.13,3.95,8.87,8.9,9.97,6.7,1.49,12.45-2.25,17.64-6.02,3.58-2.6-.93-7.78-4.49-5.2Z"/><path class="cls-1" d="M180.25,98.53c-.34-.69-.96-.84-1.3-.86-.3-.02-.61,.03-.91,.15-.84,.35-1.68,.69-2.52,1.05-.13,.05-.25,.11-.37,.16-.56,.24-1.12,.48-1.68,.72l-.38,.16c-1.7,.75-3.28,1.46-4.82,2.18-.14,.06-.27,.13-.41,.19-.85,.4-1.64,.77-2.38,1.14-.28,.13-.55,.27-.82,.4-3.66,1.79-7.36,3.72-10.98,5.75l-.82,.46-.37-.87c-.98-2.33-2.37-4.37-4.13-6.05-3.57-3.41-8.54-5.46-14.78-6.1-1-.11-1.9-.19-2.75-.25-4.94-.35-8.66-.11-11.7,.78-5.75,1.67-10.32,7.69-11.85,12.76-.49,1.62-.89,3.26-1.21,4.88l-.27,1.39-1.09-.9c-2.79-2.3-6.14-3.73-9.66-4.14-.25-.03-.51-.05-.76-.07-1.29-.1-2.62-.04-3.94,.17l-.23,.04c-2.27,.37-4.51,1.18-6.51,2.35l-.83,.48-.46,.27,.02-1.49c0-.41,0-.83-.02-1.25-.21-5.19-2.23-9.85-5.67-13.13-3.57-3.41-8.54-5.46-14.78-6.1-1.01-.11-1.91-.19-2.76-.25-4.94-.35-8.66-.11-11.7,.78-4.11,1.2-8.17,4.9-10.59,9.66l-.48,.95-.81-.68c-2.84-2.39-5.62-4.91-8.27-7.49-.1-.09-.19-.19-.28-.28-1.38-1.34-2.7-2.7-3.96-4.03-.17-.19-.35-.37-.51-.55-.75-.8-1.48-1.59-2.16-2.36-.3-.33-.64-.51-1.02-.54-.69-.05-1.46,.44-1.74,1.12-.11,.27-.14,.53-.08,.8,.05,.24,.18,.48,.39,.7,1.57,1.75,3.14,3.42,4.7,5,.05,.05,.1,.1,.15,.15,.06,.07,.12,.13,.19,.19l.08,.08,.23,.23c3.63,3.65,7.53,7.2,11.59,10.55l.42,.35-.14,.52c-1.46,5.42-1.77,10.13-.95,13.98,1.84,8.63,10.09,15.4,19.6,16.09,.25,.02,.5,.03,.75,.04,9.94,.38,19.87-4.96,24.77-13.34v-.16l.16-.13c.68-1.21,1.27-2.56,1.75-4.02l.1-.29,.26-.16c.07-.04,.11-.08,.15-.11h.02c2.12-2.21,4.75-3.76,7.6-4.49,.12-.03,.24-.06,.36-.09,1.49-.35,3.02-.48,4.55-.36,.1,0,.2,.01,.3,.03,4.19,.39,8.22,2.66,10.77,6.06l.17,.23v.28c-.01,1.74,.13,3.26,.43,4.64,1.84,8.63,10.08,15.4,19.6,16.09,.25,.02,.5,.03,.75,.04,9.96,.38,19.92-4.99,24.78-13.37,2.59-4.46,3.61-9.9,2.81-14.93l-.11-.72,.7-.21c.13-.04,.26-.1,.38-.16,4.14-2.32,8.38-4.53,12.6-6.55l.34-.16c.27-.13,.54-.26,.81-.39,.05-.03,.11-.05,.16-.08l.05-.03c1.28-.6,2.56-1.19,3.81-1.75,.13-.06,.26-.12,.39-.17,.56-.25,1.12-.5,1.68-.75,.12-.05,.25-.11,.37-.16h0c1.49-.64,3.02-1.29,4.57-1.93,.43-.17,.63-.57,.71-.79,.17-.45,.16-.96-.03-1.34Zm-102.28,21.25c-2.93,7.69-10.55,13.44-19.42,14.65-1.45,.2-2.93,.25-4.39,.14-7.18-.52-13.3-4.62-15.97-10.71-2.11-4.79-1.18-10.38-.13-14.72,1.82-7.61,7.78-12.94,14.81-13.28,2.44-.11,4.47-.12,6.4-.03,.39,.02,.78,.04,1.17,.07,4.62,.34,8.1,1.29,10.94,3,6.85,4.13,9.62,12.91,6.58,20.88Zm71.73,4.21c-2.92,7.69-10.54,13.43-19.42,14.65-1.37,.19-2.78,.24-4.19,.13-4.1-.29-8.06-1.82-11.17-4.28-3.42-2.71-5.55-6.35-6-10.27-.13-1.17-.12-2.36-.11-3.4,.03-2.46,.33-4.83,.97-7.47,1.82-7.61,7.78-12.94,14.81-13.28,2.44-.11,4.48-.12,6.4-.03,.39,.02,.78,.04,1.17,.07,4.62,.34,8.11,1.29,10.95,3,6.85,4.12,9.61,12.9,6.58,20.88Z"/><path class="cls-2" d="M189.74,39.1c-1.91-4.45-4.77-8.64-8.93-12.45C162.54,9.9,137.03,3.07,112.8,2.14c-1.59-.06-3.28,.1-4.74,.77-.84,.39-1.61,.95-2.21,1.67-.65,.79-.99,2.17-2.25,2.13-.38-.01-.75-.14-1.12-.27-.73-.25-1.46-.49-2.13-.88-.96-.56-1.35-1.37-1.87-2.3-.65-1.17-1.79-1.91-3.03-2.36-1.66-.6-3.46-.65-5.22-.7C66.37-.38,40.37-.91,21.48,16.25c-7.58,6.88-14.51,15.09-15.43,25.29-1.47,16.42-1.07,26.45,.63,42.81,.46,4.44,5.38,9.77,9.71,11.18,4.11,1.34,8.51,1.08,12.42-.8,5.27-2.52,8.24-7.63,8.42-12.9,3.88,1.38,8.04,1.38,11.92-1.21,2.5-1.68,3.98-4.09,4.47-6.65,5.42,1.5,11.37,.41,16-3.11,5.51,4.89,13.04,6.83,20.16,5.31,.25,6.25,4.04,12.2,9.82,15.13,8.18,4.15,17.84,1.29,24.38-4.56,6.83,3.34,14.77,1.65,19.49-3.73,.31,.18,.64,.34,.97,.48,.43,2.52,1.6,5.03,3.05,6.82,2.36,2.9,5.86,4.27,9.2,4.11,.99,4.93,5.46,8.97,10.86,9.29,.25,.71,.62,1.4,1.13,2.02,2.96,3.62,7.89,2.54,11.25,.18,7.27-5.11,7.41-15.62,8.6-23.52,2.53-16.74,7.72-28.06,1.19-43.3Z"/><path class="cls-2" d="M63.63,112.39c-.39-.91-1.04-1.7-2.01-2.26-6.17-3.5-11.03,7.03-5.33,10.36,1.49,.87,3.23,1.1,4.84,.4,1.73-.76,2.5-2.42,2.83-4.17,.28-1.46,.24-3.02-.33-4.34Z"/><path class="cls-2" d="M134.45,116.53c-.39-.91-1.04-1.7-2.01-2.26-6.17-3.5-11.03,7.03-5.33,10.36,1.49,.87,3.23,1.1,4.84,.4,1.73-.76,2.5-2.42,2.83-4.17,.28-1.46,.24-3.02-.33-4.34Z"/></g><g><path class="cls-1" d="M47.96,145.72c-2.6,2.15,.74,6.2,3.34,4.04,2.6-2.15-.74-6.2-3.34-4.04Z"/><path class="cls-1" d="M56.09,151.81c-.16-.1-.34-.16-.53-.17-.19-.03-.38,0-.55,.07-.19,.04-.36,.13-.51,.26l-.27,.29c-.15,.21-.23,.44-.26,.7v.37c.06,.26,.16,.49,.33,.69l.09,.11c.12,.16,.27,.28,.45,.35,.16,.1,.34,.16,.53,.17,.19,.03,.38,0,.55-.07,.19-.04,.36-.13,.51-.26l.27-.29c.15-.21,.23-.44,.26-.7v-.37c-.06-.26-.16-.49-.33-.69l-.09-.11c-.12-.16-.27-.28-.45-.35Z"/><path class="cls-1" d="M41.85,151.25c-1.44,1.2,.41,3.44,1.86,2.24,1.44-1.2-.41-3.44-1.86-2.24Z"/><path class="cls-1" d="M49.87,156.3c-.06-.04-.14-.06-.21-.07-.08-.01-.15,0-.22,.03-.08,.02-.15,.05-.2,.1l-.11,.11c-.06,.08-.09,.18-.1,.28v.15c.02,.1,.06,.2,.13,.28l.07,.09c.05,.06,.11,.11,.18,.14,.06,.04,.13,.06,.21,.07,.08,.01,.15,0,.22-.03,.08-.02,.15-.05,.2-.1l.11-.11c.06-.08,.09-.18,.1-.28v-.15c-.02-.1-.06-.2-.13-.28l-.07-.09c-.05-.06-.11-.11-.18-.14Z"/><path class="cls-1" d="M40.2,145.45c-.58,.48,.16,1.38,.74,.9,.58-.48-.16-1.38-.74-.9Z"/><path class="cls-1" d="M59.84,147.18c-.06-.04-.14-.06-.21-.07-.08-.01-.15,0-.22,.03-.08,.02-.15,.05-.2,.1l-.11,.11c-.06,.08-.09,.18-.1,.28v.15c.02,.1,.06,.2,.13,.28l.07,.09c.05,.06,.11,.11,.18,.14,.06,.04,.13,.06,.21,.07,.08,.01,.15,0,.22-.03,.08-.02,.15-.05,.2-.1l.11-.11c.06-.08,.09-.18,.1-.28v-.15c-.02-.1-.06-.2-.13-.28l-.07-.09c-.05-.06-.11-.11-.18-.14Z"/></g><g><path class="cls-1" d="M125.16,150.65c-2.6,2.15,.74,6.2,3.34,4.04,2.6-2.15-.74-6.2-3.34-4.04Z"/><path class="cls-1" d="M133.29,156.75c-.16-.1-.34-.16-.53-.17-.19-.03-.38,0-.55,.07-.19,.04-.36,.13-.51,.26l-.27,.29c-.15,.21-.23,.44-.26,.7,0,.12,0,.25,.01,.37,.04,.26,.15,.49,.32,.69l.09,.11c.12,.16,.27,.28,.45,.35,.16,.1,.34,.16,.53,.17,.19,.03,.38,0,.55-.07,.19-.04,.36-.13,.51-.26l.27-.29c.15-.21,.23-.44,.26-.7v-.37c-.06-.26-.16-.49-.33-.69l-.09-.11c-.12-.16-.27-.28-.45-.35Z"/><path class="cls-1" d="M119.05,156.18c-1.44,1.2,.41,3.44,1.86,2.24,1.44-1.2-.41-3.44-1.86-2.24Z"/><path class="cls-1" d="M127.07,161.24c-.06-.04-.14-.06-.21-.07-.08-.01-.15,0-.22,.03-.08,.02-.15,.05-.2,.1l-.11,.11c-.06,.08-.09,.18-.1,.28v.15c.02,.1,.06,.2,.13,.28l.07,.09c.05,.06,.11,.11,.18,.14,.06,.04,.13,.06,.21,.07,.08,.01,.15,0,.22-.03,.08-.02,.15-.05,.2-.1l.11-.11c.06-.08,.09-.18,.1-.28v-.15c-.02-.1-.06-.2-.13-.28l-.07-.09c-.05-.06-.11-.11-.18-.14Z"/><path class="cls-1" d="M117.39,150.39c-.58,.48,.16,1.38,.74,.9,.58-.48-.16-1.38-.74-.9Z"/><path class="cls-1" d="M137.04,152.12c-.06-.04-.14-.06-.21-.07-.08-.01-.15,0-.22,.03-.08,.02-.15,.05-.2,.1l-.11,.11c-.06,.08-.09,.18-.1,.28v.15c.02,.1,.06,.2,.13,.28l.07,.09c.05,.06,.11,.11,.18,.14,.06,.04,.13,.06,.21,.07,.08,.01,.15,0,.22-.03,.08-.02,.15-.05,.21-.1l.11-.11c.06-.08,.09-.18,.1-.28v-.15c-.02-.1-.06-.2-.13-.28l-.07-.09c-.05-.06-.11-.11-.18-.14Z"/></g></g></g></svg>