<?xml version="1.0" encoding="UTF-8"?><svg id="Layer_2" xmlns="http://www.w3.org/2000/svg" viewBox="0 0 197.14 262.67"><defs><style>.cls-1{fill:#ffba69;}.cls-2{fill:#afa0c9;}.cls-3{fill:#584f7f;}</style></defs><g id="Layer_1-2"><g><g><g><g><path class="cls-3" d="M197.1,107.18c-.52-14.05-5.46-26.84-14.27-36.96-8.74-10.04-20.64-16.76-34.42-19.43h-.05c-.67-.14-1.34-.27-2.04-.41-.44-.08-.89-.17-1.34-.25,.21-.21,.42-.41,.6-.61,.2-.21,.46-.48,.71-.79,.15-.16,.29-.33,.41-.48,4.55-5.57,5.3-13.07,1.85-18.64-3.13-5.08-9.45-8.18-16.89-8.28-.29,0-.58,0-.87,0-.73,0-1.42-.01-2.04-.06-1.06-.06-1.7-.23-2.04-.52-.34-.3-.55-.92-.68-1.4-.27-1.07-.44-2.22-.61-3.44-.23-1.62-.47-3.29-1-5.01C122.43,4.46,117.03,.29,110.34,.01c-6.57-.27-12.8,3.36-16.68,9.71-1.39,2.3-2.2,4.65-2.97,6.93-.11,.34-.23,.68-.36,1.06-.04,.12-.08,.24-.13,.36l-.08,.25c-.39,1.09-.75,1.3-.91,1.39-.44,.26-1.26,.4-2.2,.57-.83,.14-1.78,.31-2.82,.61-6.8,1.97-13.48,8.32-13.08,16.66,.13,2.56,.9,5,2.28,7.25-.18,.02-.37,.03-.55,.05-.78,.08-1.56,.15-2.34,.23-.98,.11-1.95,.22-2.94,.34-7.93,1.01-15.38,2.64-22.14,4.85-17.18,5.62-31.15,16.98-38.32,31.18C-3.22,101.87-.45,120.62,3.92,141.27c1.78,8.44,3.8,18,6.7,27.25,1.52,4.86,3.23,9.55,5.08,13.94,.69,1.65,1.43,3.32,2.26,5.11l.2,.42h0c.87,1.86,1.8,3.71,2.77,5.54l-.4,.43c.74,1.29,1.49,2.56,2.29,3.81l.21,.02c-1.82-5.75-2.69-11.93-2.72-19.2,0-.29,0-.58,0-.85-1.41-3.53-2.73-7.23-3.92-11.04-1.7-5.44-3.11-11.04-4.34-16.45-.71-3.14-1.37-6.21-1.99-9.16-.08-.36-.15-.73-.23-1.08-4.28-20.21-6.79-37.15,2.65-55.83,6.46-12.77,19.15-23.04,34.81-28.16,6.4-2.09,13.47-3.64,21-4.6,.95-.12,1.89-.23,2.84-.33,.75-.08,1.51-.16,2.26-.23,1.35-.12,2.7-.22,4.03-.31,3.34,2.66,7.6,4.01,11.79,4.72,5.69,.98,11.59,1.39,17.35,1.76,3.65,.24,7.38,.44,11.04,.29,3.46-.13,6.76-.93,10.24-.79,3.24,.14,6.48-.55,9.68-.92,.67-.08,1.36-.19,2.04-.35,.21,.04,.42,.07,.62,.11,.85,.15,1.69,.31,2.51,.46l.37,.07c.72,.14,1.44,.27,2.13,.4,.67,.13,1.34,.26,2.01,.39h.05c25.65,4.99,42.85,24.88,43.81,50.7,.02,.58,.03,1.16,.03,1.74,0,10.68-3.56,21.32-7.01,31.62l-.57,1.7c-2.34,7.01-5.27,15.26-9.3,23.27-2.73,5.42-5.77,10.77-8.73,15.81-.15,1.27-.35,2.88-.58,4.91-.37,3.16-.87,6.1-1.54,8.86l1.13-.19,3.58-6.06c.5-.85,1-1.69,1.5-2.54,3.35-5.68,6.89-11.8,10.05-18.07,4.21-8.35,7.23-16.86,9.64-24.08l.57-1.69c3.63-10.84,7.74-23.14,7.28-35.5ZM95.9,20.09c.05-.16,.11-.31,.15-.43,.12-.35,.24-.71,.36-1.06,.7-2.06,1.37-4.01,2.41-5.73,2.72-4.45,6.93-7,11.27-6.83,4.12,.17,7.33,2.66,8.57,6.65,.39,1.25,.58,2.62,.79,4.06,.19,1.33,.38,2.7,.74,4.09,.24,.91,.55,1.72,.95,2.43-1.22,2.68-3.29,4.23-5.99,5.46-1.93,.88-5.13,2.27-7.1,.71-.04-.03-.08-.06-.12-.09-.99-2.06-2.44-3.9-4.18-5.4-1.6-1.37-3.3-2.43-5.31-3.07-.84-.27-1.72-.44-2.6-.62l.07-.19Zm9.9,31.28c-4.82-.35-9.75-.65-14.53-1.42-1.97-.31-3.96-.73-5.83-1.4l-3.86-3.4c-.4-.35-.78-.71-1.12-1.06-.71-.73-1.28-1.43-1.75-2.16-.98-1.49-1.49-3.01-1.57-4.66-.25-5.2,4.19-9.24,8.71-10.55,.74-.21,1.48-.35,2.2-.47,1.34-.24,2.72-.49,4.03-1.21,2.77,.8,5.69,1.16,7.91,3.14,1.28,1.14,2.43,2.49,3.1,4.08,.88,2.05,.62,4.23,.52,6.4-.19,3.84,.58,7.13,3.48,9.81,1.26,1.16,2.74,2.03,4.01,3.17-1.77-.05-3.54-.14-5.31-.27Zm36.21-6.91c-.07,.09-.15,.18-.23,.27l-.09,.1c-.12,.14-.26,.29-.48,.52-.21,.22-.43,.44-.69,.68-1.28,1.18-2.83,2.21-4.6,3.05l-3.15,1.5c-1.14,.18-2.29,.36-3.45,.38-1.6,.02-3.19-.2-4.78-.07-2.09,.17-4.12,.49-6.17,.68-1.8-2.64-4.07-4.48-6.63-6.55-1.28-1.03-2.32-2.14-2.5-3.83-.2-1.86,.11-3.73,.13-5.6,2.45,.23,4.98-.42,7.47-1.47,3.86-1.64,6.77-3.89,8.74-7.28,.98,.3,1.95,.41,2.8,.46,.78,.06,1.6,.06,2.39,.07,.27,0,.55,0,.83,0,5.37,.07,9.79,2.1,11.84,5.41,2.42,3.91,1.04,8.67-1.41,11.66Z"/><path class="cls-3" d="M12.06,150.27c-1.56-2.76-2.2-6.08-1.99-9.16,.62,2.95,1.28,6.02,1.99,9.16Z"/><g><path class="cls-3" d="M64.4,125.22c-3.46,.78-6.95,1.42-10.48,1.82-4.2,.48-3.53,7.02,.68,6.54,3.53-.4,7.01-1.04,10.48-1.82,1.73-.39,3.13-1.69,2.93-3.61-.17-1.61-1.87-3.32-3.61-2.93Z"/><path class="cls-3" d="M130.73,130.83c-3.52-.48-7.01-1.1-10.45-1.97-4.1-1.02-5.76,5.34-1.65,6.36,3.45,.86,6.93,1.48,10.45,1.97,1.76,.24,3.52-.49,4.01-2.36,.41-1.56-.59-3.76-2.36-4.01Z"/><g><path class="cls-3" d="M90.24,174.48c.9-1.36,.38-.7-1.15-.72-.67-.01-2.26,.04-2.8-.49-1.35-1.32,.3-5.7,.7-6.98,1.69-5.49,4.19-10.52,4.28-16.38,.06-4.22-6.5-4.61-6.56-.37-.09,5.76-2.97,10.64-4.37,16.11-.82,3.19-1.86,7.36-.16,10.46,2.35,4.29,12.46,6.66,15.55,2.02,2.35-3.53-3.14-7.16-5.48-3.63Z"/><g><path class="cls-3" d="M99.21,202.93c-3.19,1.48-5.98,3-9.62,3.03-2.78,.03-6.49-.39-8.59-2.37-1.51-1.42-3.79,.85-2.28,2.28,2.65,2.49,6.62,3.18,10.15,3.3,4.5,.16,8.03-1.64,11.97-3.46,1.88-.87,.24-3.65-1.63-2.78Z"/><g><path class="cls-3" d="M93.12,213.23c-1.37,2.14-5.95,1.27-7.45-.17-1.5-1.44-3.78,.84-2.28,2.28,3.09,2.97,9.94,3.52,12.51-.48,1.12-1.75-1.67-3.37-2.78-1.63Z"/><path class="cls-3" d="M171.85,136.87c-.12,.16-.31,.27-.54,.27-.36,0-.74-.33-.71-.71,.15-1.68,.28-3.36,.4-5.05-.72-.06-1.44-.15-2.16-.27-4.76-.81-9.28-2.94-12.95-6.06-1.97-1.67-3.65-3.68-5.23-5.72-1.66-2.13-3.19-4.36-4.54-6.7-2.69-4.62-4.72-9.64-5.87-14.87-.8-3.62-1.16-7.33-1.1-11.03-.91-.04-1.81-.07-2.72-.08-4.91,.9-9.85,1.6-14.79,2.32-7.59,1.11-15.21,2.15-22.87,2.62-7.1,.44-14.25,.38-21.3-.66-4.78-.7-9.6-1.98-13.72-4.52-.07,.07-.13,.14-.2,.2-3.86,3.98-7.63,8.46-11.99,11.91-10.7,8.47-26.66,14.76-28.97,16.47-.78,.57-1.57,1.15-2.11,1.97-.41,.63-.62,1.32-.75,2.05-.11,.61-.16,1.22-.23,1.84,.07,2.57,.12,5.13,.04,7.7-14.25-.31-15.71,24.68-1.14,29.22-.15,17.58-.04,3.29,.04,20.84,0,.89,.02,1.79,.06,2.68,.23,6.75,1.27,13.28,3.65,19.68,3.02,8.13,8.05,14.8,12.9,21.9,4.85,7.09,26.66,23.79,32.17,29.36,4.1,4.15,9.11,7.59,14.7,9.37,5.65,1.81,11.46,1.15,16.94-.89,4.05-1.5,7.85-3.64,11.21-6.35,6.09-4.92,29.64-19.07,35.24-25.58,5.61-6.51,11.36-12.58,15.28-20.32,3.49-6.9,5.28-14.15,6.18-21.81,.07-.6,.14-1.16,.2-1.69,1.75-14.8,.42-2.13,2.18-19.01,14.77-2.84,16.28-27.2,2.7-29.1Zm-5.51,22.81c-1.87-.03-3.26,1.28-3.47,3.09-1.91,16.78-.87,1.73-2.19,18.55-.29,3.67-.71,7.29-1.43,10.83-.97,4.86-2.47,9.57-4.86,14.08-3.52,6.64-8.6,12.02-13.47,17.66-5.24,6.08-28.06,19.49-34.05,24.59-2.67,2.27-5.69,4.11-8.92,5.47-3.15,1.33-6.52,2.76-10,2.71-3.21-.05-6.44-2.2-9.13-3.77-2.87-1.66-5.5-3.74-7.76-6.16-5.39-5.74-26.56-21.62-31.09-28.24-4.21-6.16-8.65-12.06-11.41-19.06-.69-1.76-1.26-3.53-1.72-5.31-1.7-6.55-1.98-13.29-1.75-20.15,.58-16.87-.07-1.79-.1-18.68,0-1.83-1.24-3.29-3.09-3.46-9.81-.94-9.88-19.34-.32-16.32,2.08,.66,4.15-.79,4.33-2.93,.42-4.81,.23-9.61,.08-14.42,13.51-3.96,25.33-11.8,36.63-20.17h.01c1.91-1.41,3.79-2.83,5.67-4.25,.01,0,.02-.02,.02-.03,6.21,2.42,13.01,3.58,19.64,3.79,15.76,.49,31.16-4.18,46.84-4.28-.08,.37-.11,.76-.06,1.18,.34,2.74,.71,5.54,1.26,8.32h0c.77,3.95,1.88,7.84,3.7,11.36,1.96,6.21,5.17,11.85,10.83,15.79,4.21,2.93,9.28,4.26,14.3,5.22-.16,1.66-.29,3.32-.33,4.99-.06,2.16,1.83,3.82,3.98,3.4,9.84-1.93,7.71,16.35-2.14,16.19Z"/></g></g></g></g></g><path class="cls-3" d="M127.47,149.45c-5.96-3.26-10.45,6.89-4.94,10,1.44,.81,3.11,1,4.64,.31,1.64-.75,2.35-2.35,2.64-4.03,.24-1.4,.18-2.9-.38-4.15-.39-.87-1.02-1.61-1.96-2.13Z"/><path class="cls-3" d="M62.79,146.14c-5.96-3.26-10.45,6.89-4.94,10,1.44,.81,3.11,1,4.64,.31,1.64-.75,2.35-2.35,2.64-4.03,.24-1.4,.18-2.9-.38-4.15-.39-.87-1.02-1.61-1.96-2.13Z"/></g><g><path class="cls-1" d="M50.12,184.41c-2.96,0-2.97,4.61,0,4.61s2.97-4.61,0-4.61Z"/><path class="cls-1" d="M49.86,177.46c-1.65,0-1.65,2.56,0,2.56s1.65-2.56,0-2.56Z"/><path class="cls-1" d="M57.96,185.44c-1.65,0-1.65,2.56,0,2.56s1.65-2.56,0-2.56Z"/><path class="cls-1" d="M51.6,193.93c-.05-.16-.14-.3-.26-.41-.12-.12-.25-.21-.41-.26-.15-.08-.32-.12-.49-.11l-.34,.05c-.22,.06-.41,.17-.56,.33l-.2,.26c-.12,.2-.17,.41-.17,.65v.13c0,.18,.03,.34,.11,.49,.05,.16,.14,.3,.26,.41,.12,.12,.25,.21,.41,.26,.15,.08,.32,.12,.49,.11l.34-.05c.22-.06,.41-.17,.56-.33l.2-.26c.12-.2,.17-.41,.17-.65v-.13c0-.18-.03-.34-.11-.49Z"/><path class="cls-1" d="M42.28,185.57c-1.65,0-1.65,2.56,0,2.56s1.65-2.56,0-2.56Z"/><path class="cls-1" d="M44.87,193.48c-.02-.06-.06-.12-.11-.16-.05-.05-.1-.09-.16-.11-.06-.03-.13-.05-.2-.04l-.14,.02c-.09,.02-.16,.07-.23,.13l-.08,.1c-.05,.08-.07,.17-.07,.26v.1c0,.07,.01,.14,.04,.2,.02,.06,.06,.12,.11,.16,.05,.05,.1,.09,.16,.11,.06,.03,.13,.05,.2,.04l.14-.02c.09-.02,.16-.07,.23-.13l.08-.1c.05-.08,.07-.17,.07-.26v-.1c0-.07-.01-.14-.04-.2Z"/><path class="cls-1" d="M44.4,180.72c-.66,0-.66,1.02,0,1.02s.66-1.02,0-1.02Z"/><path class="cls-1" d="M55.67,180.62c-.66,0-.66,1.02,0,1.02s.66-1.02,0-1.02Z"/><path class="cls-1" d="M56.73,192.89c-.02-.06-.06-.12-.11-.16-.05-.05-.1-.09-.16-.11-.06-.03-.13-.05-.2-.04l-.14,.02c-.09,.02-.16,.07-.23,.13l-.08,.1c-.05,.08-.07,.17-.07,.26v.1c0,.07,.01,.14,.04,.2,.02,.06,.06,.12,.11,.16,.05,.05,.1,.09,.16,.11,.06,.03,.13,.05,.2,.04l.14-.02c.09-.02,.16-.07,.23-.13l.08-.1c.05-.08,.07-.17,.07-.26v-.1c0-.07-.01-.14-.04-.2Z"/></g><g><path class="cls-1" d="M129.52,192.36c-2.74-1.12-4.49,3.14-1.75,4.26,2.74,1.12,4.49-3.14,1.75-4.26Z"/><path class="cls-1" d="M131.91,185.83c-1.52-.62-2.5,1.74-.97,2.37,1.52,.62,2.5-1.74,.97-2.37Z"/><path class="cls-1" d="M136.39,196.28c-1.52-.62-2.5,1.74-.97,2.37,1.52,.62,2.5-1.74,.97-2.37Z"/><path class="cls-1" d="M127.28,201.73c.01-.17-.02-.33-.09-.48-.06-.16-.15-.29-.28-.4-.11-.13-.25-.23-.41-.29l-.33-.09c-.22-.03-.44,0-.65,.09-.09,.05-.19,.11-.28,.16-.18,.14-.32,.32-.41,.53l-.05,.12c-.07,.16-.1,.33-.08,.5-.01,.17,.02,.33,.09,.48,.06,.16,.15,.29,.28,.4,.11,.13,.25,.23,.41,.29l.33,.09c.22,.03,.44,0,.65-.09l.28-.16c.18-.14,.32-.32,.41-.53l.05-.12c.07-.16,.1-.33,.08-.5Z"/><path class="cls-1" d="M121.82,190.46c-1.52-.62-2.5,1.74-.97,2.37,1.52,.62,2.5-1.74,.97-2.37Z"/><path class="cls-1" d="M121.22,198.76c0-.07,0-.13-.04-.19-.02-.06-.06-.12-.11-.16-.04-.05-.1-.09-.17-.12l-.13-.03c-.09-.01-.18,0-.26,.04l-.11,.07c-.07,.06-.13,.13-.16,.21l-.04,.09c-.03,.06-.04,.13-.03,.2,0,.07,0,.13,.04,.19,.02,.06,.06,.12,.11,.16,.04,.05,.1,.09,.17,.12l.13,.03c.09,.01,.18,0,.26-.04l.11-.07c.07-.06,.13-.13,.16-.21l.04-.09c.03-.06,.04-.13,.03-.2Z"/><path class="cls-1" d="M125.63,186.77c-.61-.25-1,.7-.39,.95,.61,.25,1-.7,.39-.95Z"/><path class="cls-1" d="M136.1,190.95c-.61-.25-1,.7-.39,.95,.61,.25,1-.7,.39-.95Z"/><path class="cls-1" d="M132.42,202.71c0-.07,0-.13-.04-.19-.02-.06-.06-.12-.11-.16-.04-.05-.1-.09-.17-.12l-.13-.03c-.09-.01-.18,0-.26,.04l-.11,.07c-.07,.06-.13,.13-.16,.21l-.04,.09c-.03,.06-.04,.13-.03,.2,0,.07,0,.13,.04,.19,.02,.06,.06,.12,.11,.16,.04,.05,.1,.09,.17,.12l.13,.03c.09,.01,.18,0,.26-.04l.11-.07c.07-.06,.13-.13,.16-.21l.04-.09c.03-.06,.04-.13,.03-.2Z"/></g><path class="cls-1" d="M173.32,188.65c-.5-2.67-.83-5.37-1.3-8.04-.73-4.07-1.68-8.07-3.12-11.93,1.33-1.35,1.94-3.37,1.39-5.25-.57-1.96-2.49-3.46-4.48-3.77-2.16-.34-4.44,.51-5.25,2.43-.96,1.47-.97,3.25-.22,4.81-2.82,8.8-5.97,17.51-7.8,26.59-.37,1.86,.8,3.47,2.72,3.57,5.68,.3,11.36,.46,17.04,.83,1.56,.1,2.77-1.38,2.82-2.82,.08-2.3-1.39-4.2-1.81-6.42Z"/><path class="cls-1" d="M30.87,180.42c-.5-2.67-.83-5.37-1.3-8.04-.73-4.07-1.68-8.07-3.12-11.93,1.33-1.35,1.94-3.37,1.39-5.25-.57-1.96-2.49-3.46-4.48-3.77-2.16-.34-4.44,.51-5.25,2.43-.96,1.47-.97,3.25-.22,4.81-2.82,8.8-5.97,17.51-7.8,26.59-.37,1.86,.8,3.47,2.72,3.57,5.68,.3,11.36,.46,17.04,.83,1.56,.1,2.77-1.38,2.82-2.82,.08-2.3-1.39-4.2-1.81-6.42Z"/></g><g><path class="cls-2" d="M80.47,44.09c.34,.35,.72,.71,1.12,1.06l3.86,3.4c1.87,.67,3.86,1.08,5.83,1.4,4.77,.77,9.71,1.07,14.53,1.42,1.77,.13,3.54,.21,5.31,.27-1.27-1.14-2.76-2.01-4.01-3.17-2.91-2.68-3.67-5.97-3.48-9.81,.1-2.16,.36-4.34-.52-6.4-.68-1.59-1.82-2.94-3.1-4.08-2.22-1.97-5.14-2.34-7.91-3.14-1.31,.73-2.69,.98-4.03,1.21-.72,.12-1.46,.26-2.2,.47-4.52,1.31-8.96,5.35-8.71,10.55,.08,1.65,.6,3.18,1.57,4.66,.48,.73,1.05,1.43,1.75,2.16Z"/><path class="cls-2" d="M13.09,154.66c.83,3.41,1.75,6.85,2.77,10.25,.68-2.08,1.37-4.15,2.04-6.24-.19-.4-.33-.82-.42-1.24-1.7-.66-3.15-1.61-4.38-2.78Z"/><path class="cls-2" d="M103.75,23.97c1.74,1.49,3.19,3.34,4.18,5.4,.04,.03,.08,.06,.12,.09,1.97,1.56,5.17,.17,7.1-.71,2.7-1.22,4.77-2.78,5.99-5.46-.39-.71-.71-1.52-.95-2.43-.36-1.4-.55-2.77-.74-4.09-.21-1.44-.4-2.81-.79-4.06-1.25-3.99-4.45-6.48-8.57-6.65-4.34-.17-8.55,2.38-11.27,6.83-1.05,1.72-1.71,3.67-2.41,5.73-.12,.35-.24,.71-.36,1.06-.04,.12-.1,.27-.15,.43l-.07,.19c.88,.18,1.76,.35,2.6,.62,2.01,.64,3.72,1.7,5.31,3.07Z"/><path class="cls-2" d="M109.36,35.6c-.02,1.87-.33,3.74-.13,5.6,.18,1.69,1.22,2.8,2.5,3.83,2.56,2.08,4.83,3.91,6.63,6.55,2.05-.19,4.08-.51,6.17-.68,1.6-.13,3.18,.09,4.78,.07,1.16-.02,2.31-.2,3.45-.38l3.15-1.5c1.77-.84,3.32-1.87,4.6-3.05,.26-.24,.48-.46,.69-.68,.22-.23,.36-.38,.48-.52l.09-.1c.08-.09,.16-.17,.23-.27,2.45-3,3.83-7.75,1.41-11.66-2.05-3.32-6.47-5.34-11.84-5.41-.28,0-.56,0-.83,0-.79,0-1.6-.01-2.39-.07-.85-.05-1.82-.16-2.8-.46-1.97,3.39-4.88,5.64-8.74,7.28-2.49,1.06-5.03,1.7-7.47,1.47Z"/><path class="cls-2" d="M147.26,56.72h-.05c-.66-.14-1.33-.27-2.01-.39-.69-.13-1.41-.26-2.13-.4l-.37-.07c-.82-.15-1.66-.3-2.51-.46-.21-.04-.42-.07-.62-.11-.68,.17-1.37,.28-2.04,.35-3.21,.37-6.45,1.06-9.68,.92-3.49-.15-6.78,.66-10.24,.79-3.66,.14-7.39-.05-11.04-.29-5.75-.38-11.66-.79-17.35-1.76-4.19-.72-8.45-2.06-11.79-4.72-1.33,.08-2.68,.18-4.03,.31-.75,.07-1.5,.15-2.26,.23-.95,.1-1.89,.21-2.84,.33-7.53,.96-14.61,2.51-21,4.6-15.66,5.12-28.35,15.39-34.81,28.16-8.88,17.56-7.18,33.59-3.39,52.24,1.58-4.57,5.12-7.99,10.45-7.87,.08-2.56,.04-5.13-.04-7.7,.07-.61,.12-1.23,.23-1.84,.13-.73,.34-1.42,.75-2.05,.54-.82,1.33-1.4,2.11-1.97,2.31-1.7,18.27-8,28.97-16.47,4.36-3.45,8.13-7.92,11.99-11.91,.07-.07,.13-.14,.2-.2,4.12,2.53,8.94,3.81,13.72,4.52,7.05,1.04,14.19,1.09,21.3,.66,7.66-.47,15.28-1.51,22.87-2.62,4.94-.72,9.88-1.42,14.79-2.32,.91,0,1.81,.04,2.72,.08-.06,3.7,.3,7.4,1.1,11.03,1.15,5.22,3.19,10.25,5.87,14.87,1.36,2.34,2.89,4.57,4.54,6.7,1.58,2.04,3.26,4.05,5.23,5.72,3.68,3.12,8.2,5.25,12.95,6.06,.72,.12,1.44,.21,2.16,.27-.13,1.68-.25,3.37-.4,5.05-.03,.38,.35,.71,.71,.71,.23,0,.42-.11,.54-.27,6.17,.86,9.21,6.36,9.32,12.38,.85-2.35,1.63-4.63,2.35-6.78l.57-1.7c3.45-10.3,7.01-20.94,7.01-31.62,0-.58-.01-1.16-.03-1.74-.96-25.82-18.16-45.71-43.81-50.69Z"/><path class="cls-2" d="M168.89,168.69c.54,1.44,1.01,2.91,1.43,4.39,1.34-2.42,2.65-4.87,3.89-7.34,.51-1.01,1-2.02,1.47-3.03-1.47,1.32-3.22,2.36-5.27,2.95-.18,1.14-.72,2.21-1.53,3.03Z"/></g></g></g></svg>