<?xml version="1.0" encoding="UTF-8"?><svg id="Layer_2" xmlns="http://www.w3.org/2000/svg" viewBox="0 0 500 500"><defs><style>.cls-1{fill:#fff;}.cls-2{opacity:.4;}</style></defs><g id="Layer_1-2"><g class="cls-2"><g><path class="cls-1" d="M211.07,490.71c.22-3.71-3.43-7.39-7.13-7.46-2.91-.05-5.49,1.91-7.83,3.39-3.18,2.01-6.17-.34-9.58,.62-3.04,.86-5.22,4.07-4.69,7.23,.38,2.26,1.97,4.14,3.89,5.51h20.74c.4-1.32,1.01-2.57,2-3.65,1.44-1.56,2.48-3.5,2.61-5.64Z"/><path class="cls-1" d="M201.98,471.59c.03,1.56,.02,3.32-.97,4.78-1.47,2.17-3.25,4.02-5.74,5.12-1.29,.57-2.47,.49-3.39-.4-1.28-1.22-2.33-2.6-2.02-4.66,.49-3.18,1.6-5.87,4.34-7.84,2.78-2,6.94-.57,7.78,2.99Z"/><path class="cls-1" d="M212.3,479.53c-.79,.27-1.6,.37-2.37,.24-2.41-.42-4.13-2.67-3.63-5.06,.58-2.76,1.8-5.23,4.47-6.64,1.86-.98,3.78-1.01,5.59,.04,2.75,1.6,3.23,5.18,.95,7.8-1.17,1.34-3.06,2.96-5.01,3.62Z"/><path class="cls-1" d="M222.92,480.06c2.96-.66,6.38,1.4,6.55,4.57,.19,3.63-4.29,6.04-7.34,6.65-3.31,.67-5.95-2.83-4.84-6.06,.92-2.66,2.55-4.48,5.63-5.17Z"/><path class="cls-1" d="M225.48,498.63c-2.32-1.43-5.8-1.42-7.72,.38-.33,.31-.64,.64-.92,1h9.63c-.25-.59-.59-1.13-.99-1.37Z"/></g><g><path class="cls-1" d="M494.74,387.28c-.57,2.17,.23,4.47,2.93,6.13,.75,.46,1.53,.88,2.33,1.31v-11.8c-2.51,.3-4.64,2-5.26,4.35Z"/><path class="cls-1" d="M497.81,404.61c-1.8-.7-4.02-.5-5.29,1.09-.46,.58-.78,1.33-.96,2.15-.36,1.59-.2,3.41,.35,4.69,.64,1.49,1.81,2.61,3.34,3.15,.82,.29,2.48,.33,3.2-.21,.6-.45,1.12-1.01,1.56-1.65v-7.42c-.55-.78-1.26-1.44-2.19-1.8Z"/></g><g><path class="cls-1" d="M79,128.95c-.19-3.54,2.76-5.94,1.5-9.48-.93-2.61-2.28-5.56-1.59-8.39,.88-3.6,5.28-6.35,8.85-5.32,2.06,.59,3.73,2.04,4.93,3.78,2.34,3.39,6.59,4.09,10.14,5.57,2.93,1.23,4.08,3.37,3.85,5.6-.27,2.61-2.37,4.74-5.08,5.25-1.52,.29-3.04,.63-4.5,1.13-1.3,.44-2.43,1.15-3.25,2.41-1.85,2.84-5.2,5.81-8.82,5.6-3.2-.18-5.85-3.01-6.02-6.17Z"/><path class="cls-1" d="M67.12,110.42c1.53,.31,3.24,.71,4.45,2,1.8,1.91,3.21,4.05,3.73,6.72,.27,1.38-.06,2.52-1.13,3.22-1.48,.98-3.05,1.71-4.98,.94-2.99-1.18-5.38-2.85-6.7-5.96-1.34-3.16,.97-6.89,4.63-6.94Z"/><path class="cls-1" d="M77.13,102.1c.09,.83,.01,1.64-.29,2.37-.94,2.26-3.52,3.44-5.73,2.43-2.57-1.17-4.71-2.9-5.49-5.82-.55-2.03-.15-3.91,1.27-5.44,2.16-2.34,5.77-2.01,7.82,.79,1.05,1.43,2.22,3.63,2.43,5.68Z"/><path class="cls-1" d="M79.98,91.85c0-3.03,2.77-5.92,5.9-5.38,3.59,.61,4.95,5.52,4.88,8.62-.08,3.38-4.07,5.19-6.97,3.39-2.4-1.48-3.81-3.47-3.8-6.63Z"/><path class="cls-1" d="M106.64,99.92c-.05,.83-.25,1.62-.62,2.27-1.01,1.76-3.17,2.31-5.06,1.89-1.65-.36-2.81-1.63-3.64-3.03-1.34-2.27-.58-5.66,1.33-7.61,.63-.64,2.27-.86,3.13-.7,1.6,.3,2.93,1.22,3.79,2.6,.74,1.18,1.17,2.96,1.07,4.58Z"/></g><g><path class="cls-1" d="M405.04,433.1c-2.93,1.99-6.51,.69-8.9,3.6-1.76,2.14-3.59,4.81-6.37,5.68-3.54,1.1-8.16-1.26-9.11-4.85-.55-2.07-.17-4.24,.71-6.18,1.7-3.75,.12-7.75-.44-11.56-.46-3.14,.8-5.23,2.83-6.18,2.37-1.11,5.28-.4,7.12,1.66,1.03,1.15,2.1,2.28,3.28,3.28,1.05,.89,2.24,1.49,3.74,1.55,3.38,.12,7.66,1.47,9.35,4.68,1.49,2.83,.43,6.56-2.19,8.34Z"/><path class="cls-1" d="M395.27,452.82c-.52-1.47-1.06-3.15-.58-4.84,.71-2.52,1.82-4.84,3.85-6.66,1.05-.94,2.19-1.24,3.35-.69,1.6,.76,3.03,1.74,3.37,3.79,.53,3.17,.32,6.08-1.66,8.81-2.02,2.77-6.41,2.72-8.33-.4Z"/><path class="cls-1" d="M382.98,448.52c.67-.5,1.4-.86,2.17-.97,2.42-.36,4.76,1.24,5.04,3.66,.32,2.81-.07,5.53-2.17,7.71-1.46,1.51-3.27,2.14-5.32,1.71-3.11-.65-4.69-3.91-3.35-7.11,.69-1.64,1.97-3.77,3.62-5Z"/><path class="cls-1" d="M372.73,451.35c-2.6,1.56-6.5,.67-7.65-2.29-1.32-3.39,2.18-7.08,4.88-8.62,2.94-1.67,6.54,.82,6.5,4.23-.04,2.82-1.01,5.05-3.73,6.67Z"/><path class="cls-1" d="M365.92,424.34c.74-.38,1.52-.62,2.26-.64,2.03-.04,3.61,1.53,4.23,3.36,.53,1.6,.05,3.25-.73,4.68-1.26,2.31-4.56,3.41-7.21,2.78-.87-.21-1.91-1.5-2.21-2.32-.57-1.53-.46-3.14,.28-4.59,.63-1.24,1.94-2.53,3.38-3.27Z"/></g><g><path class="cls-1" d="M6.83,400.5c.92,1.91,2.34,3.6,4.28,4.5,3.37,1.57,8.14-.46,9.57-3.88,1.12-2.69,.24-5.8-.27-8.53-.69-3.7,2.59-5.61,2.95-9.14,.32-3.15-1.86-6.35-4.99-7.03-3.55-.76-7.32,1.65-9.59,4.17-1.01,1.12-2.23,1.65-3.59,1.88-1.52,.26-3.07,.37-4.62,.41-.19,0-.39,.02-.58,.05v11.8c2.69,1.45,5.45,2.9,6.83,5.77Z"/><path class="cls-1" d="M32.23,403.59c-1.46-.55-3.09-1.21-4.09-2.66-1.48-2.16-2.54-4.5-2.64-7.22-.05-1.41,.45-2.48,1.62-3.01,1.61-.74,3.28-1.21,5.07-.16,2.77,1.63,4.87,3.65,5.69,6.92,.84,3.33-2.02,6.66-5.65,6.13Z"/><path class="cls-1" d="M21.05,410.26c.04-.84,.24-1.62,.65-2.29,1.28-2.09,4.01-2.86,6.04-1.51,2.36,1.56,4.2,3.6,4.52,6.6,.22,2.09-.45,3.88-2.09,5.18-2.5,1.97-6.01,1.1-7.6-1.99-.82-1.58-1.63-3.93-1.52-5.99Z"/><path class="cls-1" d="M16.65,419.94c-.47,2.99-3.65,5.42-6.66,4.4-3.45-1.16-4.03-6.22-3.48-9.27,.6-3.32,4.82-4.49,7.41-2.27,2.14,1.83,3.22,4.02,2.73,7.14Z"/><path class="cls-1" d="M.94,408.17c-.24-.62-.55-1.22-.94-1.76v7.42c1.15-1.69,1.64-3.89,.94-5.66Z"/></g><g><path class="cls-1" d="M133.44,154.4c2.79-2.18,6.44-1.14,8.63-4.2,1.61-2.26,3.25-5.05,5.96-6.11,3.46-1.34,8.23,.69,9.43,4.2,.7,2.03,.46,4.22-.28,6.21-1.44,3.86,.42,7.74,1.24,11.51,.67,3.1-.43,5.28-2.39,6.36-2.29,1.27-5.24,.77-7.22-1.16-1.11-1.08-2.26-2.13-3.5-3.04-1.11-.81-2.34-1.33-3.84-1.28-3.38,.11-7.74-.94-9.65-4.02-1.68-2.72-.88-6.52,1.61-8.47Z"/><path class="cls-1" d="M141.81,134.04c.62,1.43,1.27,3.06,.91,4.79-.53,2.56-1.48,4.95-3.37,6.91-.98,1.01-2.1,1.39-3.29,.92-1.65-.65-3.15-1.52-3.63-3.54-.75-3.13-.74-6.04,1.04-8.9,1.82-2.91,6.2-3.15,8.34-.18Z"/><path class="cls-1" d="M154.37,137.48c-.63,.55-1.34,.95-2.1,1.12-2.39,.53-4.84-.91-5.28-3.31-.51-2.78-.32-5.52,1.63-7.84,1.35-1.61,3.11-2.37,5.18-2.08,3.15,.43,4.95,3.57,3.83,6.86-.57,1.68-1.71,3.9-3.27,5.24Z"/><path class="cls-1" d="M164.4,133.95c2.49-1.73,6.44-1.12,7.79,1.75,1.55,3.29-1.69,7.22-4.27,8.94-2.81,1.87-6.58-.36-6.78-3.77-.16-2.81,.66-5.11,3.26-6.92Z"/><path class="cls-1" d="M173.07,160.42c-.71,.43-1.47,.72-2.21,.79-2.02,.18-3.71-1.28-4.45-3.06-.64-1.56-.28-3.24,.4-4.72,1.09-2.39,4.31-3.72,7-3.27,.89,.15,2.01,1.37,2.37,2.16,.67,1.48,.68,3.1,.04,4.6-.54,1.28-1.76,2.66-3.14,3.5Z"/></g><g><path class="cls-1" d="M172.67,328.82c2.79-2.17,6.45-1.12,8.65-4.17,1.62-2.25,3.27-5.04,5.99-6.08,3.46-1.33,8.22,.72,9.41,4.24,.69,2.03,.45,4.22-.3,6.21-1.45,3.85,.39,7.74,1.2,11.51,.66,3.1-.45,5.27-2.41,6.36-2.3,1.27-5.24,.75-7.21-1.19-1.1-1.08-2.25-2.14-3.49-3.05-1.11-.82-2.33-1.34-3.84-1.3-3.38,.1-7.74-.97-9.63-4.06-1.67-2.73-.86-6.52,1.64-8.46Z"/><path class="cls-1" d="M181.12,308.49c.61,1.44,1.26,3.07,.89,4.8-.54,2.56-1.5,4.95-3.4,6.9-.98,1.01-2.1,1.38-3.29,.91-1.64-.66-3.14-1.53-3.62-3.56-.74-3.13-.72-6.04,1.08-8.9,1.83-2.9,6.21-3.13,8.34-.15Z"/><path class="cls-1" d="M193.67,311.98c-.64,.55-1.34,.95-2.11,1.11-2.39,.52-4.83-.93-5.27-3.33-.5-2.78-.3-5.52,1.66-7.83,1.36-1.61,3.12-2.35,5.19-2.06,3.15,.45,4.94,3.59,3.81,6.87-.58,1.68-1.72,3.89-3.29,5.23Z"/><path class="cls-1" d="M203.71,308.49c2.49-1.72,6.44-1.1,7.78,1.78,1.54,3.3-1.71,7.21-4.31,8.92-2.82,1.86-6.58-.39-6.76-3.8-.15-2.81,.68-5.1,3.28-6.9Z"/><path class="cls-1" d="M212.28,334.99c-.72,.43-1.48,.72-2.22,.78-2.02,.18-3.71-1.29-4.44-3.08-.64-1.56-.26-3.24,.42-4.72,1.1-2.39,4.32-3.7,7.01-3.25,.89,.15,2,1.37,2.36,2.17,.67,1.49,.66,3.1,.03,4.6-.55,1.28-1.77,2.65-3.16,3.49Z"/></g><g><path class="cls-1" d="M192.3,4.51c.8,1.31,1.47,2.72,2.09,4.14,1.1,2.53,3.64,4.12,6.24,3.81,2.23-.27,4.07-1.86,4.62-4.99,.43-2.44,.48-5.09,1.21-7.47h-20.74c1.12,.8,2.35,1.43,3.52,1.87,1.41,.52,2.35,1.47,3.07,2.64Z"/><path class="cls-1" d="M218.57,7.74c.71,.22,1.52,.24,2.35,.11,1.6-.25,3.25-1.07,4.24-2.05,1.15-1.14,1.76-2.64,1.7-4.27-.02-.42-.16-.99-.38-1.52h-9.63c-.73,.93-1.24,2-1.24,3.22,0,1.93,1.02,3.92,2.96,4.52Z"/></g><g><path class="cls-1" d="M420.39,214.74c1.01,3.39-1.31,6.41,.73,9.57,1.51,2.33,3.5,4.88,3.48,7.79-.03,3.71-3.67,7.39-7.38,7.22-2.14-.1-4.1-1.12-5.67-2.54-3.06-2.76-7.35-2.46-11.15-3.08-3.13-.52-4.75-2.34-5.04-4.56-.34-2.6,1.21-5.16,3.73-6.28,1.41-.63,2.81-1.31,4.12-2.13,1.17-.73,2.1-1.68,2.61-3.1,1.14-3.19,3.72-6.85,7.29-7.49,3.15-.56,6.38,1.58,7.28,4.61Z"/><path class="cls-1" d="M436.24,230.02c-1.56,.05-3.32,.05-4.79-.92-2.19-1.44-4.06-3.2-5.18-5.68-.58-1.28-.52-2.46,.36-3.4,1.21-1.29,2.57-2.36,4.63-2.07,3.18,.46,5.89,1.53,7.89,4.25,2.03,2.76,.65,6.93-2.9,7.82Z"/><path class="cls-1" d="M428.41,240.43c-.28-.79-.39-1.59-.27-2.37,.39-2.42,2.63-4.16,5.02-3.69,2.77,.55,5.25,1.74,6.69,4.4,1,1.85,1.05,3.77,.02,5.59-1.56,2.77-5.14,3.29-7.79,1.04-1.35-1.15-2.99-3.02-3.67-4.97Z"/><path class="cls-1" d="M428.01,251.06c.7,2.95-1.33,6.4-4.49,6.6-3.63,.23-6.09-4.22-6.74-7.26-.71-3.3,2.76-5.99,6-4.91,2.67,.89,4.5,2.49,5.23,5.57Z"/><path class="cls-1" d="M400.2,249.37c-.14-.82-.13-1.64,.08-2.35,.57-1.95,2.55-2.98,4.48-3.01,1.68-.03,3.11,.94,4.24,2.11,1.82,1.9,1.87,5.38,.47,7.71-.46,.77-2.01,1.36-2.88,1.4-1.63,.08-3.13-.51-4.29-1.65-.99-.98-1.83-2.61-2.1-4.21Z"/></g><g><path class="cls-1" d="M375.54,285.84c-2.59,2.41-6.33,1.68-8.25,4.91-1.42,2.38-2.81,5.31-5.43,6.58-3.33,1.62-8.25,0-9.75-3.4-.86-1.97-.81-4.17-.24-6.21,1.11-3.97-1.07-7.68-2.2-11.36-.93-3.03-.01-5.29,1.85-6.54,2.18-1.46,5.16-1.2,7.29,.55,1.19,.98,2.43,1.93,3.74,2.74,1.17,.72,2.44,1.13,3.94,.96,3.36-.39,7.79,.29,9.95,3.2,1.91,2.57,1.42,6.42-.89,8.57Z"/><path class="cls-1" d="M368.9,306.83c-.74-1.38-1.52-2.95-1.31-4.7,.32-2.6,1.06-5.06,2.79-7.17,.89-1.09,1.98-1.56,3.2-1.19,1.7,.51,3.26,1.25,3.91,3.23,1.01,3.05,1.24,5.96-.3,8.96-1.57,3.05-5.92,3.66-8.29,.87Z"/><path class="cls-1" d="M356.1,304.44c.59-.6,1.25-1.06,2-1.29,2.34-.73,4.9,.5,5.53,2.85,.74,2.72,.78,5.48-.97,7.95-1.21,1.72-2.91,2.62-4.99,2.51-3.18-.17-5.23-3.15-4.39-6.51,.43-1.73,1.38-4.02,2.82-5.5Z"/><path class="cls-1" d="M346.4,308.8c-2.33,1.93-6.32,1.66-7.91-1.09-1.82-3.15,1.08-7.33,3.51-9.26,2.65-2.1,6.59-.19,7.07,3.19,.39,2.79-.23,5.14-2.67,7.16Z"/><path class="cls-1" d="M335.55,283.15c.68-.49,1.41-.85,2.14-.97,2-.35,3.81,.96,4.69,2.68,.77,1.5,.55,3.21,0,4.74-.89,2.48-3.98,4.06-6.7,3.84-.9-.07-2.11-1.19-2.54-1.96-.79-1.42-.93-3.03-.43-4.58,.43-1.33,1.53-2.8,2.84-3.75Z"/></g><g><path class="cls-1" d="M358.77,81.31c-.11-3.54,2.89-5.87,1.71-9.45-.87-2.63-2.15-5.61-1.4-8.42,.96-3.58,5.42-6.23,8.97-5.12,2.05,.64,3.68,2.12,4.84,3.9,2.26,3.44,6.49,4.23,10.01,5.8,2.9,1.29,4,3.47,3.72,5.69-.33,2.6-2.48,4.68-5.2,5.13-1.52,.25-3.05,.56-4.52,1.02-1.31,.41-2.46,1.1-3.31,2.34-1.91,2.79-5.33,5.69-8.95,5.4-3.19-.25-5.78-3.14-5.88-6.3Z"/><path class="cls-1" d="M347.3,62.51c1.52,.35,3.22,.79,4.4,2.1,1.75,1.95,3.12,4.12,3.58,6.81,.24,1.39-.12,2.51-1.2,3.2-1.5,.94-3.09,1.64-5,.83-2.96-1.24-5.31-2.97-6.56-6.1-1.27-3.19,1.12-6.87,4.79-6.83Z"/><path class="cls-1" d="M357.5,54.42c.07,.83-.02,1.64-.34,2.36-.99,2.24-3.59,3.36-5.79,2.3-2.54-1.23-4.64-3.01-5.36-5.95-.5-2.04-.07-3.91,1.39-5.41,2.21-2.29,5.81-1.88,7.8,.96,1.02,1.46,2.13,3.68,2.3,5.73Z"/><path class="cls-1" d="M360.58,44.24c.07-3.03,2.9-5.85,6.02-5.25,3.57,.69,4.82,5.63,4.68,8.73-.15,3.37-4.18,5.09-7.05,3.23-2.36-1.53-3.73-3.55-3.65-6.72Z"/><path class="cls-1" d="M387.06,52.91c-.07,.83-.29,1.62-.67,2.25-1.05,1.74-3.22,2.24-5.1,1.78-1.64-.4-2.78-1.69-3.57-3.11-1.28-2.3-.45-5.67,1.5-7.58,.64-.63,2.29-.81,3.14-.63,1.59,.34,2.9,1.29,3.73,2.68,.71,1.2,1.11,2.99,.96,4.61Z"/></g></g></g></svg>