<?xml version="1.0" encoding="UTF-8"?><svg id="Layer_2" xmlns="http://www.w3.org/2000/svg" viewBox="0 0 267.96 221.01"><defs><style>.cls-1{fill:#ffba69;}.cls-2{fill:#e47349;}.cls-3{fill:#bac9ca;}</style></defs><g id="Layer_1-2"><g><g><path class="cls-3" d="M219.72,38.7c-1.3-.31-2.59-.71-3.84-1.19,.02-2.75,1.96-6.17,2.99-8.68,1.25-3.03,2.65-6,4.18-8.89,1.7-3.21,4.95-9.83,8.9-5.8,.24,.24,.48,.5,.55,.84,.07,.36-.08,.72-.24,1.05-3.54,7.74-7.26,15.4-11.16,22.97-.47-.09-.93-.18-1.39-.29Z"/><path class="cls-3" d="M143.09,178.98c.24-5.18-.21-21.07-.76-20.62-2.48,2-6.56,4.48-9.1,6.33,.02,2.93,.36,6.4,.45,9.33,.17,5.67-.13,11.29-.89,16.92-.63,4.66-.96,9.36-2.17,13.93-.69,2.61-1.82,4.89-4.54,6.09-.95,.42-1.64,.24-2.37-.15-1.56-.83-2.65-2.16-3.21-3.8-.63-1.87-1.12-3.79-1.55-5.71-1.52-6.79-.96-13.69-.97-20.55,0-3.47-.15-10.95-.36-12.8-10.28,2.85-21.72,2.67-24.44,2.67-2.63,0-11.12-.12-13.72-.55-.34,2.27-.37,22.43-1.86,32.23-.43,2.82-1.46,5.49-3.47,7.6-.74,.77-1.77,1.43-2.78,1.74-1.77,.54-2.45,.1-3.44-1.56-1.02-1.72-1.66-3.49-1.71-5.58-.06-2.72-.72-5.42-.74-8.14-.03-3.65,.28-7.3,.46-10.95,.28-5.56,.48-15.52,.65-18.13-3.54-.8-8.52-2.27-12.02-3.06-.98-.22-1.4,.04-1.37,1.07,.07,2.36,.19,4.72,.13,7.07-.15,5.56-.22,11.13-.67,16.67-.39,4.87-1.21,9.72-1.92,14.56-.18,1.2-.59,2.39-1.09,3.5-.73,1.6-2.73,2.72-4.11,2.49-1.62-.26-3.55-2.03-3.74-3.69-.42-3.83-.79-7.67-1.03-11.52-.23-3.67-.34-7.35-.36-11.02-.03-5.37,.17-15.86,.04-22.14-12.95-12.35-11.53-37.18-11.44-40.19,.03-1.07-.04-2.02-1.03-2.75-4.24-3.11-6.65-7.65-9.15-12.06-7.56-13.31-12.07-32.94-3.63-46.81,.37-.61,.99-1.29,1.66-1.07,.1,4.75,.24,9.86,1.46,14.47,3.24,12.14,8.78,23.56,17,33.12,.53,.61,1.07,1.23,1.75,1.67,2.88,1.87,10.15,.03,13.64-.13,5.57-.25,11.13-.78,16.7-1.14,5.26-.33,10.54-.44,15.81-.71,20.24-1.03,41.11-1.27,61.01-5.78,1.28-.29,2.52-.77,3.77-1.18,2.87-.94,5.75-1.84,8.59-2.85,1.04-.37,2.15-.84,2.94-1.57,2.33-2.15,4.19-4.75,5.74-7.51,3.35-6,2.74-13.82,2.39-20.41-.25-4.81-1.12-9.53-2.37-14.18-.22-.82-.48-1.67-.44-2.49,.02-.54,.5-1.47,.87-1.51,1.2-.15,1.75-1.03,2.47-1.73,3.82-3.69,8.45-5.97,13.43-7.56,4.12-1.31,8.26-2.63,12.47-3.55,5.33-1.16,10.71-2.27,16.13-2.75,4.83-.43,9.55,.74,13.55,3.82,1.55,1.19,2.46,2.78,2.95,4.69,1.02,3.94,2.46,7.44,4.34,11.06,3.32,6.4,10.45,12.63,16.88,15.79,3.43,1.68,6.37,3.98,8.8,6.94,6.75,8.23,.7,24.34-5.3,31.46-4.69,5.57-11.01,8.37-17.49,10.98-8.2,3.31-21.13,4.16-29.64,1.97-6.27-1.62-17.01-5.5-20.4-6.97-1.27,3.15-2.55,6.65-3.2,8.31-6.18,16.03-17.67,26.87-24.4,31.47,.41,4.78,1.13,11.28,1.19,16.07,.14,11.31,.37,22.64-.81,33.92-.17,1.58-.53,3.16-.95,4.7-.54,1.97-2.04,2.9-3.97,3.1-1.72,.18-3.17-.52-4.08-1.99-1.64-2.65-3.01-5.45-3.31-8.61-.4-4.3-.76-8.61-1.01-12.93-.14-2.44-.03-4.9-.03-7.35h-.21Z"/><path d="M227.57,23.73c-.66-3.06-1.32-7.08-.64-10.19,.5-2.3,3.23-1.02,4.8-.41,6.21,2.41,11.78,5.66,15.42,11.36,2.86,4.47,4.71,10.76,1.24,15.43-1.5,2.02-4.11,3.3-6.57,3.62-5.99,.79-8.78-4.1-10.76-8.78-1.46-3.44-2.6-7.01-3.4-10.66-.03-.12-.05-.25-.08-.37Z"/><path d="M236.12,71.06c-1.02,3.41-4.14,8.3-7.83,9.36-3.25,.93-7.11,.51-10.29-.49-2.58-.81-4.8-2.55-6.4-4.71-1.32-1.77-.4-5.65,1.69-7.3,2.12-1.67,4.46-3.14,7.12-3.77,2.11-.49,4.28-.94,6.46-.9,3.93,.07,10.87,2.47,9.27,7.8Z"/><path class="cls-3" d="M162.46,49.66c-4.36-2.65-9.01-4.82-13.85-6.44,.18-1.52,.75-5.98,2.34-6.66,.87-.37,2.78,.43,3.67,.64,1.21,.29,2.42,.62,3.56,1.13,5.2,2.32,9.74,5.69,14.02,9.41,1.14,.98,1.1,1.14,.2,2.2-1.01,1.17-2.02,3.58-3.41,4.23-2.09-1.63-4.27-3.13-6.53-4.51Z"/><path d="M131.03,150.11c-.29,2.3-1.03,4.31-2.78,5.83-2.15,1.87-4.65,3.07-7.36,3.9-1.51,.46-2.72,.06-3.76-1.11-3.97-4.46-3.67-8.1,1.8-11.27,2.57-1.49,5.3-2.73,8.46-1.61,1.97,.7,3.67,2.59,3.64,4.26Zm-12-.96h.11s-.18,.06-.17,.05l.08,.07-.02-.12Zm8.45,1.89l.06-.09-.16,.05c-.06-.35-.13-.7-.19-1.05-.04,.06-.07,.17-.11,.17-.06,0-.19-.06-.19-.09,0-.13,.03-.27,.04-.4,.09,.09,.19,.19,.27,.3,.09,.37,.19,.74,.27,1.11Zm-2.43,1.26c-.8,.24-1.58,.37-2.27,.7-.49,.24-.85,.75-1.26,1.14,.72,.38,1.44,1.04,2.17,1.06,.67,.01,1.4-.61,2.01-1.08,.27-.21,.46-.81,.36-1.12-.1-.3-.62-.46-1-.71Zm-8.46,.06c-.15,.14-.34,.23-.38,.37-.62,2.05,1.28,5.35,3.37,5.84,.14,.03,.35-.03,.46-.13,.05-.04,0-.35-.1-.4-2.02-1.27-2.85-3.19-3.06-5.47,0-.08-.21-.15-.3-.21Zm7.74-5.13c-.18-.05-.36-.16-.5-.12-1.06,.31-2.11,.66-3.17,1-.04,.01-.04,.13-.07,.2,.98-.22,1.96-.45,2.94-.67,.17-.04,.36-.03,.51-.1,.11-.05,.19-.2,.28-.3Z"/><path d="M166.23,120.04c-4.11-.07-6.35-3.87-4.39-7.2,.78-1.32,1.92-2.46,3.01-3.57,1.11-1.12,2.35-2.11,3.55-3.13,1.98-1.68,4.27-1.17,5.38,1.19,1.41,3,.5,5.66-1.29,8.11-.87,1.19-2.01,2.18-3.02,3.27-.96,1.03-2.07,1.63-3.25,1.33Zm-.24-5.41c-.84,.14-1.26,1.26-1.02,2.27,.05,.23,.58,.57,.62,.54,.56-.47,1.25-.93,1.52-1.55,.1-.24-.78-.9-1.11-1.25Zm3.02-2.05c-.18-.21-.33-.41-.34-.4-.33,.21-.64,.45-.96,.68,.09,.12,.24,.35,.26,.34,.35-.18,.67-.4,1.04-.63Z"/><path d="M155.89,131.86c-.43,1.01-.71,2.13-1.33,3.01-1.52,2.19-3.35,4.05-6.05,4.77-2.18,.59-5.63-.84-6.45-2.9-.32-.81-.37-1.99-.01-2.76,1.64-3.52,4.5-5.77,8.2-6.79,2.76-.75,5.34,1.54,5.64,4.66Zm-3.19,.4c.08-.53,.22-.82,.13-1-.14-.27-.43-.46-.65-.69-.09,.17-.3,.39-.25,.49,.16,.35,.41,.66,.77,1.2Zm-5.46,2.89l-.27-.67c-.15,.17-.35,.32-.43,.51-.04,.11,.11,.3,.17,.45,.21-.11,.42-.23,.53-.29Z"/><path d="M124.46,122.08c4.04,.02,5.76,2.39,4.82,5.63-.94,3.24-4.51,6.18-7.84,6.45-2.13,.18-3.92-.92-5.02-3.09-.86-1.71-.5-3.58,.81-5.04,2.17-2.43,4.8-3.65,7.23-3.95Zm.84,5.67c-.92,.43-1.62,.69-2.25,1.08-.16,.1-.2,.68-.07,.88,.14,.21,.66,.39,.84,.29,.57-.34,1.09-.78,1.56-1.26,.12-.12-.03-.51-.08-.99Z"/><path d="M97.61,110.9c2.41,.06,4.69,.44,6.36,2.45,1.29,1.55,1.41,3.54,.02,4.99-2.85,2.99-7.08,4.08-11.26,1.96-1.85-.93-2.97-3.99-2.21-5.94,.29-.74,.95-1.47,1.63-1.91,1.63-1.07,3.47-1.63,5.46-1.56Zm-3.41,4.18c-.48-.38-.79-.63-1.1-.88-.33,.44-.77,.85-.95,1.34-.11,.3,.17,.75,.27,1.13l1.78-1.59Zm6.68,2.03c0-.08,.04-.22,.02-.23-.15-.06-.33-.17-.46-.12-.96,.36-1.91,.74-2.86,1.14-.09,.04-.14,.21-.2,.32,.08,.04,.15,.08,.23,.11,.79,.28,2.95-.53,3.26-1.22Z"/><path d="M133.8,113.45c.36-.97,.59-1.72,.91-2.42,1.24-2.65,4.77-4.79,7.63-4.67,3.02,.13,4.69,2.94,3.54,5.73-1.42,3.42-4.22,5.21-7.39,6.61-1.16,.51-2.19,.06-2.73-.88-.81-1.4-1.34-2.96-1.96-4.37Zm7.27,.88c.19-.23,.39-.46,.58-.7-.11-.09-.29-.28-.32-.26-.26,.17-.49,.39-.73,.59,.12,.09,.23,.18,.46,.37Zm2.53-5.1c-.15-.06-.29-.14-.45-.18-.05-.01-.12,.09-.18,.15,.1,.09,.19,.25,.29,.25,.11,0,.23-.14,.34-.22Z"/><path d="M60.76,125.11c-.16-.04-.52-.07-.81-.22-2.8-1.47-3.38-5.78-1.05-7.9,2.15-1.96,4.74-2.2,7.39-1.52,2.21,.57,3.23,2.33,3.49,4.48,.07,.62-.2,1.41-.58,1.92-1.08,1.44-2.52,2.46-4.33,2.78-1.29,.23-2.61,.31-4.11,.47Zm1.3-3.37l-.07,.11,.17-.08c.06,.23,.05,.51,.19,.67,.1,.12,.39,.08,.59,.12-.11-.12-.21-.25-.33-.36-.18-.16-.38-.31-.56-.45Zm5.81-2.35c-.39-.45-.78-1.18-1.39-1.49-.54-.28-1.31-.1-1.98-.12,.02,.14,.03,.4,.07,.4,1.14,.13,1.85,.87,2.49,1.73,.09,.12,.3,.15,.45,.23l.35-.74Zm-2.74,1.24c-.06-.15-.08-.35-.19-.44-.07-.05-.27,.07-.42,.11,.06,.15,.09,.34,.2,.43,.07,.05,.27-.06,.41-.1Z"/><path d="M99.71,131.18c.66,.24,1.62,.43,2.42,.91,2.43,1.44,2.74,4.14,.81,6.18-2.19,2.31-5.95,3-8.42,1.54-1.85-1.09-2.51-3.45-1.31-5.22,1.46-2.16,3.59-3.23,6.5-3.41Zm.59,5.86c-.21-.06-.39-.19-.49-.14-.26,.13-.48,.33-.71,.5,.12,.05,.28,.17,.36,.13,.28-.13,.54-.31,.85-.49Z"/><path d="M89.68,163.29c-2.11,.26-3.56-1.4-4.74-3.3-.96-1.54-.1-4.19,1.55-5,1.01-.5,2.09-.94,3.19-1.18,2.07-.46,3.82,.3,5.13,1.9,1.18,1.44,1.69,3.11,.65,4.85-1.17,1.97-3.02,2.78-5.78,2.73Zm1.4-3.45c-1.94,.03-2.01,.02-1.92-1.46,.05-.85-.28-1.16-1-1.12-.79,.05-1.11,.75-.86,1.31,.33,.74,.87,1.53,1.54,1.94,.73,.44,1.7,.45,2.2-.6l.35,.17c-.1-.08-.2-.17-.31-.25Z"/><path d="M79.37,138.09c-.18,2.08-1.86,3.4-3.68,4.44-2.33,1.32-4.09,.76-5.62-1.46-.29-.43-.5-.92-.8-1.35-1.55-2.21-1.3-3.42,1.38-5.12,2.17-1.37,4.57-1.72,6.9-.14,1.05,.71,1.79,2.07,1.81,3.63Zm-4.45-2.06c-.4,.44-.64,.69-.87,.94,.37,.28,.71,.7,1.12,.79,.27,.06,.65-.35,.98-.54l-1.24-1.19Z"/><path d="M37.56,128.56c-.41-1.22,.1-1.93,1.09-2.4,2.87-1.37,5.71-1.56,8.49,.2,.44,.28,.84,.64,1.17,1.04,1.24,1.54,1.11,3.08-.67,3.91-2.65,1.23-5.48,1.86-8.29,.28-1.2-.67-2.24-1.49-1.79-3.04Zm6.12-.78c-.5,.61-.99,1.08-.94,1.16,.32,.44,.77,.79,1.17,1.18,.21-.23,.62-.52,.58-.68-.12-.48-.43-.92-.82-1.65Zm-2.71,1.92c-.25-.35-.43-.6-.61-.86-.18,.15-.52,.34-.5,.43,.08,.28,.28,.54,.48,.75,.04,.04,.33-.17,.62-.33Zm5.79-.15v-.2c-.15,0-.31,.01-.46,.02v.21l.46-.04Z"/><path d="M51.98,148.2c.04-2.58,.07-2.44,2.34-2.97,3.31-.78,5.82,.38,7.87,2.84,1.54,1.85,.88,3.74-1.47,4.4-1.66,.47-3.3,.27-4.88-.41-.64-.28-1.25-.63-1.89-.92-1.43-.64-2.35-1.58-1.97-2.94Zm3.68,1.4c.68-.1,1.1-.21,1.53-.23,.68-.03,1.51,.17,1.6-.79,.01-.12-1.16-.42-1.8-.51-.42-.06-.88,.05-1.29,.19-.27,.1-.69,.51-.66,.58,.17,.33,.48,.6,.62,.75Z"/><path d="M223.27,71.94c2.58,5.69,3.46,11.91,2.56,18.09-.2,1.37,1.89,1.96,2.09,.58,1-6.82,.07-13.49-2.77-19.76-.58-1.27-2.44-.17-1.87,1.09h0Z"/><path d="M193.2,66c0,1.52-1.23,2.75-2.75,2.75s-2.75-1.23-2.75-2.75,1.23-2.75,2.75-2.75,2.75,1.23,2.75,2.75Z"/><circle cx="223" cy="56.75" r="2.75"/><path d="M155.35,65.81c-1.06,3.91-3.33,7.27-7.63,9.01-3.31,1.34-7.37-.22-9.67-2.81-2.65-3.01-3.78-7.32-3.62-11.26,.15-3.82,1.32-7.63,3.18-10.96,2.07-3.72,4.59-7.1,7.33-10.32,1.08-1.26,2.45-2.34,3.86-3.24,1.99-1.27,4.06-.21,4.46,2.2,.83,4.92,1.63,9.84,2.37,14.77,.61,4.03,.8,8.62-.28,12.63Z"/><path class="cls-2" d="M195.22,86.67c3.43-1.82,8.54-2.59,11.58,.4,3.05,3.01,1.1,7.57-2.41,9.14-3.25,1.45-8.18,2.27-10.98-.36-3.16-2.97-1.79-7.26,1.82-9.18Z"/></g><path class="cls-1" d="M179.21,29.37c-1.73,.95-4.03,.85-5.94,.77-2.75-.11-5.49-.52-8.19-1.07-4.82-.98-9.51-2.45-14.4-3.11-4.52-.62-9.1-.71-12.77,2.4-3.39,2.87-5.1,7.36-6.56,11.42-.78,2.18-1.48,4.38-2.31,6.54-1.02,2.67-2.26,5.24-3.25,7.92-2.03,5.54-3.29,11.72-1.38,17.47,1.54,4.64,4.95,8.92,9.83,10.22,1.47,.39,3,.46,4.51,.57,1.18,.08,2.34,.33,3.52,.41,1.68,.1,3.38-.05,5.06-.1s3.44-.19,5.03,.27c.36,.1,.27,.12,.29,.06,.03-.08,.05,.23-.02-.04-.09-.37-.17-.41-.09-.43,0,0-.11,.31-.24,.49-.2,.28-.44,.53-.69,.77-2.6,2.53-6.14,4.24-9.32,5.91-4.94,2.59-10.1,4.13-15.59,5.05-6.51,1.1-13.12,1.73-19.7,2.17-12.45,.83-24.93,.63-37.39,.89-2.36,.05-4.74,.01-7.09,.28-1.78,.2-3.54,.46-5.31,.71-3.92,.55-7.92,1.21-11.89,1.13-1.01-.02-1.69-.2-2.66-.45-.16-.04-.33-.05-.49-.09-.18-.04-.87-.33-.42-.1-.18-.09-.86-.54-.62-.35-.43-.34-.8-.74-1.16-1.15-1.16-1.35-2.04-2.95-2.87-4.51-2.88-5.4-5.18-11.18-7.56-16.82-1.57-3.73-3.22-7.55-4.07-11.52-.26-1.22-.43-2.44-.3-3.7,0,0,.04-.29,.09-.52,.11-.49,.26-.96,.39-1.44,.36-1.37,.65-2.75,.85-4.15,.59-4.23,.11-8.8-3.42-11.67-1.31-1.06-2.71-1.85-4.44-1.53-1.46,.28-2.73,1.2-3.81,2.19-3.1,2.82-5.34,6.71-7.29,10.38-2.11,3.98-3.99,8.16-5.34,12.46C.35,72.93-.3,79.2,.12,85.31c.2,2.94,.64,5.89,1.35,8.75,.64,2.57,1.59,5.01,2.51,7.49,1.17,3.16,2.33,6.27,3.94,9.24,2.43,4.48,5.22,8.71,7.34,13.35s3.87,9.86,5.58,14.87c3.49,10.25,7.4,20.57,9.48,31.23,.78,3.99,1.17,8.02,1.12,12.09-.07,5.12-.63,10.13,.13,15.23,.65,4.36,2.03,8.84,3.95,12.81,1.76,3.64,4.61,7.45,8.87,8.14,1.7,.28,3.29-.07,4.7-1.06,1.22-.87,2.2-2.03,3.46-2.84,3.45-2.22,7.18-1.09,10.31,1.04,2.89,1.97,5.79,4.34,9.53,3.9,4.1-.48,7.94-3.58,9.64-7.28,.95-2.06,1.47-4.27,1.89-6.49,.54-2.86,1-5.76,1.25-8.66,.44-5.03,.1-10.15,.79-15.15,.15-1.1,.44-3.07,1.29-3.44-.26,.11,.27-.05,0,0,.21-.04,.45,0,.66,0,.78,0,1.56,0,2.34-.01,1.5-.01,2.99-.03,4.49-.05,3.68-.05,7.57-.32,11.18,.58,1.49,.37,3.43,.91,4.26,2.3,1.01,1.69,.39,4.09,.11,5.91-.65,4.21-1.02,8.7-.85,12.97,.18,4.53,.69,9.15,2.85,13.21s6.08,7.57,10.96,7.57c4.46,0,7.52-3.06,11.13-5.16,1.71-.99,3.57-1.54,5.54-1.06,2.07,.51,3.48,1.93,4.93,3.4,1.3,1.32,2.74,2.56,4.65,2.76s3.79-.61,5.39-1.58c3.4-2.07,6.36-5.11,8.74-8.29,2.01-2.68,2.51-6.55,3.07-9.77,.93-5.39,1.19-10.86,1.22-16.32s.01-11.11,.3-16.66c.17-3.33,.42-6.68,1.15-9.94,.98-4.36,3.11-7.62,5.92-10.97,1.99-2.37,4.03-4.71,5.88-7.19s3.05-5.09,4.36-7.77c.89-1.83,1.79-3.98,3.78-4.81,5.81-2.41,11.79-.95,17.62,.49,4.7,1.17,9.38,1.77,14.23,1.47,9.7-.61,19.43-3.81,27.57-9.13,3.97-2.6,7.58-5.75,10.46-9.53,2.72-3.58,4.76-7.72,6.27-11.93,2.96-8.27,3.71-17.73,.14-25.93-1.8-4.14-4.74-7.62-8.36-10.29-2.32-1.71-4.92-3.02-7.49-4.32-1.76-.89-3.94-1.69-5.36-3.12-2.35-2.36,1.89-4.99,3.65-6.05,3.67-2.2,7.56-4.18,10.1-7.76,2.35-3.31,2.99-7.72,3.2-11.67,.24-4.41-.16-9.07-1.64-13.26-.66-1.86-1.53-3.66-2.82-5.17s-2.91-2.62-4.5-3.68c-4.04-2.68-8.58-4.73-13.22-6.14s-9.29-2.19-13.89-1.27c-1.64,.33-3.37,.87-4.54,2.12s-1.83,2.72-2.45,4.22c-1.47,3.51-2.43,7.26-4.29,10.6-.82,1.47-1.84,2.93-3.32,3.81-1.66,.99-3.62,1.55-5.51,1.92-3.59,.69-7.3,.54-10.92,1.02-5.35,.71-10.33,2.62-15,5.29-1.68,.96-.17,3.55,1.51,2.59,4.61-2.64,9.53-4.49,14.83-5.05,3.81-.4,7.69-.29,11.43-1.2s7.03-2.73,9.15-6.17,3.12-7.19,4.53-10.82c.52-1.35,1.09-2.85,2.04-3.97,.89-1.05,2.58-1.4,4.02-1.6,4.58-.65,9.39,.56,13.68,2.07s8.52,3.59,12.14,6.36c3.1,2.37,4.45,5.66,5.21,9.42,.84,4.21,.9,8.75,.09,12.97-.35,1.83-.84,3.68-1.8,5.29-1.06,1.78-2.64,3.17-4.34,4.33-3.06,2.1-7.01,3.5-9.43,6.41-1.07,1.28-1.74,2.9-1.53,4.59s1.35,2.91,2.7,3.87c4.11,2.91,9.1,4.32,13.03,7.54,3.37,2.76,5.88,6.39,7.21,10.54,2.65,8.25,.97,17.5-2.59,25.21-1.85,4-4.19,7.7-7.32,10.83-3.33,3.33-7.27,6-11.46,8.14-8.43,4.3-18.27,6.68-27.75,5.83-5.2-.47-10.11-2.44-15.29-3.05-4.86-.57-11.5-.1-14.57,4.24-1.46,2.07-2.36,4.52-3.53,6.76s-2.54,4.17-4.09,6.09c-1.67,2.06-3.43,4.05-5.1,6.12-2.92,3.61-4.89,7.42-5.75,12.01-1.71,9.07-1.22,18.51-1.34,27.69-.07,5.13-.34,10.29-1.32,15.33-.39,2-.89,3.99-1.49,5.94-.07,.23-.13,.47-.22,.7,.16-.43,.09-.21,.03-.1-.09,.17-.19,.33-.3,.48-.38,.58-.82,1.12-1.26,1.65-2.34,2.8-5.45,6.26-9.06,7.36-1.68,.51-2.77-.18-3.95-1.34-1.41-1.39-2.75-2.87-4.55-3.77-4.2-2.1-8.23-.67-11.84,1.83-3.32,2.3-6.92,4.78-11.04,2.73s-6.34-6.95-6.95-11.29c-.54-3.82-.6-7.59-.33-11.43,.17-2.49,.34-4.95,.71-7.41,.32-2.11,.65-4.36-.16-6.4-1.39-3.48-5.62-4.56-8.99-4.98-4.17-.52-8.44-.24-12.62-.2-2.02,.02-4.85-.56-6.51,.92-1.11,.99-1.58,2.53-1.85,3.94-.92,4.87-.58,9.96-.89,14.89-.18,2.88-.58,5.73-1.07,8.57-.4,2.28-.81,4.64-1.73,6.78-1.35,3.16-4.95,6.39-8.61,5.98-3.22-.36-5.72-3.26-8.46-4.73-3.56-1.91-8.05-2.05-11.5,.23-1.25,.83-2.23,1.96-3.44,2.83s-2.58,.85-3.95,.25c-3.62-1.6-5.51-6.03-6.75-9.51-1.63-4.56-2.65-9.26-2.69-14.12-.03-4.43,.5-8.83,.25-13.27-.24-4.21-.95-8.38-1.93-12.47-2.62-10.9-6.55-21.55-10.24-32.12-1.6-4.57-3.3-9.11-5.46-13.44s-4.99-8.42-7.16-12.8c-1.49-3.01-2.53-6.25-3.71-9.4-2.08-5.54-2.97-11.48-2.84-17.39,.23-10.09,4.01-19.77,9.27-28.28,1.07-1.74,2.23-3.44,3.61-4.95,.88-.95,2.01-2.1,3.22-2.4,.28-.07,.56-.09,.83,.04,.63,.3,1.46,.98,2.01,1.59,1.26,1.41,1.73,3.28,1.78,5.13,.07,2.62-.53,5.19-1.22,7.7-.33,1.22-.45,2.45-.35,3.71,.27,3.45,1.52,6.79,2.76,10,2.05,5.28,4.4,10.44,6.67,15.63,1.75,3.98,3.56,8.4,6.59,11.62,2.86,3.05,7.57,2.78,11.38,2.44,4.01-.36,7.99-1.02,11.98-1.53,5.13-.65,10.4-.45,15.56-.51,12.15-.13,24.29-.15,36.4-1.3,6.32-.6,12.73-1.26,18.91-2.74,4.72-1.14,9.05-3.06,13.29-5.38,3.11-1.7,7.01-3.61,9.09-6.6,.77-1.11,1.1-2.65,.07-3.72s-2.87-1.19-4.27-1.27c-1.9-.11-3.8,0-5.7,.05s-2.99-.08-4.71-.27c-2.92-.32-5.69-.25-8.19-2.01-1.92-1.35-3.35-3.39-4.26-5.53-2.36-5.53-1.04-11.61,.95-17.04,.97-2.63,2.19-5.16,3.19-7.77,.83-2.16,1.53-4.36,2.31-6.53,1.35-3.79,2.97-8.35,6.46-10.72s8.89-1.34,12.9-.55c4.66,.92,9.19,2.34,13.89,3.06,4.11,.63,9.44,1.53,13.28-.57,1.7-.92,.18-3.52-1.51-2.59Z"/></g></g></svg>