<?xml version="1.0" encoding="UTF-8"?><svg id="Layer_2" xmlns="http://www.w3.org/2000/svg" viewBox="0 0 267.81 264.66"><defs><style>.cls-1{fill:#fff;}.cls-2{fill:#ffba69;}.cls-3{fill:#bac9ca;}.cls-4{fill:#3ca5ac;}</style></defs><g id="Layer_1-2"><g><g><path class="cls-1" d="M249.73,125.17c10.8,36.49,18.99,61.69,15.94,80.63-.4,2.5-6.47,16.62-10.56,21.21-3.06,3.43-7.88,5.63-12.32,4.45-5.4-1.43-8.53-7.25-9.31-12.79-.77-5.54,.15-11.19-.36-16.76-.22-2.35-.74-4.78-2.26-6.58s-4.28-2.73-6.32-1.56c-3.19,1.83-2.38,6.56-1.3,10.08,2.76,9,4.44,18.34,5,27.74,.37,6.27-.03,13.25-4.46,17.7-4.94,4.96-13.49,4.75-19.4,1-5.91-3.76-9.55-10.24-11.9-16.83-2.32-6.52-3.71-13.58-7.84-19.14-4.13-5.56-12.31-9.02-18.09-5.22-5.87,3.86-5.88,12.21-6.6,19.2-.88,8.59-1.19,17.11-5.87,24.37-3.74,5.8-8.2,11.51-15,10.31-7.23-1.27-12.29-8.6-12.19-15.94,.11-7.34-1.38-25.49-.94-32.82,.8-13.21-5.53-16.8-17.26-22.95-3.85,5.03-4.11,11.91-3.49,18.21s1.97,12.68,.77,18.9c-.13,.66-2.52,11.16-13.77,13.03-7.95,1.33-16.27-10.46-19.88-18.01-4.37-9.14-4.21-17.28-4-27.51,.18-8.95,.33-16.58,4.19-25.35,2.51-5.71,4.86-7.96,6.06-14.33,.26-1.38,1.31-7.49-.51-15.13-1.89-7.91-5.79-12.91-9.36-17.49-3.28-4.21-6.67-8.45-12.23-10.61-3.13-1.21-5.36-1.58-5.36-1.58-3.53-.58-5.66-.05-9.53-1.25,0,0-.95-.3-2.1-.77-13.45-5.6-31.21-37.13-31.21-37.13C3.21,63.28,1.8,59.86,1.56,55.22c-.13-2.59-.58-11.34,5.4-16.77,6.04-5.49,14.56-3.9,22.14-2.48,4.09,.76,9.84,1.92,12.3,6.3,1.04,1.86,.56,2.63,1.78,4.54,2.27,3.53,7.05,5.74,11.5,5.42,5.3-.38,8.61-4.23,11.16-7.21,2.25-2.62,3.48-4.98,6.39-11.97,5.23-12.56,5.67-15.59,9.32-21.68,3.21-5.35,5.95-9.81,9.89-9.87,3.36-.06,6.35,3.09,8.49,5.35,2.48,2.61,3.75,5.14,4.66,7,3.17,6.44,4.5,12.9,4.5,12.9,.27,1.3,.32,1.84,.82,2.51,2.18,2.91,8.31,2.2,12.25,.94,5.81-1.85,5.62-4.5,11.28-6.49,1.61-.57,8.31-2.91,12.38-.02,4.14,2.94,3.61,9.91,3.17,15.86-1.26,16.85-8.25,30.63-8.25,30.63-1,1.98-2.85,5.39-2.45,9.76,.1,1.07,.51,5.61,3.87,8.87,3.13,3.03,6.47,2.71,7.2,5.37,.48,1.76-.86,2.35-.5,4.54,.45,2.76,3.09,4.9,5.39,5.73,3.54,1.27,7.09-.29,8.41-.85,13.33-5.62,45.13-12.48,52.06-13.48,.74-.11,2.69-.36,4.41-1.78,2.27-1.87,3.1-4.9,3.35-8.68,.39-5.82-.83-9.95-3.59-20.97-2.05-8.17-2.45-10.14-1.21-11.72,2.39-3.03,8.93-2.18,12.7-.89,15.04,5.1,19.94,28.38,22.15,38.86,.65,3.08,.85,4.65,.92,6.65,.43,12.57-6.63,18.34-4.66,29.84,.25,1.45,.54,2.4,.94,3.75Z"/><path class="cls-2" d="M248.28,125.57c4.98,16.84,10.46,33.64,14.03,50.85,1.31,6.3,2.32,12.68,2.48,19.12,.07,2.81-.02,5.62-.36,8.41-.24,1.96-.86,3.71-1.6,5.54-1.17,2.91-2.49,5.76-3.91,8.55-1.3,2.54-2.66,5.18-4.45,7.41-2.37,2.95-6.21,5.2-10.1,4.79s-6.43-3.39-7.93-6.64c-1.88-4.08-1.84-8.64-1.74-13.04s.58-9.47-1.2-13.69c-1.46-3.47-5.39-6.32-9.21-4.63-3.39,1.5-3.79,5.37-3.3,8.6,.3,2,.97,3.9,1.52,5.84,.69,2.43,1.3,4.88,1.83,7.34,1.07,4.97,1.82,10,2.23,15.06,.59,7.35,.98,17.58-6.92,21.31-7.23,3.42-15.32-.59-19.91-6.35-5.5-6.89-6.8-15.64-10.06-23.59-1.53-3.72-3.52-7.37-6.62-10.01-2.81-2.4-6.26-4.08-9.98-4.39-3.52-.29-7.04,1-9.46,3.58s-3.59,6.19-4.18,9.69c-1.38,8.28-1.02,16.84-3.29,24.97-1.18,4.24-3.33,8.01-6.02,11.47-2.19,2.82-5.13,5.76-8.92,5.89-7.74,.27-12.84-7.84-12.8-14.81,.03-6.44-.46-12.88-.74-19.31-.15-3.31-.28-6.62-.28-9.94,0-2.99,.32-5.97-.07-8.96-.78-6.02-4.18-10.38-9.13-13.69-2.78-1.86-5.77-3.4-8.72-4.95-.78-.41-1.55-.14-2.05,.54-5.36,7.22-3.98,16.63-2.99,24.95,.65,5.44,1.27,11.43-1.33,16.36-1.14,2.17-2.73,4.15-4.76,5.56-2.4,1.67-5.82,3.12-8.79,2.48-3.24-.7-5.92-3.11-8.1-5.46-2.46-2.66-4.53-5.68-6.3-8.84-1.97-3.5-3.46-7.21-4.32-11.14s-1.08-8.33-1.08-12.54c0-8.92-.16-18.23,2.63-26.8,1.3-3.97,3.38-7.47,5.2-11.19,1.42-2.9,2.32-5.97,2.73-9.17,1.01-7.79-.47-15.94-4.14-22.88-1.69-3.19-3.87-6.08-6.08-8.92-2.42-3.11-4.87-6.18-8.05-8.56-2.96-2.22-6.58-3.65-10.2-4.36-3.3-.65-6.66-.3-9.9-1.32-4.96-1.57-8.87-5.25-12.36-8.97-4.16-4.45-7.82-9.34-11.27-14.35-4.93-7.17-9.92-14.82-13.41-22.82-1.85-4.25-2.35-8.92-1.63-13.5,.52-3.33,1.78-6.59,4.17-9.02,2.82-2.87,6.67-3.92,10.59-3.95s7.75,.74,11.55,1.48c3.11,.61,6.61,1.35,9.01,3.57,1.44,1.32,1.79,2.78,2.39,4.55s1.82,3.35,3.25,4.55c2.97,2.48,6.97,3.84,10.85,3.44s6.9-2.39,9.49-5.04c1.87-1.9,3.64-3.99,4.98-6.3,1.81-3.12,3.13-6.54,4.5-9.86s2.78-6.95,4.13-10.44c2.07-5.37,4.58-10.47,7.96-15.15,.97-1.35,2.15-2.81,3.69-3.53,1.62-.76,3.28-.25,4.72,.66,3.26,2.04,6.02,5.48,7.83,8.82,1.98,3.65,3.45,7.57,4.56,11.56,.6,2.16,.7,4.93,2.46,6.5,2.49,2.22,6.35,2.05,9.42,1.58,3.55-.54,6.82-1.82,9.63-4.08,2.32-1.87,4.66-3.18,7.55-3.96s6.88-1.42,9.37,.78,2.48,6.51,2.39,9.62c-.12,4.25-.55,8.51-1.33,12.69-1.23,6.65-3.19,13.23-5.89,19.44-.48,1.1-1,2.18-1.54,3.26-1.6,3.2-2.59,6.6-2.18,10.21,.35,3.09,1.41,6.07,3.41,8.48,1.36,1.64,3.12,2.77,5.02,3.68,1.06,.51,2.87,1.07,2.66,2.56-.09,.62-.43,1.21-.54,1.83-.17,.94-.09,1.92,.19,2.84,.58,1.84,1.86,3.36,3.38,4.5,3.27,2.44,7.36,2.52,11.07,1.11,5.39-2.05,10.77-3.92,16.34-5.48,6.59-1.85,13.24-3.49,19.91-5.01,4.96-1.13,9.93-2.22,14.94-3.1,2.52-.44,4.92-.75,6.97-2.48,2.86-2.41,3.58-6.33,3.8-9.87,.38-6.09-1.34-12.06-2.81-17.91-.93-3.69-2.15-7.45-2.62-11.24-.1-.84-.13-1.48,.05-2.05,.06-.19-.11,.11,.1-.2,.07-.11,.13-.21,.21-.31,.39-.47,.99-.78,1.56-.98,2.99-1.07,6.76-.28,9.66,.73,2.71,.95,5.12,2.63,7.15,4.64,4.32,4.3,7.09,10.02,9.14,15.69,1.9,5.23,3.22,10.64,4.38,16.07,.71,3.35,1.29,6.61,1.14,10.05-.16,3.74-1.14,7.31-2.3,10.84-1.01,3.07-2.04,6.11-2.47,9.33-.51,3.88,0,7.64,1.11,11.37,.55,1.85,3.44,1.06,2.89-.8-1.13-3.81-1.59-7.62-.82-11.55,.66-3.39,1.94-6.61,2.93-9.9,1.14-3.81,1.81-7.75,1.67-11.74-.1-3.15-.79-6.23-1.45-9.3-1.22-5.65-2.66-11.27-4.75-16.67-2.25-5.81-5.22-11.6-9.79-15.94s-11.32-7.07-17.73-6.09c-2.37,.36-4.98,1.68-5.59,4.2-.57,2.34,.29,5.05,.82,7.32,1.01,4.28,2.17,8.52,3.17,12.79,.64,2.72,1.24,5.47,1.38,8.28,.16,3.1,.1,6.79-1.55,9.51-1.51,2.48-4.12,2.8-6.71,3.24-11.84,2.03-23.62,4.91-35.17,8.16-3.12,.88-6.22,1.8-9.29,2.83-2.53,.85-4.96,1.93-7.48,2.81-3.63,1.27-8.52,.69-10.21-3.33-.71-1.69,.38-2.91,.36-4.57s-.99-2.96-2.3-3.82c-1.58-1.04-3.42-1.55-4.9-2.77s-2.58-2.94-3.22-4.78c-1.04-3.04-1.06-6.22,.01-9.27,.55-1.57,1.38-3.01,2.07-4.51,.98-2.15,1.86-4.34,2.67-6.57,2.84-7.84,4.64-16.02,5.26-24.34,.48-6.55,.86-16.39-7.58-17.81-3.13-.53-6.36,.09-9.34,1.09-1.57,.52-3.11,1.16-4.49,2.08-1.21,.81-2.27,1.82-3.45,2.67-2.89,2.07-6.79,3.03-10.32,2.98-1.37-.02-3.17-.17-4.14-1.27-.63-.72-.63-1.86-.85-2.77-1.75-7.48-4.74-15.14-10.15-20.72-2.56-2.64-5.86-5.54-9.82-4.91-3.65,.58-6.08,4.04-7.95,6.91-3.16,4.84-5.47,9.85-7.54,15.22-1.46,3.8-2.96,7.59-4.54,11.35-1.23,2.93-2.46,5.95-4.25,8.6-1.6,2.38-3.72,4.78-6.05,6.45-3.28,2.35-7.35,2.75-11.05,1.13-1.74-.76-3.4-1.95-4.47-3.55s-1.12-3.54-2.16-5.15c-1.92-2.96-5.16-4.58-8.46-5.54-3.52-1.02-7.24-1.59-10.87-2.06-3.89-.5-8.01-.62-11.77,.7C4.08,36.72,.57,43.74,.07,51.02c-.34,4.98,.6,9.56,2.71,14.07,1.75,3.73,3.8,7.34,5.92,10.87,5.69,9.48,11.98,18.93,19.7,26.88,3.75,3.86,7.99,7.43,13.27,8.92,3.23,.91,6.58,.54,9.82,1.26,3.88,.87,7.5,2.47,10.46,5.16s5.19,5.73,7.48,8.8,4.4,6.36,5.79,9.97c2.58,6.72,3.3,14.56,1.28,21.55-1.08,3.73-3.27,6.95-4.89,10.44-1.97,4.26-3.29,8.73-3.95,13.38s-.74,9.04-.83,13.58-.21,8.9,.2,13.33c.74,8.04,3.58,15.44,8.15,22.07,3.56,5.16,9.28,12.16,16.3,11.71,5.99-.38,11.37-4.37,14.15-9.56s2.56-10.84,1.96-16.47c-.89-8.23-2.95-17.72,2.41-24.93l-2.05,.54c5.19,2.72,11.57,5.51,14.62,10.82s1.72,11.64,1.85,17.37c.16,7.06,.65,14.1,.89,21.16,.11,3.06-.14,6.22,.52,9.22,.78,3.59,2.71,7.04,5.44,9.51s6.53,4.23,10.31,3.96,6.93-2.47,9.4-5.22c2.82-3.14,5.26-6.83,6.84-10.74,1.69-4.15,2.4-8.6,2.9-13.03s.79-8.49,1.24-12.72c.38-3.54,.94-7.47,3.14-10.4,4.87-6.52,14.15-2.81,18.25,2.57,2.74,3.59,4.21,7.97,5.56,12.22s2.58,8.34,4.52,12.26c3.49,7.05,9.36,13.49,17.47,14.74,3.7,.57,7.57,.16,10.89-1.67s5.78-5.27,6.93-9,1.25-8.04,1.01-12.06c-.29-5.08-.93-10.16-1.86-15.16s-2.28-9.42-3.52-14.13c-.64-2.44-1.43-8.43,2.96-7.46s4.46,7.57,4.46,11.14c0,4.9-.53,9.89,.54,14.72,1.66,7.46,7.75,14.23,16,12.2,7.05-1.74,10.64-8.24,13.64-14.25,2.31-4.62,4.84-9.52,5.46-14.7,.71-5.91,.36-11.91-.41-17.79-2.12-16.03-7.02-31.66-11.6-47.12-1.41-4.76-2.83-9.51-4.24-14.27-.55-1.85-3.44-1.06-2.89,.8Z"/></g><g><g><path class="cls-4" d="M255.9,194.31c-.05-7.54-.89-15.05-2.4-22.52-.93-4.62-2.42-9.14-3.9-13.63-1.83-5.53-4.31-10.74-7.42-15.62,1.03-8.39-.6-18.64-5.05-26.42,5.81-6.36,8.75-14.77,9.25-23.56,.85-14.79-5.18-30.65-15.91-39.53-1.99-1.65-4.82-.69-4.73,1.72,.09,2.44,2.54,6.12,3.19,8.65,1.66,6.45,2.17,13.22,1.24,19.82-.91,6.45-3.22,12.73-6.83,18.16-.34,.51-.91,1.16-1.56,1.86-7.96-3.09-17.11-3.23-25.03-.09-3.08,1.22-6.18,2.42-9.34,3.37-5.88,1.78-11.84,3.31-17.72,5.08-3.9,1.18-7.87,1.59-11.9,1.73-2.63,.09-5.18-.3-7.7-1.06-5.01-1.5-9.68-3.67-14.19-6.36-5.25-3.12-9.15-7.38-12.32-12.48-1.39-2.23-1.76-4.26-.16-6.55,1.35-1.94,2.4-4.08,3.72-6.04,4.69-6.98,7.35-14.79,9.46-22.82,.84-3.2,1.57-6.43,2.3-9.66,.58-2.54,1.13-5.08,1.61-7.64,.48-2.56,.79-5.14,.46-7.77-.12-.98-.94-1.75-1.89-1.68-3.16,.24-5.5,2-7.84,4-1.5,1.29-2.91,2.69-4.18,4.21-1.06,1.27-2.3,2.39-3.36,3.66-1.44,1.72-3.17,1.86-5.12,1.16-.67-.24-1.35-.46-1.98-.76-2.58-1.24-5.35-1.87-8.11-2.55-1.61-.4-3.24-.71-4.84-1.13-1.23-.32-2.14-1.11-2.32-2.39-.59-4.21-1.12-8.43-1.62-12.65-.4-3.34-1.42-6.46-3.23-9.3-.38-.59-.89-1.09-1.37-1.61-.93-1-3.15-.56-3.59,.72-.54,1.56-1.12,3.12-1.53,4.72-1.47,5.75-3.81,11.19-6.21,16.58-3.51,7.89-8.37,14.81-15.18,20.25-1.1,.88-2.26,1.83-3.56,2.27-5.4,1.84-10.89,2.97-16.7,2.27-7.14-.86-13.82-3-20.13-6.38-1.04-.56-2.06-1.17-3.12-1.69-2.08-1.01-4.24-.34-5.48,1.76-2.83,4.8-1.2,11.31,.27,16.28,3.02,10.24,8.84,19.97,17.2,26.73,4.79,3.88,12.18,7.5,18.29,8.66,5.2,.98,17.64,1.57,28.18-1.94,.06,0,.52,5.57,.51,6.21-.21,8.3,.68,16.53,1.57,24.76,.76,7.05,2.35,13.22,4.89,19.69-4.79,7.55-8.91,18.02-9.78,20.68-2.3,7.08-3.51,14.5-3.85,21.94-.22,4.77-.04,9.57,.68,14.34,.92,6.09,2.93,11.93,6.56,17.05,.68,.95,1.4,2,2.36,2.59,4.36,2.71,9.18,3.31,11.31-2.52,2.25-6.18-.24-10.14-1.09-16.14-1.68-11.82,2.51-25.97,7.85-36.47,.26,.29,.53,.59,.8,.88,7.54,8.32,17.26,14.04,27.76,17.68,.16,.56,.29,1.13,.39,1.72,.28,1.63,.71,3.23,1.03,4.85,1.31,6.76,1.84,13.58,1.69,20.46-.11,4.96,.11,9.95-.79,14.86-.81,4.47-.71,8.94-.6,13.43,.03,1.54,.72,2.72,1.63,3.82,1.65,2,4.32,2.29,6.33,.75,.37-.29,.73-.6,1.08-.91,2.95-2.56,4.69-5.86,5.95-9.5,4.14-11.94,6.45-24.18,6.36-36.85-.02-2.53-.07-5.02-.24-7.49,13.12,1.65,26.35,.97,38.81-3.88-.05,.37-.09,.73-.14,1.1-.14,1.04-.22,2.07-.24,3.08-.11,4.5,.82,8.77,1.58,13.4,1.03,6.28,3.53,12.15,5.99,17.97,2.09,4.94,4.72,8.41,8.38,12.37,1.8,1.95,7.53,2.36,8.97-.27,.33-.61,.54-1.31,.67-2,.67-3.57,.24-7.01-.92-10.47-2.26-6.72-4.14-13.54-5.42-20.54-.87-4.74-1.02-9.37-.11-14.08,.74-3.79,1.52-7.56,2.49-11.29,6.44-4.61,11.96-9.61,16.45-15.83,3.73,4.78,6.07,10.3,7.43,16.3,1.26,5.59,1.61,11.23,.63,16.91-.57,3.29-.53,6.59-.32,9.9,.12,1.92,.72,3.71,1.57,5.4,.2,.4,.58,.83,.98,.99,2.28,.92,4.64,1.14,6.81-.12,.96-.56,1.76-1.61,2.33-2.61,3.8-6.6,4.13-14.56,4.08-22Z"/><path class="cls-3" d="M177.64,178.08c-4.23-.11-8.4-1.4-11.5-3.99-7.98-6.66-4.22-19.88,2.31-26.34,2.59-2.56,7.42-3.65,10.92-3.15,.45,.06,.9,.19,1.33,.34,2.57,.92,3.99,2.8,4.33,5.47,.2,1.61,.01,3.35,.85,4.82,.87,1.52,2.47,1.96,4.08,2.64,7.86,3.33,5.48,13.18-.43,17.04-3.34,2.18-7.65,3.27-11.9,3.17Z"/><path d="M130.69,86.86c-10.01,8.58-37.86,21.65-54.79,22.13-.45,7.06,.42,14.22,3.05,20.63,8.81,3.03,54.52-10.22,63.1-27.2-1.68-5.12-8.57-13.34-11.35-15.56Z"/><path class="cls-3" d="M215.31,121.56c-.35,3.79-2.54,7.49-6.21,8.86-5.8,2.16-14.21,.61-16.72-5.64-1.52-3.78-.24-8.03,3.16-10.28,.9-.59,1.9-.98,3.01-1.04,1.07-.06,2.14-.2,3.21-.22,1.41-.03,2.72-.31,3.92-1.09,1.26-.82,2.62-.72,3.98-.25,4.29,1.47,6.02,5.6,5.64,9.65Z"/><path class="cls-3" d="M139.8,146.7c-1.98,.03-3.98-.25-5.77-1.07-3.51-1.61-7.34-4.22-7.87-8.35-.7-5.44,2.36-11.64,8.36-11.64,2.39,0,4.65,.58,6.2,2.52,1.36,1.7,2.97,3.07,4.55,4.53,4.56,4.21,4.71,12.76-2.61,13.78-.93,.13-1.89,.22-2.85,.23Z"/><path d="M22.11,44.67c3.24,.05,6.5,.72,9.72,1.43,.87,.19,1.71,.84,2.39,1.46,1.08,.99,1.76,2.32,1.42,3.8-.42,1.83-.79,3.75-1.67,5.37-2.7,4.99-5.15,10.09-7.48,15.27-3.03,6.75-11.42-8.88-12.6-11.42-1.59-3.43-5.09-12.11-.02-14.36,2.71-1.2,5.47-1.6,8.24-1.56Z"/></g><path d="M84.03,48.23c-2.66,3.13-6.2,11.53-1.52,14.54,6.22,3.99,9.94-4.98,11.19-9.58,.27-.99-1.27-1.41-1.53-.42-.89,3.32-4.17,12.54-9.05,8.45-3.14-2.63,.01-9.47,2.04-11.86,.66-.78-.46-1.91-1.12-1.13h0Z"/><path d="M105.2,58.95c-2.66,3.13-6.2,11.53-1.52,14.54,6.22,3.99,9.94-4.98,11.19-9.58,.27-.99-1.27-1.41-1.53-.42-.89,3.32-4.17,12.54-9.05,8.45-3.14-2.63,.02-9.47,2.04-11.86,.66-.78-.46-1.91-1.13-1.12h0Z"/><path class="cls-3" d="M90.05,33c-.29-.42,1.75-10.98,3.42-11.14,1.67-.16,4.42,10.06,3.38,11.65-1.03,1.59-5.85,.84-6.8-.52Z"/><path class="cls-3" d="M127.12,44.59c-.12,1,5.98,3.62,7.37,3.49,1.39-.13,2.42-11.07,1.28-11.46-1.14-.4-8.48,6.55-8.65,7.97Z"/><path d="M40.33,68.3c0,.95-.77,1.72-1.72,1.72s-1.72-.77-1.72-1.72,.77-1.72,1.72-1.72,1.72,.77,1.72,1.72Z"/><path d="M33.31,80.37c0,.95-.77,1.72-1.72,1.72s-1.72-.77-1.72-1.72,.77-1.72,1.72-1.72,1.72,.77,1.72,1.72Z"/><path d="M45.29,80.37c0,.95-.77,1.72-1.72,1.72s-1.72-.77-1.72-1.72,.77-1.72,1.72-1.72,1.72,.77,1.72,1.72Z"/></g></g></g></svg>