<?xml version="1.0" encoding="UTF-8"?><svg id="Layer_2" xmlns="http://www.w3.org/2000/svg" viewBox="0 0 268.29 153.58"><defs><style>.cls-1{fill:#fff;}.cls-2{fill:#ffba69;}.cls-3{fill:#bac9ca;}</style></defs><g id="Layer_1-2"><g><g><path class="cls-1" d="M147.05,33.6c-2.13-6.42,1.33-13.63,6.56-17.91,5.23-4.28,11.92-6.27,18.41-8.17,8.8-2.57,23.85-2.88,32.98-2.05,22,2,22.86,25.73,41,31,5.41,1.57,13.46,1.66,18,5,4.84,3.56,2.11,12.06,1.18,17.99-.93,5.93-6.21,8.79-9.18,14.01-3.98,6.97-6.22,16.9-13.63,19.99-4.24,1.77-8.96,1.88-13.55,1.96-8.75,.16-17.5,.33-26.25,.49-5.06,.09-10.28,.22-14.9,2.29-4.62,2.07-8.53,6.59-8.25,11.65,.55,10.09,15.64,13.88,17.37,23.84,1,5.78-3.27,11.43-8.56,13.97s-11.36,2.68-17.23,2.77c-32.39,.52-64.77,1.03-97.16,1.55-6.74,.11-14.03,.05-19.43-4-6.37-4.77-8.04-13.52-8.6-21.46-.8-11.37-.81-26.05-2.43-34.06-6.15-30.48-11.38-27.98-22.38-31.98-9.58-3.48-15.58-4.23-18.8-13.9-2.01-6.03,.66-12.52,3.29-18.3C10.51,17.21,17,4.86,28.81,2c8.86-2.15,19.17,2.34,25.01,8.82,8.18,9.08,7.94,23.05,14.23,23.66,1.1,.11,28.69-3.01,79-.87Z"/><path class="cls-2" d="M148.5,33.21c-2.19-6.98,2.32-14,7.99-17.78,3.2-2.13,6.78-3.58,10.42-4.77,3.21-1.05,6.46-2.05,9.78-2.67,6.8-1.26,13.83-1.52,20.74-1.39,5.69,.1,11.53,.3,16.66,3.03,8.71,4.64,12.98,14.06,19.64,20.89,3.52,3.61,7.78,6.39,12.7,7.64,3.24,.83,6.59,1.17,9.85,1.9,2.66,.59,6.39,1.39,7.98,3.87s1.1,5.84,.67,8.53c-.24,1.56-.56,3.1-.85,4.65s-.43,3.05-1.04,4.47c-1.24,2.9-3.67,5.08-5.67,7.45s-3.54,5.19-4.88,8.11c-2.38,5.17-4.6,11.82-9.98,14.63-3.55,1.85-7.88,2.04-11.8,2.14-4.48,.12-8.97,.17-13.46,.26s-9.1,.17-13.65,.25c-4.01,.07-8.07,.11-12,.96-6.55,1.42-13.21,6.13-13.69,13.36-.37,5.49,3.56,9.71,7.4,13.06,3.64,3.17,8.46,6.4,9.8,11.32,1.98,7.28-5.17,12.95-11.39,14.6-3.92,1.04-8,1.15-12.04,1.22-4.52,.08-9.04,.14-13.56,.22l-54.88,.88-27.31,.44c-7.08,.11-15.62,.74-21.36-4.24-5.12-4.45-6.57-11.69-7.14-18.14-.66-7.37-.74-14.79-1.16-22.17-.39-6.87-1.26-13.5-2.84-20.2-1.26-5.34-2.69-10.83-5.25-15.71-1.46-2.78-3.43-5.28-6.13-6.95-2.31-1.42-4.97-2.16-7.53-2.96-1.95-.61-3.87-1.32-5.8-1.98-2.58-.89-5.22-1.69-7.66-2.93-5.23-2.67-8.42-8.29-8.04-14.19,.27-4.1,1.98-8.03,3.65-11.73,1.36-3.02,2.78-6.02,4.38-8.92,3.07-5.6,6.92-11.22,12.51-14.56,5.95-3.56,12.92-3.46,19.23-.85s11.29,7.47,14.31,13.69c1.32,2.71,2.3,5.56,3.36,8.37,.85,2.25,1.71,4.6,3.21,6.5,1.41,1.79,3.28,2.6,5.49,2.45,5.7-.4,11.39-.78,17.1-1.03,12.13-.52,24.28-.63,36.42-.47,8.12,.11,16.24,.34,24.35,.68,1.93,.08,1.93-2.92,0-3-15.48-.65-30.98-.92-46.47-.64-8.86,.16-17.73,.5-26.57,1.11-1.78,.12-3.56,.28-5.34,.39-2.62,.15-3.86-3.2-4.68-5.21-2.4-5.93-4.22-12.05-8.33-17.1C51.21,5.21,44.35,1.35,37.41,.28s-13.38,.89-18.71,5.29S9.94,15.79,6.96,21.7c-1.66,3.29-3.23,6.65-4.6,10.08C.87,35.52-.34,39.61,.09,43.68c.62,5.89,4.09,11.28,9.35,14,2.54,1.32,5.29,2.2,7.99,3.13,2.08,.71,4.13,1.48,6.23,2.13,2.68,.84,5.02,1.43,7.26,2.92,2.46,1.63,4.25,4.52,5.55,7.42,2.59,5.79,3.94,12.19,5.22,18.36,1.41,6.8,1.61,13.81,1.91,20.73,.33,7.41,.26,15.04,1.77,22.33,1.4,6.77,4.76,13.36,11.31,16.38,7.23,3.32,15.73,2.43,23.46,2.31l56.19-.9,28.36-.45c8.17-.13,17.34,.59,24.81-3.34,5.9-3.1,10.52-10,8.39-16.79-1.63-5.21-6.27-8.61-10.22-12.03s-8.22-7.68-6.29-13.27c2.71-7.85,12.28-8.95,19.34-9.13,9.28-.24,18.56-.35,27.83-.52,7.35-.14,15.34-.48,20.27-6.69,4.02-5.06,5.51-11.47,8.97-16.84,1.81-2.8,4.36-5.03,6.31-7.73s2.45-5.63,3.07-8.83c1.09-5.65,2.8-13.33-2.98-17.05s-12.91-2.99-19.09-5.18c-9.64-3.42-14.39-13.27-20.79-20.46-3.44-3.86-7.55-7.05-12.47-8.76-5.95-2.07-12.75-1.9-18.97-1.81-6.82,.11-13.87,.52-20.49,2.28-7.26,1.94-15.1,4.36-20.74,9.55-5,4.6-8.16,11.84-6.05,18.58,.58,1.84,3.47,1.05,2.89-.8Z"/></g><g><g><g><path d="M18.61,20.64c-.02,.06-.03,.11-.04,.16-.04-.01-.07-.03-.1-.04,0,0,.14-.12,.14-.12Z"/><path d="M16.02,45.31c-.04,.07-.05,.14-.08,.21l-.05-.03,.13-.18Z"/><path d="M11.96,40.12c.33,.55,1.36,1.07,1.89,1.44,.68,.47,1.37,.91,2.08,1.34,2.8,1.68,5.76,3.06,8.52,4.79,.19,.12,.12,.72,.08,1.09-.01,.1-.38,.25-.56,.22-.89-.16-1.85-.23-2.65-.61-1.83-.87-3.59-1.89-5.37-2.85-.46,1.17,.04,2.07,1,2.77,3.62,2.63,7.64,4.36,11.97,5.45,2.7,.68,5.41,1.31,8.08,2.05,6.38,1.78,12.81,1.82,19.29,.64,1.59-.29,3.21-.43,4.81-.68,1.07-.17,1.62-.81,1.33-1.92-.27-1.06-1-2.19,.92-2.49,.89-.14,1.78-.5,2.57-.93,1.51-.83,1.78-2.21,.66-3.42-3-3.23-5.93-6.54-9.14-9.57-5.21-4.92-8.12-11.24-11.14-17.5-1.71-3.54-3.14-7.21-4.71-10.81-.06-.15-.41-.32-.51-.27-.18,.09-.43,.38-.39,.54,.27,1.34,.43,2.74,.92,4,2.2,5.61,4.51,11.18,6.76,16.78,.07,.17-.04,.59-.12,.61-.35,.06-.83,.16-1.05-.01-.53-.43-.97-.98-1.4-1.53-1.44-1.82-2.8-3.7-4.31-5.46-.42-.48-1-.82-1.58-1.17-.98-1.6-2.37-3.71-3.19-4.94-.76-1.65-2.44-3.63-3.15-4.27-.11-.1-.47-.14-.48-.1-.14,.35-.45,.88-.32,1.05,.67,.83,1.46,1.57,2.2,2.35,0,0,.06,.08,.15,.22-.03,0-.06-.01-.09-.02,.83,2.25,2.14,6.42,4.61,7.42,.27,.55,.65,1.05,1.01,1.56,3.34,4.72,6.28,9.75,10.45,13.85,.27,.27,.32,.75,.48,1.14-.39,.02-.9,.21-1.15,.03-1.7-1.19-3.59-2.23-4.95-3.75-3.7-4.14-7.3-8.38-10.68-12.78-2.82-3.67-5.24-7.63-7.89-11.43-.92-1.32-1.91-2.63-3.03-3.78-.83-.85-.94,.25-1.33,.7-1.56,1.79,.06,3.51,.04,5.26l-.22-.12c1.56,1.01-.41,2.08,.06,3.1l.11-.14c.36,1.02,.49,2.21,1.11,3.04,2.42,3.28,5.03,6.43,7.5,9.68,.93,1.22,1.71,2.56,2.55,3.85-1.14,.55-2.1,.06-2.85-.8-2.45-2.79-4.78-5.68-7.26-8.44-1.5-1.67-2.67-3.77-5.03-4.49-.36,1.22,.38,2.08,1.09,2.91,5.85,6.83,11.24,14.11,18.51,19.6,.31,.24,.57,.55,.86,.82-.44,0-.94,.16-1.3,0-4-1.79-7.94-3.57-11.16-6.77-3.1-3.08-6.62-5.74-9.97-8.56-.4-.34-.88-.48-1.4-.49-1.41-.02-.02,1.15,.31,1.5,.77,.79,1.37,1.75,2.26,2.42,1.32,.98,2.02,2.77,3.81,3.09-1.59,.56-2.93-.05-4.27-.93-.78-.51-1.44-1.17-2.23-1.67-.39-.25-2.38-1.2-1.96,0,.25,.72,1.3,1.55,1.82,2.1,.63,.66,1.3,1.29,1.99,1.89,1.37,1.21,2.84,2.31,4.33,3.36,1.71,1.2,3.47,2.33,5.21,3.49,1.35,.9,2.84,1.59,4.17,2.52,.41,.29,.5,1.04,.74,1.58-.42,.04-.93,.27-1.26,.11-5.42-2.62-10.81-5.32-16.25-7.91-.45-.21-2.43-.64-1.89,.26Zm10-4.76c-.06,.1-.11,.2-.16,.3v-.31c.06,0,.1,.01,.16,.02Zm13.99,3.26c0-.24,0-.47,0-.7l.03,.67-.03,.04Zm-.18-3.14c-.96,.37-1.82,.57-1.86-.8,.62,.27,1.24,.54,1.86,.8Zm7.44,16.78c.48-.23,.95-.57,1.46-.64,.25-.03,.57,.43,.87,.68-.41,.18-.79,.5-1.17,.48-.39-.01-.78-.34-1.16-.52Z"/><path d="M34.96,16.69c.02,.06,.05,.13,.07,.19-.07-.02-.15-.04-.22-.06l.15-.13Z"/></g><path class="cls-3" d="M127.49,129.99c-.31,2.77-1.46,6.43,.04,9.04,1.58,2.76,9.1,1.47,11.95,1.53,2.01,.04,4.02-.02,5.99-.48,3.98-.94,6.78-3.6,5.36-7.9-.19-.58-.46-1.13-.84-1.61-1.07-1.34-2.89-1.9-4.61-1.85s-3.37,.62-4.99,1.18c.31-.11,3.15-20.65,3.98-24.98,.34-1.8,1.02-2.32,2.91-2.28,2.56,.06,5.12,.17,7.67,.44,1.87,.2,3,1.33,3.02,3.26,.07,5.07,.6,10.12,.72,15.18,.1,4.2-.22,8.42,.14,12.61,.28,3.24,2.69,4.98,5.85,5.58,4.27,.81,8.59,1.14,12.9,1,2.89-.1,6.91-1.5,7.69-4.64,.61-2.44-.32-5.83-2.54-7.22-1.78-1.11-3.96-1.34-6.06-1.42-1.56-.06-3.23-.02-4.5,.88-.22-2.89-.45-31.11,2.93-41.83,.95-3.02,3.74-4.39,6.68-3.32,2.16,.79,4.2,1.98,6.17,3.19,1.38,.85,2.51,2.08,3.82,3.05,1.54,1.14,3.05,.89,4.42-.28,1.53-1.31,1.84-4.38,4.07-4.14,1.47,.16,2.71,2.29,4.09,3.51,.52,.46,1.12,.84,1.71,1.22,3.02,1.97,4.38,1.8,6.51-.94,1.14-1.47,2.12-3.07,3.25-4.55,.87-1.14,2.72-1.28,3.72-.22,.95,1,1.67,2.21,2.56,3.28,2.43,2.91,5.25,2.81,7.42-.34,.79-1.14,1.3-2.46,1.95-3.69,1.48-2.8,1.76-2.81,3.68-.55,1.04,1.22,2.08,2.5,3.34,3.47,1.63,1.26,3.7,.88,4.94-.77,.68-.91,1.32-1.94,1.66-3.02,1.64-5.09,3.32-10.17,4.71-15.33,1.78-6.62-1.16-13.1-7.39-16.34-4.02-2.09-7.39-4.85-10.08-8.46-2.78-3.74-5.51-7.51-8.24-11.28-4.58-6.31-10.45-11.28-16.81-15.62-4.69-3.2-10.15-4.67-15.8-5.04-8.37-.56-14.82,3.29-19.98,9.48-3.56,4.28-6.8,8.75-9.11,13.94-1.86,4.19-5.45,6.97-10.11,7.87-2.73,.53-5.51,.89-8.28,1.09-8.85,.63-19.61,.93-28.6-.37-8.49-1.23-17.12-1.3-25.67-.87-10.63,.53-24.22,.37-32.86,7.61-11.68,9.8-7.06,29.51-3.65,41.95,3.83,13.98,6.84,28.1,3.89,42.74-.35,1.74,.77,3.31,2.57,3.54,4.84,.63,9.7,1.22,14.57,1.55,1.53,.1,3.23-.45,4.66-1.12,2.27-1.06,2.62-4.07,.95-5.94-2.4-2.68-6.28-2.86-9.59-2.06,.79-.24,.8-6.38,.92-7.33,.43-3.41,2.86-21.75,2.72-21.75,4.16-.11,8.35-.23,12.48,.38,0,4.11-.62,8.19-.71,12.34-.09,4.47-.11,8.95-.41,13.41-.22,3.28-1.32,6.84-1.25,10.08,.04,1.97,.91,3.28,2.76,3.68,4.94,1.07,9.24,.97,14.21,.6,2.49-.19,4.76-.55,6.47-2.6,1.26-1.51,.96-4.01-.03-5.58-1.18-1.87-3.79-1.77-5.72-1.57-1.89,.19-3.78,.38-5.66,.57,.26-2.2,.71-4.26,.81-6.45,.17-3.71,.52-7.42,.8-11.12,.26-3.48,.5-6.97,.81-10.45,.15-1.71,.9-2.4,2.69-2.59,8.85-.93,17.69-.67,26.52,.22,1.72,.17,2.21,.94,2.02,2.94-.51,5.57-2.1,24.84-2.17,25.47Z"/><path d="M249.86,44.85c-1.56,.02-3.05,.18-4.29,.4-5.21,.91-10.04,3.43-13.41,7.56-4.52,5.56,2.44,10.95,6.83,13.57,2.41,1.44,5.62,3.45,8.39,4.01,3.6,.73,6.3-2.48,8.48-4.71,2.45-2.51,4.6-5.59,5.6-8.98,.94-3.18,.34-6.71-2.05-9.11-2.16-2.17-6.03-2.8-9.55-2.75Z"/><path d="M178.28,18.5c-5.01-.91-10.14-.87-15.15,0-2.74,.48-6.69,.69-7.67,3.79-1.63,5.17-.76,10.63,.89,15.67,1.89,5.78,4.76,12.98,10.21,16.43,3.15,1.99,6.19,.06,8.6-2.22,5.86-5.54,9.48-13.33,13.16-20.38,.95-1.82,1.91-3.76,1.78-5.81-.27-4.58-8.18-6.83-11.83-7.49Z"/></g><circle cx="208.39" cy="43.23" r="3.08"/><path class="cls-1" d="M92.06,57.38c-.17-.72-.89-.98-1.54-.88-.55,.09-1.01,.42-1.31,.87-.35,.23-.63,.58-.74,1.01-.42,1.69,1.18,3.05,2.79,2.64,.6-.15,1.2-.82,1.13-1.48-.09-.72-.16-1.45-.33-2.16Z"/><path class="cls-1" d="M110.66,66.11c-.72-.72-2-.76-2.71,0-.51,.54-.78,1.15-.83,1.89-.01,.12,0,.12,0,.02-.02,.14-.04,.29-.04,.44,0,.28,.05,.6,.15,.86,.23,.6,.69,1.05,1.38,1.05,.61,0,1.15-.41,1.35-.97,.23-.08,.44-.22,.6-.42,.14-.18,.29-.34,.39-.54,.37-.79,.35-1.67-.3-2.32Z"/><path class="cls-1" d="M131.99,57.91s.04-.06,.07-.12c.7-.91,.6-2.28-.51-2.93-.61-.36-1.39-.36-2,0-.8,.47-1.09,1.36-.91,2.24-.11-.53-.06-.08-.05,.05,0,.2-.04,.4-.03,.6,0,.5,.1,1.01,.25,1.49,.28,.84,1.12,1.38,2,1.14,.93-.26,1.27-1.12,1.14-2,.02,.19,.03,.18,.01-.01,0-.1,0-.2,0-.3,0,0,.02-.07,.03-.14Z"/><path class="cls-1" d="M121.77,50.25c-.11-.33-.26-.59-.47-.82,0-.02,0-.04-.01-.06-.09-.27-.2-.42-.3-.65-.24-.55-.97-.88-1.53-.88-.84,0-1.43,.55-1.71,1.3,.15-.38,.11-.3-.11,.23-.07,.25-.1,.5-.1,.76,0,.36,.03,.68,.09,1.05,.18,1.21,1.57,1.98,2.7,1.67,1.05-.29,1.81-1.53,1.45-2.6Z"/><path class="cls-1" d="M128.48,72.12c-.07-.27-.21-.49-.34-.73-.11-.2-.23-.4-.34-.6-.46-.81-1.47-1.21-2.36-.96-.35,.1-.66,.28-.92,.54-.43,.43-.54,.9-.61,1.48-.07,.52,.15,1.12,.41,1.56,.37,.63,.94,.98,1.6,1.24,.06,.02,.12,.03,.18,.05,.5,.16,1.08,.09,1.53-.17,.28-.17,.51-.39,.68-.68,.28-.48,.27-.93,.19-1.46,.1,.45,.1,.36,0-.27Z"/><path class="cls-1" d="M154.24,75.16c-1.19,0-2.17,1.2-1.81,2.38,.02,.08,.05,.15,.08,.22,.3,.76,.87,1.32,1.73,1.32s1.44-.56,1.73-1.32c.03-.07,.06-.14,.08-.22,.36-1.17-.62-2.38-1.81-2.38Z"/><path class="cls-1" d="M151.34,56.3c-1.82,0-1.82,2.83,0,2.83s1.82-2.83,0-2.83Z"/><path class="cls-1" d="M140.95,77.89c.06-.39,0-.81-.2-1.16-.32-.57-.83-.81-1.47-.89-.43-.05-.8,.13-1.11,.39-.51,.26-.76,.91-.79,1.44-.02,.45,.13,.9,.34,1.29v.02c.04,.25,.27,.6,.46,.76,.49,.4,.95,.52,1.57,.4,.53-.11,1.04-.63,1.15-1.15,.08-.35,.11-.74,.03-1.1Z"/><path class="cls-1" d="M60.03,53.5c-.79,.22-1.26,1.05-1.04,1.84,.2,.73,1.05,1.3,1.81,1.05,.65-.21,1.13-.74,1.13-1.45,0-.97-.95-1.7-1.89-1.44Z"/><g><path class="cls-1" d="M66.95,71.89c-.81-.96-2.2-.68-3.05,0-.83,.65-1.06,1.85-.54,2.76,.18,.31,.48,.51,.82,.61,.38,.45,1.03,.57,1.6,.45,.59-.13,1-.51,1.35-.97,.67-.88,.51-2.03-.17-2.83Z"/><path class="cls-1" d="M64.74,73.08h0Z"/></g><path class="cls-1" d="M74.15,55.05c0-.52-.1-1.02-.29-1.5-.02-.07-.05-.13-.08-.2,0-.02-.01-.04-.02-.06-.17-.35-.48-.57-.83-.69-.02,0-.03-.01-.05-.02-.07-.02-.14-.04-.21-.05-.04,0-.08-.01-.12-.02-.06,0-.11,0-.17,0-.06,0-.11,0-.17,0-.04,0-.08,.01-.12,.02-.07,.01-.14,.03-.21,.05-.02,0-.03,.01-.05,.02-.35,.12-.66,.34-.83,.69,0,.02-.02,.04-.02,.06-.03,.06-.06,.13-.08,.2-.19,.48-.28,.97-.29,1.5-.01,.66,.38,1.24,.93,1.54,.21,.19,.49,.3,.83,.3s.62-.12,.83-.3c.55-.3,.94-.88,.93-1.54Z"/><path class="cls-1" d="M77.92,69.95c-.1,.07-.2,.14-.3,.22-.57,.41-.76,1.2-.22,1.73,.54,.54,1.33,.35,1.73-.22,.07-.1,.14-.2,.22-.3,.6-.84-.59-2.02-1.42-1.42Z"/><path class="cls-1" d="M82.87,45.25c-.55-.1-1.09,.06-1.39,.57-.21,.35-.21,.82-.03,1.19,0,.1,0,.2,.02,.31v.03c.09,.45,.5,.76,.91,.9,.75,.25,1.77-.22,1.91-1.04,.17-.98-.45-1.77-1.41-1.95Z"/><path class="cls-1" d="M94.2,81.1c-.7-.49-1.73-.28-2.29,.33-.66,.73-.68,1.71-.03,2.45,.38,.44,1.11,.49,1.59,.21,.24-.14,.41-.34,.52-.57,.28-.11,.53-.31,.69-.58,.39-.67,.12-1.42-.48-1.84Z"/><path class="cls-1" d="M101.76,52.33c-.83-.29-1.77,.68-1.23,1.49,.13,.19,.28,.38,.5,.49,.09,.04,.18,.07,.28,.09,.08,.13,.21,.22,.41,.22,.27,0,.43-.17,.48-.37,.19-.13,.33-.32,.41-.58,.17-.61-.25-1.23-.85-1.33Z"/><path class="cls-1" d="M96.21,69.75c-.65-.65-1.78-.51-2.24,.29-.39,.67-.16,1.56,.51,1.96,.72,.42,1.96,.08,2.1-.85,.08-.53,.03-.99-.37-1.39Z"/><path class="cls-1" d="M108.24,82.92c-.82,.08-1.63,.51-1.81,1.39-.16,.77,.1,1.63,.83,2.02,.43,.22,.92,.25,1.34,0,.14-.08,.26-.19,.36-.32,.49-.27,.83-.79,.84-1.38v-.13c.03-.8-.73-1.66-1.57-1.58Z"/><path class="cls-1" d="M144.62,89.26c-.34-.25-.75-.42-1.16-.52-1.08-.26-2.35,.75-1.93,1.93,.11,.3,.21,.59,.36,.85l.06,.18c.14,.47,.55,.8,1.05,.8,.24,0,.45-.08,.62-.21,.19,.03,.39,.02,.6-.04,.41-.11,.76-.39,.98-.75,.49-.83,.13-1.71-.59-2.24Z"/><path class="cls-1" d="M125.29,91.02s-.05-.09-.09-.13c-.08-.08-.17-.15-.27-.2-.43-.38-1.12-.46-1.54,0-.52,.58-.47,1.39,.08,1.93,.55,.55,1.54,.45,1.93-.25,.06-.11,.11-.23,.15-.36,.11-.36,0-.74-.25-1Z"/><path class="cls-1" d="M142.55,47.14c-.65-.82-1.84-.57-2.51,.02-.64,.56-.82,1.61-.36,2.33,.28,.43,.8,.63,1.28,.46,.27,.16,.58,.18,.89,.14,.4-.06,.68-.41,.9-.71,.52-.68,.27-1.63-.2-2.24Z"/><path class="cls-1" d="M165.83,63.42c-.29-.95-1.3-1.35-2.18-.93-.26,.12-.48,.35-.63,.6-.27,.44-.19,.92,0,1.36,.23,.51,.82,.64,1.32,.48,.2,.05,.4,.07,.62,0,.63-.17,1.06-.88,.86-1.52Z"/><path class="cls-1" d="M165.21,89.14c-.06-.22-.11-.44-.17-.65-.18-.63-.76-1.08-1.42-1.08-.73,0-1.56,.67-1.47,1.47,.04,.36,.09,.72,.13,1.08,.09,.74,.56,1.37,1.37,1.37,.14,0,.26-.03,.38-.06,.1,0,.19-.01,.28-.04,.56-.16,.86-.64,.9-1.19-.02,.14,0,.14,.03,0,.09-.3,.04-.59-.03-.89Z"/><path class="cls-1" d="M154.22,93.71c-.2,.08-.4,.17-.6,.26-.72,.34-.77,1.39-.25,1.91,.52,.52,1.57,.47,1.91-.25,.09-.2,.18-.39,.26-.6,.27-.74-.58-1.6-1.32-1.32Z"/><path class="cls-1" d="M76.31,87.39c-.48-.28-1.11-.16-1.49,.22-.15,.14-.23,.31-.3,.49-.23,.15-.42,.38-.5,.66-.18,.65,.22,1.22,.82,1.44,.47,.17,1.06,.02,1.41-.33,.17-.17,.28-.4,.33-.63,.46-.53,.39-1.45-.27-1.85Z"/><path class="cls-1" d="M57.7,66.5c-.22-.51-.84-.76-1.36-.62-.97,.27-1.3,1.82-.28,2.27,.25,.11,.52,.14,.76,.05,.24,0,.48-.09,.69-.26,.44-.36,.4-.98,.2-1.45Z"/><path class="cls-1" d="M62.02,85.97c-.42-.65-1.32-.65-1.74,0-.19,.28-.32,.74-.32,1.09,0,.34,.1,.67,.17,1.01,.21,1.02,1.83,1.02,2.05,0,.07-.33,.17-.66,.17-1.01,0-.34-.14-.8-.32-1.09Z"/><circle class="cls-1" cx="140.72" cy="64.6" r="1.27"/><path class="cls-1" d="M95.7,92.42c0-.21-.05-.4-.16-.58-.27-.36-.6-.72-1.07-.79-1.05-.16-2.01,.59-2.01,1.69,0,.72,.59,1.31,1.25,1.43,.09,.07,.2,.13,.3,.18,.37,.17,.78,.16,1.08-.14,.21-.21,.29-.51,.24-.79,.07-.06,.14-.14,.19-.23,.11-.2,.17-.39,.15-.62-.04,.25-.03,.2,.02-.15Z"/><path class="cls-1" d="M65.02,96.81h-.24c-.61-.04-1.12,.52-1.12,1.11s.51,1.14,1.12,1.12h.24c.6-.04,1.11-.49,1.11-1.12s-.5-1.08-1.11-1.11Z"/><path class="cls-1" d="M57.1,76.66c-.17-1-.89-2.03-2.04-1.76-.79,.19-1.2,1.05-1,1.74-.09,.51,.14,1.07,.74,1.21,.41,.09,.84,.13,1.26,.17,.76,.08,1.14-.74,1.04-1.36Z"/><path class="cls-1" d="M109.03,45.72c-.06-.58-.33-.9-.85-1.12-.96-.41-1.87,.38-2.01,1.26-.07,.11-.14,.22-.18,.35-.36,1.05,.52,2.31,1.56,2.5,.75,.14,1.56-.33,1.54-1.18-.01-.6,0-1.21-.06-1.81Z"/><path class="cls-1" d="M112,58.12c.27-1.13-1.11-2-1.97-1.15-.85,.85,.02,2.24,1.15,1.97-.16,.02-.18,.03-.04,.03,.48,.01,.9-.41,.89-.89,0-.13,0-.12-.03,.04Z"/></g></g></g></svg>