<?xml version="1.0" encoding="UTF-8"?><svg id="Layer_2" xmlns="http://www.w3.org/2000/svg" viewBox="0 0 140.67 270.9"><defs><style>.cls-1{fill:#e9ca87;}.cls-2{fill:#fff;}.cls-3{fill:#ffba69;}.cls-4{fill:#e47349;}.cls-5{fill:#9ed2d6;}.cls-6{fill:#a57197;}</style></defs><g id="Layer_1-2"><g><g><path class="cls-2" d="M47.63,99.11c-1.91-1.8-5.12-1.1-5.8-.86-1.94,.69-3.57,2.03-5.22,3.27-5.53,4.14-12.11,7.39-19.03,7.23-6.91-.16-14.03-4.51-15.71-11.21-1.22-4.88,.5-9.96,2.2-14.7,2.74-7.63,5.48-15.27,8.22-22.9,3.46-9.64,6.94-19.33,11.92-28.28s9.02-13.67,17.6-19.25c5.5-3.57,13.02-9.51,32.18-10.82,35.14-2.4,54.96,32.93,63.68,59.66,1.07,3.28,2.33,8.03,.88,13.45-.4,1.51-2.12,7.93-7.58,10.67-2.97,1.49-6.47,1.12-13.34,.31-8.61-1.01-9.97-2.43-13.43-1.31-4.1,1.34-8.13,5.28-8.17,9.29-.04,3.64,3.23,4.94,6.17,9.76,2.14,3.51,2.98,17.94,3.52,26.37,.63,9.95,2.17,37.19,2.54,43.67,.07,1.26,.26,4.02,1.92,4.83,1.38,.68,3.41-.16,4.59-1.38,1.59-1.65,1.58-4.02,1.59-4.94,0,0,.04-4.78,2.39-15.83,1.05-4.92,2.47-11.64,6.93-13.12,4.5-1.5,7.83,.26,10.41,5.13,2.42,4.57,1.6,10.38,.8,16.77-.14,1.14-2.87,22.1-5.59,31.15-4.35,14.46-17.58,18.56-14.8,23.56,1.34,2.42,4.42,1.66,7.47,5.64,.47,.61,3.44,4.5,2.9,8.9-.88,7.19-10.23,8.13-10.61,14.36-.27,4.28,4.05,5.29,3.94,10.64-.06,3.32-1.82,7.91-5.25,9.34-4.78,2-8.39-3.99-17.6-4.48-3.13-.16-2.94,.51-9.98,1.69-6.95,1.16-17.61,2.95-29.28,.94-3.59-.62-4.75-1.16-7.61-1.02-7.21,.36-9.55,4.32-13.6,3.7-3.99-.61-5.45-5.02-9.79-12.64-9.73-17.07-15.85-18.51-14.65-23.69,1.79-7.76,15.69-5.31,23.39-15.12,7.81-9.96,.6-24.37,.85-35.62,.02-.94-.34-21.02,3.39-42.65,2.6-15.06,6.83-28.95,8.05-31.76,.03-.08,1.87-6.58-.46-8.77Z"/><path class="cls-3" d="M48.69,98.04c-3.08-2.63-7.25-1.74-10.34,.34-1.99,1.33-3.82,2.88-5.86,4.15s-4.37,2.5-6.75,3.33c-4.39,1.54-9.1,1.95-13.52,.35-3.72-1.34-7.23-4.17-8.57-8-1.8-5.14,.32-10.62,2.06-15.48,1.94-5.39,3.87-10.79,5.81-16.18,3.71-10.33,7.18-20.83,12.15-30.64,3.85-7.61,8.41-14.62,15.34-19.75,4.38-3.24,9.13-6.4,14.15-8.56,7.54-3.24,16.2-4.66,24.37-4.64,7.46,.02,14.78,1.94,21.32,5.53,12.98,7.13,22.18,19.65,28.85,32.57,3.25,6.29,5.96,12.85,8.2,19.57,1.43,4.28,2.41,8.66,1.34,13.15-.63,2.64-1.69,5.28-3.44,7.39-2.32,2.79-5.16,3.79-8.68,3.69-4.46-.12-9-.77-13.38-1.63-2.43-.48-4.86-1.12-7.33-.5-4,1.01-7.8,4.14-9.31,8-.69,1.78-.8,3.78-.06,5.56,.69,1.67,2,2.98,3.18,4.32s2.43,2.74,3.05,4.33c.52,1.33,.78,2.79,1.02,4.19,1.3,7.36,1.56,14.91,2.03,22.36,.82,13.23,1.56,26.47,2.3,39.7,.14,2.47-.06,5.58,1.71,7.53,3.18,3.51,8.35-.41,9.21-3.98,.37-1.52,.28-3.13,.42-4.69,.3-3.39,.88-6.76,1.52-10.1,.76-3.97,1.38-8.36,3.23-11.99,.75-1.47,1.74-2.88,3.34-3.49s3.39-.68,4.9,.1c3.71,1.92,5.12,6.79,5.2,10.65,.08,3.56-.45,7.11-.92,10.63-.1,.73-.22,1.63-.35,2.59-.2,1.44-.41,2.88-.62,4.32-.54,3.61-1.11,7.21-1.76,10.79-1.28,7.12-2.53,14.39-6.77,20.43-1.86,2.64-4.14,4.93-6.43,7.18-1.61,1.59-3.55,3.26-4.38,5.43-.87,2.29,.23,4.55,2.27,5.77,1.56,.94,3.25,1.41,4.59,2.72,1.07,1.04,1.9,2.32,2.55,3.66,1.68,3.46,1.35,7.04-1.43,9.74-2.15,2.09-4.92,3.51-6.7,5.98-1.94,2.69-1.84,6.02-.04,8.75,.86,1.3,1.89,2.49,2.3,4.02,.49,1.79,.15,3.75-.46,5.47-1.02,2.86-3.36,5.45-6.59,4.46s-5.78-2.86-8.91-3.76c-2.88-.83-5.97-1.19-8.91-.5-3.55,.83-7.11,1.51-10.71,2.05-4.62,.7-9.29,1.15-13.97,1.13-2.75,0-5.51-.17-8.24-.52-2.27-.29-4.48-.86-6.74-1.21-4-.62-7.92,.23-11.56,1.92-2.22,1.03-4.78,2.58-7.08,.84-1.11-.84-1.88-2.12-2.58-3.29-1.15-1.92-2.16-3.92-3.24-5.88-2.32-4.23-4.86-8.34-7.72-12.22-1.8-2.44-3.74-4.75-5.65-7.1-.57-.7-1.09-1.36-1.58-2.15s-.57-.91-.74-1.78c-.05-.26,0,.2-.01-.16,0-.17,0-.34,0-.51,0-.34,.03-.49,.22-1.08,.35-1.07,1.09-1.92,2-2.56,2.46-1.73,5.59-2.43,8.38-3.43,3.56-1.27,7.01-2.83,9.91-5.31,3.25-2.77,5.47-6.57,6.24-10.78,1.6-8.74-1.75-17.31-2.3-25.97-.32-4.98-.03-10.08,.19-15.06,.86-19.61,3.87-39.21,9.85-57.93,.64-2.01,1.25-3.21,1.61-5,.58-2.84,1.04-6.59-1.17-8.87-1.35-1.39-3.47,.73-2.12,2.12,1.58,1.63,.62,5.34,.08,7.27,.15-.53-.05,.12-.12,.31-.07,.18-.14,.36-.21,.53-.19,.51-.37,1.03-.55,1.55-.51,1.53-.99,3.08-1.44,4.63-2.9,9.91-5.14,20.05-6.62,30.27-1.39,9.63-2.18,19.35-2.47,29.08-.16,5.42-.27,10.81,.55,16.19,1.26,8.29,4.52,18.33-.47,26-4.32,6.64-12.12,7.62-18.77,10.66-2.56,1.17-4.86,3.02-5.57,5.86-.44,1.76-.17,3.45,.68,5.04,1.01,1.86,2.53,3.47,3.87,5.1,2.36,2.85,4.57,5.8,6.6,8.9,2.79,4.26,5.08,8.78,7.61,13.19,1.48,2.57,3.34,5.39,6.45,6.02s5.78-1.15,8.59-2.31c1.92-.79,3.96-1.25,6.04-1.3s3.9,.44,5.85,.81c9.85,1.86,19.77,1.1,29.59-.52,2.05-.34,4.09-.69,6.12-1.16,.93-.22,2.35-.61,3.02-.69,3.39-.41,6.96,.73,9.99,2.15,2.6,1.22,5.34,3.02,8.34,2.64,3.84-.49,6.31-4.08,7.33-7.53,1.1-3.72,.47-7.11-1.74-10.24-.87-1.24-1.76-2.46-1.63-4.05,.11-1.32,.83-2.4,1.75-3.32,2.22-2.23,5.08-3.7,6.99-6.27,2.44-3.27,2.34-7.45,.74-11.08-1.46-3.32-3.85-5.89-7.16-7.42-.59-.27-1.28-.52-1.78-.95-.45-.39-.59-.65-.67-1.07-.03-.14-.03-.29,.04-.55,.12-.42,.2-.55,.51-1.03,1.28-1.99,3.4-3.65,5.08-5.36,2.54-2.57,4.89-5.35,6.68-8.5,3.65-6.38,4.71-14.05,5.93-21.2,.94-5.52,1.77-11.06,2.49-16.62,.55-4.24,1.21-8.59,.59-12.86-.58-3.94-2.78-8.4-6.44-10.34-3.16-1.67-7.43-1.13-10.05,1.31-2.83,2.62-3.88,6.84-4.7,10.47-1.34,5.91-2.67,12.07-2.87,18.15-.04,1.25-.09,2.55-.86,3.6-.55,.75-1.55,1.46-2.51,1.52s-1.25-.73-1.45-1.53c-.55-2.11-.41-4.54-.53-6.71-.4-7.09-.81-14.18-1.22-21.26-.38-6.5-.76-13.01-1.17-19.51-.26-4.17-.54-8.35-.97-12.51-.36-3.51-.69-7.14-1.7-10.53-1.08-3.64-4.07-5.84-6.1-8.88-2.53-3.79,1.55-7.99,4.78-9.67,2.46-1.28,4.47-.98,7.1-.45,4.5,.9,9.11,1.54,13.69,1.82,3.51,.22,6.82-.16,9.7-2.34s4.65-5.19,5.81-8.46c1.33-3.77,1.58-7.76,.87-11.69-.65-3.63-2.03-7.16-3.32-10.61-5.22-13.91-12.44-27.56-22.92-38.24-5.21-5.3-11.3-9.8-18.16-12.72C88.54,.62,80.67-.46,72.74,.18s-16.05,2.26-23.31,5.86c-2.24,1.11-4.37,2.42-6.46,3.8-2.95,1.95-5.9,3.89-8.59,6.19-6.76,5.78-11.23,13.75-14.94,21.71-4.71,10.11-8.22,20.77-11.99,31.26-1.97,5.48-4.07,10.93-5.87,16.46-1.58,4.86-2.47,10.13-.27,14.94,3.78,8.28,13.93,11.09,22.21,9.22,4.68-1.05,9.05-3.36,12.93-6.14,1.83-1.31,3.65-3.09,5.83-3.8,1.34-.44,3.17-.47,4.29,.49,1.46,1.25,3.59-.87,2.12-2.12Z"/></g><g><path d="M131.36,158.6c.06,3.94-.3,8.08-.36,8.68-.36,3.65-.96,7.28-1.79,10.85-.92,3.95-1.64,7.95-2.8,11.85-3.54,11.87-11.79,22.43-23.5,27.1-.86,.34-1.7,.71-2.56,1.05-1.45,.56-2.9,.29-4.32-.11-.42-.12-.35-.41-.09-.84,.49-.85,.34-1.78,.16-2.7-.51-2.57-2.49-6.05-1.91-8.7,18.54-3.38,26.78-22.47,28.65-27.55,2.36-6.39,3.16-13.21,4.47-19.86,.23-1.15,.3-6.93,1.81-7.21,1.68-.31,2.18,3.46,2.24,7.43Z"/><path class="cls-1" d="M118.18,230.95c-1.58-3.77-5.84-4.61-9.29-3.34-4.2,1.55-6.94,3.46-10.05,6.55,1.22-11.55,1.56-43.46,1.09-53.96-.78-17.26-4.24-32.73-5.88-49.88-.53-5.49-1.37-11.42-2.66-16.94-1.29-5.55-2.68-11.14-5.28-16.31-.49-.98-.73-2.09-1.17-3.11-.02-.06-.04-.11-.07-.17,2.26-1.89,4.19-4.16,5.63-6.55,3.9-6.48,7.37-13.8,8.81-21.26,1.07-5.54,1.95-11.12,2.25-16.76,.11-2.02,.21-4.13,.26-6.29,.18-7.53-.27-15.63-3.39-22.12-2.37-4.93-7.36-7.08-12.51-8.22-5.59-1.24-11.51-1.05-17.13-.09-2.9,.5-5.84,.64-8.71,1.47-6.49,1.88-16.16,5.11-20.03,11.18-2.32,3.65-3.82,7.58-3.84,11.97,0,2.59,.15,5.16,.66,7.71,.91,4.53,1.85,9.04,3.29,13.44,1.78,5.44,3.37,10.93,5.13,16.37,1.96,6.06,5.9,12.99,10.48,17.47,1.95,1.91,4.04,3.4,6.26,4.49-.14,.49-.28,.98-.42,1.48-.3,1.07-.53,2.15-.81,3.22-.47,1.78-1.05,3.54-1.42,5.35-1.53,7.42-3.28,14.8-4.42,22.3-.97,6.39-2.18,12.75-3.17,19.14-1.08,6.94-2.05,13.9-3.03,20.86-.36,2.56-.68,5.13-.88,7.71-.44,5.53-.75,11.07-1.2,16.59-.53,6.41-.02,12.8-.32,19.2-.17,3.49,1.23,16.24,1.71,21.39-4.33-3.04-7.81-5.45-13.34-5.28-2.05,.06-4.04,.53-5.91,1.38-2.47,1.12-4.32,2.93-5.05,5.57-1.15,4.13-.21,7.69,3.33,10.34,.73,.55,1.53,1.02,2.34,1.46,1.65,.9,3.45,1.29,5.3,1.51,2.57,.31,5.49-.71,7.94-.17-1.35,1.35-3.09,2.1-3.95,3.93-.83,1.77-1.01,3.85-.59,5.75,.31,1.39,1.24,2.29,2.56,2.66,2.02,.57,4.01,.45,5.9-.62,2.65-1.49,4.72-3.55,6.15-6.22,.89-1.67,1.28-3.78,1.54-5.65,2.5,.22,39.44-.34,41.31-.33,1.46,2.85,1.96,5.99,3.29,7.76,.98,1.31,2.28,2.55,3.63,3.46,1.13,.76,2.95,1.52,4.32,1.52,1.3,0,3.9-.8,4.82-1.76,1.92-2.01,1.06-4.7-.31-6.75-1.33-1.99-3.15-3.64-5.26-4.77,.71-.61,1.61-.94,2.46-1.33,4.79-2.21,12.04-9.5,9.6-15.34Z"/><path d="M43.55,47.98c-.17,5.99-1.06,11.95-1.97,17.89-1.7,11.05-6.44,38.6-23.52,34.08-.51-.14-1-.47-1.44-.79-3.32-2.37-4.51-5.79-4.35-9.66,.19-4.61,.82-9.15,2.15-13.62,3.21-10.82,7.39-21.24,12.37-31.35,.65-1.32,1.35-2.62,2.09-3.9,2.02-3.52,4.06-7.02,6.1-10.53,.28-.48,.53-.98,.86-1.42,.64-.87,1.21-1.99,2.56-1.72,1.23,.24,1.76,1.34,2.16,2.35,1.51,3.84,2.56,7.96,2.87,12.07,.17,2.21,.2,4.41,.14,6.61Z"/><path d="M131.03,68.01c-.41,3.92-1.43,6.53-4.61,8.97-3.11,2.39-6.47,2.28-9.96,1.03-2.31-.83-4.25-2.15-6.04-3.8-2.46-2.27-4.51-4.78-6.1-7.78-2-3.76-3.67-7.63-4.96-11.68-.5-1.58-1.1-3.13-1.7-4.68-2.21-5.69-3.92-11.5-4.86-17.55-.46-2.91-1.18-5.78-1.82-8.65-.33-1.47-.33-2.93,.02-4.38,.22-.91,.7-1.69,1.41-2.32,.59-.52,1.27-.76,2.03-.65,.54,.08,1.12,.19,1.58,.46,.79,.47,1.57,.99,2.22,1.64,4.32,4.29,8.86,8.33,12.97,12.85,3.61,3.97,6.9,8.17,10.15,12.41,2.82,3.67,5,7.74,7.14,11.83,2.03,3.87,2.98,8.14,2.54,12.3Z"/><path d="M79.67,67.75c-1.25-1.51-3.29-2.44-5.27-2.64-2.15-.21-4.98-.02-6.99,.8-2.43,1-4.62,2.29-5.83,4.79-.53,1.09-.54,2.15,.07,3.16,.88,1.45,1.88,2.84,3.1,4.02,1.19,1.16,2.53,2.16,3.91,3.08,1.13,.75,2.67,1.93,4.09,1.9,.53-.01,1.05-.22,1.51-.48,1.82-1.02,2.82-2.87,3.95-4.54,1.86-2.77,3.94-7.11,1.47-10.09Z"/><path d="M74.6,92.22c-.27-6.28-.54-12.57-.81-18.85-.05-1.26-2.02-1.27-1.96,0,.27,6.28,.54,12.57,.81,18.85,.05,1.26,2.02,1.27,1.96,0h0Z"/><path class="cls-2" d="M84.16,38.97c6.54,2.55,10.98,10.77,10.23,17.6-.26,2.33-1.12,4.71-2.95,6.18-1.83,1.47-4.75,1.7-6.42,.05-.79-.77-1.22-1.85-1.99-2.64-1.47-1.51-3.66-1.59-5.63-1.58-2.09,0-3.5-.65-4.74-2.5-1.25-1.86-1.67-4.16-1.72-6.4-.08-3.36,.75-6.96,3.23-9.22,2.62-2.39,6.68-2.77,9.99-1.48Z"/><path d="M60.04,53.09c0,1.34-1.08,2.42-2.42,2.42s-2.42-1.08-2.42-2.42,1.08-2.42,2.42-2.42,2.42,1.08,2.42,2.42Z"/><path d="M86.45,52.17c0,1.34-1.08,2.42-2.42,2.42s-2.42-1.08-2.42-2.42,1.08-2.42,2.42-2.42,2.42,1.08,2.42,2.42Z"/><path d="M56.72,217.65c.04,6.06-.1,12.11,0,18.17,.12,6.59,.12,13.55,1.8,19.97,.53,2.02,1.58,4.46,3.85,5.04,4.7,1.2,5.43-5.07,5.82-8.32,.66-5.61-.04-11.45-.15-17.09-.13-6.32-.37-12.63-.7-18.95-.07-1.39-2.24-1.4-2.17,0,.53,10.21,.84,20.45,1.05,30.67,.05,2.45-.06,4.9-.49,7.31-.22,1.23-.54,2.48-1.1,3.6-.82,1.65-2.56,.34-3.09-.46-1.09-1.65-1.35-3.98-1.64-5.88-1.75-11.21-.96-22.77-1.03-34.07,0-1.4-2.17-1.4-2.17,0h0Z"/><path d="M86.86,217.65c-.07,11.32,.63,22.83-1.03,34.07-.28,1.9-.6,3.99-1.53,5.7-.11,.2-.24,.38-.4,.55-1.9,2.01-3.13-.48-3.57-2.05-.73-2.59-.81-5.33-.82-8-.03-10.46,.51-21,1.05-31.44,.07-1.4-2.09-1.39-2.17,0-.32,6.04-.54,12.08-.68,18.12-.13,5.69-.64,11.47-.24,17.15,.19,2.61,.93,10.35,5.31,9.22,2.67-.68,3.75-2.75,4.44-5.19,1.73-6.2,1.66-13.08,1.79-19.46,.13-6.23-.02-12.45,.02-18.68,0-1.4-2.16-1.4-2.17,0h0Z"/><path class="cls-4" d="M100.5,71.53c0,3.18-3.07,5.75-6.87,5.75s-6.87-2.58-6.87-5.75,3.07-5.75,6.87-5.75,6.87,2.58,6.87,5.75Z"/><path class="cls-4" d="M57.13,74.25c.62,3.12-1.89,6.24-5.61,6.98-3.72,.74-7.24-1.19-7.86-4.31-.62-3.12,1.89-6.24,5.61-6.98,3.72-.74,7.24,1.19,7.86,4.31Z"/><path class="cls-6" d="M102.47,191.6c0,.71,0,1.42,.02,2.13,.02,2.04-.93,3.58-2.64,4.21-4.39,1.61-8.69,3.52-13.46,3.97-6.27,.58-12.54,.35-18.8,.04-5.68-.28-11.33-.87-16.84-2.42-1.87-.53-3.85-.7-5.78-1.05-.72-.12-1.35-.94-1.32-1.69,.06-1.13,.12-2.27,.21-3.4,0-.04,0-.07,0-.11,.09-1.16,.18-2.33,.28-3.5,.29-3.72,.58-7.44,.88-11.16v-.02c.11-1.35,.21-2.71,.29-4.06,.25-3.98,.44-7.97,.72-11.95,.08-1.16,.17-2.33,.28-3.49,.26-2.99,.61-5.97,1.13-8.93,.04-.27,.09-.54,.14-.8,.18-1.02,.35-2.05,.5-3.07,.44-3.09,.74-6.2,1.02-9.31,.13-1.46,.26-2.91,.4-4.37,.22-2.41,.47-4.81,.8-7.2,.17-1.22,.34-2.43,.52-3.65,.16-1.08,.31-2.17,.48-3.25,.64-4.29,1.31-8.58,1.97-12.87,.23-1.51,1.25-2.42,2.85-2.35,2.73,.12,5.47,.39,8.2,.57,7.62,.51,15.24,1.13,22.88,.88,1.17-.04,2.34-.23,3.5-.38,2.18-.29,2.62-.07,3.71,1.89,.15,.26,.54,2.47,1.07,5.95,.12,.82,.26,1.72,.4,2.67,.46,3.13,1,6.93,1.55,11.06,.16,1.21,.32,2.44,.49,3.7,.56,4.26,1.14,8.75,1.67,13.16,.12,1.01,.24,2.02,.36,3.02,.54,4.52,1.03,8.87,1.42,12.72,.15,1.46,.28,2.84,.4,4.13,.14,1.47,.24,2.83,.33,4.04,.15,2.04,.24,4.08,.29,6.12,.04,1.14,.06,2.28,.07,3.42,.05,4.1,0,8.2-.01,12.3,0,1.01,0,2.02,0,3.03Z"/><path class="cls-5" d="M95.88,114.9c-11.35,2.86-22.94,4.86-34.61,6.02-3.48,.35-6.97,.63-10.46,.86,.16-1.08,.31-2.17,.48-3.25,3.33-.2,6.66-.47,9.98-.81,11.5-1.16,22.92-3.04,34.21-5.5,.12,.82,.26,1.72,.4,2.67Z"/><path class="cls-5" d="M97.93,129.66c-14.38,3.38-29.07,5.57-43.73,6.91-1.69,.16-3.39,.3-5.09,.42,.13-1.46,.26-2.91,.4-4.37,1.56-.1,3.13-.23,4.7-.36,14.56-1.23,28.95-3.47,43.24-6.3,.16,1.21,.32,2.44,.49,3.7Z"/><path class="cls-5" d="M99.97,145.83c-14.44,2.84-29.26,4.17-43.85,4.35-2.89,.04-5.78,.03-8.67-.02,.04-.27,.09-.54,.14-.8,.18-1.02,.35-2.05,.5-3.07,2.67,.05,5.35,.06,8.03,.03,14.64-.17,29.08-1.48,43.49-3.51,.12,1.01,.24,2.02,.36,3.02Z"/><path class="cls-5" d="M101.78,162.68c-9.07,.86-18.18,1.3-27.29,1.32-9.54,.01-19.04-.44-28.46-1.4,.08-1.16,.17-2.33,.28-3.49,9.73,.72,19.48,1.04,29.2,.89,8.64-.13,17.27-.6,25.87-1.44,.15,1.46,.28,2.84,.4,4.13Z"/><path class="cls-5" d="M102.48,176.27c-1.91,.21-3.83,.39-5.76,.55-11.53,.96-23.07,1.44-34.64,1.61-5.67,.08-11.36,.17-17.06,.18,.11-1.35,.21-2.71,.29-4.06,6.29,.04,12.58,.02,18.87-.08,12.72-.18,25.49-.68,38.22-1.62,.04,1.14,.06,2.28,.07,3.42Z"/><path class="cls-5" d="M102.47,188.57c0,1.01,0,2.02,0,3.03h-.01c-4.56,.67-9.13,1.25-13.72,1.68-9.23,.87-18.53,1.19-27.81,1.01-5.7-.12-11.39-.41-17.07-.9,0-.04,0-.07,0-.11,.09-1.16,.18-2.33,.28-3.5,5.93,.53,11.87,.86,17.82,.98,9.27,.18,18.55-.11,27.8-.86,4.25-.35,8.47-.82,12.7-1.33Z"/></g></g></g></svg>