<?xml version="1.0" encoding="UTF-8"?><svg id="Layer_2" xmlns="http://www.w3.org/2000/svg" viewBox="0 0 270.05 247.03"><defs><style>.cls-1{fill:#fff;}.cls-2{fill:#ffba69;}.cls-3{fill:#b2b4b1;}.cls-4{fill:#3ca5ac;}.cls-5{fill:#575f61;}</style></defs><g id="Layer_1-2"><g><g><path class="cls-1" d="M17.41,137.57c0,22.33,1.11,41.11-5.96,76.99-1.69,8.55-3.79,17.65,1.09,22.92,5.34,5.76,14.55,4.43,22.37,3.61,8.52-.9,17.16-.63,25.61,.79,5.65,.95,11.24,2.41,16.97,2.65,5.72,.23,11.77-.92,16.15-4.61s6.54-10.35,3.87-15.42c-2.44-4.64-8.13-7.02-10.12-11.86-1.08-2.63-.89-5.58-1.33-8.38-.85-5.4-4.02-10.12-6.02-15.22-2-5.09-2.59-11.49,1.12-15.51,3.99-4.32,10.83-3.87,16.65-3.07,6.63,.9,13.26,1.8,19.89,2.71,3.51,.48,7.35,1.13,9.64,3.84,2.69,3.19,2.17,7.89,1.49,12.01-1.5,9.15-3.01,18.3-4.51,27.46-1.03,6.26-1.93,13.21,1.57,18.51,4.73,7.17,14.6,10.71,23.18,10.53,13.99-.29,30.01-1.71,44-2,7.29-.15,14.21-3,17.45-9.52,2.44-4.9,.56-10.75-1.35-15.87-6.25-16.82-12.49-33.64-18.74-50.46-.87-2.34-1.71-5.1-.37-7.21,1.63-2.57,5.51-2.51,8.24-1.16,9.76,4.83,9.94,18.65,16.1,27.63,3.53,5.15,9.23,8.68,15.34,9.93,7.41,1.51,16.04-.29,20.74-6.22,4.09-5.16,2.06-14.27,1.96-14.73-5.32-24.46-13.41-24.38-33.21-50.82-1.48-1.98-4.68-6.22-3.29-8.56,.82-1.38,2.9-1.52,4.1-1.61,5.82-.41,10.76,4.06,13.98,6.97,1.51,1.36,2.77,2.5,4.18,4.34,1.51,1.96,2.1,3.28,4.02,5.23,.2,.2,1.36,1.37,2.64,2.28,4.08,2.9,10.5,3.98,16.08,1.75,1.27-.51,2.75-1.1,4.18-2.51,4.46-4.38,3.34-11.59,3.18-12.64-1.09-7.04-6.39-11.48-13.22-17.03-11.4-9.28-17.44-9.59-17.48-13.31-.06-5.17,11.6-5.8,21.53-18.75,2.67-3.49,4.51-6.93,4.95-11.16,.11-1.07,.78-7.45-2.68-11.49-4.03-4.71-11.28-3.49-18.5-3.59-15.31-.22-39.36-6.53-48.05-21.06-1.79-2.99-4.79-9.44-11.41-17.07-3.14-3.62-5.32-5.46-7.87-5.31-4.09,.23-7.18,5.42-8.4,8.65-1.73,4.56-.04,6.07-1.94,12.54-1.01,3.46-1.99,6.61-4.47,7.44-2.71,.9-5.73-1.48-6.91-2.42-4.31-3.41-3.29-6.48-7.12-10.26-2.6-2.56-7.42-5.43-10.84-3.96-3.28,1.41-3.97,6.28-4.49,9.93-1.95,13.74,4.13,27.58,4.68,28.79,1.39,3.09,3,5.93,2.82,10.12-.2,4.51-2.34,7.83-3.39,9.41-7.55,11.39-24.84,15.91-28.28,16.75-8.49,2.08-16.88,1.46-33.65,.22-8.77-.65-13.71-1.54-18.29-5.05-3.47-2.66-5.18-5.71-8.47-11.7-3.29-6-4.39-9.48-9.22-21.82-5.58-14.25-6.7-16.21-9.22-18.11-5.25-3.97-13.82-5.64-18.41-2.03-2.87,2.26-2.07,4.92-4.43,18.16-2.15,12.07-3.22,12.11-3.68,19.01-.4,5.94-.82,12.25,1.65,18.95,3.45,9.37,9.29,10.68,13.58,17.6,5.25,8.45,.32,16.7,.32,33.83Z"/><path class="cls-2" d="M15.91,137.57c0,9.99,.21,19.99-.18,29.97-.48,12.45-1.87,24.83-3.98,37.11-1.23,7.14-3.22,14.32-3.68,21.57-.37,5.88,1.14,11.72,6.57,14.81s11.51,2.45,17.17,1.88c7.72-.79,15.35-1.14,23.09-.31s15.23,3.21,23,3.43c6.44,.18,13.68-1.41,18.15-6.4,3.87-4.32,5.55-10.96,2.56-16.22s-9.41-7.46-10.48-13.67c-.31-1.79-.32-3.63-.58-5.43s-.75-3.56-1.4-5.26c-1.24-3.26-2.95-6.31-4.31-9.52-2.18-5.13-3.54-12.87,2.07-16.38,2.6-1.63,5.81-1.82,8.8-1.7,3.5,.14,6.99,.75,10.45,1.22,4.01,.55,8.02,1.09,12.04,1.64,3.09,.42,6.57,.61,9.31,2.25s3.46,4.84,3.33,7.93c-.16,3.8-1.05,7.62-1.66,11.36-1.27,7.74-2.71,15.47-3.78,23.24-.91,6.58-.82,13.24,3.64,18.58,3.82,4.58,9.62,7.36,15.37,8.57,6.54,1.38,13.43,.61,20.04,.28,7.7-.39,15.4-.9,23.1-1.24,6.36-.28,12.92,.18,18.85-2.54,5.6-2.58,9.91-8.02,9.77-14.37-.08-3.54-1.19-6.96-2.4-10.25-1.38-3.78-2.8-7.54-4.2-11.31-2.82-7.59-5.63-15.17-8.45-22.76-1.47-3.96-2.94-7.92-4.41-11.87-.66-1.78-1.34-3.55-1.98-5.34-.53-1.5-1.22-3.33-.72-4.92,.85-2.71,4.5-2.33,6.54-1.37,2.22,1.04,4.05,2.81,5.41,4.82,3.04,4.47,4.4,9.84,6.38,14.82,2.18,5.47,5.12,10.27,9.99,13.74,5.09,3.62,11.56,5.37,17.78,4.79,5.76-.53,11.73-2.99,15.08-7.92,2.71-4,2.67-9.42,1.95-14.01-.68-4.36-1.99-8.76-3.6-12.86-3.19-8.13-8.66-14.5-14.43-20.92-3.96-4.4-7.85-8.85-11.53-13.48-2.02-2.53-4.12-5.08-5.86-7.82-.67-1.05-1.43-2.26-1.58-3.52s1.02-1.6,2.11-1.74c6.03-.78,10.9,3.78,14.97,7.6,2.36,2.22,3.92,4.95,6.01,7.39,1.9,2.22,4.26,4.08,6.97,5.22,5.83,2.44,13.76,2.02,18.65-2.32,3.7-3.28,4.63-8.67,4.07-13.37-.66-5.52-3.76-9.9-7.73-13.62-4.79-4.5-10.1-8.6-15.72-12-1.73-1.05-3.52-2-5.22-3.08-.55-.35-.98-.62-1.38-.99-.47-.44-.58-.63-.67-.89-.1-.31-.15-.59,.04-1.05,.12-.31,.42-.72,.87-1.14,1.21-1.13,2.78-1.92,4.2-2.75,4.8-2.78,9.36-5.85,13.17-9.92,4.25-4.55,7.75-9.89,8.19-16.24,.35-5.04-.91-10.76-5.41-13.68-5.21-3.38-12.37-1.97-18.22-2.14-10.52-.3-21.41-2.83-30.83-7.54-4.72-2.36-9.19-5.37-12.64-9.41-2.95-3.45-4.76-7.77-7.2-11.57-1.96-3.06-4.15-5.98-6.51-8.74-1.91-2.23-4.07-4.82-6.94-5.81-5.36-1.85-9.67,3.72-11.58,7.97-1,2.21-1.49,4.42-1.55,6.84-.07,3.08-.56,5.87-1.5,8.82-.85,2.67-2.09,5.82-5.45,4.47-2.49-.99-4.7-3.08-5.91-5.44-1.34-2.61-2.4-5.09-4.63-7.11s-4.92-3.69-7.85-4.18-5.51,.55-7.12,3.03c-1.45,2.23-1.89,5.02-2.26,7.6-1.54,10.55,.61,21.66,5.06,31.31,1.36,2.95,2.51,5.81,2.26,9.12-.21,2.77-1.32,5.33-2.8,7.65-2.89,4.51-7.18,7.86-11.81,10.45-6.56,3.68-14.21,6.4-21.74,7.16-5.14,.52-10.34,.29-15.5,0-3.47-.2-6.93-.46-10.4-.72s-6.6-.45-9.85-1.07c-4.96-.94-9.44-3.14-12.51-7.26s-5.31-8.63-7.34-13.15c-4.4-9.8-7.32-20.28-12.16-29.88-1.02-2.02-2.24-3.8-4.05-5.17-4.45-3.36-10.91-5.3-16.41-3.82-3.26,.88-5.62,2.94-6.42,6.21-.42,1.72-.61,3.51-.85,5.27-.45,3.28-.95,6.55-1.54,9.81-.81,4.46-2.01,8.81-2.92,13.25C.03,66.62-.21,72.16,.16,77.31c.48,6.67,2.69,13.12,7.27,18.09,3.33,3.61,7.56,6.55,9.48,11.25,1.62,3.96,1.11,8.37,.59,12.51-.77,6.13-1.58,12.22-1.6,18.41,0,1.93,2.99,1.93,3,0,.02-6.31,.87-12.49,1.64-18.74,.53-4.31,.89-8.84-.74-12.98-1.91-4.83-5.79-8.04-9.35-11.63-4.72-4.75-6.98-10.97-7.34-17.61-.26-4.86-.08-10.06,.97-14.84s2.17-9.08,2.98-13.7c.53-3.02,.98-6.05,1.4-9.09,.24-1.71,.42-3.45,.85-5.13,.29-1.11,.51-1.65,1.19-2.32,1.6-1.57,4.03-2.02,6.19-2,2.91,.02,5.83,.85,8.39,2.21,1.61,.86,2.4,1.33,3.51,2.5,.64,.68,1.06,1.36,1.64,2.42,.88,1.62,1.62,3.32,2.34,5.02,2.52,5.96,4.79,12.03,7.13,18.07,1.48,3.82,3,7.62,4.88,11.26,2.43,4.68,4.96,9.91,9.11,13.32s8.97,4.7,14.15,5.35c6.74,.85,13.6,1.2,20.38,1.52,4.81,.23,9.65,.3,14.43-.33,7.66-1.02,15.36-3.79,22.04-7.63,9.14-5.24,18.69-15.32,14.8-26.77-.46-1.35-1.06-2.65-1.66-3.94-.19-.41-.38-.82-.56-1.23-.13-.3-.13-.29-.17-.38-.73-1.75-1.35-3.53-1.91-5.34-1.92-6.21-3.04-12.75-2.61-19.27,.19-2.83,.52-5.94,1.57-8.6s3.16-3.62,5.94-2.71,5.62,3.04,7.2,5.54c1.44,2.27,2.13,4.84,3.98,6.87,1.72,1.88,4.28,3.75,6.82,4.28,2.97,.61,5.38-.92,6.73-3.52,1.46-2.81,2.33-6.2,2.73-9.33,.27-2.19,0-4.46,.53-6.61,.87-3.58,4.75-11.14,9.47-8.76,1.22,.61,2.23,1.63,3.16,2.61,1.39,1.45,2.69,3,3.93,4.58,2,2.53,3.81,5.21,5.46,7.98,2.33,3.89,4.24,7.88,7.4,11.2,3.66,3.83,8.21,6.77,12.96,9.06,9.48,4.56,20.15,7.08,30.65,7.53,3.05,.13,6.1-.04,9.16-.02,2.85,.03,5.98,.17,8.44,1.78,3.98,2.61,4.47,8.46,3.73,12.76-1.13,6.51-6.18,12.12-11.11,16.2-3.63,3-7.84,4.96-11.7,7.6-2.3,1.58-4.53,4.13-3.12,7.08,1.32,2.74,5.11,4.16,7.56,5.61,5.61,3.33,10.86,7.33,15.65,11.75,2.14,1.97,4.15,4.12,5.53,6.71,.62,1.17,1.08,2.41,1.37,3.7,.1,.44,.18,.88,.24,1.32-.03-.22,.06,.52,.08,.76,.19,2.2,.05,4.43-.65,6.53-1.01,3.01-3.27,4.88-6.19,5.95-6.11,2.24-12.77,.54-17.19-4.16-2.21-2.35-3.7-5.23-6.03-7.5-1.99-1.95-4.11-3.84-6.37-5.48-2.39-1.74-5.11-3.14-8.07-3.54-2.35-.32-5.7-.24-7.41,1.68-1.84,2.07-.68,5.05,.49,7.12,1.5,2.67,3.53,5.06,5.41,7.47,3.8,4.87,7.81,9.56,11.93,14.16,5.6,6.24,11.32,12.37,14.53,20.25,1.67,4.1,2.93,8.47,3.72,12.83s.82,9.39-1.96,12.83c-3.78,4.67-10.21,6.3-15.98,5.94-6.19-.39-12.2-3.32-16.25-8.02-6.95-8.05-6.39-20.79-14.83-27.77-2.06-1.7-4.45-2.95-7.15-3.13s-5.32,.89-6.49,3.35c-1.45,3.04-.03,6.4,1.05,9.31l4.22,11.38c2.82,7.59,5.63,15.17,8.45,22.76,1.41,3.79,2.82,7.59,4.22,11.38,1.29,3.46,2.74,6.93,3.43,10.58,.65,3.43,.21,6.68-1.81,9.57-1.6,2.29-3.94,4.02-6.5,5.11s-5.59,1.61-8.49,1.7c-3.65,.1-7.29,.22-10.93,.4-7.54,.37-15.08,.86-22.63,1.22-6.39,.31-12.95,.99-19.2-.73-5.54-1.53-11.38-4.8-13.98-10.16-3.02-6.23-.86-14.08,.2-20.53,1.29-7.86,2.67-15.72,3.87-23.6,.46-3.04,.84-6.29-.12-9.27s-3.14-5.04-5.98-6.19c-3.1-1.25-6.58-1.48-9.86-1.92l-12.04-1.64c-5.94-.81-12.62-2.29-18.36,.17-5.92,2.53-7.74,8.75-6.81,14.7,1.05,6.76,5.61,12.26,7.12,18.87,.79,3.46,.36,7.12,1.89,10.41,1.19,2.56,3.34,4.49,5.4,6.35s4.31,3.81,5.14,6.56,.29,5.83-1.07,8.35c-3.19,5.92-10.17,8-16.49,8.06-7.6,.07-15.01-2.29-22.5-3.23-7.63-.96-15.3-.93-22.94-.11-5.54,.59-12.14,1.66-17.29-1.09-5.78-3.08-5.88-9.63-5.1-15.38,.99-7.22,2.74-14.35,3.89-21.56,1.89-11.81,3.12-23.71,3.51-35.66,.31-9.48,.12-18.97,.12-28.45,0-1.93-3-1.93-3,0Z"/></g><g><g><path d="M179.98,201.07c.16-4.89-.16-9.74-.71-14.58-.47-4.1-1-8.18-1.66-12.25-.46-2.82-2.64-15.09-3.96-18.22-.61-1.46-1.31-2.9-1.92-4.36-.45-1.08,.07-1.99,1.2-2.03,2.64-.08,2.92-.43,4.13,2.4,.66,1.54,1.05,3.22,1.47,4.85,.63,2.46,1.09,4.96,1.77,7.41,1.58,5.73,2.71,11.54,3.09,17.48,.03,.53,.13,1.05,.23,1.57,.54,2.92,.94,5.84,.95,8.83,0,2,.42,4,.49,6.01,.12,3.18,.1,6.36,.18,9.53,.03,.93-.23,1.65-1.01,2.18-.41,.28-.41,.64-.3,1.1,.35,1.42,.08,1.87-1.22,2.05-.28,.04-.59-.12-.87-.21-.08-.03-.12-.17-.18-.25-.69-.89-1.74-1.7-1.99-2.7-.35-1.38-.15-2.91-.08-4.37,.07-1.48,.25-2.95,.39-4.43Z"/><path d="M149.45,165.89c-.13,3.7-.25,7.41-.38,11.11,0,.21-1.08,9.67-1.55,14.19-.35,3.37-.91,6.72-1.38,10.07-.04,.31-.17,.62-.17,.94,0,4.31-1.56,8.31-2.43,12.44-.18,.88-.62,1.06-1.65,.87-.52-.1-1.04-.17-1.56-.26-.61-.1-.93-.48-.95-1.07-.02-.42-.01-.87,.11-1.26,1.53-4.91,1.56-10.03,2.09-15.08,.34-3.27,.23-6.59,.74-9.82,.83-5.26,.69-10.57,1.28-15.84,.46-4.1,.88-8.21,.82-12.36-.01-.73,.8-1.36,1.53-1.3,.21,.02,.43,.03,.63,.1,2.67,.91,3.16,.17,2.97,3.76-.06,1.16,0,2.33,0,3.5h-.1Z"/><path d="M65.95,196.57c.05-2.48,.12-6.19,.22-9.89,.03-1.27,.16-2.53,.24-3.8,.06-.95,.16-1.9,.17-2.85,.11-6.24,.2-12.48,.31-18.72,.01-.74,.02-1.48,.11-2.22,.1-.81,.49-1.42,1.45-1.28,.61,.09,.98-.27,1.38-.61,1.09-.93,2.69,.13,2.53,1.19-.28,1.87,.04,16.48-.44,21.12-.24,2.31-.26,4.65-.29,6.98-.04,3.52-.19,7.05-.66,10.54-.44,3.24-.29,6.5-.57,9.75-.24,2.83-.58,5.67-.41,8.52,.02,.31-.06,.63-.11,.94-.1,.64-.52,1.09-.98,1.02-.59-.08-1.01-.44-1.09-.99-.15-1.08-.49-2-1.3-2.79-.33-.32-.54-.93-.55-1.41-.04-4.76-.02-9.52-.02-15.51Z"/><path d="M29.59,203.62c.29-2.01,.52-3.69,.77-5.36,.68-4.5,.96-9.03,1.35-13.55,.58-6.64,1.39-13.26,2.01-19.9,.28-2.95,.32-5.92,.48-8.88,.03-.63,.02-1.28,.19-1.88,.14-.52,.6-.87,1.2-.85,.42,.01,.84,.07,1.25,.17,.51,.12,.99,.37,1.5,.45,2.3,.34,2.36,.39,1.88,2.41-.38,1.55-.5,3.1-.52,4.7-.03,2.1-.44,4.19-.7,6.29-.07,.52-.23,1.03-.29,1.55-.52,4.52-1.02,9.04-1.55,13.56-.75,6.3-1.48,12.61-2.3,18.9-.23,1.77-.75,3.51-1.16,5.26-.07,.3-.22,.59-.36,.87-.27,.5-1.28,.68-1.68,.25-.64-.69-1.37-1.36-1.8-2.18-.31-.6-.21-1.41-.26-1.82Z"/><path class="cls-5" d="M15.64,70.36c.43-1.89-.34-3.55-1.02-5.21-1.08-2.64-2.11-5.28-2.18-8.19-.02-.94-.3-1.88-.45-2.82-.69-4.33,0-8.45,1.95-12.36,1.13-2.26,4.5-3.87,7.33-1.7,1.04,.8,1.92,1.69,2.36,2.93,.42,1.2,.79,2.42,1.12,3.64,.53,1.94,.9,3.93,1.54,5.83,1.18,3.51,2.5,6.98,3.77,10.46,1.31,3.58,2.45,7.24,4.37,10.56,2.87,4.95,5.75,9.9,8.72,14.8,.76,1.26,1.84,2.32,2.77,3.48,.63,.78,1.49,1.18,2.41,1.45,1.63,.47,3.27,.9,4.91,1.33,1.23,.33,2.48,.58,3.69,.96,5.83,1.85,13.08,2.06,19.16,2.49,10.85,.77,22.51,.47,33.31-.83,10.69-1.29,19.74-1.89,28.48-8.77,3.53-2.78,6.39-6.16,8.91-9.85,.42-.61,.83-1.23,1.3-1.8,3.36-4.04,3.94-8.57,2.22-13.41-.95-2.69-2.17-5.29-3.31-7.91-.63-1.46-1.37-2.86-2-4.32-2.02-4.67-3.78-9.44-5.21-14.32-.77-2.62-1.67-5.26-1.59-8.06,.01-.42-.03-.85,.03-1.27,.15-1.16,1.09-1.9,2.25-1.71,1.7,.28,3.24,.99,4.65,1.96,2.2,1.51,4.1,3.29,5.75,5.42,2.07,2.67,4.46,5.1,6.72,7.63,.44,.5,.96,.79,1.68,.59,4.21-1.15,8.26-2.69,12-4.97,.7-.43,1.03-1.01,1.03-1.83,0-.63,.16-1.27,.15-1.9-.12-6.76,1.14-12.92,3.24-19.31,.5-1.51,2.55-.29,3.35,.24,1.94,1.3,3.37,3.5,4.56,5.46,1.82,2.98,3.72,5.91,5.29,9.05,2.78,5.54,5.96,10.81,11.21,14.19,4.39,2.82,9.22,4.76,14.25,6.1,2.66,.71,5.4,1.11,8.11,1.61,4.69,.87,9.42,1.44,14.17,1.88,4.88,.45,9.2,1.82,13.19,4.68,3.72,2.66,2.78,8.21,1.03,11.72-1.9,3.81-5.14,6.85-8.45,9.44-10.1,7.9-22.05,10.77-34.3,13.19-4.21,.83-8.66,.69-12.92,1.27-.3,.04-.72,.54-.76,.86-.12,1.16-.08,2.33-.12,3.49-.14,3.81-.2,7.63-.46,11.44-.21,2.95-.62,5.9-1.03,8.83-1.26,9.07-2.8,19.78-8.86,26.85-8.1,9.45-19.73,18.37-32.39,20.41-14.17,2.27-80.99,.45-111.49-5.93-4.03-.84-8.98-2.04-10.83-5.99-1.66-3.55-1.43-7.76-1.35-11.58,.06-2.86,.43-5.7,.62-8.56,.32-4.86,1.07-9.67,1.66-14.5,.46-3.78,.64-7.6,.91-11.41,.05-.74,0-1.49-.12-2.22-.06-.38-.3-.78-.57-1.06-.36-.38-.83-.65-1.26-.97-4.69-3.52-8.8-7.58-12.35-12.29-2.37-3.14-4.65-6.3-6.54-9.74-1.07-1.96-1.99-3.99-2.4-6.21-.19-1.03-.31-2.11-.23-3.15,.18-2.2,1.96-3.35,4.09-2.68,.79,.25,1.52,.72,2.23,1.17,.62,.39,1.17,.89,1.75,1.34,.27,.24,.54,.48,.81,.72l.12,.16-.2-.08c-.27-.24-.54-.48-.81-.72Z"/><path class="cls-4" d="M87.59,234.62c-2.42,3.13-6.42,5.03-10.33,5.15-1.69,.05-3.38,0-5.08,0v.1c-1.59-.07-3.18-.17-4.77-.19-1.27-.03-2.42-.37-3.58-.88-.61-.26-1.22-.53-1.77-.9-2.44-1.59-3.96-5.15-4.14-7.97-.29-4.76-.9-9.49-.91-14.27,0-2.32-.34-4.66-.35-6.98v-.39c.01-.95,0-1.9,.03-2.86,.02-1.25,.08-2.51,.28-3.73,.26-1.66,3.71-1.27,4.89-1.3,1.38-.03,2.74,.06,4.09,.14,1.05,.06,2.1,.13,3.17,.13,.52,0,1.05-.03,1.57-.03,1.03-.01,2.04,.04,3.04,.45,2.21,.9,2.28,2.01,2.24,4.2,0,.19,0,.37,0,.56-.02,1.14-.01,2.28,0,3.42v.08c.03,2.62,.12,5.34,.14,7.9,0,.21-.03,.42-.02,.63,.2,2.65-.33,3.71,3.32,4.32,2.05,.34,5.86,.9,7.23,2.54,1.88,2.26,2.85,7.42,.97,9.86Z"/><path class="cls-4" d="M204.66,231.76c-2.41,3.13-6.41,5.03-10.33,5.15-1.69,.05-3.38,.01-5.08,.01v.1c-1.59-.06-3.18-.17-4.76-.19-1.28-.02-2.42-.37-3.58-.88-.61-.27-1.22-.54-1.78-.9-2.43-1.59-3.96-5.15-4.13-7.97-.29-4.76-.9-9.49-.91-14.27,0-1.66-.18-3.34-.28-5-.05-.79-.08-1.57-.08-2.36,0-.27,0-.54,0-.81,.01-1.92,0-3.89,.3-5.78,.27-1.66,3.71-1.27,4.89-1.3,.36,0,.72,0,1.09,0,1.68,.03,3.34,.19,5.02,.25,.38,.01,.76,.02,1.14,.02,1.57,0,3.11-.19,4.61,.42,2.21,.9,2.28,2.01,2.24,4.2,0,.52-.01,1.05-.01,1.57-.01,.83,0,1.66,0,2.49,0,.26,0,.52,.01,.79,.04,2.38,.1,4.81,.13,7.12,0,.21-.04,.42-.02,.63,.2,2.65-.33,3.71,3.31,4.32,2.05,.35,5.86,.91,7.23,2.54,1.89,2.26,2.85,7.42,.97,9.87Z"/><g><path class="cls-2" d="M196.91,114.19c.12-.12,.19-.27,.26-.42,1.39-3,3.05-5.19,3.05-8.74,0-.98-.5-1.56-1.48-1.79-1.29-.31-2.62-.25-3.93-.47-1.38-.23-2.72-.61-4.06-.99-5.55-1.57-10.99-3.16-16.32-5.41-4.17-1.76-8.08-4.63-11.5-7.61-4.24-3.68-8.75-7.06-12.54-11.24-1.61-1.78-3.87-1.84-5.71-.5-3.75,2.72-6.78,5.52-9.12,9.5-.23,.39-.46,.81-.43,1.25,.03,.37,.23,.69,.42,1.01,4.42,7.06,10.54,13.32,17.69,17.65,2.65,1.6,5.48,2.91,8.38,4.01,3.98,1.51,8.09,2.51,12.32,3.02,1.68,.21,3.34,.61,5.03,.68,3.21,.13,6.56,.73,9.77,.58,2.45-.11,5.31,.5,7.69-.27,.18-.06,.36-.13,.49-.26Z"/><path class="cls-2" d="M244.46,177.21c-.33-2.6-.84-5.17-1.68-7.73-1.53-4.64-3.84-8.98-6.36-13.15-2.6-4.31-6.01-7.93-9.49-11.48-2.52-2.57-5.17-5.02-7.8-7.48-1-.94-2.11-1.77-3.17-2.65-2.37-1.96-4.77-3.87-7.09-5.88-1.85-1.61-3.36-3.53-4.63-5.63-1.93-3.17-3.88-6.33-5.8-9.5-.22-.35-.53-.77-.5-1.13,.14-1.6-1.12-2.18-2.07-2.97-.65-.53-1.32-.47-2.03,.06-.42,.31-.78,.71-1.21,1-.42,.28-.88,.34-1.32,.07-.79,.6-1.63,1.15-2.52,1.4,.04,.21,.06,.42,.07,.65,.04,1.94,.57,3.76,.89,5.63,.12,.73,.31,1.45,.43,2.18,.44,2.73,1.24,5.36,2.37,7.88,1.64,3.63,4.21,6.58,6.92,9.44,1.31,1.38,2.63,2.76,3.85,4.22,1.97,2.36,3.87,4.77,5.76,7.19,1.17,1.5,2.39,2.99,3.35,4.62,1.3,2.18,2.49,4.45,3.51,6.77,1.15,2.61,2.25,5.27,3.05,8.01,1.55,5.3,2.54,10.73,2.48,16.29-.02,1.38,.64,2.08,1.85,2.61,2.8,1.23,5.77,1.29,10,1.44,3.57,.13,7.11-.13,10.55-1.28,1.41-.47,1.4-2.88,1.36-4.05-.06-2.15-.48-4.39-.75-6.54Z"/><path class="cls-2" d="M220.17,96.03c2.3,0,4.6,.15,6.85,.47,7.93,1.09,15.2,4.59,22.03,8.64,5.33,3.16,9.89,7.44,13.75,12.27,.81,1.01,1.63,1.92,1.82,3.26,.1,.69,.03,1.2-.61,1.63-.6,.41-1.14,.93-1.64,1.46-2.28,2.41-4.96,4.29-7.77,6.01-.35,.22-.75,.4-1.15,.49-.78,.17-1.49,.01-1.96-.7-3.3-4.99-7.68-9.01-11.87-13.19-1.19-1.18-2.63-2.12-4.02-3.09-4.65-3.26-9.8-5.42-15.3-6.76-5.43-1.32-10.92-1.36-16.4-.31-1.98,.38-3.84,1-5.17,2.58-.19,.23-.37,.48-.63,.63-.25,.16-.61,.2-.84,.02-.91-.72-1.67-2.55-2.03-3.6-.26-.77-.07-1.45,.54-2.02,3.64-3.38,7.75-5.76,12.73-6.69,3.8-.71,7.74-1.11,11.66-1.1Z"/></g><path class="cls-4" d="M47.41,231.74c-.9,1.41-2.62,2.08-4.26,2.62-3.79,1.24-7.65,1.41-11.6,1.17-2.78-.17-5.79-1.34-7.9-3.15-2.05-1.76-2.21-4.19-2.39-6.66-.19-2.63-.37-5.28-.42-7.92-.04-2.31,.12-4.64,.17-6.96,.06-2.33,.13-4.66,.19-7,0-.26,.01-.52,.02-.77,.01-.81-.03-1.62-.06-2.44-.02-.65-.03-1.3,0-1.95,.09-1.63,.06-2.69,1.71-3.05,1.17-.26,2.28,.1,3.45,.06,1.45-.05,2.91-.03,4.37,.03,1.6,.07,3.21,.19,4.82,.31,1.02,.08,2.04,.17,3.05,.26,1.14,.09,1.71,.74,1.76,1.89,.06,1.06,.04,2.13,.03,3.34-.01,.35-.01,.72-.01,1.09-.1,.68-.2,1.39-.31,2.11-.26,1.74-.54,3.59-.77,5.44-.23,1.89-.31,3.8-.5,5.69-.1,1.02,.37,1.59,1.28,1.9,1.3,.45,2.62,.88,3.89,1.38,2.3,.89,3.83,2.51,4.76,4.82,1.17,2.9,.2,5.47-1.29,7.8Z"/><path class="cls-4" d="M154.3,239.76c-3.54,.27-6.96,.13-10.4-.62-4.07-.9-7.4-3.04-10.25-5.99-.67-.7-.98-1.6-.93-2.62,.08-1.69,.13-3.38,.21-5.66,.2-5.64,.77-11.14,1.37-16.7,.12-1.09,.24-2.18,.36-3.27,.06-.52,.12-1.04,.17-1.55,.03-.31,.12-.63,.19-.93,.36-1.51,.77-1.75,2.21-1.41,.91,.22,1.85,.43,2.78,.49,.42,.03,.82,.05,1.24,.08,1.58,.12,3.15,.28,4.73,.45,1.06,.1,2.12,.21,3.19,.3,.88,.08,2.07-.28,2.7,.52,.62,.78,.15,2.65,.07,3.6-.04,.59-.1,1.18-.16,1.77-.1,1.07-.21,2.14-.35,3.2-.19,1.54-.41,3.08-.66,4.62-.33,2.07-.05,4.07-.21,6.12,0,.07-.01,.14,.03,.2,.04,.06,.12,.09,.19,.11,2.86,.77,5.7,1.22,8.12,3.03,5.54,4.17,2,13.77-4.6,14.27Z"/><path d="M244.34,49.94c3.57,.03,6.39,.19,8.93,1.86,.96,.64,1.52,1.44,1.81,2.49,.35,1.25,.37,2.52,.08,3.77-.8,3.45-3.94,11.47-8.49,11.22-2.72-.15-5.77-.93-8.15-2.28-3.08-1.75-6.88-3.97-7.52-7.72-.15-.9,.01-1.66,.44-2.43,1.01-1.82,2.57-3.09,4.33-4.08,2.66-1.51,5.5-2.36,8.56-2.84Z"/><path class="cls-1" d="M236.06,74.73c-.22,1.22-1.24,2.83-1.59,3.41-.21,.34-.53,.71-.91,.62-.13-.03-.25-.12-.35-.2-1.07-.87-1.55-2.05-2.27-3.2-.22-.34-.22-.67-.12-1.03,.1-.34,.29-.53,.65-.59,.94-.15,1.87-.33,2.8-.48,.26-.04,.54-.06,.81-.04,.93,.08,1.13,.71,.98,1.51Z"/><path d="M224.11,74.68c9.05,.92,18.26-.14,25.14-6.62,.92-.86-.46-2.24-1.38-1.38-6.5,6.12-15.25,6.91-23.76,6.05-1.25-.13-1.24,1.82,0,1.95h0Z"/><path class="cls-1" d="M177.64,54.45c-.27,5.16-3.84,8.36-7.7,9.37-2.91,.76-5.98,.29-7.92-1.53,.23-2.95,1.82-5.34,4.11-6.88,3.08-2.08,7.45-2.62,11.51-.97Z"/><path d="M170.59,61.13c0,.97-.23,1.88-.65,2.69-2.91,.76-5.98,.29-7.92-1.53,.23-2.95,1.82-5.34,4.11-6.88,2.56,.64,4.46,2.95,4.46,5.72Z"/><path class="cls-1" d="M197.77,43.75c-.27,5.16-3.84,8.36-7.7,9.37-2.91,.76-5.98,.29-7.92-1.53,.23-2.95,1.82-5.34,4.11-6.88,3.08-2.08,7.45-2.62,11.51-.97Z"/><path d="M190.72,50.44c0,.97-.23,1.88-.65,2.69-2.91,.76-5.98,.29-7.92-1.53,.23-2.95,1.82-5.34,4.11-6.88,2.56,.64,4.46,2.95,4.46,5.72Z"/><path d="M177.42,29.66c-.25-.25-.43-9.69,.85-9.98,1.28-.29,5.34,7.2,5.27,7.84-.07,.64-5.63,2.64-6.13,2.14Z"/><path d="M142.85,32.11c1.33-.8,11.24,7.94,11.51,8.47,.27,.53-7.19,4.48-8.37,3.89-1.17-.59-4.42-11.6-3.14-12.36Z"/></g><path class="cls-3" d="M128.94,106.04c2.05-.34,4.9-.96,6.15-2.75,.24-.35-.09-.73-.44-.77-1.8-.19-3.76,.81-5.53,1.2-1.95,.43-4.61-.14-6.27,1.06-.27,.19-.4,.61-.11,.86,1.63,1.44,4.23,.73,6.2,.4Z"/><path class="cls-3" d="M126.75,116.14c1.95-.44,3.82-1.2,5.65-2,.65-.28,.18-1.29-.47-1.12-1.88,.51-3.79,.87-5.71,1.21-1.55,.28-3.25,.11-4.48,1.16-.29,.25-.2,.77,.12,.94,1.45,.8,3.35,.16,4.89-.19Z"/><path class="cls-3" d="M144.38,121.11c1.72-.79,3.06-2.03,4.07-3.61,.41-.65-.41-1.48-1.06-1.06-1.26,.81-2.55,1.58-3.88,2.28-1.15,.61-2.99,.72-3.45,2.13-.08,.24,.01,.51,.18,.68,1.11,1.16,2.96,.14,4.14-.41Z"/><path class="cls-3" d="M165.01,125.69c1-1,1.98-2.3,2.05-3.75,.02-.45-.57-.84-.96-.55-.93,.71-1.61,1.69-2.47,2.49-.88,.81-2.18,1.3-2.91,2.23-.5,.63-.23,1.64,.68,1.64,1.36,0,2.7-1.13,3.61-2.05Z"/><path class="cls-3" d="M177.77,137.36c1.71-.5,2.56-2.23,3.42-3.67,1.15-1.95,1.78-3.95,2.25-6.14,.16-.74-.94-1.3-1.28-.54-.77,1.7-1.73,3.34-2.68,4.96-.91,1.55-2.41,2.86-2.63,4.7-.06,.47,.51,.82,.92,.7Z"/><path class="cls-3" d="M165.75,138.98c1.45-.99,2.78-2.12,3.68-3.65,.34-.58-.32-1.14-.87-.87-1.42,.68-2.69,1.61-4.02,2.44-1.25,.77-2.8,1.27-3.38,2.71-.15,.36,.16,.76,.49,.86,1.49,.45,2.94-.69,4.11-1.49Z"/><path class="cls-3" d="M172.07,148.98c.7-.44,.26-1.64-.58-1.37-1.76,.57-3.49,1.2-5.24,1.77-1.6,.52-3.32,.71-4.74,1.67-.4,.27-.4,.98,.14,1.1,3.31,.69,7.68-1.42,10.42-3.16Z"/><path class="cls-3" d="M147.55,136.02c1.97-.14,4.22-.49,5.88-1.59,.45-.3,.27-.98-.27-1-1.85-.08-3.76,.36-5.61,.51-1.49,.11-3.31-.4-4.56,.55-.28,.21-.38,.59-.11,.86,1.18,1.21,3.11,.79,4.67,.68Z"/><path class="cls-3" d="M148.62,150.7c1.78-.35,3.51-.77,5.14-1.57,.5-.24,.25-1.04-.28-1.02-1.57,.04-3.1,.32-4.64,.59-1.72,.3-3.76,.21-5.25,1.17-.49,.32-.39,1.03,.16,1.21,1.57,.51,3.3-.07,4.87-.37Z"/><path class="cls-3" d="M133.56,160.14c1.64-.03,3.28-.04,4.92,.03,.73,.03,.9-1.14,.17-1.28-1.48-.28-2.97-.54-4.48-.6-1.41-.05-2.96-.3-4.1,.62-.3,.24-.17,.73,.12,.9,1.03,.63,2.2,.35,3.37,.32Z"/><path class="cls-3" d="M134.98,145.21c1.44-.07,2.97-.07,4.35-.49,.73-.23,.84-1.42,0-1.59-1.42-.28-2.91-.14-4.35-.07-1.29,.07-2.79-.11-3.89,.66-.41,.29-.48,.91,0,1.19,1.19,.67,2.57,.37,3.89,.3Z"/><path class="cls-3" d="M131.42,129.55c1.12-.22,.74-1.76-.25-1.85-2.48-.23-5.11-.32-7.36,.83-.46,.24-.27,.85,.13,1,2.36,.91,5.03,.5,7.48,.02Z"/><path class="cls-3" d="M110.51,124.71c1.49,0,3.01,.02,4.47-.31,.61-.14,.61-1.09,0-1.23-1.46-.33-2.98-.3-4.47-.31-1.36,0-2.74-.21-3.98,.43-.37,.19-.37,.8,0,.99,1.24,.63,2.62,.43,3.98,.42Z"/><path class="cls-3" d="M111.17,110.45c1.39-.02,2.81,.05,4.16-.31,.73-.2,.73-1.27,0-1.47-1.35-.37-2.78-.29-4.16-.31-1.24-.02-2.65-.23-3.72,.5-.41,.28-.41,.82,0,1.1,1.06,.73,2.48,.52,3.72,.5Z"/><path class="cls-3" d="M94.5,105.75c1.44-.09,2.89-.3,4.33-.46,.89-.1,.94-1.43,0-1.42l-3.78,.03c-1.18,0-2.51-.05-3.52,.62-.32,.21-.39,.75,0,.95,.97,.5,1.91,.35,2.98,.28Z"/><path class="cls-3" d="M91.89,117.63c1.85-.07,3.72-.48,5.5-.92,.88-.22,.49-1.46-.37-1.32-1.71,.27-3.41,.4-5.13,.41-1.54,0-3.31-.4-4.75,.15-.49,.19-.62,.81-.15,1.12,1.41,.91,3.28,.63,4.9,.57Z"/><path class="cls-3" d="M115.45,138.8c1.89-.26,3.77-.56,5.65-.86,1-.16,.77-1.86-.24-1.77-1.66,.16-3.32,.3-4.98,.49-1.55,.18-3.28,.1-4.56,1.08-.29,.23-.45,.8,0,.99,1.39,.59,2.66,.26,4.12,.06Z"/><path class="cls-3" d="M126.52,152.91c.87-.14,.66-1.56-.21-1.52-3.3,.16-7.52-.24-10.53,1.31-.48,.25-.34,.98,.15,1.12,3.22,.89,7.36-.38,10.59-.91Z"/><path class="cls-3" d="M108.09,147.8c.88-.1,.92-1.39,0-1.4-1.67-.01-3.33-.07-5-.14-1.48-.06-2.98-.44-4.42-.02-.46,.13-.56,.78-.13,1.03,1.19,.69,2.49,.66,3.84,.74,1.92,.11,3.8,0,5.71-.21Z"/><path class="cls-3" d="M97.35,131.52c1.66-.15,3.33-.34,4.99-.5,.71-.07,.74-1.12,0-1.12-1.66-.01-3.33-.02-4.99-.04-1.52-.01-3.18-.14-4.56,.55-.48,.24-.28,.87,.13,1.03,1.38,.53,2.98,.22,4.43,.09Z"/><path class="cls-3" d="M91.95,141.92c.77-.17,.61-1.5-.19-1.4-1.48,.19-2.96,.3-4.45,.36-1.38,.05-2.88-.09-4.13,.54-.38,.19-.37,.8,0,.99,2.37,1.24,6.29,.06,8.77-.49Z"/><path class="cls-3" d="M111.3,158.84c.83,0,.81-1.2,0-1.27-3.01-.27-6.51-.71-9.39,.43-.36,.14-.47,.75,0,.84,3.01,.62,6.32,.02,9.39,0Z"/><path class="cls-3" d="M87.63,153.96c1.01-.06,1.01-1.64,0-1.57-1.15,.07-2.3,.09-3.45,.07-1.04-.02-2.08-.22-3.08,.12-.38,.13-.48,.65-.11,.87,1.78,1.06,4.66,.64,6.65,.52Z"/><path class="cls-3" d="M83.37,127.13c.97-.15,.63-1.52-.22-1.59-1.55-.13-3.11-.21-4.67-.33-1.42-.12-2.73-.48-4.12-.06-.53,.16-.53,.78-.14,1.07,1.24,.94,2.76,.95,4.26,1.08,1.63,.14,3.26,.08,4.88-.16Z"/><path class="cls-3" d="M76.12,135c.86-.08,.88-1.31,0-1.35-1.74-.07-3.41-.4-5.11-.75-1.47-.31-2.88-1.1-4.39-.76-.59,.13-.63,.81-.32,1.21,.95,1.22,2.69,1.36,4.14,1.61,1.88,.32,3.79,.22,5.68,.05Z"/><path class="cls-3" d="M80.16,110.69c1.64-.1,3.28-.35,4.92-.52,1.03-.11,1.09-1.65,0-1.65h-4.3c-1.33,.02-2.91-.12-4.03,.67-.4,.28-.48,.92,0,1.19,1.09,.6,2.21,.39,3.42,.31Z"/><path class="cls-3" d="M73.24,118.43c1.32-.09,1.35-2.09,0-2.07-1.39,.02-2.74-.08-4.11-.32-1.21-.22-2.5-.73-3.72-.36-.39,.12-.7,.66-.42,1.03,1.65,2.15,5.82,1.9,8.25,1.73Z"/><path class="cls-3" d="M67.37,103.23c-2.63-.53-6.02-1.66-8.65-.81-.44,.14-.53,.73-.13,.98,2.35,1.47,5.89,1.19,8.58,1.3,.84,.04,1.03-1.3,.2-1.47Z"/><path class="cls-3" d="M58.07,109.11c-2.24-.58-4.56-1.82-6.86-1.97-.5-.03-.82,.69-.42,1.02,1.83,1.53,4.65,1.87,6.93,2.22,.82,.13,1.2-1.06,.35-1.28Z"/><path class="cls-3" d="M59.67,125.41c-1.19-.34-2.38-.69-3.57-1.03-1.11-.32-2.33-.81-3.48-.5-.41,.11-.59,.68-.26,.98,.78,.72,1.75,.82,2.76,1.06,1.38,.32,2.78,.58,4.17,.87,.89,.18,1.27-1.12,.38-1.37Z"/><path class="cls-3" d="M74.2,148.05c.77-.03,.77-1.17,0-1.2-2.58-.09-5.63-.68-8.09,.25-.34,.13-.34,.57,0,.7,2.46,.93,5.51,.34,8.09,.25Z"/><path class="cls-3" d="M63.83,155.13c-2.63-.49-6.01-1.68-8.66-.93-.42,.12-.49,.69-.12,.91,2.34,1.43,5.92,1.21,8.58,1.44,.81,.07,.99-1.27,.19-1.42Z"/><path class="cls-3" d="M59.39,142.56c.82-.21,.72-1.31,0-1.57-1.47-.52-2.97-.59-4.52-.71-1.37-.11-2.81-.15-4.04,.55-.48,.27-.41,.9,0,1.19,1.19,.82,2.64,.81,4.04,.87,1.53,.07,3.04,.06,4.52-.33Z"/><path class="cls-3" d="M44.72,146.91c-1.35-.27-2.67-.63-4-.97-1.37-.35-2.8-.95-4.23-.79-.55,.06-.88,.67-.46,1.11,1.93,2.05,5.78,2.3,8.42,2.61,1.12,.13,1.36-1.74,.27-1.96Z"/><path class="cls-3" d="M46.93,130.95c-2.23-.55-5.13-1.75-7.41-.98-.36,.12-.6,.66-.25,.94,1.94,1.56,5.06,1.44,7.44,1.71,.96,.11,1.14-1.44,.23-1.67Z"/><path class="cls-3" d="M43.66,117.81c-1.75-.44-3.47-1.03-5.29-.93-.29,.01-.42,.4-.15,.56,1.57,.92,3.35,1.19,5.11,1.6,.8,.19,1.14-1.03,.34-1.23Z"/><path class="cls-3" d="M43.07,105.48c-2.72-.44-5.23-1.87-7.94-2.15-.41-.04-.53,.49-.31,.75,1.89,2.15,5.35,2.58,8.05,2.85,.82,.08,1.01-1.31,.2-1.45Z"/></g></g></g></svg>