<?xml version="1.0" encoding="UTF-8"?><svg id="Layer_2" xmlns="http://www.w3.org/2000/svg" viewBox="0 0 265.89 225.74"><defs><style>.cls-1{fill:#fff;}.cls-2{fill:#ffba69;}.cls-3{fill:#b2b4b1;}</style></defs><g id="Layer_1-2"><g><g><path class="cls-1" d="M184.06,5.86c10.29,2.84,40.59,7.37,62.43,37.17,13.57,18.53,18.95,42.25,17.79,65.19-1.16,22.94-8.46,45.21-18.26,65.98-8.28,17.57-19.32,35.17-36.74,43.78-18.32,9.05-39.99,6.44-60.24,3.61-6.91-.96-14.14-2.06-19.75-6.21-5.61-4.15-8.84-12.41-5.13-18.32,4.56-7.25,15.11-6.32,23.67-5.87,13.58,.72,27.33-2.09,39.54-8.08-10.33-2.12-19.22-6.31-29.54-8.43-9-1.84-22-10.3-27.27-17.83-7.34-10.49-23.35,18.55-61.87,3.15-5.24-2.1-14.71-13.87-17.83-10.49-15.22,16.49-16.78,15.73-26.22,16.78-10.68,1.19-16.56-9.09-20.49-19.09-3.93-10-2.71-21.2-1.42-31.87,1.9-15.76,3.82-31.66,8.88-46.71,3.75-11.14,11.09-27.27,26.35-38.77,27.67-20.86,56-13.22,62.18-15.61C132.68,1.67,153.65-2.52,184.06,5.86Z"/><path class="cls-2" d="M183.66,7.31c7.4,2.03,14.82,3.65,22,6.43,11.3,4.38,21.73,10.93,30.37,19.45,10.89,10.75,18.6,24.17,22.8,38.86,4.3,15.05,5.02,30.92,3.04,46.4-2.13,16.59-7.3,32.73-13.97,48.02-5.79,13.28-12.53,26.64-22.48,37.34-4.76,5.12-10.26,9.54-16.53,12.69-7.04,3.55-14.85,5.34-22.67,5.96-7.91,.63-15.87,.17-23.75-.66-3.98-.42-7.94-.94-11.9-1.49s-7.73-1.05-11.49-2.06c-6.64-1.8-13-5.67-14.68-12.79-.69-2.92-.26-6.03,1.62-8.43,1.77-2.26,4.44-3.43,7.18-4.03,6.54-1.43,13.41-.09,20.03-.19,8.1-.12,16.2-1.45,23.91-3.94,3.77-1.21,7.44-2.71,11-4.45,1.14-.55,.87-2.49-.36-2.74-5.49-1.14-10.8-2.92-16.12-4.66-2.57-.84-5.14-1.66-7.74-2.39-2.39-.66-4.84-1.1-7.23-1.75-4.23-1.15-8.21-3.19-11.93-5.5-3.75-2.33-7.31-5.04-10.36-8.24-1.61-1.69-2.81-4.12-4.9-5.31-1.35-.77-2.88-.91-4.39-.7-3.85,.53-7.46,2.69-10.94,4.29-5.1,2.34-10.39,4.24-15.95,5.14-7.65,1.23-15.48,.39-22.87-1.8-3.66-1.09-6.99-2.27-9.98-4.66-2.73-2.18-5.28-4.59-8.14-6.6-1.87-1.31-4.67-2.99-6.89-1.47-.92,.63-1.64,1.65-2.4,2.46-.92,.98-1.84,1.95-2.77,2.92-1.46,1.51-2.95,3.01-4.49,4.44-3.47,3.23-6.84,5.72-11.5,6.45-2.27,.35-5.27,.83-7.72,.53-3.89-.49-7.04-3-9.41-5.98-2.6-3.26-4.45-7.14-6.01-10.97-2.04-5.02-2.94-10.23-3.03-15.63-.09-5.42,.51-10.82,1.15-16.19,.68-5.69,1.36-11.38,2.19-17.05,2.72-18.58,7.19-37.45,18.17-53.02,11.43-16.21,29.59-26.47,49.16-28.97,6.63-.85,13.28-.76,19.95-.71,2.01,.02,4.11,.07,6.09-.35,1.77-.38,3.47-1.25,5.16-1.89,2.59-.97,5.2-1.92,7.82-2.83,9.31-3.22,18.85-5.98,28.63-7.33,9.2-1.27,18.57-1.18,27.75,.24,4.92,.76,9.78,1.86,14.59,3.18,1.86,.51,2.66-2.38,.8-2.89C174.82,1.78,164.91,.06,154.9,0c-9.46-.05-18.86,1.39-28.01,3.75-5.06,1.31-10.05,2.87-14.98,4.58-2.62,.91-5.22,1.85-7.82,2.83-1.73,.65-3.46,1.52-5.28,1.91-.56,.12-.29,.07-.81,.11s-1.02,.07-1.54,.09c-1.16,.04-2.32,.03-3.48,.02-3.06-.03-6.12-.09-9.17-.02-8.37,.2-16.74,1.34-24.73,3.92-10.11,3.27-19.58,8.73-27.37,15.98-13.45,12.53-20.92,29.84-25.02,47.46-2.62,11.26-4.01,22.76-5.39,34.22-1.29,10.75-2.64,22.16,1.33,32.54,2.86,7.46,7,16.31,14.91,19.48,3.26,1.3,6.54,1.01,9.93,.64,2.01-.22,4.04-.47,5.95-1.15,5.72-2.05,10.2-7.02,14.3-11.28,.9-.93,1.78-1.87,2.66-2.82,.51-.55,1-1.15,1.54-1.66,.17-.16,.01-.11,.21-.15s0-.05,.36-.01c-.12-.01,.33,.08,.45,.11,.56,.17,1.08,.47,1.59,.77,2.96,1.77,5.47,4.26,8.14,6.44,1.25,1.02,2.53,2.05,3.93,2.88,1.72,1.02,3.7,1.63,5.58,2.26,4.24,1.43,8.6,2.42,13.05,2.92,6.96,.77,14.02,.07,20.71-1.98,4.93-1.51,9.53-3.78,14.22-5.89,1.53-.69,3.05-1.37,4.81-1.75,.19-.04,.37-.08,.56-.11-.05,0-.1,0,.2-.02,.36-.03,.72-.03,1.08,0s-.05-.02,.14,.02c.14,.03,.28,.06,.42,.1,.5,.12,.18-.01,.63,.26s.94,.74,1.21,1.09c1.18,1.53,2.34,3.02,3.71,4.39,3.23,3.23,6.96,6.01,10.85,8.38,3.77,2.3,7.85,4.32,12.13,5.48,2.39,.65,4.84,1.09,7.23,1.75,2.76,.77,5.48,1.65,8.19,2.54,5.17,1.69,10.34,3.4,15.67,4.51l-.36-2.74c-7.63,3.71-15.87,6.21-24.28,7.32-4.26,.56-8.57,.76-12.87,.63-3.38-.11-6.75-.41-10.14-.37-6.09,.08-12.8,1.28-16.37,6.77-3.74,5.76-1.45,13.32,2.84,18.08,5.18,5.73,13.36,7.41,20.67,8.49,8.2,1.21,16.44,2.32,24.71,2.79,15.94,.92,32.39-1.02,45.79-10.36,12.1-8.44,20.59-21.01,27.26-33.95,7.71-14.97,14-30.93,17.84-47.35s5-32.87,2.52-49.31c-2.36-15.65-8.16-30.89-17.76-43.54-8.41-11.08-19.22-20.12-31.68-26.33-8.49-4.23-17.49-7.01-26.68-9.25-1.34-.33-2.69-.65-4.02-1.02-1.86-.51-2.66,2.38-.8,2.89Z"/></g><g><path class="cls-3" d="M252.42,85.17c-4.06-17.74-18.37-40.76-33-51.75-25.83-19.38-60.49-26.57-90.9-17.39-10.95,3.31-21.79,7.72-31.37,14.04-16.12,10.64-25.36,26.63-31.13,44.41-.13,.39-.28,1.03-.34,1.43-.41,2.72-.49,5.53-1.22,8.17-1.93,7,1.78,13.85,4.81,19.76,3.11,6.06,5.24,12.66,8.83,18.54,2.54,4.15,5.78,7.66,9.86,10.27,7.76,4.96,17.37,12.11,26.96,6.71,.81-.45,1.61-.91,2.43-1.34,2.84-1.49,5.56-3.16,8.67-4.17,7.64-2.48,15.3-4.17,23.46-3.8,5.96,.27,12.04,1.65,17.91,3.82v.12c-.2,1.52-.15,2.98,.23,4.48,.39,1.54,.57,3.14,.92,5.2-1.05-.43-1.66-.64-2.23-.92-5.99-2.93-15.98-4.75-21.48,.2-6.35,5.71-1.37,12.26,3.81,16.45,9.8,7.94,23.8,11.88,36.23,12.68,9.83,.63,23.57,1.24,31.43-6.39,.14,.03,.28,.06,.43,.09,1.94,.34-5.88,12.89-6.31,13.44-4.73,6.1-11.43,13.7-18.59,16.99-7.07,3.25-15.4,5.83-23.18,6.56-6.07,.57-12.21,.89-18.23-.03-4.43-.68-8.46-1.25-12.69-1.88-4.32-.64-6.15,5.27-2.23,7.21,7.93,3.92,17.7,6.15,25.61,6.73,25.42,1.88,47.47-7.36,56.19-15.74,8.96-8.61,15.7-24.41,17.35-33.63,9.67-8.69,15.49-23.37,18.16-38.78,2.55-14.72,2.22-30.09-.4-41.5Z"/><path d="M192,57.01c0,.15,0,.3-.03,.44-.73,3.8-2.77,5.04-6.19,3.73-1.64-.63-3.12-1.69-4.64-2.62-.73-.45-1.14-1.19-1.15-2.06,0-.79-.32-1.38-.81-1.99-.29-.36-.46-.95-.43-1.43,.11-1.85,.87-3.45,2.21-4.72,2.05-1.94,4.55-1.59,6.75-.16,2.95,1.9,4.49,5.62,4.29,8.8Zm-3.89-2.11c.05-1.25-.47-1.74-1.35-1.63-.91,.11-1.57,.72-1.66,1.53-.06,.58,.34,1.09,1.15,1.46,.07,.03,.14,.06,.21,.08,.48,.17,.91,.05,1.16-.37,.26-.43,.42-.91,.49-1.08Zm-5.41-3.45c.69-.12,1.12-.19,1.55-.26,.51-.08,1.02-.16,1.53-.22,.39-.04,.86,.25,1.22-.36-.29-.29-.55-.65-.9-.86-.7-.43-1.49-.72-2.32-.42-.84,.31-.82,1.14-1.08,2.13Zm7.74,5.3l-.42-.21c-.4,.59-.82,1.16-1.18,1.77-.4,.67-1.39,.77-1.65,1.61,.74,.44,1.37,.33,1.94-.1,1.03-.79,1.27-1.89,1.32-3.07Zm-5.8,1.43c-1.37-1.42-1.56-3.04-1.14-5.06-1.56,1.08-.83,2.37-.81,3.46,0,.43,.42,.94,.79,1.26,.28,.24,.77,.23,1.17,.34Z"/><path d="M237.5,117.92c.12,.08,.26,.15,.37,.25,2.88,2.58,2.9,4.97,.02,7.23-1.38,1.08-3.05,1.81-4.63,2.63-.76,.39-1.6,.37-2.36-.07-.68-.4-1.35-.44-2.12-.33-.46,.07-1.05-.1-1.44-.37-1.53-1.04-2.52-2.52-2.92-4.32-.61-2.76,.98-4.72,3.33-5.87,3.15-1.55,7.13-.96,9.75,.84Zm-3.81,2.25c-1.04-.69-1.73-.49-2.09,.32-.37,.83-.19,1.72,.46,2.21,.46,.35,1.11,.27,1.85-.24,.06-.04,.12-.09,.18-.13,.39-.32,.51-.75,.28-1.19-.23-.44-.57-.83-.67-.98Zm-5.74,2.87c.26-.66,.41-1.06,.57-1.46,.19-.48,.38-.96,.6-1.42,.16-.36,.66-.61,.32-1.23-.4,.1-.84,.14-1.21,.33-.73,.38-1.39,.9-1.55,1.77-.17,.88,.56,1.29,1.27,2.02Zm8.53-3.91l-.4,.25c.3,.64,.57,1.3,.91,1.92,.37,.69-.05,1.59,.53,2.24,.76-.41,.99-1,.91-1.71-.15-1.29-.97-2.06-1.96-2.71Zm-1.76,5.71c-1.92,.45-3.41-.22-4.92-1.62,.12,1.89,1.6,1.93,2.55,2.47,.38,.22,1.02,.12,1.48-.03,.35-.11,.6-.54,.89-.83Z"/><path d="M202.9,74.39c.73,.08,1.48,.11,2.2,.26,1.9,.39,2.79,1.42,2.93,3.37,.18,2.46-.75,4.47-2.52,6.15-1.88,1.78-4,1.73-6.18,.75-.93-.42-1.89-.91-2.48-1.82-.64-.98-1.43-1.95-1.26-3.24,.21-1.65,.74-3.21,2-4.35,.91-.82,2.1-1.09,3.3-1.15,.66-.03,1.33,.06,2,.1v-.08Zm-2.73,8.06c-.15-.02-.29-.04-.44-.05-.07,0-.13,0-.2,.01,.1,.06,.2,.18,.29,.17,.14-.02,.26-.12,.4-.18,0,.12,.02,.25,.03,.37-.02-.11-.04-.23-.08-.32Zm5.84-5.18c-.02-.13-.02-.27-.05-.4-.01-.06-.08-.11-.12-.16-.03,.1-.12,.25-.08,.31,.06,.1,.21,.14,.32,.21,0,.25,.02,.49,.03,.74,.09-.03,.18-.06,.26-.09-.12-.2-.24-.4-.35-.6Zm-4.22-.44c-.89,.41-1.3,1.16-1.41,2.07-.03,.23,.17,.54,.36,.72,.12,.11,.43,.12,.61,.06,.62-.22,.86-.79,1.01-1.35,.16-.59,.08-1.16-.57-1.5Z"/><path d="M173.54,83.8c-.32-1.81,.66-3.22,1.95-4.39,1.48-1.34,3.28-2,5.31-1.84,1.32,.11,2.25,.87,2.67,2.05,.76,2.14,.35,4.24-.52,6.27-.14,.33-.42,.64-.71,.84-1.81,1.27-3.76,2.08-6.04,1.71-1.78-.29-2.71-1.38-2.74-3.21,0-.44,.05-.89,.08-1.44Zm3.77-1.17c.75-.29,1.56-.32,2.29-.48,.34-.62,.32-1.12-.2-1.44-.47-.29-1-.25-1.41,.13-.43,.39-.9,.77-.68,1.79Z"/><path d="M230,145.89c-.25-1.46,.53-2.6,1.58-3.54,1.19-1.08,2.65-1.62,4.29-1.48,1.06,.09,1.81,.71,2.15,1.66,.62,1.72,.28,3.42-.42,5.06-.11,.26-.34,.51-.57,.68-1.46,1.02-3.04,1.68-4.87,1.38-1.43-.23-2.19-1.12-2.21-2.59,0-.36,.04-.72,.06-1.16Zm3.04-.94c.61-.23,1.26-.26,1.85-.39,.28-.5,.26-.9-.16-1.16-.38-.23-.8-.2-1.14,.11-.34,.31-.73,.63-.55,1.44Z"/><path d="M234.29,72.91c1.82-.29,3.21,.71,4.36,2.02,1.31,1.5,1.95,3.31,1.75,5.34-.13,1.32-.91,2.23-2.09,2.63-2.15,.73-4.25,.28-6.26-.62-.32-.14-.63-.43-.83-.72-1.24-1.83-2.02-3.8-1.61-6.07,.32-1.77,1.43-2.69,3.25-2.69,.44,0,.89,.06,1.44,.1Zm1.11,3.79c.28,.76,.29,1.57,.45,2.3,.62,.35,1.11,.34,1.44-.18,.3-.46,.26-.99-.11-1.42-.38-.43-.76-.91-1.78-.71Z"/><path d="M166.02,38.85c-1.76-.04-3.26-.94-4.45-2.35-1.38-1.62-1.49-3.38-.18-5.08,.76-.98,1.72-1.83,2.68-2.64,1.16-.97,2.36-.95,3.81,.31,1.55,1.34,2.44,3.12,2.69,5.21,.35,2.85-1.88,4.79-4.56,4.55Zm1.83-6.4c-.33-1.49-1.18-1.98-2.27-2.07-.85-.07-1.28,.48-1.5,1.37,.69,.04,1.26,.02,1.81,.12,.56,.1,1.11,.32,1.96,.58Zm-2.24,2.86q.85,.65,1.4,.08c-.38-.02-.72-.04-1.4-.08Z"/><path d="M207.68,62.04c.1-1.5,.81-2.75,1.45-3.99,.94-1.82,2.85-2.43,4.74-1.67,2.16,.88,3.73,3.98,3.18,6.26-.42,1.75-2.29,3.47-4.02,3.71-1.92,.26-3.96-.7-4.87-2.42-.3-.56-.32-1.26-.47-1.89Zm6.47-1.77c-.5-.61-.97-.81-1.53-.46-.17,.1-.19,.43-.38,.89,.76-.17,1.27-.29,1.91-.43Zm-1.98,4.37l.36-.15c-.1-.09-.2-.23-.31-.25-.11-.02-.24,.08-.36,.13,.11,.09,.21,.18,.32,.27Z"/><path d="M236.15,92.12c1.3,.75,2.12,1.93,2.96,3.04,1.22,1.64,.95,3.63-.57,4.99-1.73,1.56-5.21,1.62-7.02,.13-1.39-1.15-2.12-3.57-1.58-5.24,.6-1.84,2.35-3.26,4.3-3.33,.63-.02,1.27,.26,1.91,.4Zm-1.23,6.6c.77-.18,1.15-.52,1.08-1.18-.02-.19-.3-.36-.64-.73-.18,.76-.29,1.27-.44,1.91Zm-3.07-3.69c0,.13-.01,.26-.02,.39,.12-.05,.29-.08,.36-.17,.07-.09,.03-.25,.04-.39-.13,.06-.26,.11-.38,.17Z"/><path d="M216.47,99.89c-.1,2.34-1.56,3.44-3.6,3.07-1.24-.23-2.45-.68-3.44-1.48-1.09-.88-1.63-2.08-1.58-3.52,.05-1.37,.61-2.59,1.13-3.81,.22-.52,.77-.7,1.32-.58,2.61,.57,4.64,1.92,5.71,4.45,.31,.73,.39,1.56,.46,1.88Zm-3.49,1.63c1.25-.05,1.59-.19,1.8-.67,.31-.69,.2-1.29-.29-1.8-.47,.77-.95,1.54-1.52,2.47Zm-1.53-3.4l-.03-.16s-.13,.01-.13,.03c0,.05,.01,.11,.03,.16l.14-.03Z"/><path d="M196.41,36.23c2.22-1.06,4.32-.28,5.33,1.99,.84,1.89,.03,3.82-2,4.74-2.12,.97-4.24,.19-5.2-1.91-.84-1.85-.04-3.91,1.87-4.82Zm3.55,2.19c-.72,.4-1.24,.63-1.68,.97-.12,.1-.05,.55,.05,.79,.05,.14,.4,.3,.51,.24,.37-.19,.78-.41,1.01-.74,.17-.23,.07-.65,.11-1.26Z"/><path d="M153.57,53.84c.1-2.46,1.76-3.96,4.23-3.8,2.06,.13,3.4,1.75,3.27,3.98-.13,2.33-1.8,3.85-4.11,3.71-2.03-.12-3.48-1.78-3.4-3.89Zm3.59-2.13c.02,.82-.02,1.39,.08,1.93,.03,.15,.46,.29,.72,.32,.14,.01,.45-.22,.45-.34,0-.42,0-.88-.18-1.24-.13-.25-.55-.36-1.07-.68Z"/><path class="cls-3" d="M33.16,57.53c1.73-7.56,7.34-13.26,13.69-17.32,18.48-11.81,52.69-18.45,72.72-6.64,12.94,7.63,17.24,24.29,17.98,38.3,1.56,29.55,1.37,63.18-28.53,78.17-32.89,16.48-64.3-20.73-72.97-48.72-4.44-14.33-6.22-29.21-2.88-43.8Z"/><path d="M106.54,123.3c.73,2.17-.99,5.3-2.03,7.11-1.33,2.33-3.04,4.42-4.75,6.48-2.25,2.71-4.74,5.44-8.6,3.93-3.58-1.4-6.79-2.96-9.75-5.46-1.89-1.6-3.51-3.53-4.53-5.79-.55-1.22-.34-2.32,.55-3.23,1.27-1.29,2.72-2.72,4.37-3.52,3.9-1.87,7.53-3.01,11.86-3.38,2.1-.18,4.68-.1,6.74,.37,1.89,.43,4.92,1.28,5.98,3.12,.07,.11,.12,.23,.16,.36Z"/><path d="M44.92,139.5c-1.65,6.4-4.73,11.82-10.22,14.83-9.62,5.28-20.35-1.71-22.68-11.13-2.91-11.74-.46-23.12,1.35-34.6,1.95-12.32,4.05-24.75,8.41-36.49,1.61-4.33,15.16-32.96,18.57-18.3,4.78,20.49,4.34,42.03,5.85,62.87,.55,7.62,.64,15.36-1.29,22.81Z"/><path d="M167.1,123.59c-.86,1.99-2.06,3.93-3.68,5.82-3.34,3.9-8.46,6.21-13.59,6.15-14.7-.19-16.07-15.53-19.03-26.28-4.13-15.02-7.75-30.11-8.91-45.8-.28-3.81-.47-7.63-.56-11.45-.11-4.68-.06-9.37-.08-14.06,0-.49-.04-.99,.01-1.48,.17-1.6,1.4-2.36,2.92-1.67,.99,.45,2,1.03,2.77,1.79,7.54,7.35,13.82,15.9,19.1,25,5.54,9.54,9.67,19.45,14.79,29.08,5.15,9.69,10.99,21.94,6.26,32.91Z"/><path d="M92.41,134.06c1.46,4.89,2.92,9.79,4.38,14.68,.32,1.08,2,.61,1.68-.47-1.46-4.89-2.92-9.79-4.38-14.68-.32-1.08-2-.61-1.68,.47h0Z"/><path d="M56.74,88.62c.72,5.17,3.24,14.92,10.32,14.19,7.1-.73,6.81-11.01,5.95-15.93-.26-1.51-2.55-.85-2.29,.65,.65,3.73,1.3,11.56-3.67,12.89-5.33,1.43-7.49-8.61-7.94-11.83-.21-1.5-2.59-1.48-2.38,.04h0Z"/><path d="M93.33,84.79c.72,5.17,3.24,14.92,10.32,14.19,7.1-.73,6.81-11.01,5.95-15.93-.26-1.51-2.55-.85-2.29,.65,.65,3.73,1.3,11.56-3.67,12.89-5.33,1.43-7.49-8.61-7.94-11.83-.21-1.5-2.59-1.48-2.38,.04h0Z"/></g></g></g></svg>