<?xml version="1.0" encoding="UTF-8"?><svg id="Layer_2" xmlns="http://www.w3.org/2000/svg" viewBox="0 0 197.41 265"><defs><style>.cls-1{fill:#fff;}.cls-2{fill:#ffba69;}.cls-3{fill:#bac9ca;}.cls-4{fill:#8d9798;}</style></defs><g id="Layer_1-2"><g><g><path class="cls-1" d="M54.7,45.78c2.42-1.43,2.6-4.81,3.22-7.27,1.47-5.83,2.94-11.65,4.41-17.48,1.96-7.78,5.06-16.8,12.75-19.08,5.7-1.69,12,1.35,15.66,6.03,3.66,4.68,5.14,10.69,5.98,16.58,.55,3.83,.88,7.73,2.16,11.39,1.27,3.66,1.05,9.45,4.58,11.04,3.34,1.51,25.78-.2,31.95-.68,15.68-1.22,12.6,11.42,12.83,14.97,.2,3.17-6.01,12.14-6.67,15.24-6.67,31.44-31.35,35.97-31.44,36.2-4.52,11.39,21.91,21.91,29.53,48.59,2.52,8.81,5.82,25.1,7.24,25.09,.18,0,.32-.22,.38-.32,11.22-18.37,20.01-40.96,20.01-40.96,4.52-11.63,6.73-15.04,10.48-16.2,4.09-1.26,9.28,.38,12.49,3.52,2.24,2.2,3.27,4.88,4.15,9.48,1.32,6.92,3.2,17.55-1.4,31.69-.9,2.78-1.22,3.12-6.67,14.37-13.34,27.55-13.76,30.29-18.84,35.04-7.11,6.64-10.44,5.16-14.5,11.64-5.43,8.67-1.19,14.05-5.72,20.01-1.85,2.43-5.02,4.77-33.34,6.67-20.01,1.34-13.79-.14-31.44,.95-15.3,.94-25.04,2.37-29.32-3.5-.46-.63-.85-1.62-1.61-3.59-4.81-12.41-5.06-21.5-6.23-21.5-1.3,0,.65,11.35-5.72,20.01-4.37,5.95-13.17,11.3-19.95,9.35-10.41-3-12.84-22.27-15.3-41.74-2.17-17.19-.95-148.36-2.86-179.1,0,0-.58-9.28,3.81-21.91,1.01-2.9,2.67-6.91,6.65-9.48,.16-.11,2.46-1.57,5.28-2.07,7.19-1.28,17.3,3.78,21.94,12.06,5.87,10.5,1.96,24.38,6.49,25.7,.41,.12,6.74,.59,9.01-.75Z"/><path class="cls-2" d="M55.46,47.07c2.42-1.57,3.08-4.21,3.63-6.87,.71-3.45,1.69-6.86,2.55-10.28,1.5-5.95,2.62-12.25,5.25-17.84,2.14-4.57,5.75-8.96,11.21-9.09,6.22-.15,11.26,4.51,13.85,9.78,2.99,6.08,3.13,12.85,4.39,19.38,.54,2.82,1.51,5.52,2.06,8.34,.47,2.35,1.01,5.03,2.82,6.76,2.2,2.12,5.84,1.83,8.66,1.85,4.51,.03,9.02-.2,13.52-.46,3.75-.22,7.49-.48,11.23-.77,3.53-.27,8.13-.45,10.55,2.69,1.58,2.05,1.71,4.74,1.66,7.23-.02,1.07-.11,2.14-.11,3.21,0,1.44-.62,2.84-1.28,4.21-1.8,3.77-4.55,7.42-5.46,11.54-1.17,5.28-3,10.42-5.7,15.13-3.75,6.55-9.14,12.07-15.73,15.78-2.13,1.2-3.97,2.04-6.16,2.8-.93,.32-2.15,.46-3.01,.98-1.06,.64-1.24,2.64-1.27,3.75-.04,1.3,.24,2.61,.72,3.82,1.15,2.94,3.2,5.43,5.26,7.78,5.82,6.62,12.27,12.6,17.14,20.01,2.97,4.51,5.35,9.38,6.88,14.57,1.43,4.86,2.53,9.82,3.76,14.74,.56,2.23,1.12,4.47,1.78,6.68,.39,1.32,.77,2.81,1.51,3.99,.31,.49,.72,.94,1.3,1.09,1.45,.39,2.2-1.13,2.81-2.15,1.77-2.95,3.45-5.95,5.07-8.99,4.91-9.2,9.29-18.7,13.25-28.35,1.14-2.79,2.19-5.61,3.39-8.37,1.34-3.08,2.96-7.32,5.91-9.05,3.97-2.33,9.98-.16,12.94,3.26,1.69,1.95,2.38,4.56,2.9,7.03,.46,2.16,.85,4.35,1.15,6.54,.73,5.35,.76,10.83-.08,16.17-.51,3.27-1.31,6.49-2.36,9.63-.11,.34-.23,.68-.36,1.01-.07,.2-.15,.39-.23,.59-.1,.25,0,0,.02-.05-.06,.15-.13,.29-.19,.44-1.66,3.72-3.54,7.34-5.32,11-2.71,5.6-5.39,11.21-8.05,16.83-2.43,5.11-4.61,10.65-7.91,15.29-.11,.15-.22,.3-.33,.45-.04,.06-.27,.35-.03,.04-.07,.08-.13,.17-.2,.25-.25,.3-.5,.6-.77,.89-.75,.83-1.56,1.6-2.4,2.34-2.03,1.8-4.26,3.23-6.61,4.55-1.81,1.01-3.57,2.09-5.01,3.61-2.08,2.19-3.64,4.95-4.6,7.8-.86,2.55-1.06,5.22-1.21,7.88-.14,2.29-.4,4.53-1.64,6.52-.09,.14-.97,1.31-.49,.73-.07,.09-.14,.18-.22,.27-.15,.16-.3,.33-.46,.49-.1,.09-.2,.17-.3,.26-.27,.24,.28-.19-.03,.03-.26,.18-.51,.35-.78,.5-.3,.17-.6,.31-.91,.45-.34,.15,.31-.12-.05,.02-.11,.04-.22,.09-.33,.13-.24,.09-.47,.17-.71,.25-2.72,.91-5.58,1.38-8.41,1.79-5.47,.81-10.99,1.26-16.5,1.67s-10.91,.79-16.37,.84c-2.65,.03-5.29-.09-7.94-.08-5.17,.03-10.34,.4-15.5,.75s-10.83,1-16.13,.3c-1.7-.23-3.44-.64-4.93-1.53-1.56-.93-2.41-2.2-3.07-3.86-2.24-5.62-3.87-11.42-5.11-17.34-.31-1.48-.88-7.95-3.89-6.24-1.14,.65-1.12,2.3-1.21,3.43-.16,2-.27,4.01-.59,5.99-.97,5.89-3.47,11.07-8.05,14.98-3.88,3.31-9.84,6.46-15.04,4.63-3.95-1.39-6.23-5.58-7.67-9.24-2.12-5.39-3.2-11.18-4.12-16.87-.81-5-1.56-10.05-2.05-15.1-.38-3.92-.48-7.87-.6-11.8-.44-14.24-.53-28.49-.64-42.73-.14-18.04-.21-36.09-.31-54.13-.1-16.27-.19-32.55-.51-48.82-.11-5.62-.24-11.24-.49-16.86-.07-1.66-.22-3.31-.22-4.97,.02-4.61,.75-9.23,1.85-13.7,1.31-5.33,2.93-11.95,7.89-15.11,4.09-2.6,8.77-2.46,13.17-.79,4.97,1.88,9.4,5.6,12,10.25,2.85,5.09,3.24,11.01,3.62,16.7,.19,2.92,.02,8.33,3.47,9.58,1.27,.46,2.87,.35,4.2,.34,2.08-.02,4.39-.12,6.26-1.13,1.7-.92,.18-3.51-1.51-2.59s-4.24,.77-6.15,.7c-.38-.01-.76-.03-1.15-.06-.17-.01-.34-.02-.51-.04-.42-.06,.26,.09,0,0-.31-.11-.49-.26-.76-.87-.69-1.59-.7-3.58-.81-5.29-.19-2.75-.35-5.5-.74-8.23-.84-5.89-2.97-11.39-7.15-15.71-3.66-3.79-8.62-6.71-13.85-7.62-4.85-.84-9.85,.35-13.56,3.66-4.41,3.93-6.09,10.31-7.42,15.84C.75,31.46,.02,36.22,0,40.94c0,1.71,.15,3.42,.22,5.12,.59,13.33,.67,26.7,.8,40.04,.18,18.15,.25,36.31,.35,54.46,.09,16.98,.17,33.96,.43,50.94,.09,6.17,.2,12.34,.41,18.5,.12,3.68,.21,7.38,.63,11.04,.73,6.33,1.57,12.67,2.73,18.94,1.02,5.49,2.29,11.09,4.81,16.11,1.87,3.73,4.74,7.22,8.9,8.42,5.53,1.59,11.55-1.02,15.92-4.32,4.83-3.64,8.18-8.54,9.71-14.4,.65-2.46,.98-5,1.19-7.54,.07-.86,.12-1.73,.19-2.59,.01-.13,.09-.82,.05-.61,.02-.1,.08-.28,.07-.38-.06-.43,.06,.07-.03,0,.32,.23-1.25,.57-1.66,.37-.01,0-.56-.36-.33-.29,.15,.04,0-.06,.09,.22,.21,.66,.35,1.34,.5,2.02,.48,2.22,.91,4.46,1.45,6.67,.74,3.08,1.62,6.12,2.66,9.11,.86,2.47,1.63,5.39,3.32,7.45,2.51,3.05,6.49,3.99,10.25,4.31,5.64,.47,11.39-.18,17.02-.55,4.81-.32,9.62-.63,14.44-.62,2.74,.01,5.47,.12,8.2,.06,6.12-.13,12.24-.58,18.34-1.08,5.13-.42,10.27-.91,15.35-1.72,3.81-.61,8.75-1.22,11.65-4.09,2.43-2.41,3.29-5.79,3.54-9.1,.2-2.66,.27-5.27,1.1-7.83,.88-2.7,2.43-5.36,4.53-7.3,1.56-1.43,3.52-2.33,5.32-3.4,2.41-1.42,4.64-3.13,6.67-5.06,1.26-1.2,2.4-2.51,3.39-3.95,3.41-4.96,5.71-10.79,8.27-16.2,2.78-5.86,5.58-11.71,8.41-17.55,1.56-3.2,3.23-6.36,4.63-9.64,3.96-9.28,4.63-19.97,3.21-29.86-.66-4.63-1.25-9.99-4.15-13.82-3.33-4.39-9.82-7.03-15.21-5.36-3.11,.96-5.11,3.45-6.65,6.2-2.08,3.7-3.55,7.72-5.12,11.65-3.35,8.42-7.12,16.69-11.21,24.78-1.47,2.9-2.99,5.78-4.57,8.63-.8,1.44-1.62,2.87-2.46,4.29-.13,.22-1.46,2.21-1.38,2.3-.08-.09,1.89-.2,1.74-.11,.05-.03,.06,.24-.03-.07-.36-1.22-1-2.65-1.41-4.08-.66-2.31-1.24-4.64-1.82-6.97-1.24-5.01-2.32-10.1-3.92-15.01s-4.11-9.94-7.1-14.39c-5.05-7.52-11.65-13.61-17.55-20.41-1.84-2.13-3.83-4.56-4.55-7.22-.29-1.07-.33-2.05-.06-3.08,.17-.65,.66-1.13-.4,.02-.09,.1-.47,.12-.27,.12,.14,0,.32-.09,.46-.13,12.62-3.7,22.74-13.13,28.07-25.1,1.11-2.48,2.04-5.04,2.79-7.65,.63-2.2,.94-4.47,1.94-6.54s2.18-4.11,3.25-6.18c.95-1.83,2.01-3.77,2.45-5.8,.24-1.1,.15-2.26,.2-3.38,.06-1.23,.1-2.45,.03-3.68-.19-3.05-1.08-6.2-3.49-8.24-3.35-2.84-7.89-2.85-12.03-2.53s-7.87,.58-11.82,.79c-4.44,.25-8.9,.47-13.34,.4-1.38-.02-3.14-.06-4.23-.26-.22-.04-.44-.09-.66-.15-.09-.03-.42-.16,0,.02-.17-.08-.36-.17-.51-.28-.93-.63-1.39-1.75-1.71-2.78-.77-2.48-1.03-5.07-1.82-7.55-1.09-3.39-1.44-6.94-1.93-10.45-.89-6.39-2.5-12.93-6.68-18.02-3.73-4.55-9.83-7.5-15.75-6.38-5.27,.99-9.02,5.23-11.28,9.84-2.55,5.21-3.74,10.96-5.15,16.55-.92,3.66-1.86,7.32-2.77,10.99-.54,2.17-.59,5.53-2.66,6.87-1.62,1.05-.11,3.64,1.51,2.59Z"/></g><g><g><path class="cls-3" d="M185.71,142.2c-.51-2.95-1.63-4.97-3.7-5.21-4-.46-5.6,10.58-6.41,13.44-5.14,18.14-15.97,34.99-30.65,46.82-.89,.72-1.8,1.42-2.71,2.12-1.64-8.78-3.64-17.48-6.78-25.87-2.67-7.14-5.39-14.3-9.37-20.83-6.46-10.59-13.62-20.63-23.53-28.4-3.93-3.08-7.32-6.78-10.74-10.42-.46-.49-.11-1.71,.55-1.97,3.42-1.36,6.78-2.89,10.26-4.05,5.34-1.78,9.9-4.87,14.25-8.27,2.25-1.76,4.27-3.93,6.06-6.17,6.2-7.76,9.7-16.79,11.76-26.41,.32-1.51,.33-3.14,.17-4.68-.2-1.91-1.21-3.49-3.01-4.35-3.83-1.84-7.78-3.2-12.13-2.84-4.19,.35-8.4,.56-12.58,1.02-3.17,.35-6.3,.36-9.41-.26-1.59-.31-2.98-1.08-3.46-2.84-.41-1.52-.91-3.02-1.17-4.57-1.47-8.55-3.82-16.91-5.72-25.37-.23-1.02-.51-2.05-.91-3.02-.81-1.99-2.1-3.62-3.93-4.8-1.97-1.27-4.98-1.07-6.59,.54-1.69,1.69-3.08,3.53-3.56,6-.55,2.83-1.4,5.61-1.97,8.44-1.09,5.41-2.1,10.84-3.11,16.26-.39,2.07-.68,4.16-1.06,6.22-.33,1.76-1.56,2.65-3.21,3.04-.77,.18-1.54,.36-2.32,.43-4.98,.42-9.96,.85-14.95,1.16-1.29,.08-2.61-.24-3.91-.43-1.1-.15-2.01-.69-2.43-1.74-.76-1.95-1.44-3.94-2.13-5.92-1.66-4.76-3.57-9.55-5.07-14.33-1.5-4.8-3.91-11.34-7.24-15.18-1.05-1.22-2.5-2.26-4.11-2.2-1.86,.06-4.35,.95-5.05,2.82-4.52,11.97-4.9,24-4.88,36.45,.02,11.97,1.03,24.11,1.15,35.9,.04,3.96,.14,7.92,.2,11.88,.13,7.54,.25,15.07,.38,22.61,0,10.28-.06,19.22,.02,28.16,.13,14.45,.77,28.89,1.71,43.31,.41,6.37,.6,12.62,.57,18.9-.04,8.05,.09,15.7,1.23,23.53,.47,3.2,1.3,6.44,3.39,9,2.44,2.97,5.39,3.3,8.18,.79,.96-.87,1.93-1.85,2.53-2.97,.99-1.84,1.85-3.78,2.45-5.78,.76-2.51,1.16-5.12,1.77-7.67,2.71-11.25,4.57-22.8,4.57-34.37,0-.32,.02-.68,.25-.9,.23-.22,.58-.22,.9-.21,4.05,.16,8.09,.32,12.14,.48,.28,.01,.57,.03,.8,.17,.98,.58,.37,10.83,.45,12.22,.33,5.53,.66,11.05,1.24,16.56,.69,6.63,2.23,12.9,5.35,18.8,1.19,2.25,2.92,3.62,5.33,4.32,2.1,.61,4.17-.13,5.46-2.01,.91-1.33,1.52-2.75,1.77-4.34,.62-3.9,1.21-7.78,1.39-11.74,.4-8.93,1.01-17.85,1.58-26.78,.08-1.27,0-2.82,1.35-3.5,1.45-.73,2.38,.56,3.3,1.41,1.35,1.25,2.56,2.66,3.97,3.84,4.06,3.43,7.65,7.37,10.91,11.57,2.94,3.79,7.05,7.88,9.2,12.1-2.65-.48-5.85-.32-8.48,.35-4.34,1.1-7.52,3.64-9.73,7.47-3.29,5.71,2.51,9.83,7.53,11.58,2.98,1.04,16.77,.27,20.4,.76,6.36,.87,12.64-.25,18.78-1.59,7.6-1.65,10.13-10.39,10.89-17.12,.22-1.98,.37-4.04,.47-6.12,4.58-2.53,8.81-5.67,12.79-9.05,13.42-11.42,22.21-29.53,25.43-46.6,.73-3.87,4.62-20.84,3.12-29.57Z"/><path d="M130.61,74.23c.91-.49,1.84-1.06,2.58-1.77,2.69-2.55,4.78-5.57,6.64-8.75,.52-.89,.74-1.96,1.04-2.96,.6-1.99-.09-3.66-1.6-4.91-.99-.82-2.14-1.61-3.35-1.95-6.61-1.84-13.62-1.85-19.9,1.2-1.87,.91-2.56,2.56-2.59,4.51-.02,1.59,.31,3.13,1.2,4.5,2.75,4.26,6.24,7.76,10.7,10.22,1.73,.96,3.56,.83,5.28-.1Z"/></g><path d="M107.26,70.64c-.24-.84-.93-1.26-1.75-1.35-.6-.07-1.39,.41-1.65,.94-.06,.12-.1,.25-.14,.38-.15,.29-.23,.62-.19,.97,.05,.5,.21,.98,.6,1.33,.48,.42,.99,.45,1.58,.45,.71,0,1.24-.47,1.47-1.12,.18-.51,.23-1.07,.08-1.6Z"/><path d="M118.52,77.37c-.23-.5-.9-.91-1.46-.87-.68,.04-1.08,.3-1.48,.84-.43,.58-.2,1.52,.27,1.99,.43,.43,1.12,.64,1.69,.43,.51-.19,.9-.57,1.05-1.05,.15-.42,.12-.9-.08-1.34Z"/><path d="M105.55,82.6c-.66,.18-1.11,.79-1.12,1.47,0,.18,0,.37,0,.55,0,.52,.27,.99,.68,1.26,.11,.16,.25,.3,.45,.43,.44,.28,1,.43,1.52,.4,.68-.05,1.28-.43,1.47-1.12,.48-1.77-1.22-3.49-3-2.99Z"/><g><path class="cls-1" d="M48.97,77.52c-2.31,4.59-7.72,6.52-12.72,6.02-4.03-.4-7.8-2.39-9.49-5.84,1.39-3.76,4.3-6.07,7.6-7,5.58-1.56,12.27,.84,14.61,6.82Z"/><path d="M37.86,78.18c0,1.98-.59,3.82-1.62,5.36-4.03-.4-7.8-2.39-9.49-5.84,1.39-3.76,4.3-6.07,7.6-7,2.14,1.78,3.5,4.46,3.5,7.47Z"/></g><g><path class="cls-1" d="M89.67,74.17c-1.97,4.75-7.23,7.06-12.26,6.92-4.05-.11-7.95-1.82-9.89-5.14,1.11-3.85,3.85-6.37,7.08-7.53,5.45-1.96,12.3-.05,15.07,5.75Z"/><path d="M78.64,75.63c.14,1.98-.32,3.86-1.22,5.47-4.05-.11-7.95-1.82-9.89-5.14,1.11-3.85,3.85-6.37,7.08-7.53,2.26,1.62,3.82,4.2,4.03,7.2Z"/></g><path class="cls-4" d="M23.14,30.75c2.19,2.02,5.92,17.94,6.29,21.61,.02,.18,.03,.37-.08,.51-.09,.11-.23,.16-.36,.2-2.86,.95-5.56,.84-8.51,.73-.36-.01-.77-.05-.99-.33-.16-.19-.19-.45-.22-.69-.44-3.85-1.03-18.8,.89-21.4,1.09-1.47,2.09-1.46,2.97-.64Z"/><path class="cls-4" d="M77.48,26.12c-2.25,2.32-4.57,18.64-4.54,22.34,0,.18,.02,.38,.16,.5,.11,.09,.28,.12,.43,.15,3.38,.53,7.98,.8,11.35,.28,.41-.06,.87-.16,1.1-.46,.15-.21,.16-.47,.16-.71,.03-3.88-2.66-19.56-5.18-21.87-1.42-1.3-2.57-1.15-3.48-.21Z"/><path class="cls-1" d="M123.98,172.62c-.59-.59-1.66,.25-1.29,.97,.72,1.4,1.35,2.86,1.97,4.3,.58,1.36,1.05,3.09,2.36,3.92,.36,.23,.84,.17,1.03-.26,1.36-3.01-2.13-6.98-4.07-8.93Z"/><path class="cls-1" d="M120.83,185.77c-.83-1.9-1.93-3.58-3.18-5.23-.5-.66-1.57-.05-1.26,.71,.74,1.81,1.36,3.66,1.99,5.51,.51,1.51,.77,3.29,2.11,4.28,.38,.28,.95,.16,1.14-.29,.71-1.64-.14-3.44-.81-4.98Z"/><path class="cls-1" d="M134.05,193.68c-.6-1.9-1.58-3.73-2.55-5.46-.5-.89-1.92-.39-1.52,.62,.67,1.67,1.23,3.36,1.68,5.09,.38,1.45,.39,3.1,1.57,4.11,.43,.37,1.07,.15,1.3-.33,.63-1.32-.06-2.71-.48-4.04Z"/><path class="cls-1" d="M108.76,164c-.66-.38-1.46,.17-1.17,.94,.42,1.11,1.09,2.08,1.63,3.13,.64,1.23,1.13,2.5,1.71,3.75,.26,.57,.8,.8,1.4,.77,.25-.01,.43-.15,.63-.28,.35-.23,.58-.82,.48-1.22-.64-2.6-2.29-5.72-4.69-7.09Z"/><path class="cls-1" d="M117.8,157.86c-1.04-1.86-2.23-3.98-4.05-5.16-.71-.45-1.46,.15-1.24,.93,.57,2.1,2.05,4.03,3.05,5.95,.8,1.54,1.31,3.42,2.9,4.28,.34,.19,.92-.02,1.04-.41,.59-1.99-.73-3.89-1.69-5.59Z"/><path class="cls-1" d="M107.53,181.55c-1.09-2.21-2.45-4.03-4.41-5.52-.86-.66-1.92,.22-1.43,1.19,.9,1.81,1.92,3.53,2.88,5.31,.79,1.48,1.15,3.52,2.94,4.03,.33,.1,.62-.1,.8-.36,1.01-1.47-.08-3.24-.77-4.65Z"/><path class="cls-1" d="M114.05,196.56c-.63-.83-2-.07-1.59,.9,1.01,2.38,1.59,4.88,2.41,7.33,.51,1.52,2.97,.87,2.72-.7-.45-2.81-1.85-5.28-3.53-7.53Z"/><path class="cls-1" d="M127.36,200.59c-.8-.6-1.7,.22-1.45,1.09,.33,1.14,.81,2.24,1.17,3.38,.46,1.44,.56,2.83,.81,4.3,.26,1.56,2.68,1.74,2.87,.05,.34-3.05-.89-6.93-3.4-8.82Z"/></g></g></g></svg>