<?xml version="1.0" encoding="UTF-8"?><svg id="Layer_2" xmlns="http://www.w3.org/2000/svg" viewBox="0 0 210.97 265.98"><defs><style>.cls-1{fill:#fff;}.cls-2{fill:#ffba69;}.cls-3{fill:#e47349;}.cls-4{fill:#9ed2d6;}.cls-5{fill:#86bac6;}.cls-6{fill:#345661;}</style></defs><g id="Layer_1-2"><g><g><path class="cls-1" d="M106.64,33.01c.67,3.02,4.57,3.66,6.39,4.23,2.19,.68,5.96,.69,9.94,.29,3.42-.34,8.33-10.72,10.84-13.05,2.52-2.33,5.76-4.29,9.17-3.93,5.39,.57,8.53,6.45,9.54,11.78,2.33,12.36,2.01,26.05-2.69,37.72-4.7,11.67-7.71,23.91-13.11,35.48,.06-.71,30.86,44.74,35.86,77.9,4.25,1.55,9.66-27.49,11.16-35.48,.97-5.15,1.86-11.03,5.99-12.86,4.13-1.82,9.93,1.1,13.35,4.34,8.66,8.23,6.7,23.08,4.52,39.59-1.18,8.92-2.45,17.97-7.67,28.84-4.31,8.96-8.59,17.87-17.62,23.67-2.63,1.69-5.67,3.12-9.48,6.81-4.66,4.51-4.29,6.42-8.61,11.74-2.72,3.36-8.81,10.69-18.27,13.09-2.56,.65-6.35,1.61-10.41,.14-3.02-1.1-3.21-2.46-5.69-2.83-4.61-.68-6.21,3.69-10.61,3.22-4.04-.44-4.51-4.34-7.96-4.19-3.62,.15-4.2,4.49-8.38,4.93-3.01,.32-11.8-2-13.25-3.09-2.99-2.26-8.82-9.85-15.14-9.81-10,.06-10.83,2.95-17.26,1.83-1.05-.18-11.39-2.12-13.52-9.13-1.48-4.89,1.78-9.77,4.42-13.73,4.04-6.06,12.7-7.54,16.81-12.37,0,0,1.66-7.59,.57-34.64-.04-1.04-.2-2.79-1.39-3.61-1.06-.72-2.46-.38-2.99-.25,0,0-26,6.37-34.42,5.47-.16-.02-15.76-.14-22.81-17.66-5.46-14.39-.95-30.67,4.74-44.97,5.68-14.3,12.26-26.93,22.13-38.73,9.88-11.8,20.41-23.11,29.02-35.88,5.63-8.35,10.39-17.27,14.19-26.59,2.26-5.55,4.31-11.43,8.54-15.66,3.76-3.76,12.02-5.69,16.25-2.53,4.45,3.33,6.29,22.96,7.84,29.91Z"/><path class="cls-2" d="M105.19,33.41c.93,3.51,4.61,4.55,7.72,5.36,2.15,.56,4.45,.58,6.66,.5,1.81-.07,3.88,.06,5.45-.98,2.66-1.75,4.45-4.91,6.14-7.53,1.92-2.96,3.54-5.65,6.7-7.47,1.99-1.15,4.34-1.73,6.56-.89,1.73,.66,3.1,2.05,4.08,3.58,2.48,3.84,3.04,8.61,3.5,13.06,1.08,10.32,.22,20.89-3.62,30.59-4.6,11.6-7.7,23.78-12.96,35.13l2.74,1.16-.38,.65-1.06,.44c4.73,.11-1.55-.67-.99-.38,.03,.01,.04,.07,.07,.08,.31,.13-.1-.14,.02,.02,.25,.34,.49,.67,.73,1.01,.85,1.21,1.66,2.44,2.46,3.67,2.65,4.08,5.18,8.24,7.63,12.45,6.96,11.99,13.34,24.43,18.24,37.42,2.75,7.29,5.07,14.81,6.25,22.53,.08,.52,.59,.9,1.05,1.05,2.97,.96,4.64-3.48,5.45-5.48,1.76-4.38,2.89-9.04,3.97-13.63s2.03-9.25,2.93-13.91c.39-2.04,.75-4.08,1.16-6.12,.56-2.82,1.14-6.27,3.3-8.35,2.34-2.25,6-1.29,8.57,0,2.77,1.39,5.23,3.44,6.91,6.06,3.38,5.27,3.67,11.9,3.44,17.97-.28,7.36-1.34,14.73-2.42,22.02s-2.84,14.73-5.9,21.6c-2.87,6.45-6.05,13.18-10.63,18.61-2.28,2.7-4.92,5.05-7.92,6.92-2.71,1.69-5.41,3.29-7.83,5.4s-4.51,4.54-6.18,7.32c-1.48,2.45-3.03,4.78-4.87,6.97-3.71,4.42-8.18,8.42-13.63,10.53-3.2,1.23-6.98,2.23-10.41,1.66-1.78-.29-3.28-1-4.74-2.03-1.14-.8-2.29-1.3-3.69-1.45-3.03-.32-5.05,1.46-7.59,2.71-1.17,.58-2.51,.77-3.76,.28-1.09-.43-1.85-1.32-2.69-2.08-1.96-1.79-4.52-2.5-6.96-1.13-2.09,1.17-3.27,3.88-5.81,4.21-2.23,.28-4.77-.48-6.92-1.01-1.78-.44-4.35-.96-5.64-1.98-4.41-3.51-7.98-8.68-13.9-9.74-3.09-.55-6.58-.05-9.63,.59-1.98,.42-3.94,1.16-5.97,1.29-3.5,.22-7.35-1-10.39-2.66-2.09-1.15-4.11-2.75-5.03-5.03-1.47-3.66,.5-7.51,2.41-10.59s3.75-5.22,6.71-7.06c2.58-1.6,5.38-2.85,7.92-4.52,1.31-.86,3.53-2.19,4.01-3.78,.14-.49,.17-1.06,.23-1.55,1.08-8.32,.83-16.88,.64-25.23-.05-2.04-.11-4.08-.19-6.12-.06-1.57,.02-3.29-.55-4.79-.99-2.57-3.42-3.11-5.89-2.54-2.84,.65-5.68,1.32-8.53,1.94-5.03,1.08-10.08,2.07-15.16,2.8-3.47,.5-6.98,.9-10.48,.65-.32-.02-.65-.05-.97-.08-.11-.01-.21-.03-.32-.04,.28,.04,.07,0-.08-.01-.32-.05-.64-.1-.96-.17-1.6-.31-3.19-.78-4.7-1.4-4.54-1.86-8.41-5.16-11.13-9.23-9.1-13.65-5.07-31.33,.17-45.62s12.52-29,22.46-41.18c10.66-13.06,22.38-25.25,31.58-39.44,4.56-7.04,8.52-14.47,11.81-22.18,1.5-3.5,2.77-7.11,4.45-10.53,1.47-2.99,3.35-6.28,6.18-8.19,3.42-2.29,11.11-4.48,13.79-.16,1.13,1.83,1.73,3.98,2.28,6.04,.71,2.66,1.24,5.37,1.73,8.09,.83,4.62,1.37,9.31,2.38,13.89,.41,1.89,3.31,1.09,2.89-.8-1.08-4.91-1.64-9.92-2.55-14.86-.51-2.77-1.08-5.53-1.86-8.24-.59-2.03-1.27-4.2-2.48-5.96-3.31-4.85-10.65-3.96-15.31-1.89-6.7,2.97-9.71,10.27-12.27,16.64-3.17,7.88-6.81,15.5-11.21,22.77s-9.68,14.36-15.18,21.06c-5.5,6.7-11.27,13.19-16.84,19.82-5.19,6.18-9.8,12.8-13.71,19.86-3.88,7-7.14,14.34-10.03,21.8-3.03,7.84-5.54,15.95-6.38,24.34-1.35,13.43,2.77,28.45,15.29,35.36,5.65,3.12,11.64,3.75,17.94,3.08,9.14-.96,18.21-2.96,27.14-5.08,1.06-.25,2.56-.85,3.12,.42,.68,1.51,.38,3.69,.44,5.29,.07,1.98,.12,3.96,.16,5.95,.12,5.72,.14,11.44-.13,17.16-.07,1.53-.17,3.07-.3,4.6-.05,.51-.1,1.02-.16,1.53-.02,.19-.05,.38-.07,.56-.02,.17,.05-.31-.02,.15-.04,.26-.1,.51-.13,.77,.09-.69,.29-.42-.03-.2-.12,.08-.23,.23-.33,.33-.23,.22-.46,.43-.71,.64-.57,.48-1.19,.91-1.82,1.31-1.31,.84-2.7,1.58-4.07,2.32-2.8,1.51-5.67,3.08-7.9,5.38-2.47,2.54-4.48,6.02-5.78,9.3s-1.42,7.07,.48,10.19c1.36,2.24,3.5,3.93,5.79,5.14,3.37,1.78,7.56,3.12,11.41,2.95,2.13-.09,4.14-.75,6.2-1.23,1.39-.33,2.79-.56,4.21-.69,1.72-.15,3.59-.37,5.29,.05,3,.74,5.52,2.86,7.74,4.91,1.68,1.54,3.31,3.68,5.35,4.75,2.14,1.13,4.7,1.69,7.05,2.22s5.02,1.17,7.42,.68c1.4-.29,2.61-1.04,3.65-2,.86-.78,1.58-1.82,2.6-2.41,2.32-1.36,3.9,1.25,5.55,2.45,2.48,1.81,5.62,1.69,8.23,.28,2.25-1.21,4.59-3.23,7.22-1.65,1.23,.74,2.28,1.58,3.63,2.12,1.94,.78,4.08,1.08,6.17,.97,3.52-.18,7.08-1.21,10.28-2.67,5.34-2.43,9.77-6.47,13.48-10.96,1.93-2.34,3.56-4.81,5.13-7.39,1.77-2.9,4.09-5.35,6.76-7.46s5.51-3.44,8.14-5.35c2.92-2.13,5.46-4.66,7.66-7.51,4.51-5.85,7.87-12.82,10.7-19.62s4.54-14.4,5.59-21.92,2.2-15.09,2.34-22.68c.12-6.2-.5-12.9-3.98-18.22-1.77-2.71-4.21-4.93-7.02-6.53s-6.36-2.8-9.64-1.96c-6.33,1.63-7.17,9.68-8.17,15-1.74,9.28-3.46,18.71-6.46,27.68-.55,1.64-1.13,3.29-1.99,4.8-.37,.64-.43,.74-.83,1.15-.25,.25,.15-.1-.05,.05s-.14,.02,.05,0c-.4,.04,.48,.12,.11,0l1.05,1.05c-2.26-14.74-8.31-28.89-14.86-42.18-5.34-10.84-11.32-21.42-17.95-31.53-.83-1.26-1.66-2.53-2.55-3.75-.25-.34-.48-.74-.79-1.03-.84-.78-2.26-.63-2.6,.59-.44,1.59,2.01,2.73,2.74,1.16,4.75-10.25,7.77-21.15,11.68-31.73,1.86-5.03,3.77-9.89,4.7-15.2s1.2-10.47,.96-15.72c-.22-4.77-.6-9.93-2.1-14.5-1.25-3.8-3.56-7.7-7.38-9.34-4.59-1.97-9.33,.24-12.8,3.35-2.33,2.08-3.83,5.16-5.55,7.73-1.03,1.53-2.08,3.13-3.45,4.38s-3.52,1.03-5.42,1.06c-2.21,.03-4.21-.22-6.33-.81-1.64-.46-3.75-1.02-4.24-2.87s-3.39-1.07-2.89,.8Z"/></g><g><g><g><path class="cls-4" d="M200.7,159.19c-.03,1.48,0,2.97,0,4.45-.11,9.47-1.76,18.7-4.2,27.81-3.1,11.57-9,24.3-19.5,30.71-3.56,2.18-7.54,3.66-11.64,4.4-.32,1.99-.72,3.98-1.21,5.95-1.97,7.8-5.34,14.88-11.61,20.21-3.02,2.56-6.48,3.53-10.38,2.28-3.23-1.04-4.76-3.74-3.7-6.96,1.25-3.79,3.59-7.03,4.75-10.79-1.54,1.15-3.06,1.58-4.75,2.3-.68,.29-1.36,.61-2.04,.89-3.26,1.33-6.56,2.36-9.89,3.12-3.23,.75-6.5,1.24-9.79,1.49-4.4,.36-8.84,.29-13.34-.13-.88-.08-1.76-.18-2.64-.29-2.28-.28-5.86-1.29-9.78-3.2-2.52-1.23-5.17-2.83-7.7-4.85-1,2.52-1.78,2.82-2.91,4.04-2.9,3.11-7.08,4.64-11.13,5.95-3.38,1.09-8.24,1.42-11.42-.45-3.2-1.89-4.43-5.49-1.94-8.54,5.34-6.55,12.36-11.28,20.94-12.01-4.58-16.35-2.42-32.05-1.65-39.54,.91-8.92,2.21-17.43,4.07-25.65-13.69,9.21-29.55,15.5-45.54,15.3-1.95-.03-3.79-.16-5.5-.45-4.84-.84-8.75-3-11.86-7.92-3.81-6.02-5.23-14.32-4.14-21.13,.32-2.02,.79-4.16,1.38-6.4C22.12,107.29,57.51,54.45,79.48,41.29c-.85-5.84,.27-11.91,2.34-17.39,1.45-3.82,3.58-7.6,6.42-10.56,1.47-1.53,6.16-5.62,7.71-2.13,3.89,8.81,3.08,17.81,2.98,27.31,0,.09,6.89,2.14,7.84,2.41,5.79,1.68,11.13,4.78,15.38,9.07-.36-.36,4.01-6.63,4.58-7.3,1.95-2.3,17.62-19.21,19.36-9.89,1.21,6.45,.56,12.82-.69,19.18-1.56,7.88-3.47,16.79-6.31,24.36-1.91,5.09-4.19,10.05-6.33,15.06-2.14,5.02-4.46,9.92-6.96,14.7,6.26,5.56,11.4,12.29,15.75,19.46,7.31,12.02,12.7,23.56,17.15,36.86,4.48,13.34,7.86,26.72,8.21,40.6,1.7-1.01,3.35-2.07,4.88-3.29,3.93-3.14,6.4-7.5,8.33-12.1,4.2-10.04,7.57-20.35,9.72-31.05,.68-3.37,1.64-6.7,2.64-10,.42-1.38,2.69-1.95,3.77-.94,1.05,.97,2.07,2.13,2.65,3.41,1.45,3.2,1.86,6.65,1.8,10.15Z"/><path d="M51.26,155.2c-2.04,4.57-4.9,8.54-8.96,11.55-1.98,1.47-4.04,2.85-6.01,4.33-2.49,1.87-5.2,3.11-8.12,4.16-4.84-.84-8.75-3-11.86-7.92-3.81-6.02-5.23-14.32-4.14-21.13,.32-2.02,.79-4.16,1.38-6.4,2.92-1.5,6.15-2.2,9.46-2.01,10.8,.62,20.08,4.66,27.52,12.69,1.38,1.48,1.5,3.02,.73,4.74Z"/><path d="M85.33,193.72c.41,12.43,1.45,24.81,3.1,37.14,.78,5.8,1.72,11.58,2.78,17.34,.72,3.92,1.91,7.4,5.8,9.03,8,3.36,7.57-17.41,7.48-21.16-.32-13.13-1.37-26.24-2.96-39.27-.14-1.18-2.02-1.2-1.87,0,1.21,9.89,2.07,19.82,2.59,29.77,.19,3.74,2.28,30.39-4.74,28.86-4.79-1.04-5.02-10.55-5.64-14.28-.94-5.61-1.72-11.24-2.39-16.89-1.21-10.14-1.93-20.33-2.27-30.53-.04-1.2-1.91-1.21-1.87,0h0Z"/><path d="M109.84,195.53c1.16,14.51,2.82,28.97,4.97,43.36,.54,3.58,1.12,7.15,1.72,10.72,.23,1.37,.48,3.33,1.57,4.34,2.03,1.88,4.73,1.31,6.39-.72,4.08-5.01,3.47-14.27,3.49-20.29,.05-12.3-1-24.43-2.42-36.64-.14-1.18-2.01-1.2-1.87,0,1.3,11.17,2.36,22.28,2.41,33.53,.02,6.11,.12,12.37-1.37,18.34-.7,2.79-4.57,8.54-6.13,2.33-1.42-5.66-1.94-11.71-2.76-17.48-1.78-12.45-3.12-24.96-4.12-37.5-.1-1.19-1.97-1.2-1.87,0h0Z"/><circle cx="81.27" cy="63.73" r="3.67"/><path d="M114.42,75.65c0,2.03-1.64,3.67-3.67,3.67s-3.67-1.64-3.67-3.67,1.64-3.67,3.67-3.67,3.67,1.64,3.67,3.67Z"/></g><path class="cls-6" d="M89.36,20.17c.2-.37,.4-.72,.59-1.07,.67-1.17,1.42-1.61,2.25,.03,1.96,3.85,2.27,8.67,2.32,12.9,0,.76,.13,2.9-.95,3.11-1.89,.37-6.99,1.77-8.02-.4-.88-1.86,.32-4.67,.69-6.54,.56-2.8,1.76-5.51,3.11-8.02Z"/><path class="cls-6" d="M128.72,49.7c-.56,1.94,2.09,3.41,3.42,4.19,1.35,.79,3.82,2.63,5.43,2.11,2.51-.81,2.85-5.85,3.27-7.96,.16-.79,1.11-10.35,.21-10.19-1.04,.18-1.89,.89-2.68,1.58-3.11,2.74-6.04,5.7-8.75,8.84-.37,.43-.75,.88-.91,1.43Z"/><path d="M66.73,146.08c0,.93-.75,1.68-1.68,1.68s-1.68-.75-1.68-1.68,.75-1.68,1.68-1.68,1.68,.75,1.68,1.68Z"/><path d="M58.99,160.3c0,.93-.75,1.68-1.68,1.68s-1.68-.75-1.68-1.68,.75-1.68,1.68-1.68,1.68,.75,1.68,1.68Z"/><path d="M73.34,154.69c0,.93-.75,1.68-1.68,1.68s-1.68-.75-1.68-1.68,.75-1.68,1.68-1.68,1.68,.75,1.68,1.68Z"/><path class="cls-5" d="M141.82,178.66c-8.85,4.1-13.09-5.42-11.66-12.88,.8-4.14,4.14-9.78,9.14-7.96,6.07,2.22,8.68,10.25,6.53,15.78-.8,2.05-2.01,4.12-4.01,5.05Z"/><path class="cls-5" d="M149.14,193.46c-2.5-3.77-1.69-10.72,3.45-11.63,6.19-1.09,5.95,6.68,4.49,10.64-1.34,3.64-5.87,4.11-7.94,.99Z"/><path class="cls-5" d="M147.3,208.55c4.99,2.95,5.24,11.4,.12,14.47-2.36,1.41-4.39,.67-6.48-.92-1.47-1.12-2.59-2.62-3.64-4.14-.4-.58-.81-1.18-1.06-1.84-2.51-6.42,3.95-10.1,9.67-8.2,.5,.17,.96,.38,1.39,.63Z"/><path class="cls-5" d="M91.6,170.72c3.01-.68,6.15,.49,7.74,4.95,2.81,7.85-5.76,13.55-12.09,9.13-6.75-4.71-1.42-12.79,4.35-14.09Z"/></g><ellipse class="cls-3" cx="103.5" cy="102.88" rx="9.11" ry="11.57" transform="translate(-14.76 188.39) rotate(-80.7)"/></g></g></g></svg>