<?xml version="1.0" encoding="UTF-8"?><svg id="Layer_2" xmlns="http://www.w3.org/2000/svg" viewBox="0 0 268.56 234.79"><defs><style>.cls-1{fill:#e9ca87;}.cls-2{fill:#fff;}.cls-3{fill:#ffba69;}.cls-4{fill:#a57197;}</style></defs><g id="Layer_1-2"><g><g><path class="cls-2" d="M98.74,55.2c7.07-1.94,15.04-1.57,21.92,.94-2.59-12.03-3.55-24.41-2.85-36.7,.23-4.04,.68-8.19,2.6-11.75s5.65-6.42,9.68-6.18c4.35,.25,7.66,3.78,11.18,6.33,5.32,3.85,11.77,5.73,18.08,7.55,3.84,1.1,7.93,2.21,11.76,1.1,4.15-1.2,7.12-4.7,10.35-7.56,3.23-2.86,7.68-5.28,11.71-3.73,4.53,1.75,5.94,7.45,6.01,12.3s-.44,10.17,2.42,14.1c2.79,3.83,7.91,5.05,12.62,5.63,8.86,1.1,17.88,.93,26.7-.51,6.98-1.14,14.85-2.87,20.57,1.29,5.52,4.01,6.49,12.03,4.85,18.66s-5.3,12.57-7.37,19.07c-2.68,8.38-2.88,17.99-8.57,24.71-8.16,9.64-23.12,8.57-35.5,6.12-2.57-.51-5.54-.95-7.56,.72-1.65,1.37-2.07,3.69-2.39,5.82-2.73,18.51-1.83,35.3-3.17,53.96-.88,12.33-1.76,22.9,1.76,33.47,1.9,5.71,2.22,12.85,1.8,18.85-.37,5.21-4.56,9.52-9.36,11.58-4.8,2.06-10.12,1.95-15.34,2.16-18.64,.77-34.36-2.64-54.62-3.52-10.67-.46-23.78,1.76-33.47-1.76-5.2-1.89-5.49-9.61-9.69-13.21-5.67-4.87-13.31-3.97-20.66-5.34-12.17-2.27-24.98-4.22-34.89-11.65s-15.4-22.46-8.13-32.48c-9.06-7.15-15.34-17.74-17.26-29.12-.81-4.8-.77-10.09,2-14.1,4.02-5.83,12.64-6.86,19.22-4.25,6.59,2.62,11.62,7.99,16.42,13.21,2.17-6.03,10.87-7.26,16.33-3.9s8.4,9.54,10.96,15.42,5.3,12.11,10.57,15.75c7.02-10.45,12.83-21.72,17.27-33.5,1.31-3.46,2.45-7.52,.54-10.69-2.26-3.76-7.8-4.47-10.08-8.21-2.56-4.22,.39-9.63,3.8-13.19s7.65-7.12,8.03-12.04c.27-3.57-1.61-6.9-3.32-10.05s-3.35-6.7-2.54-10.19,4.95-4.22,7.59-5.1"/><path class="cls-3" d="M99.14,56.64c6.96-1.86,14.35-1.48,21.13,.94,1.15,.41,2.07-.81,1.85-1.85-2.72-12.72-3.87-26.12-2.58-39.1,.51-5.17,2.37-11.52,7.94-13.28s9.54,3.32,13.44,6.05c4.74,3.33,10.36,5.18,15.86,6.79s11.65,3.58,17.23,.75c4.87-2.48,7.86-7.53,12.84-9.82,2.27-1.05,4.96-1.37,7.1,.16,1.73,1.24,2.65,3.32,3.16,5.32,1.27,4.89,.09,10.02,1.18,14.95,1.15,5.24,5.03,8.54,10.02,10.04,5.56,1.67,11.76,1.86,17.52,1.86,6.37,0,12.6-.81,18.87-1.83,5.02-.81,10.85-1.63,15.39,1.23,4.01,2.53,5.5,7.41,5.51,11.93,0,5.67-2.36,10.94-4.62,16.03-1.21,2.73-2.42,5.47-3.35,8.31-.84,2.59-1.43,5.25-2.01,7.91-1.1,5.05-2.14,10.32-5.02,14.71-2.59,3.95-6.61,6.54-11.1,7.83s-9.5,1.39-14.26,1.01c-2.51-.2-5.01-.55-7.49-.98s-4.92-1.15-7.4-.93-4.7,1.58-5.78,3.98-1.26,5.42-1.59,8.09c-.79,6.34-1.21,12.71-1.46,19.09s-.36,12.62-.59,18.94c-.23,6.5-.73,12.98-1.12,19.47-.35,5.79-.52,11.61,.23,17.38,.37,2.87,.94,5.71,1.8,8.47s1.55,5.51,1.87,8.4,.39,5.82,.28,8.74c-.1,2.58-.45,4.85-1.9,7.04-3.06,4.6-8.55,6.53-13.82,7.03-23.73,2.24-47.12-3.86-70.8-3.12-5.61,.17-11.26,.5-16.85-.07-2.55-.26-5.37-.66-7.74-1.71-1.76-.78-2.78-2.42-3.64-4.07-.99-1.89-1.75-3.9-2.86-5.73-1.19-1.96-2.79-3.51-4.76-4.69-4.55-2.72-9.99-2.93-15.13-3.48-5.49-.59-11.01-1.78-16.4-2.98s-10.91-2.77-15.92-5.31c-8.57-4.34-15.68-12.17-16.68-22.08-.44-4.32,.49-8.53,3.01-12.1,.35-.49,.25-1.43-.23-1.82-9.13-7.27-15.64-18.11-17.07-29.77-.67-5.43,.17-11.55,5.28-14.58,4.25-2.52,9.8-2.4,14.29-.6,6.39,2.56,11.21,7.88,15.76,12.82,.83,.9,2.13,.33,2.51-.66,2.32-6.07,11.01-5.43,15.31-2.21,6.4,4.79,8.53,13.28,12.01,20.08,2.05,4,4.64,7.66,8.34,10.28,.69,.49,1.63,.09,2.05-.54,5.08-7.58,9.53-15.57,13.29-23.88,1.82-4.04,3.73-8.19,4.98-12.45,1.08-3.69,1.22-7.75-1.5-10.77-2.25-2.5-5.71-3.35-8.09-5.67-2.89-2.81-1.53-6.83,.41-9.77,2.14-3.26,5.37-5.63,7.73-8.73s3.56-6.8,2.62-10.72c-1.17-4.89-5.21-8.84-5.7-13.91-.19-1.96,.24-3.64,1.99-4.67,1.44-.85,3.1-1.21,4.68-1.72,1.83-.6,1.05-3.49-.8-2.89-2.83,.92-6.13,1.62-7.86,4.31-2.33,3.62-.5,8.5,1.25,11.93,1.92,3.78,4.81,7.81,3.42,12.25-1.16,3.72-4.49,6.41-7.09,9.13s-5,6.28-5.32,10.21,1.9,6.59,4.91,8.51,6.68,3.16,7.1,7.03c.22,2.08-.42,4.2-1.1,6.14-.76,2.17-1.63,4.3-2.52,6.41-4.07,9.71-9.12,19-14.98,27.74l2.05-.54c-7.21-5.1-9.16-14.6-13.26-21.92-2.05-3.66-4.74-7.16-8.41-9.32-2.97-1.75-6.57-2.29-9.95-1.72-3.81,.64-7.05,2.96-8.44,6.6l2.51-.66c-4.55-4.94-9.33-10.08-15.54-12.93-5.06-2.33-11.05-2.88-16.26-.69-13.22,5.55-9,23.24-4.13,33.24,3.16,6.49,7.77,12.27,13.42,16.77l-.23-1.82c-5.66,7.98-3.86,18.7,1.2,26.5,6.06,9.35,16.52,13.96,26.97,16.62,5.59,1.42,11.33,2.55,17.03,3.42,5.31,.82,11.21,.51,16.1,3.01,2.14,1.1,3.73,2.58,4.9,4.67,1.07,1.91,1.84,3.97,2.91,5.87,1.01,1.78,2.36,3.48,4.23,4.4,2.29,1.12,4.98,1.59,7.48,1.93,5.76,.8,11.6,.54,17.39,.35,6.19-.21,12.31-.03,18.49,.45,12.09,.93,24.12,2.7,36.25,3.05,6.06,.17,12.3,.19,18.33-.51,5.56-.65,10.98-2.7,14.57-7.19s3.45-9.89,3.19-15.26c-.15-3.04-.51-6.09-1.22-9.05s-1.74-5.68-2.29-8.62c-1.09-5.82-1.04-11.79-.75-17.68,.34-6.7,.93-13.39,1.18-20.1,.5-13.19,.47-26.43,2.1-39.55,.3-2.39,.26-6.3,2.16-8.12s5.09-.83,7.31-.41c5,.95,10.1,1.63,15.2,1.55s9.79-.87,14.17-3.05,8.01-6.05,10.09-10.64c2.27-4.99,3.1-10.42,4.37-15.71,1.43-5.96,4.11-11.34,6.41-16.98,2.08-5.1,3.44-10.43,2.63-15.95-.69-4.74-3.13-9.22-7.44-11.57-4.94-2.69-10.81-2.09-16.15-1.26-6.39,.99-12.69,1.87-19.18,1.86-3.43,0-6.87-.21-10.28-.59-2.65-.3-5.35-.72-7.83-1.74-2.34-.96-4.35-2.54-5.46-4.86-1.17-2.45-1.25-5.29-1.27-7.95-.04-4.84,.15-10.13-2.85-14.25-3.24-4.45-8.73-4.61-13.3-2.14-4.9,2.65-8.04,8.24-13.42,10-3.12,1.02-6.42,.37-9.5-.46-2.91-.78-5.82-1.63-8.68-2.6s-5.62-2.08-8.22-3.59-4.65-3.33-6.96-5.04c-2.16-1.6-4.54-2.94-7.26-3.19-2.52-.24-5.08,.59-7.12,2.06-4.85,3.51-6.4,9.3-6.91,14.99-.6,6.63-.52,13.38-.04,20.01s1.4,13.02,2.77,19.42l1.85-1.85c-7.26-2.59-15.28-2.92-22.72-.94-1.86,.5-1.07,3.39,.8,2.89h0Z"/></g><g><path d="M158.22,30.01c.37,2.75,.56,5.54,.74,8.31,.08,1.29,.48,3.21-.74,4.12-.72,.54-1.29-.06-1.85-.59-4.83-4.5-7.89-10.18-8.33-16.77-.16-2.42,1.03-4.16,3.37-4.81,5.13-1.43,6.37,6.42,6.82,9.75Z"/><path d="M169.12,29.48c.27,2.55-1.68,5.96-2.82,7.65-.77,1.15-1.47,2.21-2.47,3.17-1.06,1.02-4.84,4.2-4.99,.82-.08-1.84,.04-3.25,.52-5.02,.75-2.76,1.53-5.72,3.24-8.12,.89-1.25,2.5-1.94,4.02-1.49,1.33,.4,2.36,1.62,2.5,2.98Z"/><path class="cls-1" d="M250.67,52.23c-.71-1.75-1.87-3.54-3.82-3.88-2.42-.41-4.99-.63-7.39-.25-10.31,1.64-22.28-1.52-32.17-3.29-4.91-.88-9.8-2.09-14.85-1.72-.99,.07-1.06-.33-1.23-1.22-1.1-5.58-.94-11.21-1.12-16.84-.08-2.47-.57-4.99-1.28-7.37-.85-2.87-3.21-3.16-5.14-.83-2.16,2.6-3.74,5.54-4.78,8.74-1.09,3.37-2.14,6.76-3.05,10.19-.27,1.02-.6,1.89-1.14,2.54-4.8,.32-22.75,1.46-28.28,2.69-.49-.33-.77-1.01-1.33-2.34-1.83-4.32-3.55-8.7-5.57-12.93-1.16-2.42-2.69-4.7-4.28-6.87-1.19-1.62-2.98-2.6-4.98-3.06-1.12-.26-2.29-.12-2.66,1.02-.67,2.05-1.36,4.19-1.47,6.32-.13,2.69,.22,5.42,.53,8.12,.58,5.08,1.46,10.12,1.89,15.21,.57,6.74,.79,13.5,1.22,20.25,.46,7.15-1.05,13.97-3.97,20.39-3.54,7.79-8.02,15.06-13.39,21.77-4.83,6.03-9,12.46-12.29,19.53-7.76,16.7-12.01,34.78-12.67,53.09-.03,.9-.04,1.78-.04,2.67-4.69-4.92-8.78-10.35-12.61-16-5.26-7.77-10.57-15.51-15.97-23.18-1.76-2.5-4.31-4.24-7.02-5.66-2.71-1.41-4.77-.41-5.3,2.57-.42,2.38-.52,4.77,.57,7.57,.1,.63,.31,1.76,.46,2.89,.04,.33-.1,.69-.15,1.04-.24-.18-.52-.32-.72-.53-3.13-3.35-6.5-6.52-9.28-10.13-2.27-2.95-4.98-5.36-7.82-7.6-2.68-2.11-5.57-4.28-8.73-5.4-6.15-2.18-7.41,.55-6.54,5.31,.75,4.14,2.2,8.11,4.7,11.52,2.96,4.01,6.18,7.83,9.33,11.69,1.32,1.61,2.67,3.22,4.18,4.65,3.39,3.23,6.9,6.34,10.34,9.52,.2,.19,.32,.45,.48,.69-.28,0-.58,.05-.84-.03-2.61-.88-5.3-1.42-8.01-.93-1.7,.31-3.44,.9-4.91,1.78-2.04,1.23-2.3,2.9-1.57,5.15,.72,2.23,2.32,3.58,4.1,4.93,5.49,4.15,10.88,8.42,17.39,10.96,3.98,1.55,7.86,3.38,11.87,4.83,7.19,2.6,14.75,3.66,22.27,4.74,1.95,.28,3.93,.38,5.91,.41,.48,2.47,1.21,4.85,2.64,7.08-.1,2.13,1.6,2.44,3.05,2.93,11.81,4.03,46.51,6.51,53.63,6.49,1.59,0,3.34-.4,4.83-1.05,3.97-1.75,4.64-5.89,1.47-8.8-.98-.9-2.2-1.59-3.42-2.16-2.25-1.04-2.2-.96-2.01-3.57,.34-4.6,.26-9.16-1.11-13.64-.79-2.58-2.38-4.62-4.02-6.64-.7-.86-.51-1.2,.37-1.57,1.44-.6,2.88-1.2,4.28-1.88,3.47-1.69,5.96-3.42,9.42-5.14,1.19-.59,1.04-.48,1.67-.72,.03,.31-.02,32.94,.24,36.14,.18,2.15,.1,4.43,2.41,5.75,3.77,2.14,6.31,2.36,10.35,1.15,2.42-.73,3.98-3.19,3.7-5.69-.14-1.23-.72-2.38-1.7-3.16-1.36-1.07-2.73-.6-4.34-.6,.35,0,.38-32.02,.34-34.24-.04-2.21-.08-4.43-.21-6.64,2.84-3.08,7.32-5.82,9.36-8.67,.14,.35-.1,6.78-.06,9.8,.07,4.69-1.5,45.05,1.65,47.54,1.17,.92,2.6,1.41,4.06,1.6,3.4,.44,10.76,.97,11.23-4.05,.26-2.82-1.4-5.12-4.32-5.36-1.03-.08-2.06-.11-3.08-.09,.29-4.65,.32-41.78,.97-50.75,.73-10.17,2.21-20.36,3.07-30.52,.58-6.86,.86-13.75,1.29-20.62,.12-1.87,.32-3.74,.45-5.62,.06-.78,.26-1.33,1.09-1.68,2.4-1.01,4.72-2.17,7.12-3.17,4.42-1.84,8.87-3.61,13.32-5.4,.46-.19,.97-.28,1.45-.41,.06,.61,.17,1.21,.17,1.82-.02,1.74-.21,3.5-.1,5.23,.08,1.33,1.06,1.71,2.2,.91,1.19-.84,2.26-1.84,3.4-2.75,.86-.68,1.75-1.31,2.63-1.97,.16,.91,.32,1.83,.48,2.74,.04,.2,.04,.42,.1,.62,.37,1.15,1.13,1.51,2.15,.92,.53-.3,1.02-.74,1.4-1.22,1.55-1.96,3.05-3.96,4.57-5.94,.46-.59,.79-.91,1.24,.12,.49,1.12,1.13,2.24,1.93,3.16,1.31,1.49,2.38,1.61,3.72,.19,1.33-1.41,2.55-3.05,3.33-4.8,1.01-2.27,1.47-4.78,2.28-7.14,2.45-7.15,3.78-14.49,4.12-22.06,.15-3.26-.53-6.22-1.7-9.12Z"/><path class="cls-4" d="M195.24,100.22c-2.66-.21-5.89,.5-8.55,.75-2.97,.28-5.95,.61-8.94,.47-.21-.01-.46-.03-.76-.05-1.26-.11-3.3-.37-5.9-.8-7.97-1.3-21.21-4.18-33.47-9.25-.73-.3-1.45-.61-2.18-.92-.24-.11-.48-.21-.72-.32-.51-.24-1.03-.47-1.54-.71-.6-.28-1.21-.57-1.8-.87-.71-.36-1.42-.72-2.11-1.09-.72-.38-1.44-.78-2.14-1.18,.56-3.4-2.32-9.9-3.65-11.44-.84-.97-1.91-2.09-3.11-3.22-.52-.48-1.06-.95-1.62-1.42-1.13-.94-2.34-1.83-3.57-2.55-1.27-.75-2.54-1.33-3.77-1.62-.4-.1-.79-.17-1.18-.2-3.07-.27-6.12-.74-9.19-.95-1.32-.1-2.34,1.52-2.06,2.79,.24,1.1,.4,2.23,.6,3.34,1.12,6.11,4.06,10.88,8.81,14.37,1.04,.76,2.17,1.47,3.39,2.11,.43,.12,.86,.26,1.3,.41-.71,.18-1.42,.4-2.12,.65-1.31,.46-2.6,1.03-3.88,1.68-.59,.3-1.14,.64-1.66,1.01-.89,.63-1.68,1.35-2.4,2.14-1.76,1.93-3.08,4.26-4.3,6.64-.82,1.59-1.55,3.18-1.36,5.05,.16,1.56,.6,2.89,2.36,3.49,2.97,.48,5.95,.93,8.91,1.43,5.25,.89,9.4-1.12,12.71-5.02,1.6-1.89,3.24-3.88,4.27-6.09,.13-.27,.24-.54,.33-.82,.08,.25,.16,.5,.25,.74,.5,1.38,1.04,2.74,1.63,4.08,.32,.74,.65,1.48,1,2.21,.3,.63,.6,1.26,.91,1.89,.42,.86,.85,1.73,1.3,2.58,.66,1.3,1.34,2.6,2.01,3.91,.45,.86,.89,1.73,1.32,2.6,.27,.53,.54,1.06,.8,1.59,2.86,5.84,7.57,11.59,12.16,16.2,.82,.82,1.7,1.59,2.57,2.36,.58,.51,1.17,1.02,1.72,1.56,.33,.31,.66,.63,.97,.97,1.1,1.17,2.13,1.38,3.6,.95,.18-.05,.34-.1,.51-.16,.01,0,.02,0,.04,0,0,0,0,0,0,0,1.26-.37,2.49-.78,3.71-1.24,2.79-1.01,5.51-2.2,8.15-3.57,.56-.29,1.12-.59,1.67-.9,.55-.31,1.09-.62,1.64-.94,.49-.29,.99-.59,1.47-.89,.77-.46,1.53-.95,2.29-1.45,1.43-.94,2.83-1.93,4.19-2.96,.74-.56,1.47-1.14,2.19-1.73,.23-.19,.46-.37,.69-.57,.75-.63,1.49-1.28,2.2-1.94,.36-.33,.72-.67,1.07-1.01,3.2-3.08,5.94-6.62,8.38-10.33,1.69-2.56,7.53-11.21,.85-11.73Z"/><path d="M258.13,48.02c0,.12,0,.24,0,.36-.09,5.28-4.51,10.55-8.62,13.55-1.43,1.05-1.99,1.16-3.24-.08-.78-.78-1.61-1.76-1.87-2.79-1.75-7.06-2.14-14.4,5.15-18.17,4.5-2.33,8.41,3.07,8.57,7.13Z"/><path d="M232.78,60.58c0,1.04-.84,1.88-1.88,1.88s-1.88-.84-1.88-1.88,.84-1.88,1.88-1.88,1.88,.84,1.88,1.88Z"/><path d="M239.9,71.23c0,1.04-.84,1.88-1.88,1.88s-1.88-.84-1.88-1.88,.84-1.88,1.88-1.88,1.88,.84,1.88,1.88Z"/><path d="M227.42,71.23c0,1.04-.84,1.88-1.88,1.88s-1.88-.84-1.88-1.88,.84-1.88,1.88-1.88,1.88,.84,1.88,1.88Z"/><path class="cls-2" d="M179.72,35.95c-.59-2.35,3.62-12.98,5.23-12.78,1.61,.2,2.82,12.88,2.41,13.58-.4,.7-7.34,.4-7.65-.8Z"/><path class="cls-2" d="M133.02,25.75c.95-.38,7.55,11.16,7.65,12.77,.1,1.61-7.34,3.02-8.15,2.36-.8-.66-1.51-14.33,.5-15.13Z"/><path d="M149.99,53.07c-.8,4.36,1.15,11.27,6.54,11.23,4.87-.04,5.03-7.41,4.79-10.75-.07-.96-1.58-.97-1.51,0,.19,2.72,.38,7.34-2.31,8.97-2.06,1.25-4.16-.94-5.04-2.56-1.02-1.89-1.4-4.38-1.01-6.49,.17-.95-1.28-1.36-1.46-.4h0Z"/><path d="M169.48,52.06c.2,2.4-.1,5.06,.91,7.32,.91,2.05,3.12,3.59,5.45,3.14,4.37-.85,4.74-7.27,4.55-10.76-.05-.97-1.56-.97-1.51,0,.15,2.74,.1,7.21-2.43,8.95-2.1,1.45-4.4-.83-4.96-2.73-.56-1.89-.35-3.97-.51-5.92-.08-.96-1.59-.97-1.51,0h0Z"/></g></g></g></svg>