<?xml version="1.0" encoding="UTF-8"?><svg id="Layer_2" xmlns="http://www.w3.org/2000/svg" viewBox="0 0 195.04 532.91"><defs><style>.cls-1{fill:#fff;}.cls-2{fill:#ffba69;}.cls-3{fill:#b2b4b1;}.cls-4{fill:#575f61;}</style></defs><g id="Layer_1-2"><g><g><path class="cls-1" d="M87.58,11.27c-.12-1-1.04-9.69-9.82-9.77-2.24-.02-3.63,2.56-4.85,4.44-15.02,23.1-17.57,52.22-15.49,79.7,2.08,27.48,8.32,54.59,9.13,82.13,.55,18.6-1.37,37.17-3.3,55.68-.25,2.38-.24,12.38-1.65,25.57,0,0-.27,1.1-.25,2.26,.25,15.96-14.46,103.26-17.01,110.91-7.67,23.02-5.75,84.36-5.75,84.4-.34,5.43-24.82,3.96-33.59,16.03-.36,.5-4.27,6.03-3.35,12.97,1.01,7.66,7.3,12.46,8.85,13.57,7.18,5.14,13.19,2.98,15.03,7.1,1.89,4.24-3.96,7.71-1.96,12.81,2.05,5.24,10.41,7.21,11.5,7.46,2.31,.54,4.44,.6,4.54,.6,4.44,.1,6.14-1.3,9.54-.53,.77,.17,2.37,.54,3.87,1.73,3.37,2.69,2.29,6.49,4.46,9.42,2.82,3.81,9.18,3.58,11.64,3.48,12.72-.47,14.53-11.3,24.15-11.36,10.65-.07,14.49,13.15,23.96,11.11,4.09-.88,4.37-3.56,12.48-6.42,4.65-1.64,8.8-2.25,10.35-2.45,8.22-1.07,9.62,.78,13.75-1.01,3.74-1.62,7.87-5.41,8.1-9.7,.21-3.94-3.02-5.14-2.64-8.44,.48-4.19,6.04-5.47,10.97-9.1,6.93-5.11,14.1-15.98,11.66-25.64-2.61-10.33-15.9-18.06-23.03-16.2-1.16,.3-3.78,1.28-6.58,.24-1.93-.72-4.08-2.45-4.14-4.42-.07-2.25,2.61-4,3.22-4.43,7.17-4.97,22.99-29.47,30.14-44.98,10.2-22.13,4.69-30.14,11.24-53.55,.45-1.62,1.91-6.7-.14-11.96-.36-.92-2.84-7.27-8.13-7.94-4.95-.63-8.78,4.18-9.79,5.45-3.59,4.52-3.97,9.74-4.09,11.04-1.27,14.23-17.96,44.53-20.24,38.83-7.24-18.1-14.81-85.35-15.87-104.42-2.21-39.76,1.17-50.31,.02-74.48-.98-20.47,3.36-86.95,7.39-146.86,0,0,.87-12.9-8.71-42.92-.93-2.91-2.73-8.6-6.32-8.76-6.77-.3-8.97,8.92-9.05,9.79-1.16,11.42-14.03,52.92-15.93,56.08-2.81,4.67-12.26-40.3-14.3-57.44Z"/><path class="cls-2" d="M89.08,11.27c-.47-3.99-2.24-8.01-5.94-9.99-2.55-1.37-6.13-2.01-8.51-.04-2.91,2.4-4.88,6.77-6.63,10.03-8.69,16.19-12.1,34.67-12.64,52.89-.61,20.43,2.5,40.7,5.35,60.86,3.11,21.96,5.2,43.69,3.91,65.88-.64,10.95-2.02,21.81-2.9,32.74-.52,6.44-.53,12.92-1.06,19.37-.73,8.83-1.32,17.67-2.41,26.48-2.9,23.45-6.75,46.82-10.9,70.08-1.27,7.08-2.31,14.35-4.21,21.3-2.77,10.13-4.22,20.27-5.02,30.74-.97,12.72-1.26,25.49-1.26,38.25,0,4.24,.04,8.48,.12,12.71,.02,1.19,.54,3.35-.2,4.32-.93,1.22-3.69,1.62-5.06,1.99-2.75,.73-5.55,1.33-8.3,2.04-5.85,1.52-11.89,3.51-16.57,7.48C2.46,462.16-.11,468.03,0,473.8c.13,6.47,3.94,12.22,8.95,16.06,2.8,2.15,5.98,3.51,9.39,4.36,3.03,.76,7.17,1.31,5.67,5.51-1.08,3.04-3.05,5.62-2.14,9.03,.78,2.91,3.17,5.05,5.7,6.49,4.9,2.8,10.77,3.89,16.33,3.01,4.36-.69,8.79-.22,10.24,4.73,.95,3.25,1.62,6.15,4.79,7.96,5.12,2.94,13.03,2.3,18.18-.14s8.5-8.01,14.03-9.23c11.75-2.58,18,17.2,30.14,9.21,2.88-1.89,5.51-3.64,8.81-4.81,4.08-1.44,8.41-2.39,12.73-2.68,2.86-.19,5.79,.37,8.63-.02,3.1-.43,6.01-2.24,8.2-4.42,2.42-2.39,4.29-5.83,3.59-9.33s-4.45-6.03-.82-9.1c3.2-2.7,7.32-4.12,10.52-6.9,3.01-2.61,5.58-5.84,7.5-9.33,3.74-6.8,4.79-14.85,.59-21.69-3.44-5.6-9.47-10.13-15.86-11.75-2.83-.72-5.25-.53-8.04,.13-2.37,.56-5.19,.28-6.85-1.73s.59-3.57,2.07-4.67c4.35-3.25,7.68-7.97,10.83-12.33,9.11-12.59,17.87-26.6,22.99-41.35,2.36-6.8,3.38-13.79,3.99-20.93,.7-8.19,1.7-16.21,3.87-24.16,1.66-6.07,1.46-12.44-2.38-17.66-4.16-5.66-10.77-5.83-15.82-1.18-2.41,2.21-4.25,5.01-5.4,8.06-.97,2.59-1.13,5.21-1.55,7.91-.95,6.23-3.44,12.32-6.04,18.01-2.41,5.27-5.1,10.56-8.52,15.25-.59,.8-1.2,1.6-1.9,2.31-.23,.24-1.17,.85-1.23,1.03-.09,.3,.56-.23,.58,.36,0-.19-.24-.5-.29-.68-.27-.96-.67-1.89-.96-2.84-3.39-10.92-5.12-22.42-6.88-33.68-3.9-25.03-7.13-50.39-8.11-75.72-.55-14.21-.18-28.34,.39-42.54,.43-10.66-.15-21.26-.08-31.91,.2-32.86,2.8-65.77,4.92-98.54,.65-10.1,1.32-20.2,2-30.3,.25-3.8,.74-7.63,.6-11.45-.44-11.9-3.61-23.83-6.97-35.17-1.41-4.75-3.17-15.57-9.85-15.64-5.34-.06-8.65,5.09-9.93,9.7-1.03,3.71-1.37,7.69-2.28,11.46-1.44,6.01-3.1,11.97-4.82,17.9s-3.45,11.61-5.31,17.37c-.68,2.11-1.38,4.21-2.12,6.3-.3,.85-1.46,2.72-1.37,3.58,.04,.41-.25,.06-.06,.17-.19-.11,1.44-.31,1.26-.13-.01,.01-.36-.59-.58-1.01-.77-1.5-1.26-3.16-1.76-4.76-1.68-5.33-2.97-10.79-4.2-16.24-2.57-11.35-4.93-22.86-6.33-34.43-.23-1.89-3.23-1.92-3,0,1.41,11.63,3.74,23.2,6.31,34.62,1.22,5.44,2.51,10.89,4.14,16.23,.7,2.28,1.51,6.65,3.75,8.05s3.36-1.62,3.98-3.25c1.54-4.05,2.84-8.21,4.14-12.35,3.59-11.42,7.06-22.96,9.63-34.66,.77-3.53,.88-7.29,2.41-10.57,1.1-2.34,3.39-5.52,6.42-5.01s4.23,5.65,5.03,8.16c3.93,12.38,7.64,25.38,8.43,38.43,.15,2.51-.02,4.89-.18,7.41-.67,9.94-1.33,19.88-1.98,29.81-1.23,18.9-2.43,37.79-3.45,56.7-.79,14.49-1.55,29-1.79,43.52-.17,10.33,.52,20.64,.21,30.98-.38,12.78-1.08,25.52-.84,38.32s1.04,24.61,2.28,36.88c2.56,25.31,5.34,51.07,11.28,75.85,.53,2.19,1.09,4.37,1.75,6.52,.44,1.42,.8,3.35,1.7,4.54,2.13,2.82,5.29-.81,6.65-2.52,3.42-4.32,6.04-9.31,8.43-14.25,2.71-5.61,5.16-11.47,6.69-17.52s1.16-11.71,5.45-16.65c2.34-2.7,5.93-5.3,9.6-3.51,2.36,1.15,3.96,3.7,4.93,6.05,1.54,3.72,1.25,7.62,.24,11.41-1.15,4.33-2.15,8.68-2.81,13.11-1,6.81-1.15,13.71-2.21,20.51-2.4,15.45-10.58,29.49-18.86,42.5-3.81,5.98-7.8,11.97-12.49,17.31-1.45,1.66-2.97,3.18-4.74,4.49-2.27,1.69-4.37,4.11-3.18,7.1,1.26,3.15,5.17,4.84,8.36,4.7s5.56-1.35,8.75-.59c6.78,1.61,13.62,7.05,15.93,13.73,2.96,8.54-2.48,17.96-8.65,23.6-3.13,2.86-7.07,4.34-10.41,6.87-2.31,1.75-3.86,4.35-3.04,7.32,.34,1.22,1.12,2.21,1.69,3.31,1.16,2.22,.77,4.43-.56,6.49-1.96,3.02-5.63,5.47-9.29,5.5-3.29,.03-6.45-.23-9.75,.18-3.82,.48-7.6,1.35-11.22,2.68-3.12,1.14-5.83,2.7-8.54,4.59-2.16,1.5-4.53,2.3-7.15,1.49-5.5-1.68-8.86-7.46-14.13-9.77s-10.7-.97-15.13,2.56c-2.23,1.78-4.26,3.8-6.72,5.26-2.95,1.75-6.19,2.35-9.58,2.36-3.61,.01-8.06-.5-9.64-4.27-1.31-3.12-1.22-6.24-4.18-8.47-2.75-2.08-6.1-2.39-9.4-1.86s-6.24,.6-9.49-.23c-2.61-.66-5.28-1.67-7.41-3.33-1.43-1.12-2.73-2.63-2.83-4.54s.96-3.48,1.67-5.07c1.11-2.47,1.66-5.17-.11-7.49-1.66-2.17-4.57-2.54-7.05-3.16-6.54-1.64-12.61-5.97-15.12-12.45s-.3-13.79,4.74-18.16c4.74-4.11,11.19-5.85,17.14-7.32,3.94-.97,9.49-1.4,12.72-4.14,1.59-1.35,1.45-2.87,1.41-4.72-.08-3.44-.12-6.89-.15-10.33-.08-12.07,.12-24.14,.82-36.19s1.41-23.69,4.89-34.85c1.78-5.73,2.66-11.79,3.74-17.67,2.03-11.04,3.89-22.11,5.68-33.19,1.9-11.81,3.71-23.63,5.31-35.48,1.08-8.03,2.35-16.18,2.53-24.29,.15-7.11,1.25-14.25,1.56-21.39s1.08-14.56,1.77-21.86c2.06-21.65,2.56-43.04,.11-64.68-4.41-38.79-14.62-79.35-1.78-117.65,1.45-4.33,3.19-8.55,5.27-12.61,1.01-1.97,2.09-3.89,3.24-5.77,.95-1.55,1.99-3.88,3.48-5,2.68-2.02,6.75,.89,8.12,3.22,.77,1.31,1.32,3.27,1.46,4.48,.22,1.89,3.23,1.92,3,0Z"/></g><g><g><path d="M185.86,335.92c.93,11.34-2.4,25.58-6.1,36.2-4.65,13.37-10.2,26.45-17.18,38.78-6.17,10.9-13.82,21.27-21.66,30.76-2.24,2.71-12.6,12.45-13.92,4.73-.59-3.48-2.09-6.67-3.76-9.74-4.26-7.82-.54-10.04,5.15-14.75,5.59-4.63,10.86-9.66,15.72-15.05,9.54-10.56,17.57-22.52,23.47-35.49,4.56-10.04,7.85-20.6,11.11-31.13,1.17-3.76,6.25-14.98,7.15-4.47v.16Z"/><path class="cls-4" d="M172,470.61c-3.09-8.75-12.25-13.97-21.34-11.95-4.5,1-8.58,2.74-12.87,4.23,12.86-60.94-12.55-163.7-12.38-188.07,.08-11.71-.11-78.37,.41-100.05,.39-16.56,1.33-32.78,2.42-49.31,.38-5.85,1.41-11.56,2.77-17.25,.83-3.48,2.98-8.32,2.72-12.16v-.02c.27-5.11,.16-10.82,.23-15.94,.06-4,.06-8,.05-12,0-2-.01-4-.02-6,0-1.27-.03-2.53-.08-3.8-.27-7.47-1.24-14.92-2.24-22.32-.62-4.63-1.3-9.26-2.31-13.83-.43-1.97-.92-6.52-2.79-7.8-.36-.24-.66-.45-1.09-.19-.62,.38-1.01,1.04-1.34,1.69-1.26,2.54-1.88,5.33-2.49,8.1-4.1,18.65-9.22,37.24-10.69,56.32-.05,.64-.15,1.45-.27,2.34-5.16-.71-10.53-1.05-15.81-.73-1.31-5.24-1.99-10.6-2.84-15.92-1.4-9.28-3.18-18.5-5.48-27.6-1.16-4.57-2.44-9.1-3.89-13.59-.65-2-2.18-11.55-4.21-11.66-4.23-.22-9.86,47.72-10.01,54.84,.12,7.67,.14,14.13,.35,20.57,.04,1.27,.17,2.54,.33,3.81-.03,.34-.04,.69,0,1.07,.55,6.97,1.36,13.91,2.37,20.84,1.13,7.75,2.48,15.48,2.84,23.23,1.44,30.44-.07,60.9-.48,91.08-.2,14.78-.82,29.57-3.55,44.12-1.49,7.93-2.65,15.92-4.09,23.86-3.7,20.33-8.63,40.48-12.62,60.78-1.5,7.62-2.86,15.26-3.97,22.94-2.03,13.99-3.44,28.14-3.49,42.29-.05,12.65,.48,26.73,6.21,38.3-.82-1.78-8.3-2.81-10.08-3.09-3.87-.6-7.48-.33-11.32,.18-10.33,1.37-18.79,6.97-17.01,18.69,.85,5.62,5.57,10.08,10.89,12.1,5.51,2.1,11.03,1.58,16.75,1.76-4.77,2.39-4.93,4.57-6.42,6.85-2.17,3.31-3.24,7.11-1.39,10.84,.75,1.51,1.86,2.67,3.4,3.3,3.19,1.3,6.29,1.24,9.2-.84,1.76-1.26,3.37-2.67,4.66-4.43,2.55-3.48,4.52-7.95,7.22-14.76,4.29,1.43,58.64,1.48,69.18,1.14,.86,9.43,7.8,17.01,10.74,20.13,4.85,5.15,14.21,3.64,16.51-3.57,2.1-6.57-4.96-14.99-10.5-17.76,5.31,.67,10.44,2.89,15.59,.79,9.23-3.76,15.85-11.35,12.25-21.56Z"/><path d="M121.53,510.8c-3.1-2.92-8.6-5.25-11.84-4.51,.63-.15,.01-66.48,.3-77.52,.09-3.49-.14-7,.19-10.48h-12.57c.62,4.07,.25,80.45,.13,83-.25,5.24-.9,12.46,3.19,16.6,3.4,3.46,9.31,6.12,14.16,6.21,5.06,.09,10.75-5.42,8.39-10.73-.38-.87-1.07-1.74-1.95-2.57Z"/><path d="M86.64,418.28s-12.82-.03-12.8,.15c.41,2.68,.51,37.75,.76,44.1,.08,2.12-.01,4.25,.16,6.36,.66,8.05,1.88,35.41,1.83,37.67-2.61,.03-4.97,.14-7.45,1.14-5.43,2.18-13.92,11.71-6.45,16.78,1.24,.84,2.61,1.37,4.13,1.52,2.6,.25,5.09-.22,7.47-1.19,5.29-2.16,9.6-5.41,11.69-10.98,.84-2.24,.5-5.06,.48-7.43-.03-3.41-.37-6.83-.15-10.21,.24-3.81,.55-7.62,.54-11.44-.02-5.52,.26-63.4-.22-66.47Z"/><path d="M99.75,104.34c6.64-.19,13.94,1.66,16.26,8.14,.43,1.2,.3,2.44-.44,3.46-2.15,2.96-4.34,5.14-7.2,7.31-2.4,1.82-4.52,4.28-7.74,4.46-3.06,.16-4.89-2.23-6.83-4.18-2.84-2.86-5.42-5.96-7.49-9.43-1.42-2.39-.44-5.35,1.98-6.81,1.67-1,3.42-1.8,5.32-2.22,1.84-.41,3.94-.69,6.12-.75Z"/><path d="M86.02,99.92c0,1.43-1.16,2.6-2.6,2.6s-2.6-1.16-2.6-2.6,1.16-2.6,2.6-2.6,2.6,1.16,2.6,2.6Z"/><path d="M121.33,101.39c0,1.43-1.16,2.6-2.6,2.6s-2.6-1.16-2.6-2.6,1.16-2.6,2.6-2.6,2.6,1.16,2.6,2.6Z"/><path d="M102,150.89v-34.87c0-1.84-2.85-1.84-2.85,0v34.87c0,1.84,2.85,1.84,2.85,0h0Z"/></g><path d="M76.38,81.75c-.65-4.06-.49-42.97,2.46-43.14,2.96-.16,8.6,41.76,7.94,42.42s-9.81,1.7-10.41,.72Z"/><path d="M117.35,82.46c.15,1.79,10.08,1.38,10.08,.56,.9-3.12-.05-46.46-1.7-46.95-1.64-.49-8.78,41.71-8.38,46.39Z"/><path class="cls-3" d="M123.42,376.11c-.25-2.14-.5-4.6-2.24-6.06-.48-.4-1.38-.33-1.52,.4-.36,1.8,.28,3.37,.65,5.13,.54,2.55,.83,5.35,.88,7.96,.02,.87,1.32,1.08,1.54,.21,.66-2.59,1-4.96,.69-7.64Z"/><path class="cls-3" d="M131.15,393.55c-.09-2.24,.02-4.96-1.73-6.58-.36-.33-.94-.28-1.19,.15-1.13,1.96-.45,4.27-.27,6.42,.21,2.46,.38,4.87,.97,7.27,.17,.7,1.13,.62,1.34,0,.8-2.39,.99-4.76,.89-7.27Z"/><path class="cls-3" d="M113.39,385.85c-.47-.38-1.03-.32-1.39,.18-1.27,1.75-.64,4.04-.51,6.06,.15,2.32,.49,4.5,.89,6.77,.14,.8,1.24,.65,1.46,0,.78-2.28,1.24-4.34,1.21-6.77-.02-2.12,.14-4.8-1.66-6.24Z"/><path class="cls-3" d="M122.06,400.32c-.37-.35-.94-.35-1.31,0-1.36,1.31-1.01,3.2-.97,4.95,.05,2.4,.45,4.74,.8,7.1,.12,.81,1.51,.81,1.63,0,.31-2.09,.62-4.13,.75-6.24,.12-1.92,.59-4.36-.91-5.81Z"/><path class="cls-3" d="M71.96,319.96c-.1-.52-.83-.82-1.26-.51-3.26,2.29-2.98,8.66-1.84,12.02,.17,.49,1.01,.61,1.11,0,.37-2.09,.61-4.18,1.12-6.25,.43-1.76,1.23-3.44,.87-5.26Z"/><path class="cls-3" d="M80.35,310.32c-3.96-1.09-3.46,9.86-3.28,11.78,.09,.94,1.44,1.23,1.71,.23,.7-2.52,1.45-5.02,2.15-7.54,.34-1.21,1.36-3.94-.59-4.48Z"/><path class="cls-3" d="M75.78,299.06c-.22-.26-.68-.37-1-.26-2.16,.71-2.21,3.3-2.48,5.27-.33,2.41-.51,5.08,.64,7.3,.24,.46,1,.47,1.24,0,.99-1.94,1.17-4.23,1.54-6.35,.34-1.96,1.51-4.25,.06-5.95Z"/></g></g></g></svg>