<?xml version="1.0" encoding="UTF-8"?><svg id="Layer_2" xmlns="http://www.w3.org/2000/svg" viewBox="0 0 180.65 267.54"><defs><style>.cls-1{fill:#e9ca87;}.cls-2{fill:#fff;}.cls-3{fill:#ffba69;}.cls-4{fill:#e47349;}</style></defs><g id="Layer_1-2"><g><g><path class="cls-2" d="M108.78,117.15c7.18-12.77,10.37-23.94,11.17-35.91,.31-4.61,.26-27.55,3.19-31.12,4.51-5.48,10.84-5.31,17.18-2.11,6.34,3.2,11.23,8.63,17.05,12.71,3,2.1,6.73,3.91,10.22,2.78,2.38-.77,4.15-2.77,5.57-4.84,7.67-11.2,7.95-26.87,1.05-38.56-6.9-11.69-20.5-18.97-34.07-18.65-13.57,.32-26.65,8.04-33.85,19.55-2.31,3.69-4.13,7.83-7.41,10.69-4.59,4.01-11.09,4.76-17.16,5.33-1.77,.17-14.32,1.18-15.49-2.54-.25-.8-7.58-22.67-22.65-27.9-1.92-.67-20.64-6.82-33.66,5.44C-2,23.23,1.61,39.71,3.45,48.14c1.52,6.94,3.82,8.35,5.1,8.77,3.36,1.1,7.27-2.06,8.31-2.89,3.43-2.77,3.55-5.2,5.5-7.54,4.56-5.48,12.19-7.54,19.39-1.94,7.18,5.59,7.18,15.16,7.98,20.75,0,0,.8,14.36-6.93,21.42-1.32,1.2-4.1,4.07-6.16,3.29-1.38-.52-1.42-2.27-2.36-4.12-2.18-4.31-8.08-7.04-13.15-6.76-7.16,.4-11.23,6.73-12.67,8.97-.74,1.16-4.52,7.02-3.22,14.06,.74,3.98,2.64,5.86,9.57,13.4,13.28,14.43,14.66,16.6,20.48,20.93,6.21,4.62,9.32,6.93,13.03,6.85,4.84-.11,10.08-3.31,13.51-.52,.38,.31,.6,.58,.76,.77,3.73,4.49-.28,14-2.49,23.86-3.17,14.14-.27,18.36-3.99,20.75-5.4,3.45-11.77-5.25-21.39-2.64-7.58,2.06-12.63,9.91-14.23,16.09-1.79,6.91-.25,15.47,3.11,21.61,1.32,2.41,2.64,3.93,2.77,6.75,.23,5.04-3.7,6.53-4.03,11.43-.31,4.48,2.57,9.27,6.45,11.57,5.22,3.09,11.2,1.04,13.89,.12,7.45-2.55,11.07-7.97,12.35-7.04,1.6,1.16-5.02,8.81-2.33,14.42,1.99,4.16,8.56,6.05,13.69,5.52,8.14-.84,9.72-7.48,17.02-7.29,5.27,.14,5.28,3.62,10.45,3.83,8.64,.35,11.92-9.22,19.21-7.88,3.79,.69,4.22,3.51,8.74,3.83,.27,.02,8.03-2.86,10.92-6.47,6.38-7.98-2.48-5.91,.8-13.57,2.39-5.59,10.79-9.13,13.65-18.74,2.02-6.79-.36-16.77-6.26-21.38-3.31-2.59-9.6-1.57-8.19-4.57,12.64-26.85,14.71-35.55,8.78-62.24-1.6-7.18-8.43-10.67-10.37-7.18-3.99,7.18-9.75,38.24-15.96,50.27-.39,.75-3.19-29.52-6.38-57.45Z"/><path class="cls-3" d="M110.08,117.9c6.35-11.35,10.56-23.63,11.38-36.67,.45-7.21,.33-14.44,1.04-21.64,.18-1.82,.4-3.65,.77-5.44,.25-1.18,.5-2.28,1.04-3.11-.34,.52,.5-.56,.47-.53,.19-.21,.39-.41,.59-.6,.48-.46,1-.87,1.57-1.23,1.14-.71,2.41-1.18,3.74-1.36,2.9-.38,5.9,.51,8.49,1.77,5.7,2.77,10.19,7.36,15.15,11.2,4.68,3.62,11.03,7.33,16.54,3.1,2.38-1.83,4.11-4.52,5.5-7.15s2.38-5.22,3.09-7.98c1.46-5.7,1.58-11.73,.42-17.49-2.29-11.35-9.92-20.88-20.14-26.18s-22.47-6.1-33.32-1.9c-5.32,2.06-10.22,5.12-14.39,9.02-2.11,1.97-4,4.16-5.68,6.5s-3.1,5.12-4.69,7.67-3.62,4.96-6.39,6.48c-2.62,1.43-5.59,2.11-8.51,2.57-3.68,.57-7.46,.87-11.19,.83-1.85-.02-3.73-.11-5.53-.54-.64-.15-1.31-.33-1.87-.69-.3-.2-.44-.37-.51-.53-.78-1.86-1.42-3.77-2.26-5.62-3.41-7.55-8.17-14.97-14.97-19.88-5.37-3.88-12.23-5.33-18.75-5.54-10.62-.35-21.1,3.93-27.04,13.04C-.81,24.34-.67,34.65,1.08,44.08c.77,4.14,1.43,8.96,4.21,12.29s6.98,2.46,10.23,.45c2.06-1.27,3.94-2.9,5.29-4.92,1.43-2.13,2.28-4.3,4.24-6.06,4.68-4.21,11.17-3.87,15.95,0,4.11,3.32,5.72,8.39,6.49,13.43,.45,2.96,.82,5.29,.75,8.04-.09,3.8-.67,7.63-1.97,11.22-.81,2.23-1.97,4.4-3.58,6.16-.69,.76-1.47,1.46-2.24,2.14-.69,.61-1.95,1.87-2.97,1.79-.93-.07-1.11-1.64-1.4-2.37-.51-1.29-1.2-2.42-2.12-3.46-1.81-2.06-4.31-3.49-6.89-4.34-5.01-1.66-10.26-.77-14.4,2.48-6.39,5.02-10.69,14.35-8.71,22.4,.85,3.47,3.32,6.18,5.65,8.76,4.01,4.45,8.1,8.83,12.12,13.26s8.24,9.02,13.22,12.72c3.74,2.78,7.96,6.55,12.87,6.74,2.85,.11,5.62-.92,8.39-1.44,2.4-.45,4.9-.23,5.93,2.33,.94,2.34,.42,5.21-.05,7.59-.63,3.17-1.55,6.28-2.37,9.41-1.5,5.72-2.55,11.48-2.82,17.39-.06,1.38-.07,3.16-.24,4.33s-.36,1.69-1.06,2.28c-.94,.8-2.56,.91-3.97,.56-1.96-.49-3.79-1.4-5.67-2.12-4.91-1.89-9.98-2.23-14.8,.16-4.72,2.34-8.34,6.79-10.51,11.52-2.37,5.16-2.84,10.71-1.98,16.29,.46,3,1.34,5.92,2.57,8.7,1.12,2.53,3.26,4.91,3.6,7.7,.32,2.62-1.05,4.52-2.29,6.66s-1.94,4.6-1.65,7.16c.64,5.74,5.1,11.07,10.77,12.39,5.01,1.17,10.59-.44,15.06-2.75,2.17-1.12,4.13-2.57,6.04-4.08,.53-.42,1.06-.85,1.63-1.23,.24-.16,.39-.24,.4-.23l.11-.03c-.14,.04-.28,.04-.42,0-.38-.17-.49-.71-.69-.81,.11,.05-.37,1.26-.52,1.63-.39,.94-.82,1.87-1.2,2.81-.86,2.11-1.6,4.38-1.51,6.69,.2,5.29,4.97,8.32,9.69,9.34s9.88,.29,14.06-2.62c3.46-2.41,7.21-5.75,11.75-3.73,1.9,.85,3.31,2.36,5.37,2.93,2.34,.64,4.98,.43,7.23-.42,3.95-1.5,6.63-4.95,10.43-6.65,1.72-.77,3.68-.8,5.37,.08,1.88,.98,3.27,2.47,5.4,3,1.91,.48,2.99,.08,4.72-.65,2.02-.86,4-1.84,5.82-3.06,2.91-1.95,7.29-6.11,6-10.08-.37-1.15-1.25-1.97-1.79-3.02-.67-1.29-.15-3.02,.55-4.36,1.89-3.61,5.6-6.13,8.23-9.18,3.41-3.95,5.77-8.68,5.99-13.96s-1.24-10.65-4.29-14.82c-1.43-1.95-3.15-3.7-5.41-4.63-.99-.41-2.02-.67-3.06-.92-.51-.12-1.03-.23-1.54-.37-.16-.04-1-.46-1.13-.41,.08-.03-.22-.02,0,.01,1.03,.14-.59,.57,.15,.13,.44-.26,.82-1.73,1.03-2.2,.75-1.61,1.49-3.22,2.21-4.83,1.22-2.72,2.41-5.46,3.51-8.23,1.86-4.67,3.47-9.46,4.4-14.41,1.91-10.23,.48-20.51-1.63-30.59-1-4.76-2.57-9.86-7.41-12.02-1.6-.72-3.52-.95-5.05,.07-1.21,.8-1.74,2.23-2.27,3.51-1.37,3.33-2.33,6.84-3.3,10.31-1.28,4.6-2.47,9.22-3.72,13.82s-2.48,9.09-3.92,13.57c-.64,1.99-1.31,3.96-2.05,5.91-.31,.8-.63,1.6-.97,2.39-.17,.38-.34,.75-.51,1.13-.1,.21-.23,.42-.31,.64-.23,.63-.5,.29,.32-.12l1.16-.15c.32,.1,1,.79,.98,.9,0-.06-.04-.15-.05-.21-.02-.25-.09-.5-.13-.75-.07-.47-.06-.42-.1-.74-.06-.5-.13-1-.19-1.51-.35-2.9-.65-5.8-.96-8.7-.96-9.03-1.88-18.06-2.85-27.09-.64-5.97-1.29-11.95-1.98-17.91-.22-1.9-3.22-1.92-3,0,1.53,13.4,2.92,26.82,4.32,40.23,.46,4.39,.91,8.79,1.43,13.17,.16,1.32-.02,5.58,2.12,5.56,1.7-.02,2.49-3.24,3-4.49,.82-2,1.54-4.03,2.22-6.08,1.57-4.76,2.92-9.59,4.23-14.43s2.53-9.57,3.86-14.33c.95-3.42,1.93-7.09,3.28-10.28,.44-1.03,.78-2.09,1.95-2.03,1.75,.09,3.37,1.65,4.35,2.96,1.78,2.38,2.22,5.32,2.8,8.16,.62,3,1.18,6.01,1.6,9.04,.69,4.95,.97,9.97,.5,14.95s-1.69,9.55-3.28,14.12c-2.07,5.96-4.7,11.71-7.36,17.42-.93,2-2.28,4.39,.27,5.79,1.86,1.03,4.16,1,6.1,1.84,4.66,2.01,6.96,8.41,7.54,13.05,.67,5.38-.93,10.43-4.31,14.64-2.78,3.46-6.62,6.11-8.97,9.91-1.03,1.67-1.83,3.77-1.63,5.76,.14,1.48,.88,2.57,1.69,3.75,.74,1.08,.82,1.62,.1,2.96-1.19,2.22-2.96,3.82-5.08,5.12-1.77,1.08-3.66,2.02-5.61,2.76-.22,.08-.48,.14-.69,.25-.07,.03-.16,.05-.23,.07,.74-.16-.02-.07-.29-.11-1.2-.2-2.18-.73-3.16-1.42-1.89-1.35-3.72-2.39-6.11-2.46-2.06-.06-4.03,.69-5.76,1.76-3.54,2.21-6.55,5.82-10.95,6.22-2.52,.23-4.22-.66-6.23-2.01s-4.47-1.98-6.97-1.74c-4.74,.45-7.58,4.06-11.61,6.07-4.35,2.16-10.9,1.66-14.71-1.48-4-3.3-1.38-8.44,.24-12.28,.56-1.33,1.44-3.21,.26-4.46-1.12-1.19-2.67-.49-3.77,.3-1.71,1.23-3.29,2.62-5.07,3.75-2.21,1.41-4.6,2.42-7.11,3.15-2.65,.76-5.49,1.16-8.19,.43-2.98-.81-5.39-2.97-6.86-5.65-1.33-2.42-1.88-5.37-.79-7.98,.9-2.15,2.53-3.9,3.15-6.19,.77-2.88,.06-5.71-1.38-8.24-1.54-2.7-2.9-5.34-3.75-8.35-1.59-5.67-1.76-11.88,.55-17.38,2.03-4.82,5.71-9.54,10.71-11.48s9.61-.14,14.3,1.73c3.29,1.31,7.35,2.27,10.1-.69,1.97-2.12,1.69-5.45,1.81-8.12,.27-6.08,1.41-11.94,2.98-17.81,.85-3.2,1.79-6.41,2.34-9.68,.43-2.55,.73-5.33-.13-7.83s-2.73-4.32-5.28-4.75c-2.94-.5-5.88,.58-8.73,1.17-2.3,.47-4.36,.5-6.5-.53-2.48-1.2-4.7-2.92-6.91-4.55-2.36-1.74-4.6-3.48-6.72-5.56-2.55-2.5-4.91-5.19-7.31-7.83-4.18-4.61-8.47-9.13-12.59-13.79-2.49-2.81-4.38-5.43-4.55-9.29-.19-4.28,1.4-8.26,3.73-11.76s5.73-6.86,10.15-7.45c2.71-.37,5.61,.29,8.01,1.56,2.55,1.35,4.23,3.23,5.23,5.93,.43,1.16,.89,2.34,2.01,3,1.06,.62,2.34,.55,3.45,.13,2.2-.83,4.18-2.76,5.75-4.47,3.25-3.54,4.95-8.26,5.77-12.92,.48-2.76,.86-5.72,.65-8.53-.31-4.21-.84-8.68-2.2-12.69-1.91-5.61-5.97-10.32-11.7-12.23s-11.59,.11-15.51,4.38c-1.8,1.96-2.59,4.53-4.32,6.51-1.48,1.7-3.64,3.34-5.82,4.02-.97,.3-1.95,.41-2.92,.04,.37,.14-.29-.16-.4-.23-.26-.17-.28-.19-.56-.48-1.51-1.59-2.17-3.92-2.68-5.99-1.02-4.11-1.81-8.34-2.07-12.57-.31-5.02,.15-10.17,2.14-14.83,2.27-5.33,6.48-9.69,11.63-12.33,7.54-3.86,16.73-3.72,24.74-1.45s13.31,8.4,17.38,15.06c1.83,2.98,3.45,6.19,4.76,9.39,.73,1.78,1.1,3.93,2.8,5.06,1.5,1,3.43,1.3,5.18,1.51,1.99,.24,4.01,.27,6.01,.22,4.25-.11,8.61-.51,12.75-1.46,2.91-.67,5.81-1.74,8.23-3.53,2.55-1.88,4.41-4.4,6.03-7.1s3.05-5.41,4.95-7.89c1.8-2.35,3.89-4.49,6.15-6.39,9.05-7.62,21.42-11.16,33.05-8.57,11.46,2.55,21.84,10.45,26.26,21.49,2.25,5.61,3.01,11.76,2.29,17.76s-2.9,12.13-6.84,16.56c-2.33,2.62-5.2,3.34-8.48,2.05s-5.83-3.55-8.38-5.67c-4.92-4.08-9.78-8.54-15.93-10.68-5.61-1.95-11.8-1.04-15.67,3.76-1.88,2.33-2.08,6.02-2.41,8.86-.9,7.64-.78,15.31-1.2,22.98-.69,12.6-4.86,24.54-10.99,35.49-.94,1.69,1.65,3.2,2.59,1.51Z"/></g><g><g><g><path d="M137.91,158.32c-1.1,10.99-3.21,21.87-8.99,31.5-5.17,8.61-12.09,17.95-22.23,20.84-1.3,.37-2.72,.41-4.09,.48-1.1,.06-1.9-.76-1.83-1.85,.14-2.11-.42-5.56,.2-7.5,.74-2.27,3.56-3.45,5.43-4.98,6.78-5.58,11.68-13.19,15.19-21.24,5.5-12.59,8.33-26.23,11.41-39.54,.22-.96,.18-1.98,.42-2.92,.13-.49,.55-1.13,.97-1.27,3.27-1.04,4.18,18.35,4.01,20.49-.15,1.99-.32,3.99-.52,5.98Z"/><path d="M141.04,12.43c2.35,.12,4.26,.08,6.52,.97,6.21,2.46,11.71,6.68,15.81,11.95,3.81,4.89,7.86,11.38,8.14,17.69,.28,6.21-2.76,11.97-9.78,10.7-.57-.1-1.13-.22-1.67-.41-2.52-.89-4.97-3.29-6.94-5.04-3.19-2.83-5.83-6.5-9.67-8.52-7.37-3.87-16.58-2.35-22.95,2.4-2.47,1.84-4.7,4.19-6.22,6.88-.78,1.37-1.55,2.76-2.55,3.95-.37,.44-1.51,.65-2.08,.43-5.36-2.14-6.11-3.65-4.63-9.36,3.37-13.06,13.07-24.39,25.6-29.48,3.47-1.41,6.62-2.34,10.43-2.15Z"/><path d="M6.84,38.25c.27-3.48,1.19-7.03,1.92-9.42,1.89-6.17,5.48-12.32,10.98-15.91,3.96-2.58,8.32-3.12,13.06-2.46,7.69,1.07,13.76,4.69,18.47,10.67,5.83,7.41,9.67,16.22,12.89,25.08,1.44,3.95,.54,5.75-3.51,7.24-.37,.14-.76,.22-1.14,.32-1.05,.29-2.05,.21-2.44-.95-4.43-13.14-25.01-25.64-35.78-12.64-1.96,2.37-3.19,5.36-5.29,7.57-2.62,2.76-4.96,2.16-7.28-.57-1.8-2.11-2.16-5.5-1.89-8.95Z"/><path class="cls-1" d="M139.4,208.37c-.96-3.25-3.83-5.75-6.85-7.09-5.08-2.26-10.1-1.18-15.1,.64-2.53,.92-4.3,1.45-7.1,3.92,.15-4.24-.32-9.41-.68-13.68-.85-10.05-1.34-20.13-2.61-30.15-1.41-11.19-2.25-22.44-4.59-33.51-.87-4.12-1.74-8.25-2.53-12.39,1.89-2.61,3.56-5.41,4.99-8.38,5.74-11.95,6.87-25.52,8.13-38.52,.45-4.68,.03-9.49-.38-14.2-.43-4.92-2.95-8.61-7.37-10.31-9.84-3.79-19.98-4.72-30.32-2.88-5.65,1.01-13.43,1.39-17.07,6.57-1.47,2.09-2.05,4.53-2.24,7.09-.66,8.76-.41,17.24-1.83,26.01-1.03,6.38-2.14,11.6-7,16.08-5.76,5.29-14.52,8.58-21.83,4.37-1.01-.58-2.08-1.08-3.18-1.48-.86-.32-2.01,.81-1.86,1.72,.99,5.95,3.52,11.27,6.78,16.27,3.3,5.08,7.71,9.05,12.97,11.96,9.39,5.19,19.45,6.63,29.96,4.91,0,.53-.02,1.06-.04,1.6-.48,14.67-3.32,29.08-5.08,43.61-.59,4.9-1.82,9.72-2.66,14.59-.15,.86-1.34,5.98-.81,6.47-1.54-1.44-2.95-2.73-4.72-3.85-.84-.53-1.68-1.05-2.53-1.56-4.21-2.54-8.74-3.48-13.66-3.07-5.28,.44-8.86,3.16-11.04,7.79-2.37,5.03-2.56,10.44-1.29,15.69,.81,3.35,2.37,6.5,4.68,9.06,1.16,1.29,2.51,2.51,4,3.41,.76,.46,3.38,2.56,4.13,2.3l-2.71,.95c-4.23,1.48-9.43,7.02-6.7,11.68,2.12,3.61,7.47,1.89,10.43,.54,1.72-.79,3.63-1.78,4.99-3.11,1.35-1.32,3.48-3.54,4.21-5.28,8.21,2.84,50.55,5.09,60.08,1.64-.49,.18,3.26,6.84,3.68,7.42,.95,1.31,1.96,2.68,3.37,3.54,3.13,1.9,7.85,2.12,10.09-1.33,2.31-3.57,.15-7.18-2.64-9.57-1.14-.97-2.56-1.44-4-1.75,4.14-1.59,6.98-3.22,10.34-6.29,3.58-3.27,6.18-7.42,7.51-12.08,.91-3.18,.99-6.34,.1-9.34Z"/><path d="M101.57,247.5c-1.16-.67-2.45-1.11-3.69-1.66-.9-.4-1.42-1.09-1.39-2.1,.17-5.4,.1-10.82,.56-16.19,1.03-11.97-.26-48.59-.36-48.74-3.62-1.4-5.83-.89-9.59-.03-.08,.37-.07,.87-.05,1.61,.13,5.25,.33,10.49,.47,15.73,.18,7.2,.33,14.4,.51,22.31-.25,6.49-.53,13.68-.81,20.88-.12,3.15-.29,6.3-.36,9.45-.02,.87,0,1.88,.4,2.6,1.08,1.97,2.36,3.72,4.59,4.74,1.95,.89,3.94,1.46,6.01,1.77,3.06,.46,6.4-2.2,6.7-5.27,.23-2.41-1.06-4-3-5.11Z"/><path d="M80.13,180.21c-1.31-.15-6.55,.47-8.34,1.15,.03,.58-.23,23.01-.06,29.59,.23,8.53,.44,17.06,.57,25.6,.03,2.24-.22,4.49-.4,6.73-.18,2.31-.19,2.38-2.44,2.96-3.42,.88-5.84,2.93-7.4,6.04-1.43,2.85-.1,5.93,2.99,6.71,1.13,.29,2.42,.39,3.55,.17,4.29-.82,7.83-2.89,10.22-6.67,.82-1.29,1.26-2.61,1.1-4.23-.22-2.23-.19-4.49-.12-6.73,.25-7.18,.57-14.35,.91-22.88,.16-9.72-.21-36.19-.6-38.43Z"/><path d="M31.73,94.93c-.16,1.01-.22,3.03-.81,4.87-1.19,3.73-2.59,7.41-4.07,11.04-.71,1.74-2.28,1.86-3.89,.76-4.58-3.13-7.1-7.81-9.49-12.56-2.27-4.52-.79-8.53,3.76-10.76,2.96-1.46,6.13-1.46,9.25-.91,3.86,.67,5.21,2.53,5.25,7.56Z"/></g><circle cx="39.29" cy="109.85" r="1.75"/><circle cx="50.05" cy="117.27" r="1.75"/><path d="M40.38,119.81c0,.96-.78,1.75-1.75,1.75s-1.75-.78-1.75-1.75,.78-1.75,1.75-1.75,1.75,.78,1.75,1.75Z"/><g><path class="cls-2" d="M79.09,75.31c-1.39,3.22-4.85,4.85-8.52,5.14-4.79,.38-9.92-1.52-11.27-5.14,1.65-4.08,6.67-5.95,11.28-5.62,3.91,.28,7.51,2.16,8.51,5.62Z"/><path d="M79.09,75.31c-1.39,3.22-4.85,4.85-8.52,5.14-1.45-1.34-2.36-3.25-2.36-5.38s.91-4.05,2.37-5.38c3.91,.28,7.51,2.16,8.51,5.62Z"/></g><g><path class="cls-2" d="M104.35,75.3c-1.39,3.22-4.85,4.85-8.52,5.14-4.79,.38-9.92-1.52-11.27-5.14,1.65-4.08,6.67-5.95,11.28-5.62,3.91,.28,7.51,2.16,8.51,5.62Z"/><path d="M104.35,75.3c-1.39,3.22-4.85,4.85-8.52,5.14-1.45-1.34-2.36-3.25-2.36-5.38s.91-4.05,2.37-5.38c3.91,.28,7.51,2.16,8.51,5.62Z"/></g><path d="M62.67,59.41c-1.18,.4-1.95,1.48-2.6,2.5-.63,1.01-1.2,2.24-.81,3.43,.19,.59,.85,.89,1.4,.57,.81-.46,1.28-1.23,1.82-1.97,.58-.79,1.53-1.33,1.97-2.21,.57-1.15-.38-2.8-1.78-2.32Z"/><path d="M107.11,65.54c-.51-2.01-1.84-5.94-4.53-5.49-.42,.07-.72,.47-.85,.85-.37,1.08,.38,2,.96,2.83,.67,.95,1.41,1.85,2.07,2.8,.81,1.17,2.72,.48,2.35-.99Z"/></g><path class="cls-4" d="M97.76,104.37c0,3.03-3.32,5.48-7.42,5.48s-7.42-2.45-7.42-5.48,3.32-5.48,7.42-5.48,7.42,2.45,7.42,5.48Z"/></g></g></g></svg>