<?xml version="1.0" encoding="UTF-8"?><svg id="Layer_2" xmlns="http://www.w3.org/2000/svg" viewBox="0 0 264.88 152.98"><defs><style>.cls-1{fill:#fff;}.cls-2{fill:#ffba69;}.cls-3{fill:#e47349;}.cls-4{fill:#9ed2d6;}.cls-5{fill:#3ca5ac;}</style></defs><g id="Layer_1-2"><g><g><path class="cls-1" d="M94.38,26.44c-3.21,3.06-11.68,10.01-24.92,18.47-8.38,5.36-13.59,5.82-18.46,7.39-2.81,.9-16.68,5.84-19.18-.42-2.95-7.41-14.67-8.05-21.64-4.16-6.97,3.89-10.46,13.06-7.83,20.6,1.7,4.86,5.45,8.68,9.1,12.31,4.81,4.8,9.74,9.69,15.81,12.75,7.58,3.83,16.34,4.5,24.83,4.59,11.86,.13,23.73-.75,35.44-2.63,3.51-.56,7.67-1.01,10.1,1.59,1.75,1.87,1.9,4.82,1.01,7.23-.89,2.4-2.65,4.37-4.45,6.19-3.99,4.06-8.33,7.77-12.97,11.07-2.5,1.78-5.17,3.53-6.69,6.19-1.52,2.66-1.43,6.55,1.09,8.29,2.45,1.7,5.75,.67,8.69,.15s6.86,.24,7.37,3.18c.2,1.15-.23,2.3-.35,3.46-.48,4.73,4.43,8.59,9.18,8.82,3.72,.18,7.06-1.55,11.38-4.12,.61-.36,1.02-.63,1.72-1.09,4.01-2.64,8.22-5.92,10.9-8.53,6.18-5.99,4.69-8.76,8.16-11.18,7.26-5.07,15.1,6.14,33.4,7.2,3.18,.18,20.31,1.17,33.85-4.6,1.92-.82,6.69-3.02,11.62-1.38,2.54,.85,2.92,1.99,7.12,5.46,3.26,2.7,8.31,6.8,15.02,8.98,3.77,1.23,6.69,2.12,9.93,.82,2.83-1.14,5.54-3.81,6.29-7.04,.72-3.12-.97-4.2,.03-6.02,1.71-3.13,7.15-.74,10.82-4.29,2.4-2.32,3.04-6.23,2.29-9.07-.58-2.19-1.82-3.1-6.6-7.58-4.55-4.26-6.83-6.4-7.25-7.05-3.64-5.65-1.04-13.54,1.26-20.5,3.64-11.02,7.85-13.39,6.83-20.08-.57-3.79-2.76-8.57-6.14-9.25-3.07-.62-7.72,1.34-9.17,5.76-5.13,15.63-22.13,20.63-35.13,22.63-9.57,1.47-29.96,.2-43.04-4.81-15.74-6.03-29.75-16.49-28.52-19.31,.94-2.14,9.57,2.55,23.6,1.08,2.94-.31,24.87-2.87,29.68-16.2,1.55-4.3,1.63-10.55-1.68-13.44-3.22-2.81-10.63-3.27-14.63-.6-.7,.47-2.1,1.57-3.7,1.26-1.28-.25-2.54-1.39-2.47-2.41,.07-1.05,1.53-1.72,2.19-2.05,4.2-2.1,8.36-6.16,9.73-8.79,1.91-3.67,.94-9.43-2.14-12.16-3.05-2.7-7.08-1.44-15.28-.55-11.35,1.23-8.83-.61-25.02,.48-13.98,.93-20.96,1.55-24.48,4.06-5.72,4.07-15.65,18.31-16.7,19.31Z"/><path class="cls-2" d="M93.32,25.38c-4.96,4.71-10.61,8.76-16.22,12.65-4.48,3.11-9.02,6.34-13.95,8.7-3.33,1.59-6.84,2.53-10.38,3.49-5.18,1.41-10.65,3.95-16.14,3.19-1.12-.15-2.39-.52-3.09-1.47-.36-.48-.52-1.1-.8-1.63-.41-.79-.95-1.52-1.55-2.18-2.45-2.68-6.12-3.87-9.64-4.19-7.89-.73-15.75,2.97-19.4,10.15-1.89,3.71-2.6,7.92-1.92,12.03,.78,4.7,3.68,8.71,6.83,12.15,6.86,7.49,14.63,15.21,24.46,18.48,5.04,1.68,10.38,2.32,15.67,2.57,5.68,.27,11.4,.18,17.08-.09s11.83-.82,17.71-1.59c2.59-.34,5.17-.84,7.77-1.12,1.95-.2,4.28-.35,6,.79,1.94,1.28,2.21,3.81,1.6,5.89-.71,2.41-2.53,4.33-4.24,6.08-3.84,3.92-8.02,7.51-12.47,10.7-3.63,2.6-7.87,5.37-8.53,10.17-.63,4.55,2.37,8.26,7.05,8.18,2.28-.04,4.46-.9,6.72-.93,1.36-.02,3.54,.21,4.19,1.65,.45,1.02-.1,2.38-.22,3.42s-.03,2.15,.29,3.17c.62,1.99,1.95,3.66,3.6,4.9,8.44,6.39,18.79-1.31,25.64-6.52,3.76-2.86,7.59-5.95,10.17-9.97,1.32-2.06,1.93-4.87,4.05-6.29,1.84-1.23,3.82-1.13,5.9-.53,2.82,.82,5.45,2.2,8.13,3.35,3.65,1.57,7.37,2.93,11.27,3.75,3.21,.67,6.47,.96,9.74,1.07,7.91,.27,15.97-.28,23.68-2.16,2.39-.58,4.75-1.3,7.03-2.21,1.75-.7,3.44-1.48,5.27-1.92,2.26-.55,4.79-.62,6.97,.31,1.14,.48,2,1.35,2.9,2.17,6.6,6.09,14.45,11.9,23.54,13.4,4.74,.78,9.28-1.27,11.91-5.3,1.23-1.89,1.88-4.16,1.55-6.4-.18-1.25-.89-2.62,.61-3.28s3.55-.52,5.22-.9c2.05-.46,3.91-1.5,5.23-3.16,2.34-2.95,3.08-7.56,1.45-11.02-.5-1.07-1.31-1.97-2.13-2.8-1.58-1.6-3.28-3.1-4.93-4.64s-3.16-2.95-4.72-4.45c-.44-.43-.89-.86-1.31-1.3-.13-.14-.26-.27-.39-.42-.33-.39,.2,.47-.26-.39-2.3-4.33-1.31-9.27-.03-13.77s2.97-9.25,5.16-13.6c1.42-2.81,3.06-5.6,3.44-8.79,.43-3.64-.73-7.81-2.87-10.77-2.4-3.31-6.05-4.2-9.78-2.6-1.76,.76-3.27,1.97-4.38,3.54-1.19,1.68-1.6,3.76-2.49,5.59-3.44,7.09-10.02,11.79-17.21,14.6-14.83,5.8-31.32,5.43-46.72,2.31-9.42-1.9-18.21-5.67-26.44-10.6-3.33-2-6.64-4.16-9.52-6.78-.87-.79-1.8-1.64-2.4-2.61-.12-.19-.22-.37-.31-.57,.16,.35-.05-.2-.03-.2,.09,.01-.04,.45,.02,.24-.05,.15-.12,.27-.23,.38,.21-.21-.27,.25-.05,.04-.21,.2-.16,.02,.1,.01-.41,.01,.1,.01,.21,.02,.49,.03,.85,.06,1.25,.12,1.42,.22,2.82,.52,4.23,.76,4.26,.75,8.58,1.17,12.91,1.03,4.96-.17,9.94-1.01,14.7-2.37,6.14-1.75,12.59-4.53,16.83-9.49,2.43-2.83,3.86-6.19,4.31-9.89s-.15-8.46-3.38-11.01-7.58-2.88-11.34-2.28c-1.88,.3-3.57,.98-5.15,2.02-.82,.54-1.72,1.11-2.71,.64-.23-.11-.48-.25-.63-.47-.19-.28-.27,.1-.09-.23,.16-.3,.77-.52,1.05-.67,3.92-2.05,7.74-4.98,10.15-8.76,2.19-3.42,2-7.96,.34-11.55-1.47-3.17-4.23-5.02-7.68-5.21-4.19-.23-8.49,.85-12.64,1.24-5.1,.47-10.11-.1-15.22-.05s-9.94,.45-14.89,.83c-3.9,.3-7.83,.61-11.68,1.33-2.31,.44-4.75,1.05-6.71,2.41-2.66,1.83-4.85,4.36-6.94,6.79-2.28,2.65-4.44,5.41-6.56,8.19-1.21,1.58-2.26,3.3-3.57,4.61s.75,3.48,2.12,2.12,2.51-3.21,3.71-4.78c2.14-2.81,4.33-5.59,6.64-8.27,1.91-2.21,3.95-4.73,6.45-6.3,1.97-1.24,4.42-1.69,6.72-2.07,4.05-.67,8.16-.93,12.25-1.22,4.63-.33,9.27-.68,13.92-.66,2.3,.01,4.58,.2,6.87,.29,2.75,.11,5.5-.08,8.23-.37,2.36-.25,4.7-.59,7.05-.86,1.58-.18,3.26-.4,4.85-.19,3.46,.46,5.16,4.04,5.33,7.22,.24,4.34-2.74,7.39-5.94,9.93-1.7,1.35-3.74,2.13-5.45,3.42s-1.92,3.48-.32,5.05c1.68,1.65,4.06,1.71,6.06,.66,.7-.37,1.32-.89,2.03-1.25,.89-.46,1.88-.72,2.85-.9,3.24-.58,8.18-.17,10.14,2.91s1.48,8,.08,11.35c-1.19,2.84-3.35,5.22-5.82,7.02-4.91,3.57-10.89,5.49-16.78,6.69s-11.6,1.47-17.7,.74c-3.01-.36-5.97-1.12-8.98-1.46-1.72-.19-3.93,.2-3.93,2.39s2.22,4.12,3.69,5.44c2.9,2.61,6.18,4.82,9.51,6.84,8.04,4.89,16.75,8.81,25.95,10.85,8.49,1.88,17.3,2.78,25.99,2.67,6.98-.09,13.96-1.27,20.61-3.4,7.15-2.28,14.2-5.92,19-11.84,1.23-1.52,2.32-3.14,3.21-4.88s1.37-3.92,2.43-5.62c1.64-2.63,5.91-4.68,8.51-2.22s3.7,6.7,3.23,10.02c-.42,2.96-2.19,5.63-3.49,8.26-2.14,4.35-3.77,8.95-5.07,13.62-1.22,4.36-2.22,9.37-.59,13.76,1.07,2.89,3.21,4.66,5.4,6.72,1.85,1.75,3.71,3.48,5.58,5.22,1.06,.99,2.26,1.99,3.13,3.14,1.79,2.4,1.25,6.72-.85,8.98-2.76,2.97-7.27,1.16-10.23,3.58-1.34,1.1-1.79,2.68-1.49,4.35,.37,2.03,.44,3.65-.68,5.52s-3.05,3.46-5.18,4.08c-2.46,.71-4.96-.05-7.32-.8-4.55-1.44-8.64-3.71-12.44-6.59-1.58-1.2-3.12-2.47-4.6-3.78-1.19-1.06-2.31-2.23-3.61-3.17-3.29-2.36-7.94-2.19-11.65-1.06-1.77,.54-3.44,1.36-5.18,2.01-2.24,.83-4.54,1.49-6.87,2.03-7.4,1.69-15.09,2.14-22.66,1.84-7.25-.29-13.92-2.17-20.52-5.1-4.52-2.01-10.02-5.13-14.91-2.43-2.44,1.35-3.42,3.51-4.62,5.88-1.97,3.89-5.24,6.82-8.6,9.51-4.04,3.25-8.47,6.41-13.22,8.53-3.94,1.76-8.5,1.75-11.66-1.54-1.5-1.57-1.88-3.36-1.52-5.45s.29-4.07-1.36-5.57c-3.28-2.98-7.63-1.36-11.44-.95-2.08,.23-4.29-.16-4.97-2.42-.59-1.94,.11-4,1.3-5.55,1.46-1.89,3.53-3.22,5.45-4.59,2.16-1.54,4.27-3.17,6.31-4.87s4.05-3.54,5.96-5.43c1.73-1.72,3.5-3.49,4.76-5.6,2.21-3.7,2.5-8.98-1.28-11.78s-8.74-1.41-12.86-.8c-5.73,.85-11.5,1.45-17.29,1.82-5.7,.36-11.41,.5-17.12,.38-5.28-.11-10.59-.49-15.71-1.85-10.21-2.71-17.75-10.19-24.82-17.64-3.17-3.35-6.23-7.23-6.84-11.94-.52-3.98,.59-8.08,2.84-11.39,4.11-6.05,12.84-8.4,19.61-5.74,1.46,.57,2.83,1.47,3.82,2.7,.93,1.16,1.24,2.64,2.27,3.72,2.03,2.12,5.37,2.35,8.12,2.14,5.54-.42,10.77-2.5,16.09-3.94,3.85-1.04,7.57-2.43,11.08-4.34,4.69-2.56,9.11-5.7,13.46-8.78,5.2-3.67,10.43-7.49,15.05-11.88,1.4-1.33-.72-3.45-2.12-2.12Z"/></g><g><g><path d="M142.71,27.07c-4.39,.25-8.8,.39-13.18,.79-6.16,.56-11.61,2.73-15.66,7.68-.5,.61-1.17,1.08-1.76,1.6-1.16,1.02-2.41,1.32-3.85,.57-.89-.46-1.81-.86-2.75-1.21-5.22-1.93-5.48-2.16-3.21-7.02,5.54-11.88,14.76-18.64,28.04-19.41,1.99-.12,4.01-.02,6,.08,6.81,.36,13.61,.23,20.39-.36,3.57-.31,7.09-1.21,10.62-1.9,1.52-.3,2.66,.05,3.66,1.33,.97,1.24,1.31,2.5,.73,3.9-1.35,3.27-3.74,5.59-6.8,7.33-7.56,4.28-12.99,5.9-22.23,6.62Z"/><path class="cls-5" d="M253.32,119.71c-.25-.91-.63-1.64-1.11-2.27-.82-1.08-1.92-1.88-3.11-2.84-4.77-3.83-8.91-8.44-12.23-13.59,1.99-2.89,3.62-6.07,4.9-9.54,.48-1.29,.75-2.73,.77-4.1,.05-2.58-1.92-4.62-4.51-4.64-5.86-.04-12.18,2.83-17.93,3.69-8.95,1.34-18,.86-27,1.43-13.33,.84-31.98-3.24-43.54-9.95-9.32-5.41-17.54-11.96-22.76-21.68-3.01-5.61-10.8-24.32-17.97-24.81-8.3-.57-15.9,4.09-21.88,9.59-4.19,3.85-9,6.68-13.78,9.58-9.91,6.03-20.8,9.36-32.24,10.81-5.56,.7-11.19,1.09-16.79,1.06-3.72-.02-10.99,.59-10.97,5.7,.02,4.66,1.98,8.76,5.3,11.7,2.79,2.47,6.31,4.43,9.84,5.67,7.93,2.78,15.94,5.52,24.5,5.59,3.2,.03,6.41-.07,9.62-.05,10.49,.06,20.78-1.22,30.85-4.25,3.53-1.06,4.04-.75,5.66,2.45,.18,.36,.4,.7,.54,1.08,1.62,4.57,4.09,8.69,7.21,12.39-.12,.33-.26,.64-.41,.9-2.91,4.94-6.74,9.41-11.04,13.2-2.72,2.39-5.63,4.37-8.74,6.19-1.48,.87-5.32,2.81-3.99,5.01,.97,1.6,3.83,1.79,5.47,1.6,1.45-.16,2.86-.54,4.31-1.01,5.54-1.82,10.63-5.41,15.19-8.93,2.82-2.17,5.05-5.06,7.3-7.78,.27-.32,.53-.65,.78-.98,1.28,.95,2.62,1.85,3.99,2.71-.34,.77-.64,1.5-.94,2-1.59,2.63-3.43,5.1-5.37,7.47-3.22,3.94-6.89,7.21-10.31,10.95-1.07,1.18-2.3,2.25-3.2,3.54-.76,1.1-1.87,2.63-.95,4.04,.59,.9,1.96,1.18,3.38,1.17,1.41-.01,2.86-.31,3.68-.55,2.05-.62,3.92-1.74,5.7-2.94,5.48-3.68,10.4-8.2,14.52-13.36,1.66-2.08,3.21-4.29,4.41-6.65,17.1,7.25,37.53,9.47,52.88,7.07,10.1-1.58,21.19-4.15,31.47-8.66,1.29,1.94,2.75,3.75,4.09,5.67,2.9,4.14,6.55,8.23,11.12,10.7,1.21,.66,5,2.14,7.97,2.37,2.52,.19,4.45-.53,3.69-3.44-.6-2.31-4.26-3.97-5.98-5.46-4.58-3.98-8.52-8.68-11.63-13.88-.1-.17-.2-.35-.3-.54,.14-.08,.27-.16,.41-.24,2.38-1.45,4.55-3.06,6.51-4.84l.06,.07c3.16,3.48,6.18,7.15,9.94,10.01,2.98,2.27,6.28,5.52,10.33,5.38,2.31-.08,2.82-1.83,2.29-3.79Z"/><path class="cls-5" d="M250.36,62.85c-.09,.83-.05,2.27-.42,3.58-.92,3.26-1.75,6.58-3.12,9.66-1.94,4.37-4.33,8.54-6.53,12.8-.36,.7-1.09,1.51-.96,2.11,.67,3.02-1.59,3.16-3.43,3.67-.48,.13-1.53-.11-1.6-.39-.62-2.2-2.61-2.91-4.16-4.11-1.74-1.35-1.15-3.01,.42-4.48,1.04-.97,2.32-1.61,3.48-2.42,3.17-2.22,5.29-5.59,7.33-8.88,1.43-2.3,2.63-4.72,3.78-7.16,1-2.13,1.17-4.86,2.63-6.74,1.46-1.87,2.74,.81,2.58,2.34Z"/><path d="M159.16,50.95c-8.57,1.17-17.15,1.11-25.72-.04-1.59-.21-3.16-.54-4.75-.72-3.7-.41-7.13,.09-10.15,2.58-1.92,1.59-2.05,1.45-4.03-.11-.47-.37-.94-.75-1.38-1.16-1-.95-1.98-1.91-2.96-2.88-1.94-1.92,6.38-8.7,7.37-9.4,4.29-3.07,9.44-5.06,14.73-5.3,6.63-.3,13.12,.01,19.7,1.1,8.93,1.48,17.96,1.56,26.43-2.64,1.63-.81,3.1-.49,4.41,.72,.96,.89,1.48,2.04,.93,3.23-.65,1.43-1.48,2.84-2.46,4.07-4.32,5.39-10.13,8.35-16.76,9.82-1.75,.39-3.57,.49-5.36,.72Z"/><path d="M7.76,62.62c-.09-.84-.09-1.69,.03-2.53,.5-3.57,3.89-5.43,7.11-6.14,4.06-.89,11.24-1.07,12.21,4.36,.87,4.91-3.74,9.7-5.06,14.16-.26,.87-.43,1.79-.88,2.58-2.09,3.76-6.52-.26-8.16-2.16-2.5-2.9-4.82-6.38-5.25-10.28Z"/><path d="M88.85,47.26c-.62,3.03-1.3,9.95,3.65,9.84,3.72-.08,5.29-5.76,5.41-8.76,.03-.87-1.32-1.07-1.36-.19-.09,2.31-.96,4.83-2.34,6.69-.84,1.13-2.11,1.03-3.17,.32-.9-.61-1.11-1.71-1.26-2.7-.25-1.65,.09-3.4,.42-5.02,.18-.87-1.18-1.05-1.36-.19h0Z"/><g><path class="cls-4" d="M155.37,80.81c-3.55,14.55-9.35,28.55-17.21,41.34,1.8,.58,3.61,1.11,5.45,1.59,7.64-12.72,13.33-26.56,16.91-40.93-1.78-.62-3.5-1.29-5.14-2Z"/><path class="cls-4" d="M168.99,85.31c-3.22,13.97-7.61,27.66-13.12,40.91,1.9,.27,3.79,.49,5.66,.66,5.37-13.1,9.66-26.63,12.83-40.42-1.8-.33-3.59-.72-5.37-1.15Z"/><path class="cls-4" d="M184.97,87.81c-2.04,13.27-4.93,26.41-8.66,39.32,2.01-.12,3.96-.32,5.84-.58,3.56-12.68,6.33-25.58,8.29-38.59-1.76,.03-3.59-.02-5.46-.14Z"/><path class="cls-4" d="M205.88,87.45c-.28,11.61-1.36,23.2-3.22,34.67,1.93-.57,3.86-1.2,5.78-1.88,1.66-10.93,2.64-21.95,2.9-32.99-1.82,.09-3.64,.15-5.46,.19Z"/></g></g><path class="cls-3" d="M97.57,66.42c.5,3.84-3.33,7.5-8.54,8.18-5.22,.68-9.85-1.89-10.35-5.73s3.33-7.5,8.54-8.18c5.22-.68,9.85,1.89,10.35,5.73Z"/></g></g></g></svg>