<?xml version="1.0" encoding="UTF-8"?><svg id="Layer_2" xmlns="http://www.w3.org/2000/svg" viewBox="0 0 268.16 196.24"><defs><style>.cls-1{fill:#e9ca87;}.cls-2{fill:#fff;}.cls-3{fill:#ffba69;}.cls-4{fill:#e47349;}.cls-5{fill:#bac9ca;}.cls-6{fill:#3ca5ac;}</style></defs><g id="Layer_1-2"><g><g><path class="cls-2" d="M54.25,33.35c-1.21-9.12-1.83-12.16-3.99-16.87-2.41-5.27-7.1-9.95-12.88-10.46-6.05-.53-11.72,3.69-14.73,8.97s-3.94,11.36-4.77,17.37c-1.79,12.88,.89,26.35,5.9,38.35,4.31,10.33,12.2,17.29,16.72,27.53,4.76,10.8,.89,24.26,.34,36.05-.11,2.31-.26,4.76-1.58,6.65-2.66,3.8-7.99-.44-12.53-1.39-18.68-3.93-29.5,.98-23.6,16.72,2.07,5.51,10.52,7.89,10.82,13.77,.1,2.04-.42,5.9-.98,7.87-2.19,7.69,4.24,12.16,11.8,14.75,7.56,2.59,21.09,2.94,28.52,0,7.43-2.94,12.95-7.68,20.65-9.83,24.71-6.9,28.52,13.77,66.87-.98,.69-.27,37.37-12.78,55.07-8.85,1.77,.39,21.84,.41,24.58-3.93,3.14-4.97-3.54-12.59,2.95-16.72,10.82-6.88,9.95-19.89,3.93-24.58-7.65-5.96-15.76-3.93-21.63-9.83-4.83-4.85,1.12-23.4,3.93-29.5,3.08-6.66,42.29-2.95,50.15-21.63,3.79-8.99,12.11-40.81,2.15-46.92-7.1-4.36-18.16-4.45-24.06,.33-1.86,1.51-4.55,7.68-6.61,7.26-2.07-.43-1.59-7.11-3.36-10.42,0,0-3.56-6.66-10.75-10.87-3.02-1.77-7.08-2.45-15.21-3.81-7.6-1.27-9.62-.87-11.11-.34-1.04,.36-5.98,2.23-8.05,6.92-2.34,5.3,1.24,9.07-1.13,12.46-2,2.87-6.12,2.4-10.04,2.96-11.15,1.58-20.66,10.72-21.97,19.81-1.71,11.9-6.88,30.48,18.68,26.55,5.89-.91-12.01,10.68-20.65,12.78-4.53,1.11-18.27,5.99-37.37,5.9-8.18-.04-26.55,2.95-41.37-15.28-.91-1.12-11.25-14.81-14.69-40.76Z"/><path class="cls-3" d="M55.75,33.35c-1.27-9.52-2.75-20.47-11.4-26.33-4.68-3.17-10.51-3.27-15.41-.5-5.24,2.97-8.46,8.24-10.22,13.86-1,3.18-1.56,6.48-2.04,9.77s-.82,6.38-.86,9.61c-.09,6.76,.9,13.54,2.65,20.06s3.97,12.55,7.36,18.14c3.13,5.15,6.98,9.81,10.13,14.94,1.61,2.62,3.13,5.37,4.05,8.32s1.27,6.04,1.32,9.13c.1,6.43-.99,12.8-1.63,19.17-.16,1.59-.28,3.17-.36,4.76-.08,1.49-.13,3.03-.64,4.45-.35,.98-.91,2.01-2.01,2.22s-2.42-.3-3.45-.68c-2.57-.93-4.97-1.99-7.68-2.5s-5.27-.86-7.93-.99c-6.79-.33-15.82,1.2-17.37,9.15-.76,3.89,.14,8.68,2.05,12.13,2.18,3.92,6.66,5.68,9.13,9.31,1.32,1.94,1.06,4.18,.77,6.41-.32,2.5-1.32,4.98-1.19,7.52,.27,4.94,4.03,8.44,8.17,10.6,4.57,2.38,9.55,3.54,14.65,4.03s10.89,.4,16.15-.76c5.63-1.25,10.54-4.46,15.55-7.18,4.55-2.47,9.34-4.32,14.5-4.93,6.4-.76,12.33,.8,18.4,2.63,6.79,2.06,13.6,3.44,20.74,2.93,5.21-.37,10.34-1.5,15.32-3.05,2.87-.89,5.65-2.01,8.5-2.94,6.51-2.12,13.12-3.96,19.79-5.49,8.78-2.02,17.9-3.77,26.95-3.42,2.82,.11,5.54,.81,8.35,.87,3.51,.08,7.03-.07,10.52-.41s7.38-.77,10.64-2.36c3.75-1.82,3.82-5.9,3.24-9.56-.33-2.04-1-4.38-.28-6.4,.36-.99,1.08-1.69,1.93-2.27,1.13-.77,2.23-1.56,3.23-2.49,3.43-3.21,5.56-7.64,5.82-12.34,.21-3.85-.91-7.88-3.46-10.81-3.69-4.24-9.65-5.55-14.81-6.97-2.64-.73-5.31-1.62-7.42-3.45-1.27-1.11-1.82-2.3-2.04-4-.54-4.15,.45-8.56,1.46-12.55s2.17-7.76,3.8-11.41c.1-.22,.2-.44,.32-.66,.19-.35-.17,.17,.11-.14,.11-.13,.24-.24,.37-.34-.31,.26,.24-.15,.34-.21,.92-.55,1.57-.75,2.72-1.1,6.42-1.91,13.24-2.44,19.79-3.81,7.39-1.54,15.14-3.69,21.1-8.53,5.39-4.38,7.24-11.04,8.98-17.49,2.2-8.16,3.96-16.82,3.67-25.31-.12-3.44-.57-7.14-2.33-10.17-2.1-3.62-6.41-5.26-10.31-6.11-5.13-1.12-10.76-.87-15.55,1.41-1.95,.92-3.47,2.15-4.72,3.89-.64,.9-1.23,1.84-1.87,2.76-.51,.74-1.18,1.34-1.71,2.04,0-.01-.28,.22-.3,.16,.03,.09,.63-.65,.4,.06,.08-.25-.17,.81-.04-.07,.01-.09-.09-.14-.12-.21-.42-1.04-.56-2.22-.74-3.31-.34-2.1-.63-4.28-1.64-6.18-1.54-2.91-3.91-5.57-6.34-7.76-1.88-1.69-3.99-3.3-6.31-4.34-1.84-.82-3.79-1.33-5.75-1.75-2.8-.59-5.62-1.05-8.44-1.51-2.61-.43-5.26-.87-7.91-.9s-5.01,.72-7.28,2.08c-4.59,2.76-7.22,7.42-6.56,12.8,.25,2.02,1.1,4.62-.66,6.2s-4.89,1.39-7.14,1.62c-5.77,.59-11.12,2.89-15.61,6.54-4.03,3.28-7.4,7.8-8.67,12.89-.79,3.16-1.13,6.55-1.55,9.77-.72,5.66-1.09,12.66,3.34,17.02,2.57,2.53,6.16,3.49,9.66,3.74,2.52,.19,5.04,0,7.54-.34,.41-.05,.82-.14,1.23-.17-.06,0-.27,.07-.01,0,.42-.09,.19,.05,0-.07-.8-.51-.61-1.04-.62-1.57,0,.02-.09,.14-.09,.14-.1,.01,.14-.14-.1,.11-2.17,2.31-5.23,3.96-7.94,5.54-3.54,2.05-7.25,4.02-11.16,5.29-7.4,2.4-15.18,4.19-22.87,5.26-5.73,.79-11.44,.91-17.21,1.05-3.32,.08-6.63,.23-9.95,.03-9.84-.6-18.87-4.47-25.81-11.54-1.05-1.07-2.02-2.22-3-3.36-.08-.1-.27-.35,.07,.1-.07-.1-.15-.2-.22-.3-.44-.61-.87-1.22-1.28-1.85-1.65-2.54-3.09-5.22-4.38-7.96-4.46-9.46-7.1-19.74-8.49-30.08-.26-1.9-3.15-1.09-2.89,.8,1.43,10.66,4.23,21.17,8.85,30.91,2.21,4.66,4.79,9.11,8.31,12.91,6.92,7.46,16,11.96,26.07,13.12,3.5,.4,7.01,.39,10.52,.28,4.85-.15,9.7-.12,14.54-.56,8.86-.82,17.35-2.86,25.9-5.2,7.2-1.97,14.1-5.56,20.15-9.93,1.31-.94,5.37-3.56,3.31-5.58-1.12-1.1-3.24-.33-4.54-.19-2.33,.25-4.72,.35-7.05,.05-2.83-.37-5.76-1.48-7.41-3.9-1.52-2.23-1.9-5.01-1.92-7.69-.03-2.99,.38-5.97,.84-8.92,.61-3.91,1.07-7.7,3.15-11.16,2.74-4.56,7.09-8.16,11.95-10.27,2.7-1.18,5.55-1.78,8.48-2.03,2.45-.21,5.17-.3,7.27-1.74,1.94-1.34,2.87-3.51,2.75-5.83-.12-2.46-.92-4.82-.26-7.27,.97-3.63,4.41-6.35,7.81-7.4,1.14-.35,1.87-.37,3.14-.34,2.8,.06,5.57,.56,8.32,1.03,4.2,.71,9,1.1,12.83,3.1,4.05,2.11,7.55,5.62,10.04,9.43,1.87,2.86,1.69,6.23,2.63,9.41,.49,1.65,1.64,3.4,3.64,2.9,1.79-.45,3.01-2.42,3.97-3.84,1.07-1.56,1.96-3.27,3.58-4.33,2.13-1.4,4.64-2.16,7.15-2.46,4.78-.57,10.64,.21,14.63,3.1,2.2,1.6,3.02,4.79,3.39,7.43,1.12,8.05-.57,16.62-2.46,24.43-.85,3.51-1.82,7-3.02,10.41-.99,2.82-2.22,5.39-4.36,7.54-5.11,5.16-12.71,7.32-19.59,8.87s-13.61,2.18-20.29,3.85c-2.04,.51-4.43,1.14-5.98,2.66-.83,.81-1.2,1.9-1.63,2.95-.73,1.77-1.37,3.57-1.96,5.39-1.4,4.32-2.52,8.77-3.02,13.3-.38,3.41-.56,7.75,1.83,10.53,3.57,4.16,9.38,4.96,14.32,6.44,4.42,1.33,9.09,3.54,10.73,8.16,1.33,3.72,.95,7.94-.89,11.43-1.12,2.13-2.73,3.99-4.66,5.44s-3.92,2.65-4.64,5.21c-.6,2.12-.21,4.36,.15,6.48s.84,4.24-.1,6.18c-.2,.41-.38,.55-.78,.81-.54,.34-1.11,.6-1.71,.81-1.62,.57-3.32,.9-5.01,1.17-3.72,.59-7.53,.78-11.29,.82-1.24,.01-2.49,.01-3.72-.06-.17-.01-.35-.03-.52-.04-.43-.03,.31,.06,0,0-.95-.2-1.9-.36-2.87-.48-8.67-1.11-17.71,.4-26.2,2.11-7.6,1.53-15.11,3.52-22.5,5.83-6.7,2.09-13.17,4.75-20.11,5.99-7.45,1.33-14.78,.85-22.04-1.18-5.88-1.64-11.61-3.76-17.78-3.92-3.78-.1-7.59,.47-11.23,1.5-5.84,1.64-10.88,4.98-16.21,7.76-2.49,1.3-5.03,2.45-7.78,3.09-2.48,.58-5.02,.85-7.57,.95-5.17,.22-10.51-.14-15.5-1.56-4.24-1.21-9.55-3.37-11.68-7.54-1.07-2.09-.78-4.15-.24-6.33,.6-2.44,1.04-5.19,.89-7.71-.28-4.57-4.22-7.17-7.36-9.91-1.67-1.46-3.07-2.95-3.8-5.08-.68-1.96-1.21-4.01-1.26-6.1-.07-2.87,.95-5.55,3.45-7.12,3.16-1.99,7.22-2.18,10.84-2.04,2.51,.1,4.99,.43,7.46,.89,2.71,.51,5.1,1.57,7.68,2.5,2.12,.77,4.68,1.35,6.69-.04,2.29-1.58,2.89-4.62,3.1-7.21,.25-3.02,.4-6.04,.75-9.06,.38-3.28,.81-6.56,1.08-9.86,.5-5.99,.51-12.28-1.65-17.99s-5.81-10.69-9.31-15.61c-3.59-5.03-6.8-10.11-9.01-15.91-2.36-6.22-4.09-12.73-4.85-19.35s-.37-13.28,.74-19.91c1-5.94,2.63-12.18,7.05-16.54,3.99-3.93,9.77-5.62,14.84-2.69,8.38,4.84,9.72,15.71,10.86,24.34,.11,.81,.61,1.49,1.5,1.5,.73,0,1.61-.7,1.5-1.5Z"/></g><g><g><g><path d="M176.36,38.84c-.49,5.65-.67,10.28-2.37,14.67-1.12,2.89-2.8,5.47-5.08,7.39-2.1,1.77-4.87,2.66-7.73,2.22-.97-.15-1.98-.83-2.7-1.53-2.77-2.7-3.56-6.09-2.86-9.8,.91-4.81,3.27-9,6.16-12.84,2.19-2.9,4.71-5.55,7.1-8.31,.35-.4,.71-.8,1.14-1.1,1.84-1.31,4.77-.76,5.2,1.91,.44,2.8,.87,5.6,1.15,7.38Z"/><path d="M219.82,17.81c1.62,3.05,1.42,5.72-.51,7.88-3.31,3.7-6.94,5.24-12.38,2.93-5.56-2.36-10.13-6.19-14.81-9.83-2.37-1.84-2.09-4.93,.21-6.9,1.89-1.63,4.12-2.52,6.57-2.65,5.33-.28,10.43,.71,15.25,3.07,2.68,1.31,4.39,3.53,5.68,5.49Z"/><path d="M193.32,12.99c1.81-.43,1.58-.18,3.13,1.22,1.57,1.41,1.63,3.04,1.75,4.77,.46,6.38,1.23,12.72,2.61,18.98,.13,.58,.07,1.22,.03,1.83-.07,1.16-.36,1.65-1.64,.86-.48-.3-1.51,.03-2.18,.33-1.83,.83-2.23,.71-2.74-1.24-.41-1.55-.77-3.11-1.15-4.66-1.43-5.87-2.07-11.86-2.77-17.84-.35-3.02,.05-3.55,2.93-4.24Z"/><path d="M172.22,29.81c1.47-.35,2.74,.37,3.85,1.51,3.6,3.68,7.24,7.32,10.8,11.03,1.87,1.95,2.96,4.38,3.75,6.95,.36,1.18,.76,2.24-.88,2.78-.22,.07-.29,.59-.45,.89-.38,.69-.8,.9-1.41,.19-.26-.3-.79-.79-.93-.71-1.56,.87-1.96-.33-2.63-1.28-4.32-6.09-9.27-11.62-14.88-16.55-.78-.69-1.21-2.54-.83-3.52,.35-.89,1.48-1.44,2.88-1.38,.18,0,.35,.04,.73,.09Z"/><path class="cls-1" d="M31.71,19.87c.51-1.49,1.16-2.87,2.04-3.86,2.31-2.61,7.02-1.1,8.24,1.94,.92,2.3,1.63,4.72,2.1,7.15,1.37,7.07,2.29,14.23,3.94,21.23,1.22,5.17,3.3,10.15,5.04,15.2,1.59,4.63,3.33,9.19,5.58,13.55,4.59,8.9,11.51,16.85,21.03,20.45,6.61,2.5,13.46,4.07,20.39,5.23,7.86,1.32,16.06,.43,23.96-.28,8.68-.78,17.28-2.29,25.62-4.83,4.95-1.51,9.64-3.65,14.2-6.09,4.37-2.34,7.61-8.19,10.02-12.3,2.97-5.07,5.32-10.5,7.11-16.09,2.96-9.23,3.97-15.7,13.43-20.83,4.29-2.33,9-3.59,13.94-4.2,7.29-.9,14.64-.8,21.95-1.4,6.81-.56,13.18-1.72,19.97,.48,3.76,1.22,7.54,3.73,7.5,8.08-.13,12.77-7.12,23.6-18.61,28.93-9.4,4.36-25.58,6.66-39.87,5.94-.07,.44-.1,.88-.14,1.33-.65,7.61-2.66,14.99-4.77,22.3-1.99,6.88-3.54,13.93-6.87,20.32-.46,.88-3.32,8.17-3.77,8.25,.94-.17,1.92-.23,2.82-.52,4.46-1.45,9.01-1.76,13.68-1.86,4.15-.09,8.18,.11,12.12,1.36,3.15,1,9.64,3.81,11.03,7.19,1.96,4.77-4.29,7.88-8.11,6.61-4.13-1.37-8.35-2.58-12.63-3.37-3.02-.56-6.2-.38-9.3-.4-6.49-.04-12.4,2.22-18.21,4.79-.56,.25-1.11,.6-1.53,1.03-1.66,1.74-3.28,3.51-4.88,5.3-.2,.22-.22,.6-.33,.9,.33,.03,.7,.17,1,.09,3.86-1.13,7.87-1.38,11.83-1.91,7.49-1,14.97-1.04,22.2,1.39,2.82,.94,5.61,2.04,8.16,3.58,1.97,1.19,3.61,4.29,2.91,6.58-.92,3.01-6.3,3.81-8.85,3.01-8.7-2.73-17.63-1.84-26.51-1.38-3.47,.18-6.94,.4-10.38,.84-3.35,.43-6.72,.91-9.96,1.82-2.59,.73-5.08,.96-7.62,.31-1.17-.3-2.06-.05-3.04,.42-10.61,5.18-21.27,7.63-32.93,8.88-10.76,1.15-26.01,.43-35.69-4.98-1.18-.66-2.19-.55-3.21,.21-1.28,.95-2.52,1.98-3.85,2.86-7.02,4.62-14.48,8.41-22.41,11.18-6.03,2.1-11.93,1.47-18,1.84-3.78,.22-6.99-1.21-9.94-3.31-1.37-.98-2.7-2.37-2.5-4.18,.21-1.9,2.11-2.62,3.61-3.19,3.35-1.27,6.88-1.73,10.48-1.77,1.94-.02,3.88-.38,5.82-.6,2.56-.29,5.12-.55,7.67-.91,4.43-.63,8.66-1.92,12.59-4.11,2.1-1.17,4.26-2.21,6.35-3.4,1.28-.73,1.22-.89,.15-1.87-1.9-1.74-3.82-3.47-5.61-5.32-.71-.74-1.24-.74-2.07-.33-5.2,2.62-10.86,4.14-16.62,4.87-7.99,1.01-14.98,1.37-22.5-1.42-3.04-1.13-6.06-2.64-8.29-5.19-.74-.85-1.44-1.83-1.85-2.87-1.24-3.14,.24-4.75,3.01-5.65,2.38-.78,4.78-.3,7.1,.4,3.91,1.18,7.78,2.47,11.68,3.66,4.06,1.24,8.11,1.64,12.38,.77,3.07-.63,6.09-1.26,8.95-2.56,2.05-.93,2-.91,1.22-2.9-2.64-6.78-4.3-13.74-3.71-21.08,.4-4.96,.6-9.95,1.26-14.88,.55-4.13,1.45-8.24,2.56-12.25,.49-1.77,.18-2.82-1.04-3.97-1.87-1.77-3.61-3.66-5.47-5.44-5.73-5.48-10.08-14.47-12.92-21.77-5.19-13.33-7.24-26.08-4.29-40.21,.39-1.88,.83-4.48,1.62-6.8Z"/><path class="cls-6" d="M190.28,140.58c-2.11,0-4.22,.02-6.33,.21-.11,0-.22,.02-.31,.08-.08,.05-.13,.13-.18,.21-1.1,1.72-2.2,3.26-2.9,5.21-.21,.58-.38,2.14-.92,2.47,1.43-.84,17.21,.47,17.21,.23-.18,4.6-.6,9.22-1.75,13.71-.04,.16-.09,.33-.22,.43-.13,.1-.31,.11-.48,.1-2.1,0-4.2-.13-6.29,.02-2.79,.2-5.57,.4-8.35,.69-2.82,.29-5.61,.91-8.42,1.36-2.1,.34-4.23,.56-6.31,1.01-2.17,.47-4.29,1.14-6.43,1.72-4,1.08-7.88,2.56-11.77,3.97-12.65,4.59-25.96,7.55-39.47,7.06-2.93-.1-5.87-.69-8.22-2.56-.3-.24-.59-.56-.63-.95-.02-.23,.05-.46,.12-.68,3.05-9.58,2.77-20.53,3.61-30.49,1.12-13.33,1.64-26.44,1.71-39.81,0-1.42-.7-4.34,.12-5.63,1.01-1.59,3.37-1.22,4.95-1.24,4.07-.04,8.13-.45,12.17-.93,4.18-.5,8.15-.3,12.23-1.25,4.76-1.11,9.5-1.33,14.21-2.9,4.47-1.49,8.97-2.82,13.01-5.31,1.18-.73,2.59-2.36,4.06-2.45,1.4-.09,3.46,1.39,4.81,1.92,7.1,2.82,14.19,5.65,21.33,8.38,1.22,.46,2.62,.45,3.93,.65,.7,.1,1.43,.11,2.11,.29,.88,.24,1.43,.87,1.07,1.81-.94,2.48-1.01,5.12-2.03,7.65-2.07,5.13-5.16,15.62-6.58,20.96,3.69-.51,11.69,.22,16.4,1.16,.09,.02,.18,.04,.24,.11,.07,.08,.07,.2,.07,.3-.23,4.39-.33,8.57-2.29,12.66-3.68-.02-11.31-.16-13.49-.16Zm3.81,11.99s-.09-.13-.14-.13-.1,.08-.15,.13c.05,.05,.09,.13,.14,.13,.05,0,.1-.08,.15-.13Z"/><path d="M250.82,25.88c4.28-.01,9.25,1.69,8.65,6.63-.56,4.58-2.85,8.15-6.49,10.89-1.47,1.1-3.78,3.31-5.66,2.26-1.96-1.1-3.6-2.71-5.24-4.21-1.84-1.68-3.53-3.46-4.45-5.88-1.02-2.71-.28-5.11,2.09-6.69,2.55-1.71,5.58-2.24,8.55-2.77,.78-.14,1.64-.22,2.54-.22Z"/><path d="M249.54,53.2c.79-6.15,.41-12.3-1.1-18.31-.32-1.28-2.3-.74-1.97,.54,1.47,5.84,1.8,11.79,1.03,17.76-.17,1.31,1.88,1.29,2.05,0h0Z"/><path d="M245.6,54.72c2.15-.04,4.13,.67,5.73,2.11,.98,.88,2.43-.56,1.45-1.45-2-1.8-4.49-2.76-7.18-2.71-1.32,.02-1.32,2.07,0,2.05h0Z"/><path d="M196.78,48.89c.86,2.76,1.84,8.21,5.94,7.5,4.46-.78,3.47-7.03,2.89-10.16-.18-.97-1.66-.56-1.48,.41,.41,2.2,1.51,7.27-1.46,8.21-3,.95-3.84-4.55-4.4-6.37-.29-.94-1.78-.54-1.48,.41h0Z"/><path d="M209.7,45.09c.39,1.88,.84,3.71,1.9,5.34,.72,1.1,2.32,2.63,3.8,2.12,3.56-1.22,3.43-6.53,2.5-9.42-.3-.94-1.78-.54-1.48,.41,.38,1.19,.53,2.35,.49,3.6-.04,1.14-.57,4.16-2.3,3.92-1.11-.15-1.93-1.71-2.37-2.59-.58-1.16-.8-2.52-1.06-3.77-.2-.97-1.68-.56-1.48,.41h0Z"/></g><g><path class="cls-5" d="M146.86,155.72c.04,1.59-.28,2.71-1.24,3.46-.77,.6-1.65,.46-2.48-.08-1.4-.92-1.46-1.48-.28-2.83,.29-.33,.54-.7,.77-1.08,.49-.81,1.26-1.1,2.04-.7,.56,.28,.92,.94,1.19,1.24Z"/><path class="cls-5" d="M116.42,114.87c.03,1.11-.53,2.23-1.48,3.03-.86,.73-1.57,.1-2.26-.56-.82-.78-1.12-1.63-.52-2.57,.36-.57,.97-1.01,1.53-1.42,1.12-.81,2.54-.11,2.74,1.51Z"/><path class="cls-5" d="M110.34,110.75c-1.21,.1-2.69-1.59-2.32-2.36,.42-.86,1-1.68,1.65-2.38,.61-.65,2.02-.47,2.27,.36,.27,.87,.31,1.97,0,2.79-.27,.72-1.18,1.2-1.6,1.59Z"/><path class="cls-5" d="M124.78,138.22c.58,.34,.86,.51,1.15,.67,.44,.24,.87,.55,1.34,.66,1.16,.28,1.64,.91,1.4,2.11-.18,.9-.05,2.47-.45,2.61-1.25,.44-1.51-1.16-2.28-1.8-.77-.64-1.31-1.64-1.73-2.58-.16-.35,.31-.98,.57-1.67Z"/><path class="cls-5" d="M127.91,108.83c-.21,.31-.5,1.11-1.06,1.47-1.02,.65-2.18,1.11-3.32,1.52-.76,.27-1.37-.39-1.17-1.19,.12-.5,.26-1.14,.62-1.4,.97-.72,2.02-1.39,3.13-1.87,.9-.39,1.61,.12,1.81,1.48Z"/><path class="cls-5" d="M115.72,155.82c2.52-.32,3.55,.3,3.76,1.78,.14,.98-.51,1.86-1.47,1.73-.84-.12-1.73-.43-2.4-.92-.57-.41-.86-1.21-1.27-1.83,.64-.35,1.28-.7,1.39-.76Z"/><path class="cls-5" d="M150.66,115.69c.14,.9-.84,2.07-1.84,2.2-1.23,.16-2.7-.64-2.76-1.5-.07-.92,.85-2.26,1.65-2.44,1.05-.22,2.8,.81,2.95,1.74Z"/><path class="cls-5" d="M166.99,121.4c-.48-.21-.93-.27-1.09-.51-.62-.94-1.27-1.89-1.65-2.93-.14-.37,.31-1.17,.72-1.48,.69-.54,1.75-1.04,2.39-.3,.44,.52,.49,1.67,.26,2.39-.21,.66-.69,1.15-.28,1.91,.09,.18-.2,.56-.34,.92Z"/><path class="cls-5" d="M162.92,154.2c-1.06,.09-2.91-1.16-2.87-1.93,.03-.56,1.81-2.22,2.39-2.22,1.04,0,1.98,.94,2.05,2.05,.07,1.09-.63,2.03-1.57,2.11Z"/><path class="cls-5" d="M110.64,126.42c-.42,1.02-.71,2.06-1.27,2.92-.22,.34-1.06,.41-1.6,.36-.74-.06-1.08-.64-.85-1.35,.33-.99,.67-1.99,1.2-2.87,.18-.29,1.01-.42,1.42-.28,.4,.13,.65,.71,1.08,1.22Z"/><path class="cls-5" d="M136.38,105.06c1.48-.03,2.41,.5,2.46,1.4,.06,1.14-1.15,2.2-2.48,2.19-1.1-.01-1.87-.68-1.96-1.71-.1-1.13,.65-1.85,1.99-1.88Z"/><path class="cls-5" d="M178.49,129.77c.1,.97-.88,1.88-2.07,1.94-1.02,.05-1.95-.71-2.02-1.65-.09-1.17,.64-2.14,1.7-2.28,1.04-.13,2.28,.89,2.39,1.99Z"/><path class="cls-5" d="M129.63,169.17c-.8,.15-2.01-.69-2.19-1.52-.2-.94,.74-2.35,1.75-2.64,.8-.23,1.72,.43,1.9,1.36,.21,1.07-.6,2.63-1.46,2.79Z"/><path class="cls-5" d="M113.69,135.55c.24,1.62-.66,3.2-1.89,3.19-.78,0-1.27-.46-1.36-1.31-.15-1.43,.72-2.82,1.93-3.03,.79-.13,1.18,.21,1.32,1.15Z"/><path class="cls-5" d="M156.8,94.16c.94-.15,2.3,.76,2.43,1.61,.12,.78-1.04,2.02-2.02,2.16-1,.14-1.92-.53-2.12-1.54-.21-1.1,.51-2.05,1.7-2.24Z"/><path class="cls-5" d="M140.63,164.59c-1.97,.19-3.25-.56-3.22-1.66,.02-.81,.33-1.54,1.32-1.66,1.25-.15,2.87,.99,2.81,2.15-.03,.49-.72,.94-.9,1.16Z"/><path class="cls-5" d="M150.62,105.71c.03-.14,0-.45,.15-.62,.73-.88,1.59-.42,2.43-.18,.79,.22,1.42,.71,1.09,1.5-.35,.83-.94,1.94-1.65,2.16-1,.3-1.29-.91-1.57-1.76-.11-.33-.26-.66-.44-1.1Z"/><path class="cls-5" d="M163.99,132.36c-.82,.02-1.49-.84-1.5-1.89-.01-1.1,1.06-2.14,2.26-2.16,.87-.02,1.31,.48,1.36,1.31,.07,1.1-1.21,2.73-2.12,2.75Z"/><path class="cls-5" d="M152.07,125.67c-.27-.28-.91-.65-1.11-1.19-.34-.93,.77-2.52,1.65-2.61,1.04-.11,1.92,.59,2.02,1.59,.06,.67-1.32,2.05-2.56,2.22Z"/><path class="cls-5" d="M173.59,140.91c.1,.85-1.32,2.53-2.21,2.62-.78,.08-1.57-.57-1.63-1.35-.09-1.14,.66-2.15,1.71-2.29,1.11-.15,2.06,.3,2.14,1.01Z"/><path class="cls-5" d="M157.05,135.41c.05,.79-1.32,2.76-1.91,2.53-.69-.27-1.38-1-1.67-1.7-.36-.87,.76-1.95,1.89-2.06,.95-.09,1.64,.41,1.69,1.23Z"/><path class="cls-5" d="M136.64,123.94c1.3-.17,2.33,.48,2.48,1.5,.11,.76-.03,1.56-.17,2.33-.03,.16-.55,.4-.77,.35-1.16-.3-2.38-1.82-2.25-2.94,.06-.5,.54-.94,.71-1.23Z"/><path class="cls-5" d="M134.2,153.41c-.26,1.04-.45,1.88-.71,2.7-.05,.15-.48,.28-.69,.23-.77-.16-1.54-.37-2.28-.64-.17-.06-.35-.42-.33-.63,.13-1.37,2.05-2.61,3.4-2.2,.27,.08,.48,.4,.62,.52Z"/><path class="cls-5" d="M123.98,127.21c-.46-.12-1.17-.19-1.77-.49-.3-.15-.51-.68-.56-1.07-.02-.17,.45-.46,.75-.59,.55-.25,1.14-.43,1.72-.65,.85-.32,1.58-.3,1.92,.71,.32,.97-.18,1.51-1.03,1.83-.24,.09-.51,.13-1.02,.25Z"/><path class="cls-5" d="M180.35,115.88c.4,.04,.75,.08,1.11,.1,.84,.04,1.84,.2,1.71,1.19-.08,.6-.89,1.26-1.53,1.58-.85,.42-2.51-.71-2.62-1.7-.11-.97,.6-1.16,1.34-1.17Z"/><path class="cls-5" d="M166.66,110.26c-.76-.4-1.36-.59-1.77-.98-.49-.46-.18-.88,.3-1.27,.23-.19,.23-.63,.39-.94,.36-.72,1.03-1.13,1.68-.65,.46,.34,.92,1.19,.8,1.67-.18,.75-.86,1.38-1.39,2.16Z"/><path class="cls-5" d="M115.77,169.12c.17,.99-.22,1.56-1.13,1.69-1.13,.16-2.08-.42-2.14-1.38-.05-.85,.23-1.55,1.19-1.74,1.1-.21,1.89,.33,2.07,1.43Z"/><path class="cls-5" d="M154.32,159.57c-.28,.23-.65,.77-1.13,.88-1.29,.32-2.57-.47-2.67-1.47-.07-.78,.39-1.14,1.04-1.3,1.15-.28,2.55,.55,2.75,1.89Z"/><path class="cls-5" d="M114.77,148.14c-.01,.36-.01,.63-.04,.89-.05,.56-.12,1.11-.17,1.67-.7-.3-1.55-.44-2.05-.94-.81-.82-.25-2.44,.84-2.87,.76-.3,1.33,.25,1.42,1.26Z"/><path class="cls-5" d="M167.34,98.84c.12,.92-1.55,3.15-2.27,3.02-.42-.08-1.09-.6-1.08-.9,.03-.75,.17-1.73,.67-2.16,.5-.43,1.47-.34,2.24-.39,.16-.01,.34,.33,.44,.43Z"/><path class="cls-5" d="M180.6,109.84c-1.4,.13-2.67-.66-2.8-1.51-.11-.73,.56-1.36,1.51-1.43,1.09-.08,2.24,.82,2.09,1.79-.08,.48-.61,.89-.8,1.14Z"/><path class="cls-5" d="M133.1,117.06c.19,1.09-.9,2.27-1.97,2.36-.3,.02-.85-.52-.93-.89-.26-1.2,.33-2.16,1.31-2.1,.6,.03,1.18,.46,1.59,.63Z"/><path class="cls-5" d="M151.79,145.09c.16,1.48-1.25,1.12-1.96,1.56-.8,.5-1.3-.01-1.51-.8-.25-.94,.25-1.59,1.34-1.82,1.02-.22,1.9,.2,2.13,1.06Z"/><path class="cls-5" d="M132.21,134.58c-.2-.25-.87-.73-.8-1.04,.18-.77,.53-1.66,1.11-2.14,.52-.43,1.63,.59,1.75,1.5,.1,.77-.68,1.52-2.06,1.68Z"/><path class="cls-5" d="M142.8,140.05c.17,.86-.41,1.83-1.22,2.04-.75,.19-1.71-.4-1.81-1.12-.1-.76,.67-1.77,1.46-1.94,.72-.15,1.42,.3,1.57,1.01Z"/><path class="cls-5" d="M146.23,103.88c-.22-.47-.83-1.14-.71-1.63,.17-.67,.85-1.24,1.39-1.78,.09-.09,.7,.12,.85,.34,.45,.7-.24,2.78-.95,3.07-.08,.03-.18,0-.58,0Z"/><path class="cls-5" d="M161.56,139.63c.54,.29,1.16,.55,1.68,.95,.15,.11,.11,.75-.07,.95-.58,.67-1.39,.89-2.14,.38-.44-.3-.67-.91-1-1.38,.43-.25,.87-.51,1.52-.89Z"/><path class="cls-5" d="M148.05,128.17c.55,.55,1.3,.99,1.26,1.32-.09,.57-.66,1.06-1.03,1.59-.41-.51-.95-.97-1.17-1.55-.09-.25,.5-.75,.95-1.36Z"/></g></g><path class="cls-4" d="M220.67,62.16c.64,2.45-1.8,5.2-5.44,6.15-3.64,.95-7.11-.26-7.75-2.71-.64-2.45,1.8-5.2,5.44-6.15,3.64-.95,7.11,.26,7.75,2.71Z"/></g></g></g></svg>