<?xml version="1.0" encoding="UTF-8"?><svg id="Layer_2" xmlns="http://www.w3.org/2000/svg" viewBox="0 0 505.17 269.11"><defs><style>.cls-1{fill:#e9ca87;}.cls-2{fill:#fff;}.cls-3{fill:#ffba69;}</style></defs><g id="Layer_1-2"><g><g><path class="cls-2" d="M114.51,200.25c-19.73,27.69-36.02,40.64-79.7,36.27-7.35-.73-27.67-14.36-32.32-20.09-4.65-5.73,6.12-19.22,17.8-14.96,4.97,1.81,10.15,2.98,15.1,4.84,29.13,10.98,46.61-5.75,55.33-26.31,4.87-11.48,4.91-24.39,8.28-36.39,8.48-30.15,37.35-50.92,67.54-59.24,34.7-9.57,71.51-5.73,107.29-1.81,11.78,1.29,23.56,2.58,35.34,3.87,1.37,.15,21.68-10.1,30.9-16.48,9.24-6.39,10.03-8.93,24.09-28.23,10.21-14.02,10.89-21.23,19.06-25.13,12.61-6.02,30.44-5.73,42.8,2.23,7.59,4.89,8.36,9.62,18.01,13.7,3.85,1.63,14.19,6,21.4,1.53,4.8-2.97,3.54-6.96,10.09-18.06,4.77-8.08,8.31-14.08,13.69-14.47,5.74-.41,11.27,5.73,13.44,11.21,1.29,3.25,1.66,6.96-1.24,18.78-3.37,13.7-5.05,20.55-9.48,27.67-3.32,5.33-9.37,15.04-20.5,20.21-14.87,6.91-21.98-2.11-45.92,4.31-13.19,3.54-17.15,7.91-18.26,9.24-5.21,6.19-3.93,11.63-9.47,18.88-5.01,6.56-19.44,6.93-21.9,10.3-8,11-12,25-37.73,47.11-8.5,7.3-6.51,66.96-2.27,70.89,4.82,4.47,9.11,.52,12.49,4.87,3.34,4.3,1.8,12.78-2.67,17.35-1.89,1.93-4.24,3.11-19.39,4.36-17.51,1.44-25.88,.82-28.47,.6-9.87-.82-15.42-5.99-15.96-10.18-2.94-23.08-6.37-37.36-3.33-62.25,.57-4.65,1.17-9.45-.99-14.9-2.97-7.48-9.29-11.46-13.07-13.77-43.71-26.73-50.49-29.84-61.9-30.56-15.18-.96-20.61,3.45-21.98,4.66-4.77,4.22-5.72,9.7-7.38,22.11-4.98,37.4-4.55,49.16-4.13,55.89,1.15,18.17,3.72,22.53,6.61,25.33,6.01,5.84,13.99,5.54,15.13,11,.84,4.03-2.6,8.54-5.93,10.72-3.74,2.45-7.47,2.06-13.07,1.78-17.5-.89-16.93,1.07-32.09-.64-11.53-1.3-14.07-2.68-15.94-4.54-4.36-4.34-4.47-10.67-4.56-14.05-.32-11.39-1.49-26.02-3.97-46.35"/><path class="cls-3" d="M113.21,199.49c-7.19,10.07-15.1,20.16-25.64,26.92s-23.73,9.35-36.54,9.44c-4.04,.03-8.08-.15-12.11-.46-2.91-.23-5.49-.5-8.19-1.6-6.05-2.46-11.71-6.14-17.03-9.89-2.46-1.73-4.88-3.54-7.14-5.53-1.56-1.37-3.59-2.89-3.69-5.13-.25-6.2,7.45-11.14,12.94-11.09,2.07,.02,3.9,.73,5.83,1.38,2.51,.84,5.05,1.56,7.58,2.32,4.56,1.38,8.96,3.24,13.62,4.28,6.96,1.56,14.31,1.65,21.16-.52,12.68-4.02,21.56-14.86,26.99-26.57,3.89-8.39,5.31-17.34,6.81-26.38,1.45-8.73,3.46-17.19,7.55-25.1,7.41-14.31,19.56-25.65,33.32-33.8,33.78-20.02,74.78-19.5,112.64-16.03,10.3,.94,20.57,2.11,30.85,3.23,5.4,.59,10.8,1.18,16.2,1.77l7.36,.81c1.38,.15,2.88,.56,4.26,.25,1.7-.39,3.4-1.38,4.96-2.12,2.81-1.33,5.57-2.74,8.32-4.19,5.91-3.11,11.83-6.33,17.35-10.11,3.46-2.37,6.72-4.96,9.48-8.13,3.81-4.38,7.06-9.26,10.44-13.97,5.05-7.03,9.84-14.04,14.22-21.5,1.4-2.38,2.82-4.8,4.77-6.78,2.24-2.26,5.11-3.57,8.09-4.61,7.98-2.78,16.85-3.23,25.09-1.4,4.2,.94,8.25,2.46,11.92,4.72,3.18,1.95,5.72,4.51,8.35,7.11,4.97,4.89,11.31,8.03,18.04,9.74,5.93,1.51,13.71,1.66,17.9-3.62,1.41-1.78,2.15-3.98,2.98-6.07,1.5-3.8,3.32-7.41,5.4-10.93,3.6-6.1,9.03-17.04,17.51-11.11,4.92,3.44,7.67,9.12,7.25,15.02-.59,8.21-3.22,16.6-5.49,24.48-3.64,12.63-11.38,25.57-23.03,32.28-5.62,3.24-11.47,4.34-17.89,3.92s-12.58-1.13-18.96-.46c-8.13,.85-16.57,2.92-23.83,6.77-4.1,2.17-7.35,5.05-9.48,9.23-3.49,6.83-4.08,14.85-11.8,18.47-2.99,1.4-6.24,2.2-9.4,3.11-2.15,.62-4.63,1.19-6.45,2.56-1.6,1.22-2.66,3.3-3.72,4.98-1.21,1.91-2.36,3.86-3.51,5.81-2.83,4.77-5.77,9.47-9.1,13.91-4.93,6.59-10.61,12.59-16.63,18.18-3.77,3.5-7.15,5.73-8.75,10.66-3.09,9.53-3.16,20.36-3.26,30.27s.11,20.43,1.8,30.42c.44,2.58,.82,5.6,2.99,7.33,1.31,1.04,2.82,1.73,4.46,2.03s3.66,.01,5.27,.65c4.02,1.58,3.76,7.32,2.79,10.69-1.32,4.6-3.75,7.33-8.23,8.34-7.91,1.79-16.36,2.03-24.43,2.4-5.32,.24-10.67,.35-15.98,.01s-13.3-1.93-15.68-7.66c-.65-1.57-.65-3.44-.87-5.11-.3-2.26-.62-4.52-.93-6.78-.62-4.42-1.26-8.85-1.78-13.28-1-8.44-1.51-16.92-1.16-25.42,.21-4.94,.76-9.83,1.3-14.74,.5-4.54,.4-9.04-1.27-13.35-2.54-6.51-7.77-10.98-13.57-14.55-12.81-7.89-25.64-15.89-38.93-22.94-5.73-3.04-11.73-6.06-18.16-7.26-8.5-1.59-19.31-1.83-26.85,2.95-3.49,2.22-5.78,5.71-7.04,9.6-2.54,7.84-2.97,16.59-3.97,24.73-1.51,12.27-2.94,24.65-3.11,37.02-.13,8.99,.26,18.5,2.69,27.17,.96,3.43,2.49,6.56,5.19,8.95,2.86,2.53,6.27,3.94,9.66,5.58,3.66,1.77,5.8,4.33,3.6,8.45-4.77,8.94-15.19,6.23-23.49,6.12-5.58-.08-11.16,.47-16.74,.28-4.16-.15-8.33-.58-12.45-1.17-2.77-.4-5.74-.8-8.34-1.89-5.48-2.3-6.56-8.99-6.74-14.27-.51-15.66-2.09-31.24-3.98-46.79-.23-1.89-3.23-1.92-3,0,1.15,9.43,2.18,18.88,2.94,28.35,.55,6.81,.67,13.64,1.12,20.45,.36,5.39,2.15,11.62,7.22,14.41,2.02,1.11,4.34,1.64,6.58,2.07,4.18,.8,8.45,1.27,12.7,1.61,5.72,.45,11.37,.03,17.08-.04,4.32-.06,8.62,.16,12.93,.36,3.69,.17,7.42,.13,10.72-1.75,5.34-3.05,10.7-11.56,4.82-16.64-4.49-3.88-11.14-4.41-14.69-9.63-2.89-4.24-3.45-10.14-3.99-15.07-.46-4.22-.77-8.48-.84-12.73-.18-10.54,.89-21.12,2.03-31.58,1.02-9.33,1.95-18.76,3.68-27.99,.89-4.76,2.32-9.76,6.41-12.66,4.62-3.28,11.03-3.74,16.48-3.69,3.26,.03,6.56,.24,9.75,.95,7.17,1.6,13.8,5.32,20.17,8.84s12.19,7,18.22,10.62c4.16,2.5,8.31,5.02,12.45,7.54,3.2,1.95,6.56,3.79,9.46,6.19,3.27,2.7,6,6.08,7.4,10.12,1.66,4.8,1.06,9.66,.48,14.58-1.09,9.36-1.36,18.77-.68,28.17,.62,8.59,1.94,17.11,3.12,25.64,.48,3.45,.34,7.57,2.06,10.69,1.37,2.49,3.77,4.4,6.25,5.69,4.74,2.47,10.07,2.89,15.31,3.03,7.44,.2,14.9-.21,22.32-.8,5.95-.47,13.15-.42,18.71-2.96,4.33-1.98,6.75-7.22,7.43-11.68,.48-3.19,.18-6.73-1.79-9.39-2.29-3.1-5.33-2.76-8.74-3.29-4.6-.72-4.87-3.49-5.54-7.6-1.71-10.49-1.82-21.4-1.6-32,.12-5.69,.41-11.39,1.13-17.04,.5-3.96,1.06-8.34,2.85-11.97,1.04-2.11,2.99-3.37,4.72-4.92,3.58-3.21,7.05-6.56,10.34-10.07,4.78-5.11,9.16-10.58,13.03-16.41,2.81-4.23,5.3-8.66,7.97-12.99,1.03-1.67,2.12-4.07,3.66-5.31,1.97-1.59,5.29-2.01,7.65-2.69,6.61-1.89,12.38-4.13,15.93-10.37,3.2-5.63,3.72-12.71,8.82-17.17s12.96-6.67,19.62-8.13c7.45-1.63,14.81-1.7,22.36-1.03,5.63,.5,11.17,.77,16.61-1.05,7.32-2.45,13.6-7.35,18.46-13.27,3.81-4.63,7.25-9.86,9.6-15.39,3.11-7.32,4.82-15.28,6.64-23,1.26-5.34,2.96-11.65,1.29-17.1-1.86-6.06-7.48-13.05-14.28-13.39-7.47-.37-11.82,8.21-15.03,13.62-2.14,3.61-4.08,7.28-5.66,11.16-.9,2.2-1.57,4.77-3.18,6.58-5.06,5.71-14.82,2.61-20.74,.17-3.68-1.52-6.96-3.47-9.85-6.23-2.5-2.39-4.83-4.9-7.66-6.92-12.8-9.12-32.7-10.2-46.51-2.66-4.96,2.71-7.71,7.61-10.45,12.33-4.54,7.82-9.84,15.05-15.1,22.39-3.11,4.34-6.12,8.88-9.9,12.68-3.49,3.51-7.71,6.25-11.93,8.8-6,3.63-12.2,6.96-18.49,10.05-1.95,.96-3.92,1.94-5.95,2.72-1.03,.4-1.16,.14-2.53,0l-8.84-.97c-41.42-4.53-84.61-11.84-125.87-2.42-31.29,7.14-63.02,26.69-73.86,58.4-3.1,9.08-3.84,18.68-5.81,28.02-1.71,8.14-4.78,15.82-9.41,22.74-8.25,12.33-21.26,19.56-36.27,17.41-9.57-1.37-18.44-5.87-27.76-8.26-6.3-1.62-12.9,1.26-16.76,6.32-3.12,4.1-3.84,8.97-.06,12.81,4.25,4.31,9.49,7.82,14.57,11.06s10.28,6.6,15.96,7.93c3.5,.81,7.34,.8,10.92,.97,3.94,.18,7.89,.21,11.83,0,12.51-.63,24.79-3.76,35.15-11s17.73-16.81,24.79-26.71c1.12-1.57-1.48-3.07-2.59-1.51h0Z"/></g><g><path d="M121.31,131.3c-1.59,1.12-1.87,2.72-2.43,4.18-7.96,20.63-11.63,44.08-23.28,63.11-7.84,12.81-22.35,20.73-36.88,23.2-7.53,1.28-15.38,1.15-22.77-.87-3.59-.98-7.07-2.4-10.26-4.3-1.65-.98-9.01-7.79-8.08-1.55,.59,3.9,7.72,7.95,10.87,9.26,4.96,2.07,10.33,3.37,15.68,3.76,9.6,.69,20.48-1.98,29.49-5.14,8.61-3.02,16.66-9.22,22.18-16.45,7.42-9.72,11.56-19.44,15.48-30.83,2.49-7.24,3.3-14.89,6.28-22.04,2.59-6.21,5.14-12.44,8.44-18.33,.21-.37,.56-.82,.48-1.16-.14-.64-.4-1.6-.85-1.77-1.44-.53-2.98-.76-4.37-1.08Z"/><path d="M128.36,214.32c.34-6.56-.16-13.15,0-19.72,.14-5.86,.73-11.71,1.03-17.57,.46-9.17,1.35-18.28,3.03-27.31,.94-5.07,2.09-10.09,3.2-15.13,.18-.82,.51-1.65,.95-2.37,.8-1.33,2.72-1.16,3.53,.21,.63,1.07,.6,2.13,.32,3.31-.57,2.36-1.14,4.73-1.51,7.13-1.37,8.78-2.25,17.61-2.9,26.47-.48,6.56-1.14,13.12-1.22,19.69-.1,8.29-.57,16.57-.29,24.88,.35,10.17,.58,20.29,2.72,30.31,.64,3.02,1.39,5.96,2.51,8.81,3.18-.22,6.36-.44,9.54-.66,3.64-.25,3.61,5.4,0,5.65-3.68,.26-7.37,.51-11.05,.77-.25,.02-.49,0-.7-.03-1.66,.05-2.2-.39-2.64-1.82-.34-1.09-.53-2.23-.9-3.31-2.97-8.73-4.77-17.68-5.28-26.89-.23-4.13-.53-8.23-.31-12.4Z"/><path d="M290.01,194c1.16-7.58,2.28-15.17,3.69-22.71,.33-1.77,3.05-16.87,6.72-12.36,.05,.06,.08,.11,.11,.17,.28,.65,.21,1.38,.14,2.08-3.29,31.1-12.01,62.03-4.51,93.04,1.42,.46,3.22,.02,4.64-.13,1.98-.21,3.85-.76,5.52-1.85,3.06-1.99,5.89,2.9,2.85,4.88-2.56,1.66-5.39,2.24-8.37,2.62-2.79,.35-5.87,.68-8.29-1.04-.31-.22-.55-.46-.73-.73-1.44-1.14-1.4-3.45-1.75-5.25-.92-4.8-1.41-9.55-1.9-14.37-1.51-14.8-.36-29.69,1.88-44.35Z"/><path d="M156.51,189.7c.37-7.44,.57-14.9,1.33-22.3,.53-5.13,.96-10.26,1.11-15.41,0-5.68,1.44-11.78,2.78-17.27,1.34,.05,2.68,.09,4.02,.14,.19,0,.41,.02,.54,.17,.12,.14,.1,.35,.08,.54-1.34,11.16-3.56,22.16-4.2,33.39-.21,3.71-.27,7.43-.39,11.15-.2,6.15-.39,12.31-.57,18.46-.05,1.57-.18,3.15-.05,4.71,.57,6.84,1.15,13.69,1.87,20.52,.74,6.98,1.68,13.93,3.56,20.73,.85,3.08,1.65,6.18,2.45,9.27,2.97,0,5.89-.31,8.82-.99,3.54-.83,5.05,4.62,1.5,5.45-4.33,1.01-8.73,1.4-13.17,1.08-1.09-.08-1.85-.65-2.29-1.4-.46-.53-.83-1.26-1.14-2.18-.22-.68-.4-1.38-.53-2.08-1.1-5.76-2.32-11.51-3.24-17.3-.79-4.94-1.43-9.92-1.78-14.91-.47-6.66-.83-13.19-.91-19.75-.05-3.98,0-7.98,.21-12.02Z"/><path d="M318.61,206.45c-.03-9.2,.52-18.36,1.71-27.48,.56-4.26,1.35-8.49,2.02-12.74,.29-1.84,1.26-4.48,2.53-5.89,.49-.54,4.91-2.2,4.76-1.42-3.4,17.49-6.75,36.13-5.72,54.01,.72,12.45,.33,25.31,2.64,37.63,.15,.78,.46,1.75,.71,2.76,3.58-.33,7.06-1.04,10.51-2.11,3.49-1.08,4.97,4.37,1.5,5.45-4.45,1.39-9.03,2.18-13.69,2.44-1.73,.53-3.76-.72-4.17-2.44-.13-.56-.16-1.14-.22-1.71-.43-3.99-.87-7.98-1.28-11.98-.43-4.14-1.05-8.27-1.18-12.42-.2-6.31-.05-12.63-.05-18.94h-.08c0-1.72,0-3.45,0-5.17Z"/><path class="cls-1" d="M118.47,127.85c7.05-13.84,29.97-20.19,43.41-24.43,20.99-6.62,41.54-10.11,63.44-12.01,15.59-1.35,31.35-1.52,46.91,.26,15.45,1.77,31.24,4.78,46.64,.95,8.71-2.16,16.7-5.9,24.29-10.6,2.72-1.68,5.26-3.55,7.6-5.6,11.33-9.94,20.37-25.4,26.95-38.78,3.18-6.46,7.61-11.35,14.38-14.03,3.58-1.42,7.26-1.52,11.01-1.34,5.7,.29,11.2,2.16,15.71,5.7,4.55,3.58,6.97,8.13,10.92,12.21,3.03,3.13,6.65,5.2,11.03,5.61,13,1.23,27.71,.42,37.68-9.38,2.65-2.61,4.98-5.54,7.43-8.35,.66-.75,1.17-1.64,1.84-2.38,.81-.89,1.97-1.12,2.69-.57,.85,.64,1.44,1.49,.99,2.59-.44,1.07-.74,2.08-.64,3.3,.33,3.93-.66,7.69-1.93,11.36-4.99,14.49-15.48,25.93-30.25,30.7-3.4,1.1-6.92,2.17-10.44,2.41-3.97,.28-8.03,.5-12-.39-1.44-.32-2.79-.16-4.2,.31-4.62,1.53-9.26,3.03-13.93,4.38-4.82,1.39-9.72,2.39-14.68,3.26-6.66,1.18-13.32,1.81-20.07,1.6-.99-.03-1.98,0-3.01,0-.12,.12-.24,.25-.36,.38-3.73,10.66-7.7,21.46-12.43,31.68-8.43,18.24-22.98,38.54-41.68,46.92-12.71,5.69-28.85,4.7-41.92,.67-10.29-3.18-21.17-9.8-29.45-16.68-8.25-6.87-14.22-15.44-24.89-19.31-11.03-4-23.02-5.17-34.81-3.67-11.41,1.45-22.13,9.8-31.86,15.42-10.9,6.29-23.89,10.64-36.46,7.47-10.13-2.55-12.22-11.2-7.91-19.67Z"/><path d="M379.54,112.86c14.47-2.56,21.94-19.82,21.78-32.92-.18-14.18-4.5-27.99-7.95-41.73-.45-1.78-3-5.13-5.19-4.75-2.2,.38-3.28,4.43-3.98,6.26-2.02,5.31-3.29,11.2-6.44,15.98-3.59,5.43-7.89,10.51-11.63,15.87-3.7,5.3-7.91,10.16-8.79,16.82-.57,4.29,.03,8.72,1.63,12.73,3.58,9,12.2,13.22,20.57,11.74Z"/><path d="M480.59,16.38c-.17,1.52-.04,3.08,.31,4.46,.81,3.15,2.74,5.81,4.03,8.76,1.03,2.37,1.48,5.86,4.84,3.73,5.04-3.19,6.59-10.63,5.85-16.1-.47-3.5-2.97-6.57-6.38-7.59-4.74-1.41-8.14,2.14-8.65,6.74Z"/><path d="M417.3,40.65c1.04,2.29,2.81,6.57,.29,8.49-2.69,2.06-5.17-3.21-6.08-5.02-.5-.99-1.98-.12-1.48,.87,1.53,3.05,4.37,8.03,8.43,5.63,3.73-2.21,1.67-7.87,.32-10.84-.46-1.01-1.94-.13-1.48,.87h0Z"/></g></g></g></svg>