<?xml version="1.0" encoding="UTF-8"?><svg xmlns="http://www.w3.org/2000/svg" xmlns:xlink="http://www.w3.org/1999/xlink" viewBox="0 0 217.21 267.48"><defs><style>.cls-1{fill:#5c6060;font-family:Dosis-Light, Dosis;font-size:37.9px;font-variation-settings:'wght' 300;}.cls-2{fill:#a57197;}.cls-3{fill:#c58b8a;}.cls-4{fill:#726f6b;}.cls-5{mix-blend-mode:color-dodge;}.cls-5,.cls-6,.cls-7{fill:#fff;}.cls-8{letter-spacing:-.01em;}.cls-6{filter:url(#drop-shadow-1);}.cls-7{filter:url(#drop-shadow-2);}.cls-9{fill:#676661;font-family:Dosis-Medium, Dosis;font-size:18px;font-variation-settings:'wght' 500;}.cls-10{isolation:isolate;}.cls-11{fill:none;mix-blend-mode:screen;stroke:#f0b070;stroke-miterlimit:10;stroke-width:8px;}</style><filter id="drop-shadow-1" filterUnits="userSpaceOnUse"><feOffset dx="0" dy="10"/><feGaussianBlur result="blur" stdDeviation="6"/><feFlood flood-color="#665f60" flood-opacity=".48"/><feComposite in2="blur" operator="in"/><feComposite in="SourceGraphic"/></filter><filter id="drop-shadow-2" filterUnits="userSpaceOnUse"><feOffset dx="4" dy="7"/><feGaussianBlur result="blur-2" stdDeviation="5"/><feFlood flood-color="#665f60" flood-opacity=".48"/><feComposite in2="blur-2" operator="in"/><feComposite in="SourceGraphic"/></filter></defs><g class="cls-10"><g id="Layer_2"><g id="Layer_6"><path class="cls-6" d="M160.89,8c21.09,0,38.18,17.09,38.18,38.18s-17.09,38.18-38.18,38.18"/></g><g id="Layer_1-2"><circle class="cls-3" cx="160.8" cy="46.44" r="38.18"/><rect class="cls-2" y="27.42" width="176.96" height="202.32" rx="16.96" ry="16.96"/><polygon class="cls-7" points="160.56 210.98 88.1 245.36 16.41 210.98 16.41 46.18 160.56 46.18 160.56 210.98"/><circle class="cls-2" cx="160.8" cy="46.44" r="38.18"/></g><g id="Layer_2-2"><text class="cls-9" transform="translate(48.02 190.23)"><tspan x="0" y="0">¡</tspan><tspan class="cls-8" x="3.73" y="0">R</tspan><tspan x="13.23" y="0">ecibe una </tspan><tspan x="-21.86" y="20">mención especial!</tspan></text></g><g id="Layer_3"><path class="cls-4" d="M105.63,80.11h-34.56c-4.09,0-7.42,3.36-7.27,7.44,.03,.82,.06,1.64,.11,2.44h-16.29c-2.05,0-3.7,1.65-3.7,3.7,0,14.29,5.17,24.23,12.11,30.97,6.84,6.65,15.17,10,21.31,11.7,3.61,1,6.08,4.01,6.08,7.04,0,3.22-2.62,5.85-5.85,5.85h-4.03c-2.73,0-4.94,2.21-4.94,4.94s2.21,4.94,4.94,4.94h29.63c2.73,0,4.94-2.21,4.94-4.94s-2.21-4.94-4.94-4.94h-4.03c-3.22,0-5.85-2.62-5.85-5.85,0-3.02,2.45-6.05,6.08-7.04,6.16-1.7,14.49-5.05,21.32-11.7,6.93-6.74,12.1-16.68,12.1-30.97,0-2.05-1.65-3.7-3.7-3.7h-16.29c.05-.8,.08-1.6,.11-2.44,.15-4.07-3.18-7.44-7.27-7.44Zm-54.18,17.28h13.02c1.4,13.9,4.51,23.19,8.01,29.41-3.84-1.7-7.84-4.09-11.3-7.45-4.94-4.8-8.95-11.73-9.72-21.96h-.02Zm64.07,21.96c-3.46,3.36-7.45,5.76-11.3,7.45,3.5-6.22,6.6-15.51,8.01-29.41h13.02c-.79,10.23-4.8,17.16-9.72,21.96h-.02Z"/></g><g id="Layer_5"><g><circle class="cls-5" cx="161" cy="46.39" r="25.71"/><circle class="cls-11" cx="161" cy="46.39" r="25.71"/></g></g><g id="Layer_4"><text class="cls-1" transform="translate(152.24 60.13)"><tspan x="0" y="0">5</tspan></text></g></g></g></svg>