<?xml version="1.0" encoding="UTF-8"?><svg xmlns="http://www.w3.org/2000/svg" xmlns:xlink="http://www.w3.org/1999/xlink" viewBox="0 0 221 266.28"><defs><style>.cls-1{fill:#5c6060;font-family:Dosis-Light, Dosis;font-size:37.9px;font-variation-settings:'wght' 300;}.cls-2{fill:#f2f1cd;}.cls-3{fill:#726f6b;}.cls-4{mix-blend-mode:color-dodge;}.cls-4,.cls-5,.cls-6{fill:#fff;}.cls-7{letter-spacing:-.01em;}.cls-5{filter:url(#drop-shadow-1);}.cls-6{filter:url(#drop-shadow-2);}.cls-8{fill:url(#radial-gradient);}.cls-9{fill:#676661;font-family:Dosis-Medium, Dosis;font-size:18px;font-variation-settings:'wght' 500;}.cls-10{isolation:isolate;}.cls-11{fill:none;mix-blend-mode:screen;stroke:#f0b070;stroke-miterlimit:10;stroke-width:8px;}</style><filter id="drop-shadow-1" filterUnits="userSpaceOnUse"><feOffset dx="0" dy="10"/><feGaussianBlur result="blur" stdDeviation="6"/><feFlood flood-color="#665f60" flood-opacity=".48"/><feComposite in2="blur" operator="in"/><feComposite in="SourceGraphic"/></filter><radialGradient id="radial-gradient" cx="88.48" cy="127.43" fx="88.48" fy="127.43" r="95.03" gradientTransform="matrix(1, 0, 0, 1, 0, 0)" gradientUnits="userSpaceOnUse"><stop offset="0" stop-color="#fff"/><stop offset=".39" stop-color="#f6f6dd"/><stop offset=".62" stop-color="#f2f1cd"/></radialGradient><filter id="drop-shadow-2" filterUnits="userSpaceOnUse"><feOffset dx="4" dy="7"/><feGaussianBlur result="blur-2" stdDeviation="5"/><feFlood flood-color="#665f60" flood-opacity=".48"/><feComposite in2="blur-2" operator="in"/><feComposite in="SourceGraphic"/></filter></defs><g class="cls-10"><g id="Layer_2"><g id="Layer_6"><path class="cls-5" d="M160.57,8.2c21.09,0,38.18,17.09,38.18,38.18s-17.09,38.18-38.18,38.18"/></g><g id="Layer_1-2"><rect class="cls-8" y="26.27" width="176.96" height="202.32" rx="16.96" ry="16.96"/><polygon class="cls-6" points="160.56 209.83 88.1 244.2 16.41 209.83 16.41 45.02 160.56 45.02 160.56 209.83"/><circle class="cls-2" cx="160.57" cy="46.38" r="38.18"/></g><g id="Layer_2-2"><text class="cls-9" transform="translate(33.85 192.9)"><tspan class="cls-7" x="0" y="0">R</tspan><tspan x="9.5" y="0">evisa la galería</tspan></text></g><g id="Layer_3"><path class="cls-3" d="M91.46,104.68l3.65-21.91c.3-1.8,1.86-3.13,3.7-3.13,1.18,0,2.29,.55,3,1.5l2.67,3.55h8.23c2.01,0,3.93,.81,5.35,2.23l2.84,2.83h8.84c2.1,0,3.79,1.69,3.79,3.79v3.79c0,6.98-5.65,12.63-12.63,12.63h-10.94l-.81,4.82-17.69-10.11Zm16.8,15.41v35.36c0,2.8-2.26,5.05-5.05,5.05h-5.05c-2.8,0-5.05-2.26-5.05-5.05v-18.19c-3.79,1.94-8.09,3.03-12.63,3.03s-8.84-1.09-12.63-3.03v18.19c0,2.8-2.26,5.05-5.05,5.05h-5.05c-2.8,0-5.05-2.26-5.05-5.05v-36.36c-4.55-1.72-8.12-5.57-9.35-10.5l-.6-2.45c-.68-2.7,.96-5.45,3.68-6.13,2.72-.68,5.45,.96,6.13,3.68l.62,2.45c.55,2.24,2.57,3.82,4.9,3.82h32.5l17.72,10.12Zm7.58-27.81c0-1.39-1.14-2.53-2.53-2.53s-2.53,1.14-2.53,2.53,1.14,2.53,2.53,2.53,2.53-1.14,2.53-2.53Z"/></g><g id="Layer_5"><g><circle class="cls-4" cx="160.57" cy="46.38" r="25.71"/><circle class="cls-11" cx="160.57" cy="46.38" r="25.71"/></g></g><g id="Layer_4"><text class="cls-1" transform="translate(157.44 60.23)"><tspan x="0" y="0">1</tspan></text></g></g></g></svg>