<?xml version="1.0" encoding="UTF-8"?><svg xmlns="http://www.w3.org/2000/svg" xmlns:xlink="http://www.w3.org/1999/xlink" viewBox="0 0 217.21 267.96"><defs><style>.cls-1{fill:#676661;}.cls-2{fill:#c58b8a;}.cls-3{fill:#5c6060;}.cls-4{fill:#726f6b;}.cls-5{mix-blend-mode:color-dodge;}.cls-5,.cls-6,.cls-7{fill:#fff;}.cls-6{filter:url(#drop-shadow-1);}.cls-7{filter:url(#drop-shadow-2);}.cls-8{isolation:isolate;}.cls-9{fill:none;mix-blend-mode:screen;stroke:#f0b070;stroke-miterlimit:10;stroke-width:8px;}</style><filter id="drop-shadow-1" filterUnits="userSpaceOnUse"><feOffset dx="0" dy="10"/><feGaussianBlur result="blur" stdDeviation="6"/><feFlood flood-color="#665f60" flood-opacity=".48"/><feComposite in2="blur" operator="in"/><feComposite in="SourceGraphic"/></filter><filter id="drop-shadow-2" filterUnits="userSpaceOnUse"><feOffset dx="4" dy="7"/><feGaussianBlur result="blur-2" stdDeviation="5"/><feFlood flood-color="#665f60" flood-opacity=".48"/><feComposite in2="blur-2" operator="in"/><feComposite in="SourceGraphic"/></filter></defs><g class="cls-8"><g id="Layer_2"><g id="Layer_6"><path class="cls-6" d="M160.89,8.08c21.09,0,38.18,17.09,38.18,38.18s-17.09,38.18-38.18,38.18"/></g><g id="Layer_1-2"><rect class="cls-2" y="27.98" width="176.96" height="202.32" rx="16.96" ry="16.96"/><polygon class="cls-7" points="160.56 211.54 88.1 245.91 16.41 211.54 16.41 46.74 160.56 46.74 160.56 211.54"/><circle class="cls-2" cx="160.8" cy="46.99" r="38.18"/></g><g id="Layer_3"><path class="cls-4" d="M75.78,88.83h23.71v-6.59c0-2.18,1.76-3.95,3.95-3.95s3.95,1.77,3.95,3.95v6.59h6.59c5.81,0,10.54,4.72,10.54,10.54v52.7c0,5.81-4.73,10.54-10.54,10.54H61.29c-5.82,0-10.54-4.73-10.54-10.54v-52.7c0-5.82,4.72-10.54,10.54-10.54h6.59v-6.59c0-2.18,1.76-3.95,3.95-3.95s3.95,1.77,3.95,3.95v6.59Zm-17.13,63.24c0,1.45,1.18,2.63,2.63,2.63h52.7c1.45,0,2.63-1.19,2.63-2.63v-42.16H58.65v42.16Z"/></g><g id="Layer_5"><g><circle class="cls-5" cx="161.16" cy="47.01" r="25.71"/><circle class="cls-9" cx="161.16" cy="47.01" r="25.71"/></g></g><g id="Layer_7"><g><path class="cls-1" d="M23.91,192.39c-.18,0-.35-.04-.51-.13s-.24-.23-.24-.41v-11.88c0-.28,.08-.47,.24-.58,.16-.11,.33-.16,.51-.16,.19,0,.36,.04,.49,.11,.14,.07,.26,.18,.38,.31,.11,.14,.22,.32,.33,.53l2.84,5.42,2.84-5.42c.12-.22,.24-.39,.35-.53,.11-.14,.24-.24,.38-.31,.14-.07,.3-.11,.48-.11,.2,0,.38,.05,.53,.16,.15,.11,.23,.3,.23,.58v11.88c0,.18-.08,.32-.23,.41-.16,.09-.33,.13-.52,.13s-.37-.04-.52-.13-.23-.23-.23-.41v-9.45l-2.74,5.11c-.08,.14-.17,.25-.27,.31-.1,.07-.2,.1-.31,.1-.08,0-.18-.03-.28-.09-.1-.06-.2-.17-.28-.32l-2.72-5.18v9.52c0,.18-.08,.32-.23,.41-.16,.09-.33,.13-.52,.13Z"/><path class="cls-1" d="M37,192.53c-.67,0-1.25-.19-1.72-.58-.47-.39-.71-.99-.71-1.81,0-.66,.18-1.17,.54-1.54s.85-.62,1.48-.76c.63-.14,1.36-.21,2.19-.21h.86v-.38c0-.36-.07-.71-.2-1.05-.13-.34-.34-.62-.62-.85-.28-.22-.67-.33-1.16-.33-.42,0-.75,.04-1,.13-.25,.08-.44,.17-.58,.26-.14,.09-.27,.13-.38,.13-.18,0-.32-.09-.41-.26-.1-.17-.14-.34-.14-.5,0-.19,.13-.37,.4-.52,.26-.16,.59-.28,.99-.38,.4-.1,.79-.14,1.17-.14,.84,0,1.51,.17,2.02,.5s.87,.77,1.09,1.3c.22,.53,.33,1.09,.33,1.69v4.61c0,.14-.07,.27-.21,.38-.14,.11-.32,.16-.53,.16-.19,0-.35-.05-.49-.16-.13-.11-.2-.23-.2-.38v-.72c-.31,.36-.69,.68-1.13,.97-.44,.29-.97,.43-1.58,.43Zm.47-1.21c.35,0,.69-.1,1.02-.29,.33-.19,.61-.43,.83-.72,.22-.29,.33-.56,.33-.83v-.94h-.63c-.5,0-.98,.03-1.43,.09-.45,.06-.81,.19-1.09,.39-.28,.2-.41,.51-.41,.95,0,.47,.13,.81,.4,1.03,.26,.22,.59,.32,.99,.32Z"/><path class="cls-1" d="M43.89,192.39c-.2,0-.38-.06-.51-.17-.14-.11-.21-.24-.21-.37v-7.47c0-.16,.07-.28,.21-.38,.14-.1,.31-.14,.51-.14s.37,.05,.5,.14c.13,.1,.2,.22,.2,.38v.85c.13-.25,.31-.49,.54-.71,.23-.22,.5-.41,.8-.55,.31-.14,.64-.22,1.02-.22h.61c.16,0,.29,.07,.4,.2,.11,.13,.17,.29,.17,.49,0,.18-.06,.34-.17,.47-.11,.13-.25,.2-.4,.2h-.61c-.38,0-.75,.11-1.1,.32-.35,.22-.63,.52-.85,.91-.22,.39-.33,.86-.33,1.41v4.1c0,.13-.08,.25-.23,.37-.15,.11-.33,.17-.55,.17Z"/><path class="cls-1" d="M52.31,192.53c-.83,0-1.51-.16-2.04-.47-.53-.31-.93-.73-1.19-1.25-.26-.52-.39-1.11-.39-1.77v-1.8c0-.65,.13-1.24,.39-1.76,.26-.53,.65-.95,1.19-1.26,.53-.31,1.21-.47,2.02-.47,.53,0,.99,.07,1.39,.2,.4,.13,.7,.29,.92,.49,.22,.19,.32,.38,.32,.56,0,.1-.03,.2-.08,.32-.05,.11-.13,.21-.22,.3s-.2,.13-.31,.13-.25-.05-.39-.16c-.14-.11-.32-.21-.56-.31-.23-.1-.56-.15-.98-.15-.73,0-1.28,.19-1.65,.58s-.55,.91-.55,1.57v1.8c0,.66,.18,1.18,.55,1.57,.37,.38,.92,.58,1.67,.58,.43,0,.77-.06,1.01-.17,.24-.11,.43-.22,.57-.32,.14-.1,.27-.15,.4-.15s.25,.04,.34,.12c.1,.08,.17,.17,.23,.28,.05,.11,.08,.22,.08,.32,0,.18-.11,.37-.34,.57-.23,.2-.55,.37-.95,.5-.41,.14-.88,.21-1.42,.21Z"/><path class="cls-1" d="M58.4,192.53c-.67,0-1.25-.19-1.72-.58-.47-.39-.71-.99-.71-1.81,0-.66,.18-1.17,.54-1.54s.85-.62,1.48-.76c.63-.14,1.36-.21,2.19-.21h.86v-.38c0-.36-.07-.71-.2-1.05-.13-.34-.34-.62-.62-.85-.28-.22-.67-.33-1.16-.33-.42,0-.75,.04-1,.13-.25,.08-.44,.17-.58,.26-.14,.09-.27,.13-.38,.13-.18,0-.32-.09-.41-.26-.1-.17-.14-.34-.14-.5,0-.19,.13-.37,.4-.52,.26-.16,.59-.28,.99-.38,.4-.1,.79-.14,1.17-.14,.84,0,1.51,.17,2.02,.5s.87,.77,1.09,1.3c.22,.53,.33,1.09,.33,1.69v4.61c0,.14-.07,.27-.21,.38-.14,.11-.32,.16-.53,.16-.19,0-.35-.05-.49-.16-.13-.11-.2-.23-.2-.38v-.72c-.31,.36-.69,.68-1.13,.97-.44,.29-.97,.43-1.58,.43Zm.47-1.21c.35,0,.69-.1,1.02-.29,.33-.19,.61-.43,.83-.72,.22-.29,.33-.56,.33-.83v-.94h-.63c-.5,0-.98,.03-1.43,.09-.45,.06-.81,.19-1.09,.39-.28,.2-.41,.51-.41,.95,0,.47,.13,.81,.4,1.03,.26,.22,.59,.32,.99,.32Z"/><path class="cls-1" d="M69.07,192.39c-.22,0-.39-.06-.53-.17-.14-.11-.21-.24-.21-.37v-12.62c0-.16,.07-.28,.21-.38,.14-.1,.31-.14,.53-.14,.2,0,.38,.05,.53,.14,.15,.1,.22,.22,.22,.38v12.62c0,.13-.07,.25-.22,.37-.15,.11-.33,.17-.53,.17Z"/><path class="cls-1" d="M73.99,192.53c-.67,0-1.25-.19-1.72-.58-.47-.39-.71-.99-.71-1.81,0-.66,.18-1.17,.54-1.54s.85-.62,1.48-.76c.63-.14,1.36-.21,2.19-.21h.86v-.38c0-.36-.07-.71-.2-1.05-.13-.34-.34-.62-.62-.85-.28-.22-.67-.33-1.16-.33-.42,0-.75,.04-1,.13-.25,.08-.44,.17-.58,.26-.14,.09-.27,.13-.38,.13-.18,0-.32-.09-.41-.26-.1-.17-.14-.34-.14-.5,0-.19,.13-.37,.4-.52,.26-.16,.59-.28,.99-.38,.4-.1,.79-.14,1.17-.14,.84,0,1.51,.17,2.02,.5s.87,.77,1.09,1.3c.22,.53,.33,1.09,.33,1.69v4.61c0,.14-.07,.27-.21,.38-.14,.11-.32,.16-.53,.16-.19,0-.35-.05-.49-.16-.13-.11-.2-.23-.2-.38v-.72c-.31,.36-.69,.68-1.13,.97-.44,.29-.97,.43-1.58,.43Zm.47-1.21c.35,0,.69-.1,1.02-.29,.33-.19,.61-.43,.83-.72,.22-.29,.33-.56,.33-.83v-.94h-.63c-.5,0-.98,.03-1.43,.09-.45,.06-.81,.19-1.09,.39-.28,.2-.41,.51-.41,.95,0,.47,.13,.81,.4,1.03,.26,.22,.59,.32,.99,.32Z"/><path class="cls-1" d="M84.5,192.39c-.2,0-.38-.05-.51-.14-.14-.1-.21-.22-.21-.38v-9.79c0-.62,.14-1.19,.43-1.7,.29-.51,.67-.92,1.16-1.22,.49-.3,1.02-.45,1.59-.45h.63c.19,0,.34,.07,.45,.2,.11,.13,.16,.29,.16,.47,0,.17-.05,.32-.16,.45-.11,.13-.26,.2-.45,.2h-.38c-.37,0-.71,.09-1,.26-.29,.17-.52,.41-.69,.7-.17,.29-.25,.62-.25,.96v1.91h2.47c.14,0,.26,.06,.34,.18s.13,.26,.13,.41c0,.14-.04,.28-.13,.4s-.2,.18-.34,.18h-2.47v6.84c0,.16-.08,.28-.23,.38-.16,.1-.34,.14-.54,.14Z"/><path class="cls-1" d="M90.15,192.39c-.2,0-.38-.06-.51-.17-.14-.11-.21-.24-.21-.37v-7.47c0-.16,.07-.28,.21-.38,.14-.1,.31-.14,.51-.14s.37,.05,.5,.14c.13,.1,.2,.22,.2,.38v.85c.13-.25,.31-.49,.54-.71,.23-.22,.49-.41,.8-.55,.31-.14,.64-.22,1.02-.22h.61c.16,0,.29,.07,.41,.2,.11,.13,.17,.29,.17,.49,0,.18-.06,.34-.17,.47-.11,.13-.25,.2-.41,.2h-.61c-.38,0-.75,.11-1.1,.32-.35,.22-.63,.52-.86,.91-.22,.39-.33,.86-.33,1.41v4.1c0,.13-.08,.25-.22,.37-.15,.11-.33,.17-.55,.17Z"/><path class="cls-1" d="M98.95,192.53c-.78,0-1.47-.15-2.07-.44-.6-.29-1.07-.7-1.42-1.22-.35-.52-.52-1.13-.52-1.83v-1.89c0-.61,.16-1.18,.5-1.69,.33-.52,.76-.93,1.3-1.24s1.13-.47,1.78-.47,1.2,.14,1.72,.43c.52,.29,.94,.68,1.26,1.17s.48,1.06,.48,1.71c0,.48-.08,.83-.23,1.04s-.35,.34-.59,.39c-.24,.05-.49,.07-.76,.07h-3.96v.54c0,.67,.24,1.2,.72,1.59,.48,.39,1.1,.58,1.85,.58,.44,0,.8-.06,1.06-.18,.26-.12,.48-.24,.65-.35,.17-.11,.32-.17,.45-.17s.24,.04,.33,.12,.16,.17,.21,.28c.05,.11,.07,.2,.07,.29,0,.16-.11,.33-.34,.53-.23,.2-.56,.37-.98,.52-.43,.15-.93,.22-1.5,.22Zm-2.52-4.99h3.33c.32,0,.54-.04,.64-.12,.1-.08,.15-.23,.15-.46,0-.36-.09-.69-.26-1s-.42-.55-.73-.75c-.31-.19-.67-.29-1.06-.29-.37,0-.71,.09-1.03,.26-.31,.17-.56,.41-.76,.71-.19,.3-.29,.63-.29,.99v.65Z"/><path class="cls-1" d="M106.94,192.53c-.83,0-1.51-.16-2.04-.47-.53-.31-.93-.73-1.19-1.25-.26-.52-.39-1.11-.39-1.77v-1.8c0-.65,.13-1.24,.39-1.76,.26-.53,.65-.95,1.19-1.26s1.21-.47,2.03-.47c.53,0,.99,.07,1.39,.2,.4,.13,.7,.29,.92,.49,.22,.19,.32,.38,.32,.56,0,.1-.03,.2-.08,.32-.05,.11-.13,.21-.22,.3-.09,.08-.19,.13-.31,.13s-.25-.05-.39-.16c-.14-.11-.32-.21-.56-.31-.23-.1-.56-.15-.98-.15-.73,0-1.28,.19-1.65,.58s-.55,.91-.55,1.57v1.8c0,.66,.18,1.18,.55,1.57,.37,.38,.92,.58,1.67,.58,.43,0,.77-.06,1.01-.17s.43-.22,.57-.32c.14-.1,.27-.15,.41-.15s.25,.04,.34,.12c.1,.08,.17,.17,.22,.28,.05,.11,.08,.22,.08,.32,0,.18-.11,.37-.34,.57-.23,.2-.55,.37-.95,.5-.41,.14-.88,.21-1.42,.21Z"/><path class="cls-1" d="M114.65,192.53c-.66,0-1.26-.16-1.8-.49s-.97-.75-1.3-1.28c-.32-.53-.49-1.09-.49-1.69v-4.68c0-.13,.08-.25,.23-.37,.15-.11,.33-.17,.53-.17s.38,.06,.52,.17c.14,.11,.22,.24,.22,.37v4.68c0,.36,.09,.7,.28,1.02,.19,.32,.43,.58,.75,.78,.31,.2,.66,.31,1.04,.31s.73-.1,1.04-.31c.31-.2,.56-.46,.74-.78,.18-.32,.27-.66,.27-1.02v-4.7c0-.14,.08-.27,.23-.37,.16-.1,.33-.15,.52-.15,.23,0,.41,.05,.54,.15s.2,.22,.2,.37v4.7c0,.61-.16,1.18-.48,1.7-.32,.52-.75,.95-1.29,1.27s-1.13,.49-1.76,.49Z"/><path class="cls-1" d="M123.92,192.53c-.78,0-1.47-.15-2.07-.44-.6-.29-1.07-.7-1.42-1.22-.35-.52-.52-1.13-.52-1.83v-1.89c0-.61,.16-1.18,.5-1.69,.33-.52,.76-.93,1.3-1.24s1.13-.47,1.78-.47,1.2,.14,1.72,.43c.52,.29,.94,.68,1.26,1.17s.48,1.06,.48,1.71c0,.48-.08,.83-.23,1.04-.16,.21-.35,.34-.59,.39-.24,.05-.49,.07-.76,.07h-3.96v.54c0,.67,.24,1.2,.72,1.59,.48,.39,1.1,.58,1.85,.58,.44,0,.8-.06,1.06-.18,.26-.12,.48-.24,.65-.35,.17-.11,.32-.17,.45-.17s.24,.04,.33,.12,.16,.17,.21,.28c.05,.11,.07,.2,.07,.29,0,.16-.11,.33-.34,.53-.23,.2-.56,.37-.98,.52-.43,.15-.93,.22-1.5,.22Zm-2.52-4.99h3.33c.32,0,.54-.04,.64-.12,.1-.08,.15-.23,.15-.46,0-.36-.09-.69-.26-1s-.42-.55-.73-.75c-.31-.19-.67-.29-1.06-.29-.37,0-.71,.09-1.03,.26-.31,.17-.56,.41-.76,.71-.19,.3-.29,.63-.29,.99v.65Z"/><path class="cls-1" d="M129.34,192.39c-.22,0-.39-.06-.53-.17-.14-.11-.21-.24-.21-.37v-7.47c0-.16,.07-.28,.21-.38,.14-.1,.32-.14,.53-.14,.19,0,.35,.05,.49,.14,.13,.1,.2,.22,.2,.38v.74c.19-.35,.49-.66,.9-.94s.91-.42,1.51-.42,1.1,.16,1.58,.48c.48,.32,.86,.74,1.15,1.25,.29,.52,.43,1.09,.43,1.73v4.64c0,.18-.08,.32-.23,.41-.16,.09-.33,.13-.52,.13-.18,0-.35-.04-.5-.13s-.23-.23-.23-.41v-4.64c0-.35-.09-.68-.28-1.01-.19-.32-.44-.59-.75-.79-.31-.2-.65-.31-1.03-.31-.32,0-.64,.09-.94,.26-.3,.17-.55,.41-.74,.72-.19,.31-.29,.68-.29,1.12v4.64c0,.13-.08,.25-.22,.37-.15,.11-.33,.17-.53,.17Z"/><path class="cls-1" d="M140.95,192.53c-.83,0-1.51-.16-2.04-.47-.53-.31-.93-.73-1.19-1.25-.26-.52-.39-1.11-.39-1.77v-1.8c0-.65,.13-1.24,.39-1.76,.26-.53,.65-.95,1.19-1.26s1.21-.47,2.03-.47c.53,0,.99,.07,1.39,.2,.4,.13,.7,.29,.92,.49,.22,.19,.32,.38,.32,.56,0,.1-.03,.2-.08,.32-.05,.11-.13,.21-.22,.3-.09,.08-.19,.13-.31,.13s-.25-.05-.39-.16c-.14-.11-.32-.21-.56-.31-.23-.1-.56-.15-.98-.15-.73,0-1.28,.19-1.65,.58s-.55,.91-.55,1.57v1.8c0,.66,.18,1.18,.55,1.57,.37,.38,.92,.58,1.67,.58,.43,0,.77-.06,1.01-.17s.43-.22,.57-.32c.14-.1,.27-.15,.41-.15s.25,.04,.34,.12c.1,.08,.17,.17,.22,.28,.05,.11,.08,.22,.08,.32,0,.18-.11,.37-.34,.57-.23,.2-.55,.37-.95,.5-.41,.14-.88,.21-1.42,.21Z"/><path class="cls-1" d="M145.9,181.51c-.25,0-.47-.09-.66-.26-.19-.17-.28-.38-.28-.6s.09-.43,.28-.59c.19-.17,.41-.25,.66-.25s.48,.08,.66,.25,.26,.37,.26,.59-.09,.43-.26,.6-.39,.26-.66,.26Zm0,10.87c-.22,0-.39-.06-.53-.17-.14-.11-.21-.24-.21-.37v-7.47c0-.16,.07-.28,.21-.38,.14-.1,.32-.14,.53-.14,.2,0,.38,.05,.53,.14,.15,.1,.22,.22,.22,.38v7.47c0,.13-.08,.25-.22,.37-.15,.11-.33,.17-.53,.17Z"/><path class="cls-1" d="M150.63,192.53c-.67,0-1.25-.19-1.72-.58-.47-.39-.71-.99-.71-1.81,0-.66,.18-1.17,.54-1.54s.86-.62,1.49-.76,1.36-.21,2.19-.21h.86v-.38c0-.36-.07-.71-.2-1.05-.13-.34-.34-.62-.62-.85-.28-.22-.67-.33-1.16-.33-.42,0-.75,.04-1,.13-.25,.08-.44,.17-.58,.26-.14,.09-.27,.13-.38,.13-.18,0-.32-.09-.41-.26-.1-.17-.14-.34-.14-.5,0-.19,.13-.37,.4-.52,.26-.16,.59-.28,.99-.38,.4-.1,.79-.14,1.17-.14,.84,0,1.51,.17,2.02,.5s.87,.77,1.09,1.3c.22,.53,.33,1.09,.33,1.69v4.61c0,.14-.07,.27-.21,.38-.14,.11-.32,.16-.53,.16-.19,0-.35-.05-.49-.16-.13-.11-.2-.23-.2-.38v-.72c-.31,.36-.69,.68-1.13,.97-.44,.29-.97,.43-1.58,.43Zm.47-1.21c.35,0,.69-.1,1.02-.29,.33-.19,.61-.43,.83-.72,.22-.29,.33-.56,.33-.83v-.94h-.63c-.5,0-.98,.03-1.43,.09-.45,.06-.81,.19-1.09,.39-.28,.2-.41,.51-.41,.95,0,.47,.13,.81,.4,1.03,.26,.22,.59,.32,.99,.32Z"/><path class="cls-1" d="M42.86,212.53c-.56,0-1.09-.16-1.57-.49-.49-.33-.88-.76-1.17-1.3-.29-.53-.44-1.1-.44-1.7v-1.84c0-.64,.15-1.21,.44-1.73,.29-.52,.68-.93,1.17-1.25,.49-.32,1.02-.48,1.61-.48s1.06,.14,1.47,.42c.4,.28,.7,.6,.89,.94v-5.89c0-.16,.07-.28,.23-.38,.15-.1,.33-.14,.55-.14s.39,.05,.52,.14c.13,.1,.2,.22,.2,.38v12.62c0,.13-.07,.25-.2,.37-.13,.11-.31,.17-.52,.17-.19,0-.36-.06-.49-.17-.14-.11-.21-.24-.21-.37v-.72c-.18,.37-.5,.7-.95,.98-.46,.28-.96,.42-1.51,.42Zm.36-1.35c.38,0,.73-.1,1.03-.32,.31-.21,.55-.45,.73-.71,.18-.26,.27-.47,.27-.63v-2.32c0-.44-.1-.82-.3-1.12-.2-.31-.45-.55-.77-.72-.31-.17-.63-.26-.95-.26-.38,0-.73,.1-1.04,.31-.31,.2-.56,.47-.75,.79-.19,.32-.28,.66-.28,1.01v1.84c0,.35,.09,.69,.28,1.03,.19,.34,.43,.61,.75,.81s.65,.31,1.03,.31Z"/><path class="cls-1" d="M52.58,212.53c-.78,0-1.47-.15-2.07-.44-.6-.29-1.07-.7-1.42-1.22-.35-.52-.52-1.13-.52-1.83v-1.89c0-.61,.17-1.18,.5-1.69,.33-.52,.77-.93,1.31-1.24s1.13-.47,1.78-.47,1.2,.14,1.72,.43,.94,.68,1.26,1.17,.48,1.06,.48,1.71c0,.48-.08,.83-.23,1.04-.16,.21-.35,.34-.59,.39-.24,.05-.49,.07-.76,.07h-3.96v.54c0,.67,.24,1.2,.72,1.59,.48,.39,1.1,.58,1.85,.58,.44,0,.8-.06,1.06-.18,.26-.12,.48-.24,.65-.35,.17-.11,.32-.17,.45-.17s.24,.04,.33,.12c.09,.08,.16,.17,.21,.28,.05,.11,.07,.2,.07,.29,0,.16-.11,.33-.34,.53-.23,.2-.56,.37-.98,.52-.43,.15-.93,.22-1.5,.22Zm-2.52-4.99h3.33c.32,0,.54-.04,.64-.12,.1-.08,.15-.23,.15-.46,0-.36-.09-.69-.26-1s-.42-.55-.73-.75c-.31-.19-.67-.29-1.06-.29-.37,0-.71,.09-1.03,.26-.31,.17-.56,.41-.76,.71-.19,.3-.29,.63-.29,.99v.65Z"/><path class="cls-1" d="M61.76,212.39c-.22,0-.39-.06-.53-.17-.14-.11-.21-.24-.21-.37v-12.62c0-.16,.07-.28,.21-.38,.14-.1,.31-.14,.53-.14,.2,0,.38,.05,.53,.14,.15,.1,.22,.22,.22,.38v12.62c0,.13-.07,.25-.22,.37-.15,.11-.33,.17-.53,.17Z"/><path class="cls-1" d="M66.67,212.53c-.67,0-1.25-.19-1.72-.58-.47-.39-.71-.99-.71-1.81,0-.66,.18-1.17,.54-1.54s.85-.62,1.48-.76c.63-.14,1.36-.21,2.19-.21h.86v-.38c0-.36-.07-.71-.2-1.05-.13-.34-.34-.62-.62-.85-.28-.22-.67-.33-1.16-.33-.42,0-.75,.04-1,.13-.25,.08-.44,.17-.58,.26-.14,.09-.27,.13-.38,.13-.18,0-.32-.09-.41-.26-.1-.17-.14-.34-.14-.5,0-.19,.13-.37,.4-.52,.26-.16,.59-.28,.99-.38,.4-.1,.79-.14,1.17-.14,.84,0,1.51,.17,2.02,.5s.87,.77,1.09,1.3c.22,.53,.33,1.09,.33,1.69v4.61c0,.14-.07,.27-.21,.38-.14,.11-.32,.16-.53,.16-.19,0-.35-.05-.49-.16-.13-.11-.2-.23-.2-.38v-.72c-.31,.36-.69,.68-1.13,.97-.44,.29-.97,.43-1.58,.43Zm.47-1.21c.35,0,.69-.1,1.02-.29,.33-.19,.61-.43,.83-.72,.22-.29,.33-.56,.33-.83v-.94h-.63c-.5,0-.98,.03-1.43,.09-.45,.06-.81,.19-1.09,.39-.28,.2-.41,.51-.41,.95,0,.47,.13,.81,.4,1.03,.26,.22,.59,.32,.99,.32Z"/><path class="cls-1" d="M79.31,212.53c-.56,0-1.09-.16-1.57-.49-.49-.33-.88-.76-1.17-1.3-.29-.53-.44-1.1-.44-1.7v-1.84c0-.64,.15-1.21,.44-1.73,.29-.52,.68-.93,1.17-1.25,.49-.32,1.02-.48,1.61-.48s1.06,.14,1.47,.42,.7,.6,.89,.94v-5.89c0-.16,.07-.28,.22-.38,.15-.1,.33-.14,.55-.14s.39,.05,.52,.14c.13,.1,.2,.22,.2,.38v12.62c0,.13-.07,.25-.2,.37-.13,.11-.31,.17-.52,.17-.19,0-.36-.06-.5-.17s-.21-.24-.21-.37v-.72c-.18,.37-.5,.7-.95,.98-.46,.28-.96,.42-1.51,.42Zm.36-1.35c.38,0,.73-.1,1.04-.32,.31-.21,.55-.45,.73-.71,.18-.26,.27-.47,.27-.63v-2.32c0-.44-.1-.82-.3-1.12-.2-.31-.45-.55-.77-.72-.31-.17-.63-.26-.95-.26-.38,0-.73,.1-1.04,.31-.31,.2-.56,.47-.75,.79-.19,.32-.28,.66-.28,1.01v1.84c0,.35,.09,.69,.28,1.03,.19,.34,.43,.61,.75,.81s.65,.31,1.03,.31Z"/><path class="cls-1" d="M88.56,212.53c-.64,0-1.22-.16-1.76-.49-.54-.32-.97-.75-1.3-1.29-.32-.53-.49-1.11-.49-1.72v-1.84c0-.61,.16-1.18,.48-1.7,.32-.52,.75-.95,1.29-1.27,.54-.32,1.13-.49,1.78-.49s1.22,.16,1.76,.47,.97,.73,1.3,1.25c.33,.52,.5,1.1,.5,1.74v1.84c0,.6-.17,1.17-.5,1.7-.33,.53-.76,.97-1.3,1.3s-1.13,.49-1.76,.49Zm0-1.35c.38,0,.73-.1,1.04-.31,.31-.2,.56-.47,.75-.8,.19-.33,.28-.67,.28-1.03v-1.84c0-.36-.09-.7-.28-1.02-.19-.32-.44-.58-.75-.78-.31-.2-.66-.31-1.04-.31s-.73,.1-1.04,.31c-.31,.2-.55,.47-.74,.78-.19,.32-.28,.66-.28,1.02v1.84c0,.36,.09,.71,.27,1.03,.18,.33,.43,.6,.75,.8,.32,.2,.66,.31,1.04,.31Z"/><path class="cls-1" d="M94.66,212.39c-.22,0-.39-.06-.53-.17-.14-.11-.21-.24-.21-.37v-7.47c0-.16,.07-.28,.21-.38,.14-.1,.32-.14,.53-.14,.19,0,.35,.05,.49,.14,.13,.1,.2,.22,.2,.38v.74c.19-.35,.49-.66,.9-.94s.91-.42,1.51-.42,1.1,.16,1.58,.48c.48,.32,.86,.74,1.15,1.25,.29,.52,.43,1.09,.43,1.73v4.64c0,.18-.08,.32-.23,.41-.16,.09-.33,.13-.52,.13-.18,0-.35-.04-.5-.13s-.23-.23-.23-.41v-4.64c0-.35-.09-.68-.28-1.01-.19-.32-.44-.59-.75-.79-.31-.2-.65-.31-1.03-.31-.32,0-.64,.09-.94,.26-.3,.17-.55,.41-.74,.72-.19,.31-.29,.68-.29,1.12v4.64c0,.13-.08,.25-.22,.37-.15,.11-.33,.17-.53,.17Z"/><path class="cls-1" d="M104.83,212.53c-.67,0-1.25-.19-1.72-.58-.47-.39-.71-.99-.71-1.81,0-.66,.18-1.17,.54-1.54s.86-.62,1.49-.76,1.36-.21,2.19-.21h.86v-.38c0-.36-.07-.71-.2-1.05-.13-.34-.34-.62-.62-.85-.28-.22-.67-.33-1.16-.33-.42,0-.75,.04-1,.13-.25,.08-.44,.17-.58,.26-.14,.09-.27,.13-.38,.13-.18,0-.32-.09-.41-.26-.1-.17-.14-.34-.14-.5,0-.19,.13-.37,.4-.52,.26-.16,.59-.28,.99-.38,.4-.1,.79-.14,1.17-.14,.84,0,1.51,.17,2.02,.5s.87,.77,1.09,1.3c.22,.53,.33,1.09,.33,1.69v4.61c0,.14-.07,.27-.21,.38-.14,.11-.32,.16-.53,.16-.19,0-.35-.05-.49-.16-.13-.11-.2-.23-.2-.38v-.72c-.31,.36-.69,.68-1.13,.97-.44,.29-.97,.43-1.58,.43Zm.47-1.21c.35,0,.69-.1,1.02-.29,.33-.19,.61-.43,.83-.72,.22-.29,.33-.56,.33-.83v-.94h-.63c-.5,0-.98,.03-1.43,.09-.45,.06-.81,.19-1.09,.39-.28,.2-.41,.51-.41,.95,0,.47,.13,.81,.4,1.03,.26,.22,.59,.32,.99,.32Z"/><path class="cls-1" d="M114.32,212.53c-.83,0-1.51-.16-2.04-.47-.53-.31-.93-.73-1.19-1.25-.26-.52-.39-1.11-.39-1.77v-1.8c0-.65,.13-1.24,.39-1.76,.26-.53,.65-.95,1.19-1.26s1.21-.47,2.03-.47c.53,0,.99,.07,1.39,.2,.4,.13,.7,.29,.92,.49,.22,.19,.32,.38,.32,.56,0,.1-.03,.2-.08,.32-.05,.11-.13,.21-.22,.3-.09,.08-.19,.13-.31,.13s-.25-.05-.39-.16c-.14-.11-.32-.21-.56-.31-.23-.1-.56-.15-.98-.15-.73,0-1.28,.19-1.65,.58s-.55,.91-.55,1.57v1.8c0,.66,.18,1.18,.55,1.57,.37,.38,.92,.58,1.67,.58,.43,0,.77-.06,1.01-.17s.43-.22,.57-.32c.14-.1,.27-.15,.41-.15s.25,.04,.34,.12c.1,.08,.17,.17,.22,.28,.05,.11,.08,.22,.08,.32,0,.18-.11,.37-.34,.57-.23,.2-.55,.37-.95,.5-.41,.14-.88,.21-1.42,.21Z"/><path class="cls-1" d="M119.27,201.51c-.25,0-.47-.09-.66-.26-.19-.17-.28-.38-.28-.6s.09-.43,.28-.59c.19-.17,.41-.25,.66-.25s.48,.08,.66,.25,.26,.37,.26,.59-.09,.43-.26,.6-.39,.26-.66,.26Zm0,10.87c-.22,0-.39-.06-.53-.17-.14-.11-.21-.24-.21-.37v-7.47c0-.16,.07-.28,.21-.38,.14-.1,.32-.14,.53-.14,.2,0,.38,.05,.53,.14,.15,.1,.22,.22,.22,.38v7.47c0,.13-.08,.25-.22,.37-.15,.11-.33,.17-.53,.17Z"/><path class="cls-1" d="M125.35,212.53c-.64,0-1.22-.16-1.76-.49-.54-.32-.97-.75-1.3-1.29-.32-.53-.49-1.11-.49-1.72v-1.84c0-.61,.16-1.18,.48-1.7,.32-.52,.75-.95,1.29-1.27,.54-.32,1.13-.49,1.78-.49s1.22,.16,1.76,.47,.97,.73,1.3,1.25c.33,.52,.5,1.1,.5,1.74v1.84c0,.6-.17,1.17-.5,1.7-.33,.53-.76,.97-1.3,1.3s-1.13,.49-1.76,.49Zm0-1.35c.38,0,.73-.1,1.04-.31,.31-.2,.56-.47,.75-.8,.19-.33,.28-.67,.28-1.03v-1.84c0-.36-.09-.7-.28-1.02-.19-.32-.44-.58-.75-.78-.31-.2-.66-.31-1.04-.31s-.73,.1-1.04,.31c-.31,.2-.55,.47-.74,.78-.19,.32-.28,.66-.28,1.02v1.84c0,.36,.09,.71,.27,1.03,.18,.33,.43,.6,.75,.8,.32,.2,.66,.31,1.04,.31Zm-.72-9.29c-.14,0-.27-.07-.38-.2-.11-.13-.16-.27-.16-.41,0-.19,.08-.32,.23-.4l2.11-1.12c.07-.02,.13-.04,.18-.04,.16,0,.28,.06,.37,.19s.13,.27,.13,.42c0,.19-.08,.34-.25,.43l-2.03,1.04s-.07,.03-.1,.04c-.03,.02-.06,.03-.1,.03Z"/><path class="cls-1" d="M131.45,212.39c-.22,0-.39-.06-.53-.17-.14-.11-.21-.24-.21-.37v-7.47c0-.16,.07-.28,.21-.38,.14-.1,.32-.14,.53-.14,.19,0,.35,.05,.49,.14,.13,.1,.2,.22,.2,.38v.74c.19-.35,.49-.66,.9-.94s.91-.42,1.51-.42,1.1,.16,1.58,.48c.48,.32,.86,.74,1.15,1.25,.29,.52,.43,1.09,.43,1.73v4.64c0,.18-.08,.32-.23,.41-.16,.09-.33,.13-.52,.13-.18,0-.35-.04-.5-.13s-.23-.23-.23-.41v-4.64c0-.35-.09-.68-.28-1.01-.19-.32-.44-.59-.75-.79-.31-.2-.65-.31-1.03-.31-.32,0-.64,.09-.94,.26-.3,.17-.55,.41-.74,.72-.19,.31-.29,.68-.29,1.12v4.64c0,.13-.08,.25-.22,.37-.15,.11-.33,.17-.53,.17Z"/></g><path class="cls-3" d="M164.95,60.87c-.25,0-.47-.07-.66-.21s-.28-.33-.28-.59v-5.84h-9.78c-.25,0-.45-.08-.59-.25-.14-.16-.21-.36-.21-.59,0-.13,.01-.23,.04-.32s.06-.16,.11-.21l9.63-19.07c.13-.25,.27-.42,.44-.51,.16-.09,.33-.13,.51-.13,.15,0,.29,.03,.42,.09,.13,.06,.24,.15,.34,.26,.1,.11,.15,.26,.15,.44,0,.13-.04,.28-.11,.45l-9.1,17.97h8.15v-8.15c0-.28,.09-.47,.28-.59,.19-.11,.41-.17,.66-.17s.47,.06,.66,.17c.19,.11,.28,.31,.28,.59v8.15h2.16c.28,0,.49,.09,.62,.28s.21,.41,.21,.66c0,.23-.08,.44-.23,.62s-.35,.28-.61,.28h-2.16v5.84c0,.25-.09,.45-.28,.59s-.41,.21-.66,.21Z"/></g></g></g></svg>