<?xml version="1.0" encoding="UTF-8"?><svg xmlns="http://www.w3.org/2000/svg" xmlns:xlink="http://www.w3.org/1999/xlink" viewBox="0 0 216.97 267.48"><defs><style>.cls-1{fill:#5c6060;font-family:Dosis-Light, Dosis;font-size:37.9px;font-variation-settings:'wght' 300;}.cls-2{fill:#f0b070;}.cls-3{fill:#726f6b;}.cls-4{letter-spacing:0em;}.cls-5{mix-blend-mode:color-dodge;}.cls-5,.cls-6,.cls-7{fill:#fff;}.cls-8{letter-spacing:0em;}.cls-6{filter:url(#drop-shadow-1);}.cls-7{filter:url(#drop-shadow-2);}.cls-9{fill:#676661;font-family:Dosis-Medium, Dosis;font-size:18px;font-variation-settings:'wght' 500;}.cls-10{isolation:isolate;}.cls-11{fill:none;mix-blend-mode:screen;stroke:#f0b070;stroke-miterlimit:10;stroke-width:8px;}</style><filter id="drop-shadow-1" filterUnits="userSpaceOnUse"><feOffset dx="0" dy="10"/><feGaussianBlur result="blur" stdDeviation="6"/><feFlood flood-color="#665f60" flood-opacity=".48"/><feComposite in2="blur" operator="in"/><feComposite in="SourceGraphic"/></filter><filter id="drop-shadow-2" filterUnits="userSpaceOnUse"><feOffset dx="4" dy="7"/><feGaussianBlur result="blur-2" stdDeviation="5"/><feFlood flood-color="#665f60" flood-opacity=".48"/><feComposite in2="blur-2" operator="in"/><feComposite in="SourceGraphic"/></filter></defs><g class="cls-10"><g id="Layer_2"><g id="Layer_6"><path class="cls-6" d="M160.57,8.06c21.09,0,38.18,17.09,38.18,38.18s-17.09,38.18-38.18,38.18"/></g><g id="Layer_1-2"><rect class="cls-2" y="27.48" width="176.96" height="202.32" rx="16.96" ry="16.96"/><polygon class="cls-7" points="160.56 211.04 88.1 245.42 16.41 211.04 16.41 46.24 160.56 46.24 160.56 211.04"/><circle class="cls-2" cx="160.8" cy="46.5" r="38.18"/></g><g id="Layer_2-2"><text class="cls-9" transform="translate(27.69 190.99)"><tspan x="0" y="0">Sele</tspan><tspan class="cls-4" x="29.72" y="0">c</tspan><tspan x="37.13" y="0">ciona el tipo </tspan><tspan x="28.66" y="20">de ap</tspan><tspan class="cls-8" x="66.45" y="20">o</tspan><tspan x="75" y="20">yo</tspan></text></g><g id="Layer_3"><path class="cls-3" d="M90.57,83.6v1.63c.99,.19,1.95,.42,2.82,.65,1.99,.53,3.17,2.58,2.64,4.56s-2.58,3.17-4.56,2.64c-1.69-.45-3.27-.76-4.69-.78-1.13-.02-2.28,.26-3.01,.68-.33,.2-.48,.37-.54,.47-.05,.08-.11,.19-.11,.43v.09s.14,.19,.51,.4c.9,.54,2.23,.96,4.25,1.57l.14,.05h0c1.72,.51,4.02,1.21,5.88,2.37,2.13,1.33,4.05,3.55,4.1,6.97,.05,3.49-1.77,6.04-4.14,7.52-1.04,.64-2.16,1.09-3.3,1.37v1.64c0,2.06-1.66,3.72-3.72,3.72s-3.72-1.66-3.72-3.72v-1.77c-1.47-.36-2.82-.82-3.97-1.21-.33-.11-.64-.22-.93-.31-1.95-.65-3.01-2.76-2.36-4.72s2.76-3.01,4.72-2.36c.4,.14,.78,.26,1.13,.39,2.11,.71,3.63,1.23,5.26,1.29,1.24,.05,2.34-.25,2.98-.64,.29-.19,.43-.34,.5-.45,.06-.09,.14-.28,.12-.64v-.03c0-.16,0-.33-.62-.71-.88-.56-2.22-.99-4.2-1.6l-.29-.09c-1.68-.5-3.88-1.16-5.65-2.23-2.09-1.26-4.11-3.41-4.13-6.84-.02-3.55,2-5.99,4.3-7.35,.99-.59,2.06-.99,3.13-1.27v-1.72c0-2.06,1.66-3.72,3.72-3.72s3.72,1.66,3.72,3.72h.03Zm39.75,48.45c2.03,2.76,1.44,6.64-1.32,8.67l-19.64,14.48c-3.63,2.67-8.01,4.11-12.52,4.11H47.13c-2.75,0-4.96-2.22-4.96-4.96v-9.93c0-2.75,2.22-4.96,4.96-4.96h5.71l6.97-5.59c3.52-2.82,7.9-4.34,12.41-4.34h24.56c2.75,0,4.96,2.22,4.96,4.96s-2.22,4.96-4.96,4.96h-12.41c-1.37,0-2.48,1.12-2.48,2.48s1.12,2.48,2.48,2.48h18.71l18.57-13.68c2.76-2.03,6.64-1.44,8.67,1.32Zm-58.12,7.4h0Z"/></g><g id="Layer_5"><g><circle class="cls-5" cx="161.53" cy="46.44" r="25.71"/><circle class="cls-11" cx="161.53" cy="46.44" r="25.71"/></g></g><g id="Layer_4"><text class="cls-1" transform="translate(152.72 60.18)"><tspan x="0" y="0">3</tspan></text></g></g></g></svg>