<?xml version="1.0" encoding="UTF-8"?><svg xmlns="http://www.w3.org/2000/svg" xmlns:xlink="http://www.w3.org/1999/xlink" viewBox="0 0 217.21 267.48"><defs><style>.cls-1{fill:#676661;}.cls-2{fill:#a57197;}.cls-3{fill:#c58b8a;}.cls-4{fill:#5c6060;}.cls-5{fill:#726f6b;}.cls-6{mix-blend-mode:color-dodge;}.cls-6,.cls-7,.cls-8{fill:#fff;}.cls-7{filter:url(#drop-shadow-1);}.cls-8{filter:url(#drop-shadow-2);}.cls-9{isolation:isolate;}.cls-10{fill:none;mix-blend-mode:screen;stroke:#f0b070;stroke-miterlimit:10;stroke-width:8px;}</style><filter id="drop-shadow-1" filterUnits="userSpaceOnUse"><feOffset dx="0" dy="10"/><feGaussianBlur result="blur" stdDeviation="6"/><feFlood flood-color="#665f60" flood-opacity=".48"/><feComposite in2="blur" operator="in"/><feComposite in="SourceGraphic"/></filter><filter id="drop-shadow-2" filterUnits="userSpaceOnUse"><feOffset dx="4" dy="7"/><feGaussianBlur result="blur-2" stdDeviation="5"/><feFlood flood-color="#665f60" flood-opacity=".48"/><feComposite in2="blur-2" operator="in"/><feComposite in="SourceGraphic"/></filter></defs><g class="cls-9"><g id="Layer_2"><g id="Layer_6"><path class="cls-7" d="M160.89,8c21.09,0,38.18,17.09,38.18,38.18s-17.09,38.18-38.18,38.18"/></g><g id="Layer_1-2"><circle class="cls-3" cx="160.8" cy="46.44" r="38.18"/><rect class="cls-2" y="27.42" width="176.96" height="202.32" rx="16.96" ry="16.96"/><polygon class="cls-8" points="160.56 210.98 88.1 245.36 16.41 210.98 16.41 46.18 160.56 46.18 160.56 210.98"/><circle class="cls-2" cx="160.8" cy="46.44" r="38.18"/></g><g id="Layer_3"><path class="cls-5" d="M105.63,80.11h-34.56c-4.09,0-7.42,3.36-7.27,7.44,.03,.82,.06,1.64,.11,2.44h-16.29c-2.05,0-3.7,1.65-3.7,3.7,0,14.29,5.17,24.23,12.11,30.97,6.84,6.65,15.17,10,21.31,11.7,3.61,1,6.08,4.01,6.08,7.04,0,3.22-2.62,5.85-5.85,5.85h-4.03c-2.73,0-4.94,2.21-4.94,4.94s2.21,4.94,4.94,4.94h29.63c2.73,0,4.94-2.21,4.94-4.94s-2.21-4.94-4.94-4.94h-4.03c-3.22,0-5.85-2.62-5.85-5.85,0-3.02,2.45-6.05,6.08-7.04,6.16-1.7,14.49-5.05,21.32-11.7,6.93-6.74,12.1-16.68,12.1-30.97,0-2.05-1.65-3.7-3.7-3.7h-16.29c.05-.8,.08-1.6,.11-2.44,.15-4.07-3.18-7.44-7.27-7.44Zm-54.18,17.28h13.02c1.4,13.9,4.51,23.19,8.01,29.41-3.84-1.7-7.84-4.09-11.3-7.45-4.94-4.8-8.95-11.73-9.72-21.96h-.02Zm64.07,21.96c-3.46,3.36-7.45,5.76-11.3,7.45,3.5-6.22,6.6-15.51,8.01-29.41h13.02c-.79,10.23-4.8,17.16-9.72,21.96h-.02Z"/></g><g id="Layer_5"><g><circle class="cls-6" cx="161" cy="46.39" r="25.71"/><circle class="cls-10" cx="161" cy="46.39" r="25.71"/></g></g><g id="Layer_7"><g><path class="cls-1" d="M49.87,178.79c-.26,0-.49-.09-.67-.28-.18-.19-.27-.41-.27-.68s.09-.47,.27-.66c.18-.19,.4-.28,.67-.28s.49,.09,.67,.28c.18,.19,.27,.4,.27,.66,0,.26-.09,.49-.27,.68-.18,.19-.4,.28-.67,.28Zm0,11.56c-.22,0-.4-.07-.56-.2s-.23-.32-.23-.58c0-.94,.02-1.91,.05-2.93,.04-1.02,.07-2.04,.11-3.06,.04-1.02,.05-2,.05-2.93,0-.17,.07-.29,.2-.37,.13-.08,.26-.12,.38-.12,.16,0,.29,.04,.41,.12,.12,.08,.18,.2,.18,.37,0,.94,.02,1.91,.06,2.93,.04,1.02,.08,2.04,.12,3.06,.04,1.02,.05,2,.05,2.93,0,.25-.08,.44-.24,.58s-.36,.2-.58,.2Z"/><path class="cls-1" d="M60.01,190.27c-.14,0-.27-.06-.39-.18-.11-.12-.21-.26-.3-.41l-2.7-5.27h-2.09v5.29c0,.18-.08,.32-.23,.41-.16,.09-.33,.13-.52,.13-.18,0-.35-.04-.51-.13s-.24-.23-.24-.41v-12.1c0-.14,.05-.26,.15-.36,.1-.1,.23-.15,.39-.16h3.29c.73,0,1.4,.11,2.01,.33,.61,.22,1.09,.59,1.45,1.12,.36,.52,.54,1.24,.54,2.15,0,.73-.12,1.34-.35,1.82-.23,.48-.56,.86-.96,1.12-.41,.27-.86,.46-1.37,.57l2.66,5.06s.04,.09,.05,.13c.01,.04,.02,.08,.02,.12,0,.13-.04,.26-.14,.38-.09,.12-.2,.22-.34,.29-.14,.07-.28,.11-.42,.11Zm-5.47-7.13h2.32c.74,0,1.34-.18,1.8-.54,.46-.36,.68-.97,.68-1.82s-.23-1.46-.68-1.81c-.46-.35-1.06-.53-1.8-.53h-2.32v4.7Z"/><path class="cls-1" d="M66,190.38c-.78,0-1.47-.15-2.07-.44-.6-.29-1.07-.7-1.42-1.22-.35-.52-.52-1.13-.52-1.83v-1.89c0-.61,.17-1.18,.5-1.69,.33-.52,.77-.93,1.31-1.24s1.13-.47,1.78-.47,1.2,.14,1.72,.43,.94,.68,1.26,1.17,.48,1.06,.48,1.71c0,.48-.08,.83-.23,1.04-.16,.21-.35,.34-.59,.39-.24,.05-.49,.07-.76,.07h-3.96v.54c0,.67,.24,1.2,.72,1.59,.48,.39,1.1,.58,1.85,.58,.44,0,.8-.06,1.06-.18,.26-.12,.48-.24,.65-.35,.17-.11,.32-.17,.45-.17s.24,.04,.33,.12c.09,.08,.16,.17,.21,.28,.05,.11,.07,.2,.07,.29,0,.16-.11,.33-.34,.53-.23,.2-.56,.37-.98,.52-.43,.15-.93,.22-1.5,.22Zm-2.52-4.99h3.33c.32,0,.54-.04,.64-.12,.1-.08,.15-.23,.15-.46,0-.36-.09-.69-.26-1s-.42-.55-.73-.75c-.31-.19-.67-.29-1.06-.29-.37,0-.71,.09-1.03,.26-.31,.17-.56,.41-.76,.71-.19,.3-.29,.63-.29,.99v.65Z"/><path class="cls-1" d="M73.99,190.38c-.83,0-1.51-.16-2.04-.47-.53-.31-.93-.73-1.19-1.25-.26-.52-.39-1.11-.39-1.77v-1.8c0-.65,.13-1.24,.39-1.76,.26-.53,.65-.95,1.19-1.26,.53-.31,1.21-.47,2.02-.47,.53,0,.99,.07,1.39,.2,.4,.13,.7,.29,.92,.49,.22,.19,.32,.38,.32,.56,0,.1-.03,.2-.08,.32-.05,.11-.13,.21-.22,.3s-.2,.13-.31,.13-.25-.05-.39-.16c-.14-.11-.32-.21-.56-.31-.23-.1-.56-.15-.98-.15-.73,0-1.28,.19-1.65,.58s-.55,.91-.55,1.57v1.8c0,.66,.18,1.18,.55,1.57,.37,.38,.92,.58,1.67,.58,.43,0,.77-.06,1.01-.17,.24-.11,.43-.22,.57-.32,.14-.1,.27-.15,.41-.15s.25,.04,.34,.12c.1,.08,.17,.17,.22,.28,.05,.11,.08,.22,.08,.32,0,.18-.11,.37-.34,.57-.23,.2-.55,.37-.95,.5-.41,.14-.88,.21-1.42,.21Z"/><path class="cls-1" d="M78.94,179.36c-.25,0-.47-.09-.66-.26-.19-.17-.28-.38-.28-.6s.09-.43,.28-.59c.19-.17,.41-.25,.66-.25s.48,.08,.66,.25,.26,.37,.26,.59-.09,.43-.26,.6-.39,.26-.66,.26Zm0,10.87c-.22,0-.39-.06-.53-.17-.14-.11-.21-.24-.21-.37v-7.47c0-.16,.07-.28,.21-.38,.14-.1,.32-.14,.53-.14,.2,0,.38,.05,.53,.14,.15,.1,.22,.22,.22,.38v7.47c0,.13-.08,.25-.22,.37-.15,.11-.33,.17-.53,.17Z"/><path class="cls-1" d="M85.71,190.38c-.55,0-1.05-.14-1.5-.42-.45-.28-.77-.61-.96-.98v.72c0,.13-.07,.25-.2,.37s-.3,.17-.5,.17-.38-.06-.51-.17c-.14-.11-.21-.24-.21-.37v-12.62c0-.16,.07-.28,.21-.38,.14-.1,.31-.14,.51-.14,.22,0,.4,.05,.55,.14,.15,.1,.23,.22,.23,.38v5.89c.19-.35,.49-.66,.89-.94s.89-.42,1.47-.42,1.12,.16,1.61,.48c.49,.32,.88,.74,1.17,1.25,.29,.52,.44,1.09,.44,1.73v1.84c0,.6-.15,1.17-.44,1.7-.29,.53-.68,.97-1.16,1.3-.48,.33-1.01,.49-1.58,.49Zm-.36-1.35c.37,0,.71-.1,1.03-.31,.31-.2,.56-.47,.75-.81s.28-.68,.28-1.03v-1.84c0-.35-.09-.68-.28-1.01-.19-.32-.43-.59-.75-.79-.31-.2-.66-.31-1.04-.31-.32,0-.64,.09-.95,.26-.31,.17-.57,.41-.76,.72-.2,.31-.3,.68-.3,1.12v2.32c0,.16,.09,.37,.27,.63,.18,.26,.43,.5,.74,.71,.31,.21,.65,.32,1.03,.32Z"/><path class="cls-1" d="M94.39,190.38c-.78,0-1.47-.15-2.07-.44-.6-.29-1.07-.7-1.42-1.22-.35-.52-.52-1.13-.52-1.83v-1.89c0-.61,.16-1.18,.5-1.69,.33-.52,.76-.93,1.3-1.24s1.13-.47,1.78-.47,1.2,.14,1.72,.43c.52,.29,.94,.68,1.26,1.17s.48,1.06,.48,1.71c0,.48-.08,.83-.23,1.04s-.35,.34-.59,.39c-.24,.05-.49,.07-.76,.07h-3.96v.54c0,.67,.24,1.2,.72,1.59,.48,.39,1.1,.58,1.85,.58,.44,0,.8-.06,1.06-.18,.26-.12,.48-.24,.65-.35,.17-.11,.32-.17,.45-.17s.24,.04,.33,.12,.16,.17,.21,.28c.05,.11,.07,.2,.07,.29,0,.16-.11,.33-.34,.53-.23,.2-.56,.37-.98,.52-.43,.15-.93,.22-1.5,.22Zm-2.52-4.99h3.33c.32,0,.54-.04,.64-.12,.1-.08,.15-.23,.15-.46,0-.36-.09-.69-.26-1s-.42-.55-.73-.75c-.31-.19-.67-.29-1.06-.29-.37,0-.71,.09-1.03,.26-.31,.17-.56,.41-.76,.71-.19,.3-.29,.63-.29,.99v.65Z"/><path class="cls-1" d="M106.16,190.38c-.66,0-1.26-.16-1.8-.49s-.97-.75-1.3-1.28c-.32-.53-.49-1.09-.49-1.69v-4.68c0-.13,.08-.25,.23-.37,.15-.11,.33-.17,.53-.17s.38,.06,.52,.17c.14,.11,.22,.24,.22,.37v4.68c0,.36,.09,.7,.28,1.02,.19,.32,.43,.58,.75,.78,.31,.2,.66,.31,1.04,.31s.73-.1,1.04-.31c.31-.2,.56-.46,.74-.78,.18-.32,.27-.66,.27-1.02v-4.7c0-.14,.08-.27,.23-.37,.16-.1,.33-.15,.52-.15,.23,0,.41,.05,.54,.15s.2,.22,.2,.37v4.7c0,.61-.16,1.18-.48,1.7-.32,.52-.75,.95-1.29,1.27s-1.13,.49-1.76,.49Z"/><path class="cls-1" d="M112.48,190.23c-.22,0-.39-.06-.53-.17-.14-.11-.21-.24-.21-.37v-7.47c0-.16,.07-.28,.21-.38,.14-.1,.32-.14,.53-.14,.19,0,.35,.05,.49,.14,.13,.1,.2,.22,.2,.38v.74c.19-.35,.49-.66,.9-.94s.91-.42,1.51-.42,1.1,.16,1.58,.48c.48,.32,.86,.74,1.15,1.25,.29,.52,.43,1.09,.43,1.73v4.64c0,.18-.08,.32-.23,.41-.16,.09-.33,.13-.52,.13-.18,0-.35-.04-.5-.13s-.23-.23-.23-.41v-4.64c0-.35-.09-.68-.28-1.01-.19-.32-.44-.59-.75-.79-.31-.2-.65-.31-1.03-.31-.32,0-.64,.09-.94,.26-.3,.17-.55,.41-.74,.72-.19,.31-.29,.68-.29,1.12v4.64c0,.13-.08,.25-.22,.37-.15,.11-.33,.17-.53,.17Z"/><path class="cls-1" d="M122.65,190.38c-.67,0-1.25-.19-1.72-.58-.47-.39-.71-.99-.71-1.81,0-.66,.18-1.17,.54-1.54s.86-.62,1.49-.76,1.36-.21,2.19-.21h.86v-.38c0-.36-.07-.71-.2-1.05-.13-.34-.34-.62-.62-.85-.28-.22-.67-.33-1.16-.33-.42,0-.75,.04-1,.13-.25,.08-.44,.17-.58,.26-.14,.09-.27,.13-.38,.13-.18,0-.32-.09-.41-.26-.1-.17-.14-.34-.14-.5,0-.19,.13-.37,.4-.52,.26-.16,.59-.28,.99-.38,.4-.1,.79-.14,1.17-.14,.84,0,1.51,.17,2.02,.5s.87,.77,1.09,1.3c.22,.53,.33,1.09,.33,1.69v4.61c0,.14-.07,.27-.21,.38-.14,.11-.32,.16-.53,.16-.19,0-.35-.05-.49-.16-.13-.11-.2-.23-.2-.38v-.72c-.31,.36-.69,.68-1.13,.97-.44,.29-.97,.43-1.58,.43Zm.47-1.21c.35,0,.69-.1,1.02-.29,.33-.19,.61-.43,.83-.72,.22-.29,.33-.56,.33-.83v-.94h-.63c-.5,0-.98,.03-1.43,.09-.45,.06-.81,.19-1.09,.39-.28,.2-.41,.51-.41,.95,0,.47,.13,.81,.4,1.03,.26,.22,.59,.32,.99,.32Z"/><path class="cls-1" d="M27.96,210.23c-.22,0-.39-.06-.53-.17-.14-.11-.21-.24-.21-.37v-7.47c0-.16,.07-.28,.21-.38,.14-.1,.31-.14,.53-.14,.19,0,.35,.05,.49,.14,.13,.1,.2,.22,.2,.38v.74c.2-.35,.5-.66,.9-.94s.89-.42,1.49-.42,1.08,.17,1.51,.5c.43,.34,.75,.77,.95,1.3,.31-.61,.71-1.07,1.21-1.36s1-.44,1.51-.44,1.03,.13,1.5,.4c.47,.27,.86,.66,1.15,1.18,.29,.52,.44,1.14,.44,1.87v4.64c0,.13-.08,.25-.23,.37-.15,.11-.33,.17-.53,.17s-.38-.06-.52-.17-.22-.24-.22-.37v-4.64c0-.46-.09-.84-.28-1.15-.19-.31-.43-.55-.72-.71-.29-.16-.59-.24-.89-.24-.32,0-.63,.08-.92,.25s-.53,.4-.72,.7c-.19,.3-.29,.67-.29,1.1v4.72c0,.18-.08,.31-.23,.4-.16,.08-.33,.13-.52,.13-.17,0-.33-.04-.49-.13-.16-.08-.24-.22-.24-.4v-4.7c0-.41-.09-.77-.26-1.08-.17-.31-.4-.55-.68-.73-.28-.17-.59-.26-.93-.26s-.63,.08-.93,.25c-.29,.17-.53,.41-.72,.71s-.28,.69-.28,1.14v4.64c0,.13-.08,.25-.23,.37-.15,.11-.33,.17-.53,.17Z"/><path class="cls-1" d="M45.04,210.38c-.78,0-1.47-.15-2.07-.44-.6-.29-1.07-.7-1.42-1.22-.35-.52-.52-1.13-.52-1.83v-1.89c0-.61,.17-1.18,.5-1.69,.33-.52,.77-.93,1.31-1.24s1.13-.47,1.78-.47,1.2,.14,1.72,.43,.94,.68,1.26,1.17,.48,1.06,.48,1.71c0,.48-.08,.83-.23,1.04-.16,.21-.35,.34-.59,.39-.24,.05-.49,.07-.76,.07h-3.96v.54c0,.67,.24,1.2,.72,1.59,.48,.39,1.1,.58,1.85,.58,.44,0,.8-.06,1.06-.18,.26-.12,.48-.24,.65-.35,.17-.11,.32-.17,.45-.17s.24,.04,.33,.12c.09,.08,.16,.17,.21,.28,.05,.11,.07,.2,.07,.29,0,.16-.11,.33-.34,.53-.23,.2-.56,.37-.98,.52-.43,.15-.93,.22-1.5,.22Zm-2.52-4.99h3.33c.32,0,.54-.04,.64-.12,.1-.08,.15-.23,.15-.46,0-.36-.09-.69-.26-1s-.42-.55-.73-.75c-.31-.19-.67-.29-1.06-.29-.37,0-.71,.09-1.03,.26-.31,.17-.56,.41-.76,.71-.19,.3-.29,.63-.29,.99v.65Z"/><path class="cls-1" d="M50.46,210.23c-.22,0-.39-.06-.53-.17-.14-.11-.21-.24-.21-.37v-7.47c0-.16,.07-.28,.21-.38,.14-.1,.31-.14,.53-.14,.19,0,.35,.05,.49,.14,.13,.1,.2,.22,.2,.38v.74c.19-.35,.49-.66,.9-.94,.41-.28,.91-.42,1.51-.42s1.1,.16,1.58,.48c.48,.32,.86,.74,1.15,1.25,.29,.52,.43,1.09,.43,1.73v4.64c0,.18-.08,.32-.23,.41-.16,.09-.33,.13-.52,.13-.18,0-.35-.04-.5-.13-.16-.09-.23-.23-.23-.41v-4.64c0-.35-.09-.68-.28-1.01-.19-.32-.44-.59-.75-.79-.31-.2-.65-.31-1.03-.31-.32,0-.64,.09-.94,.26-.3,.17-.55,.41-.74,.72-.19,.31-.29,.68-.29,1.12v4.64c0,.13-.08,.25-.23,.37-.15,.11-.33,.17-.53,.17Z"/><path class="cls-1" d="M62.07,210.38c-.83,0-1.51-.16-2.04-.47-.53-.31-.93-.73-1.19-1.25-.26-.52-.39-1.11-.39-1.77v-1.8c0-.65,.13-1.24,.39-1.76,.26-.53,.65-.95,1.19-1.26,.53-.31,1.21-.47,2.02-.47,.53,0,.99,.07,1.39,.2,.4,.13,.7,.29,.92,.49,.22,.19,.32,.38,.32,.56,0,.1-.03,.2-.08,.32-.05,.11-.13,.21-.22,.3s-.2,.13-.31,.13-.25-.05-.39-.16c-.14-.11-.32-.21-.56-.31-.23-.1-.56-.15-.98-.15-.73,0-1.28,.19-1.65,.58s-.55,.91-.55,1.57v1.8c0,.66,.18,1.18,.55,1.57,.37,.38,.92,.58,1.67,.58,.43,0,.77-.06,1.01-.17,.24-.11,.43-.22,.57-.32,.14-.1,.27-.15,.4-.15s.25,.04,.34,.12c.1,.08,.17,.17,.23,.28,.05,.11,.08,.22,.08,.32,0,.18-.11,.37-.34,.57-.23,.2-.55,.37-.95,.5-.41,.14-.88,.21-1.42,.21Z"/><path class="cls-1" d="M67.02,199.36c-.25,0-.47-.09-.66-.26s-.28-.38-.28-.6,.09-.43,.28-.59,.4-.25,.66-.25,.48,.08,.66,.25c.17,.17,.26,.37,.26,.59s-.09,.43-.26,.6c-.17,.17-.39,.26-.66,.26Zm0,10.87c-.22,0-.39-.06-.53-.17-.14-.11-.21-.24-.21-.37v-7.47c0-.16,.07-.28,.21-.38,.14-.1,.31-.14,.53-.14,.2,0,.38,.05,.53,.14,.15,.1,.23,.22,.23,.38v7.47c0,.13-.08,.25-.23,.37-.15,.11-.33,.17-.53,.17Z"/><path class="cls-1" d="M73.1,210.38c-.64,0-1.22-.16-1.76-.49s-.97-.75-1.3-1.29c-.32-.53-.49-1.11-.49-1.72v-1.84c0-.61,.16-1.18,.48-1.7,.32-.52,.75-.95,1.29-1.27,.54-.32,1.13-.49,1.78-.49s1.22,.16,1.76,.47,.98,.73,1.31,1.25c.33,.52,.49,1.1,.49,1.74v1.84c0,.6-.16,1.17-.49,1.7-.33,.53-.77,.97-1.31,1.3s-1.13,.49-1.76,.49Zm0-1.35c.38,0,.73-.1,1.04-.31,.31-.2,.56-.47,.75-.8,.19-.33,.28-.67,.28-1.03v-1.84c0-.36-.09-.7-.28-1.02-.19-.32-.44-.58-.75-.78-.31-.2-.66-.31-1.04-.31s-.73,.1-1.04,.31c-.31,.2-.55,.47-.74,.78-.19,.32-.28,.66-.28,1.02v1.84c0,.36,.09,.71,.27,1.03,.18,.33,.43,.6,.75,.8,.32,.2,.66,.31,1.04,.31Zm-.72-9.29c-.14,0-.27-.07-.38-.2-.11-.13-.16-.27-.16-.41,0-.19,.08-.32,.23-.4l2.11-1.12c.07-.02,.13-.04,.18-.04,.16,0,.28,.06,.37,.19s.13,.27,.13,.42c0,.19-.08,.34-.25,.43l-2.03,1.04s-.07,.03-.1,.04c-.03,.02-.06,.03-.1,.03Z"/><path class="cls-1" d="M79.21,210.23c-.22,0-.39-.06-.53-.17-.14-.11-.21-.24-.21-.37v-7.47c0-.16,.07-.28,.21-.38,.14-.1,.32-.14,.53-.14,.19,0,.35,.05,.49,.14,.13,.1,.2,.22,.2,.38v.74c.19-.35,.49-.66,.9-.94s.91-.42,1.51-.42,1.1,.16,1.58,.48c.48,.32,.86,.74,1.15,1.25,.29,.52,.43,1.09,.43,1.73v4.64c0,.18-.08,.32-.23,.41-.16,.09-.33,.13-.52,.13-.18,0-.35-.04-.5-.13s-.23-.23-.23-.41v-4.64c0-.35-.09-.68-.28-1.01-.19-.32-.44-.59-.75-.79-.31-.2-.65-.31-1.03-.31-.32,0-.64,.09-.94,.26-.3,.17-.55,.41-.74,.72-.19,.31-.29,.68-.29,1.12v4.64c0,.13-.08,.25-.22,.37-.15,.11-.33,.17-.53,.17Z"/><path class="cls-1" d="M94.79,210.38c-.78,0-1.47-.15-2.07-.44-.6-.29-1.07-.7-1.42-1.22-.35-.52-.52-1.13-.52-1.83v-1.89c0-.61,.16-1.18,.5-1.69,.33-.52,.76-.93,1.3-1.24s1.13-.47,1.78-.47,1.2,.14,1.72,.43c.52,.29,.94,.68,1.26,1.17s.48,1.06,.48,1.71c0,.48-.08,.83-.23,1.04s-.35,.34-.59,.39c-.24,.05-.49,.07-.76,.07h-3.96v.54c0,.67,.24,1.2,.72,1.59,.48,.39,1.1,.58,1.85,.58,.44,0,.8-.06,1.06-.18,.26-.12,.48-.24,.65-.35,.17-.11,.32-.17,.45-.17s.24,.04,.33,.12,.16,.17,.21,.28c.05,.11,.07,.2,.07,.29,0,.16-.11,.33-.34,.53-.23,.2-.56,.37-.98,.52-.43,.15-.93,.22-1.5,.22Zm-2.52-4.99h3.33c.32,0,.54-.04,.64-.12,.1-.08,.15-.23,.15-.46,0-.36-.09-.69-.26-1s-.42-.55-.73-.75c-.31-.19-.67-.29-1.06-.29-.37,0-.71,.09-1.03,.26-.31,.17-.56,.41-.76,.71-.19,.3-.29,.63-.29,.99v.65Z"/><path class="cls-1" d="M101.92,210.38c-.58,0-1.09-.07-1.53-.22-.44-.15-.79-.33-1.04-.53-.25-.2-.38-.41-.38-.61,0-.1,.02-.2,.07-.3,.05-.1,.11-.19,.19-.27,.08-.08,.16-.12,.26-.12,.14,0,.3,.07,.47,.21,.17,.14,.4,.28,.68,.42,.29,.14,.7,.22,1.24,.22,.64,0,1.08-.12,1.33-.35s.38-.5,.38-.78c0-.37-.11-.66-.32-.85-.22-.2-.49-.35-.83-.47-.34-.11-.69-.23-1.06-.33-.37-.11-.73-.24-1.06-.41s-.61-.39-.82-.68c-.21-.29-.31-.69-.31-1.18,0-.4,.1-.79,.29-1.17,.19-.38,.5-.71,.94-.96s1.01-.39,1.73-.39c.42,0,.83,.04,1.22,.13,.39,.09,.71,.21,.95,.36,.25,.15,.37,.31,.37,.48,0,.07-.02,.17-.07,.29-.05,.12-.11,.23-.2,.32-.08,.1-.19,.14-.32,.14-.1,0-.23-.04-.41-.13s-.38-.18-.63-.26-.54-.13-.89-.13c-.4,0-.71,.07-.95,.21-.24,.14-.41,.3-.52,.49-.11,.19-.16,.38-.16,.57,0,.3,.1,.53,.31,.7s.49,.3,.83,.4c.34,.1,.7,.2,1.07,.31,.37,.1,.73,.25,1.06,.43,.34,.19,.61,.44,.83,.76,.22,.32,.32,.76,.32,1.3,0,.73-.26,1.32-.79,1.75-.53,.44-1.27,.66-2.23,.66Z"/><path class="cls-1" d="M107.32,214.36c-.2,0-.38-.06-.51-.17-.14-.11-.21-.24-.21-.37v-11.59c0-.16,.07-.28,.21-.38,.14-.1,.31-.14,.51-.14s.37,.05,.5,.14c.13,.1,.2,.22,.2,.38v.74c.2-.35,.51-.66,.92-.94s.91-.42,1.49-.42,1.15,.16,1.64,.48c.49,.32,.88,.74,1.17,1.25,.29,.52,.43,1.09,.43,1.73v1.84c0,.6-.15,1.17-.44,1.7-.29,.53-.68,.97-1.16,1.3-.48,.33-1.01,.49-1.58,.49-.54,0-1.03-.14-1.46-.42-.43-.28-.74-.61-.94-.98v4.84c0,.13-.08,.25-.23,.37-.15,.11-.33,.17-.55,.17Zm2.81-5.33c.36,0,.7-.1,1.01-.31,.31-.2,.56-.47,.76-.81,.19-.34,.29-.68,.29-1.03v-1.84c0-.35-.1-.68-.29-1.01-.19-.32-.44-.59-.76-.79-.31-.2-.66-.31-1.04-.31-.32,0-.64,.09-.95,.26-.31,.17-.56,.41-.76,.72-.2,.31-.3,.68-.3,1.12v2.32c0,.16,.09,.37,.26,.63,.17,.26,.41,.5,.72,.71,.31,.21,.66,.32,1.05,.32Z"/><path class="cls-1" d="M119.16,210.38c-.78,0-1.47-.15-2.07-.44-.6-.29-1.07-.7-1.42-1.22-.35-.52-.52-1.13-.52-1.83v-1.89c0-.61,.16-1.18,.5-1.69,.33-.52,.76-.93,1.3-1.24s1.13-.47,1.78-.47,1.2,.14,1.72,.43c.52,.29,.94,.68,1.26,1.17s.48,1.06,.48,1.71c0,.48-.08,.83-.23,1.04s-.35,.34-.59,.39c-.24,.05-.49,.07-.76,.07h-3.96v.54c0,.67,.24,1.2,.72,1.59,.48,.39,1.1,.58,1.85,.58,.44,0,.8-.06,1.06-.18,.26-.12,.48-.24,.65-.35,.17-.11,.32-.17,.45-.17s.24,.04,.33,.12,.16,.17,.21,.28c.05,.11,.07,.2,.07,.29,0,.16-.11,.33-.34,.53-.23,.2-.56,.37-.98,.52-.43,.15-.93,.22-1.5,.22Zm-2.52-4.99h3.33c.32,0,.54-.04,.64-.12,.1-.08,.15-.23,.15-.46,0-.36-.09-.69-.26-1s-.42-.55-.73-.75c-.31-.19-.67-.29-1.06-.29-.37,0-.71,.09-1.03,.26-.31,.17-.56,.41-.76,.71-.19,.3-.29,.63-.29,.99v.65Z"/><path class="cls-1" d="M127.16,210.38c-.83,0-1.51-.16-2.04-.47-.53-.31-.93-.73-1.19-1.25-.26-.52-.39-1.11-.39-1.77v-1.8c0-.65,.13-1.24,.39-1.76,.26-.53,.65-.95,1.19-1.26s1.21-.47,2.03-.47c.53,0,.99,.07,1.39,.2,.4,.13,.7,.29,.92,.49,.22,.19,.32,.38,.32,.56,0,.1-.03,.2-.08,.32-.05,.11-.13,.21-.22,.3-.09,.08-.19,.13-.31,.13s-.25-.05-.39-.16c-.14-.11-.32-.21-.56-.31-.23-.1-.56-.15-.98-.15-.73,0-1.28,.19-1.65,.58s-.55,.91-.55,1.57v1.8c0,.66,.18,1.18,.55,1.57,.37,.38,.92,.58,1.67,.58,.43,0,.77-.06,1.01-.17s.43-.22,.57-.32c.14-.1,.27-.15,.41-.15s.25,.04,.34,.12c.1,.08,.17,.17,.22,.28,.05,.11,.08,.22,.08,.32,0,.18-.11,.37-.34,.57-.23,.2-.55,.37-.95,.5-.41,.14-.88,.21-1.42,.21Z"/><path class="cls-1" d="M132.11,199.36c-.25,0-.47-.09-.66-.26-.19-.17-.28-.38-.28-.6s.09-.43,.28-.59c.19-.17,.41-.25,.66-.25s.48,.08,.66,.25,.26,.37,.26,.59-.09,.43-.26,.6-.39,.26-.66,.26Zm0,10.87c-.22,0-.39-.06-.53-.17-.14-.11-.21-.24-.21-.37v-7.47c0-.16,.07-.28,.21-.38,.14-.1,.32-.14,.53-.14,.2,0,.38,.05,.53,.14,.15,.1,.22,.22,.22,.38v7.47c0,.13-.08,.25-.22,.37-.15,.11-.33,.17-.53,.17Z"/><path class="cls-1" d="M136.84,210.38c-.67,0-1.25-.19-1.72-.58-.47-.39-.71-.99-.71-1.81,0-.66,.18-1.17,.54-1.54s.86-.62,1.49-.76,1.36-.21,2.19-.21h.86v-.38c0-.36-.07-.71-.2-1.05-.13-.34-.34-.62-.62-.85-.28-.22-.67-.33-1.16-.33-.42,0-.75,.04-1,.13-.25,.08-.44,.17-.58,.26-.14,.09-.27,.13-.38,.13-.18,0-.32-.09-.41-.26-.1-.17-.14-.34-.14-.5,0-.19,.13-.37,.4-.52,.26-.16,.59-.28,.99-.38,.4-.1,.79-.14,1.17-.14,.84,0,1.51,.17,2.02,.5s.87,.77,1.09,1.3c.22,.53,.33,1.09,.33,1.69v4.61c0,.14-.07,.27-.21,.38-.14,.11-.32,.16-.53,.16-.19,0-.35-.05-.49-.16-.13-.11-.2-.23-.2-.38v-.72c-.31,.36-.69,.68-1.13,.97-.44,.29-.97,.43-1.58,.43Zm.47-1.21c.35,0,.69-.1,1.02-.29,.33-.19,.61-.43,.83-.72,.22-.29,.33-.56,.33-.83v-.94h-.63c-.5,0-.98,.03-1.43,.09-.45,.06-.81,.19-1.09,.39-.28,.2-.41,.51-.41,.95,0,.47,.13,.81,.4,1.03,.26,.22,.59,.32,.99,.32Z"/><path class="cls-1" d="M143.91,210.23c-.22,0-.39-.06-.53-.17s-.21-.24-.21-.37v-12.62c0-.16,.07-.28,.21-.38,.14-.1,.32-.14,.53-.14,.2,0,.38,.05,.53,.14,.15,.1,.22,.22,.22,.38v12.62c0,.13-.08,.25-.22,.37-.15,.11-.33,.17-.53,.17Z"/><path class="cls-1" d="M147.78,210.34c-.28,0-.5-.1-.68-.29-.18-.19-.27-.41-.27-.65,0-.26,.09-.49,.27-.67,.18-.19,.41-.28,.68-.28,.24,0,.45,.09,.64,.28,.19,.19,.28,.41,.28,.67,0,.24-.09,.46-.28,.65-.19,.19-.4,.29-.64,.29Zm-.02-3.26c-.16,0-.29-.04-.41-.13-.12-.08-.18-.2-.18-.36,0-.94-.02-1.91-.05-2.93-.04-1.02-.07-2.04-.11-3.07-.04-1.03-.05-2-.05-2.93,0-.25,.08-.44,.23-.58s.35-.2,.58-.2c.22,0,.41,.07,.57,.2,.16,.13,.24,.32,.24,.58,0,.92-.02,1.9-.05,2.93-.04,1.03-.08,2.05-.12,3.07-.04,1.02-.06,2-.06,2.93,0,.16-.07,.28-.2,.36-.13,.08-.26,.13-.38,.13Z"/></g><path class="cls-4" d="M161,60.35c-1.59,0-2.96-.29-4.11-.87-1.15-.58-2.02-1.35-2.62-2.29-.59-.95-.89-2-.89-3.17,0-.38,.08-.64,.25-.78,.16-.14,.38-.21,.66-.21,.3,0,.54,.08,.72,.23,.18,.15,.27,.37,.27,.64,0,.96,.25,1.79,.76,2.48,.51,.7,1.19,1.23,2.07,1.59s1.83,.55,2.86,.55c1.82,0,3.23-.49,4.25-1.48,1.01-.99,1.52-2.53,1.52-4.62v-.72c0-2-.51-3.48-1.52-4.45-1.01-.97-2.41-1.46-4.21-1.46h-5.16c-.48,0-.79-.08-.93-.23s-.21-.33-.21-.53c0-.13,0-.25,.02-.36s.03-.22,.06-.32l.72-11.14c.03-.23,.09-.42,.21-.57,.11-.15,.28-.23,.51-.23h10.35c.25,0,.43,.09,.53,.28s.15,.4,.15,.62-.05,.44-.15,.62c-.1,.19-.28,.29-.53,.29h-9.32l-.68,9.82h4.43c1.44,0,2.74,.25,3.89,.74,1.15,.49,2.06,1.3,2.73,2.43s1,2.62,1,4.49v.72c0,1.92-.33,3.46-1,4.62-.67,1.16-1.59,2-2.75,2.52-1.16,.52-2.45,.78-3.87,.78Z"/></g></g></g></svg>