<?xml version="1.0" encoding="UTF-8"?><svg xmlns="http://www.w3.org/2000/svg" xmlns:xlink="http://www.w3.org/1999/xlink" viewBox="0 0 216.97 267.48"><defs><style>.cls-1{fill:#5c6060;font-family:Dosis-Light, Dosis;font-size:37.9px;font-variation-settings:'wght' 300;}.cls-2{fill:#f8cf8e;}.cls-3{fill:#726f6b;}.cls-4{mix-blend-mode:color-dodge;}.cls-4,.cls-5,.cls-6{fill:#fff;}.cls-7{letter-spacing:0em;}.cls-8{letter-spacing:-.01em;}.cls-5{filter:url(#drop-shadow-1);}.cls-6{filter:url(#drop-shadow-2);}.cls-9{fill:#676661;font-family:Dosis-Medium, Dosis;font-size:18px;font-variation-settings:'wght' 500;}.cls-10{isolation:isolate;}.cls-11{fill:none;mix-blend-mode:screen;stroke:#f0b070;stroke-miterlimit:10;stroke-width:8px;}</style><filter id="drop-shadow-1" filterUnits="userSpaceOnUse"><feOffset dx="0" dy="10"/><feGaussianBlur result="blur" stdDeviation="6"/><feFlood flood-color="#665f60" flood-opacity=".48"/><feComposite in2="blur" operator="in"/><feComposite in="SourceGraphic"/></filter><filter id="drop-shadow-2" filterUnits="userSpaceOnUse"><feOffset dx="4" dy="7"/><feGaussianBlur result="blur-2" stdDeviation="5"/><feFlood flood-color="#665f60" flood-opacity=".48"/><feComposite in2="blur-2" operator="in"/><feComposite in="SourceGraphic"/></filter></defs><g class="cls-10"><g id="Layer_2"><g id="Layer_6"><path class="cls-5" d="M160.57,8.08c21.09,0,38.18,17.09,38.18,38.18s-17.09,38.18-38.18,38.18"/></g><g id="Layer_1-2"><rect class="cls-2" y="27.37" width="176.96" height="202.32" rx="16.96" ry="16.96"/><polygon class="cls-6" points="160.56 210.93 88.1 245.3 16.41 210.93 16.41 46.13 160.56 46.13 160.56 210.93"/><circle class="cls-2" cx="160.78" cy="46.4" r="38.18"/></g><g id="Layer_2-2"><text class="cls-9" transform="translate(28.89 191.19)"><tspan class="cls-8" x="0" y="0">R</tspan><tspan x="9.5" y="0">esponde y e</tspan><tspan class="cls-7" x="92.16" y="0">n</tspan><tspan x="101.07" y="0">vía </tspan><tspan x="9.7" y="20">el cuestionario</tspan></text></g><g id="Layer_3"><path class="cls-3" d="M72.79,89.98c2.09-5.96,7.78-10.22,14.46-10.22s12.36,4.26,14.46,10.22h5.99c5.64,0,10.22,4.58,10.22,10.22v51.11c0,5.64-4.58,10.22-10.22,10.22h-40.89c-5.64,0-10.22-4.58-10.22-10.22v-51.11c0-5.64,4.58-10.22,10.22-10.22h5.99Zm19.57,5.11c0-2.83-2.28-5.11-5.11-5.11s-5.11,2.28-5.11,5.11,2.28,5.11,5.11,5.11,5.11-2.28,5.11-5.11Zm-10.22,43.45c0,1.41,1.15,2.56,2.56,2.56h20.45c1.41,0,2.56-1.15,2.56-2.56s-1.15-2.56-2.56-2.56h-20.45c-1.41,0-2.56,1.15-2.56,2.56Zm-10.22,3.83c2.12,0,3.83-1.71,3.83-3.83s-1.71-3.83-3.83-3.83-3.83,1.71-3.83,3.83,1.71,3.83,3.83,3.83Zm10.22-19.17c0,1.41,1.15,2.56,2.56,2.56h20.45c1.41,0,2.56-1.15,2.56-2.56s-1.15-2.56-2.56-2.56h-20.45c-1.41,0-2.56,1.15-2.56,2.56Zm-10.22,3.83c2.12,0,3.83-1.71,3.83-3.83s-1.71-3.83-3.83-3.83-3.83,1.71-3.83,3.83,1.71,3.83,3.83,3.83Z"/></g><g id="Layer_5"><g><circle class="cls-4" cx="161.38" cy="46.26" r="25.71"/><circle class="cls-11" cx="161.38" cy="46.26" r="25.71"/></g></g><g id="Layer_4"><text class="cls-1" transform="translate(153.41 60.12)"><tspan x="0" y="0">2</tspan></text></g></g></g></svg>