<?xml version="1.0" encoding="UTF-8"?><svg xmlns="http://www.w3.org/2000/svg" xmlns:xlink="http://www.w3.org/1999/xlink" viewBox="0 0 221 266.28"><defs><style>.cls-1{fill:#f2f1cd;}.cls-2{fill:#676661;}.cls-3{fill:#5c6060;}.cls-4{fill:#726f6b;}.cls-5{mix-blend-mode:color-dodge;}.cls-5,.cls-6,.cls-7{fill:#fff;}.cls-6{filter:url(#drop-shadow-1);}.cls-7{filter:url(#drop-shadow-2);}.cls-8{fill:url(#radial-gradient);}.cls-9{isolation:isolate;}.cls-10{fill:none;mix-blend-mode:screen;stroke:#f0b070;stroke-miterlimit:10;stroke-width:8px;}</style><filter id="drop-shadow-1" filterUnits="userSpaceOnUse"><feOffset dx="0" dy="10"/><feGaussianBlur result="blur" stdDeviation="6"/><feFlood flood-color="#665f60" flood-opacity=".48"/><feComposite in2="blur" operator="in"/><feComposite in="SourceGraphic"/></filter><radialGradient id="radial-gradient" cx="88.48" cy="127.43" fx="88.48" fy="127.43" r="95.03" gradientTransform="matrix(1, 0, 0, 1, 0, 0)" gradientUnits="userSpaceOnUse"><stop offset="0" stop-color="#fff"/><stop offset=".39" stop-color="#f6f6dd"/><stop offset=".62" stop-color="#f2f1cd"/></radialGradient><filter id="drop-shadow-2" filterUnits="userSpaceOnUse"><feOffset dx="4" dy="7"/><feGaussianBlur result="blur-2" stdDeviation="5"/><feFlood flood-color="#665f60" flood-opacity=".48"/><feComposite in2="blur-2" operator="in"/><feComposite in="SourceGraphic"/></filter></defs><g class="cls-9"><g id="Layer_2"><g id="Layer_6"><path class="cls-6" d="M160.57,8.2c21.09,0,38.18,17.09,38.18,38.18s-17.09,38.18-38.18,38.18"/></g><g id="Layer_1-2"><rect class="cls-8" y="26.27" width="176.96" height="202.32" rx="16.96" ry="16.96"/><polygon class="cls-7" points="160.56 209.83 88.1 244.2 16.41 209.83 16.41 45.02 160.56 45.02 160.56 209.83"/><circle class="cls-1" cx="160.57" cy="46.38" r="38.18"/></g><g id="Layer_3"><path class="cls-4" d="M91.46,104.68l3.65-21.91c.3-1.8,1.86-3.13,3.7-3.13,1.18,0,2.29,.55,3,1.5l2.67,3.55h8.23c2.01,0,3.93,.81,5.35,2.23l2.84,2.83h8.84c2.1,0,3.79,1.69,3.79,3.79v3.79c0,6.98-5.65,12.63-12.63,12.63h-10.94l-.81,4.82-17.69-10.11Zm16.8,15.41v35.36c0,2.8-2.26,5.05-5.05,5.05h-5.05c-2.8,0-5.05-2.26-5.05-5.05v-18.19c-3.79,1.94-8.09,3.03-12.63,3.03s-8.84-1.09-12.63-3.03v18.19c0,2.8-2.26,5.05-5.05,5.05h-5.05c-2.8,0-5.05-2.26-5.05-5.05v-36.36c-4.55-1.72-8.12-5.57-9.35-10.5l-.6-2.45c-.68-2.7,.96-5.45,3.68-6.13,2.72-.68,5.45,.96,6.13,3.68l.62,2.45c.55,2.24,2.57,3.82,4.9,3.82h32.5l17.72,10.12Zm7.58-27.81c0-1.39-1.14-2.53-2.53-2.53s-2.53,1.14-2.53,2.53,1.14,2.53,2.53,2.53,2.53-1.14,2.53-2.53Z"/></g><g id="Layer_5"><g><circle class="cls-5" cx="160.57" cy="46.38" r="25.71"/><circle class="cls-10" cx="160.57" cy="46.38" r="25.71"/></g></g><g id="Layer_7"><g><path class="cls-2" d="M42.11,192.93c-.14,0-.27-.06-.39-.18-.11-.12-.21-.26-.3-.41l-2.7-5.27h-2.09v5.29c0,.18-.08,.31-.23,.41-.16,.09-.33,.13-.52,.13-.18,0-.35-.04-.51-.13-.16-.09-.24-.23-.24-.41v-12.1c0-.14,.05-.26,.15-.36,.1-.1,.23-.15,.39-.16h3.29c.73,0,1.4,.11,2.01,.33,.61,.22,1.09,.59,1.45,1.12,.36,.52,.54,1.24,.54,2.15,0,.73-.12,1.34-.35,1.82-.23,.48-.56,.86-.96,1.12-.41,.27-.86,.46-1.37,.57l2.66,5.06s.04,.09,.05,.14c.01,.04,.02,.08,.02,.12,0,.13-.04,.26-.14,.38-.09,.12-.2,.22-.34,.29-.14,.07-.28,.11-.42,.11Zm-5.47-7.13h2.32c.74,0,1.34-.18,1.8-.54,.46-.36,.68-.97,.68-1.82s-.23-1.45-.68-1.81c-.46-.35-1.06-.53-1.8-.53h-2.32v4.7Z"/><path class="cls-2" d="M48.1,193.04c-.78,0-1.47-.15-2.07-.44-.6-.29-1.07-.7-1.42-1.22s-.52-1.13-.52-1.83v-1.89c0-.61,.17-1.18,.5-1.69,.33-.52,.77-.93,1.31-1.24s1.13-.47,1.78-.47,1.2,.14,1.72,.43,.94,.68,1.26,1.17c.32,.49,.48,1.06,.48,1.71,0,.48-.08,.83-.23,1.04-.16,.21-.35,.34-.59,.39-.24,.05-.49,.07-.76,.07h-3.96v.54c0,.67,.24,1.2,.72,1.59,.48,.39,1.1,.58,1.85,.58,.44,0,.8-.06,1.06-.18,.26-.12,.48-.24,.65-.35,.17-.11,.32-.17,.45-.17s.24,.04,.33,.12c.09,.08,.16,.17,.21,.28s.07,.2,.07,.29c0,.16-.11,.33-.34,.53-.23,.2-.56,.37-.98,.52s-.93,.23-1.5,.23Zm-2.52-4.99h3.33c.32,0,.54-.04,.64-.12,.1-.08,.15-.23,.15-.46,0-.36-.09-.69-.26-1s-.42-.55-.73-.75c-.31-.19-.67-.29-1.06-.29-.37,0-.71,.09-1.03,.26s-.56,.41-.76,.71c-.19,.3-.29,.63-.29,.99v.65Z"/><path class="cls-2" d="M55.64,193.06c-.16,0-.3-.03-.42-.08-.13-.05-.21-.14-.26-.24l-2.95-7.47s-.03-.07-.04-.13-.03-.11-.03-.16c0-.12,.05-.23,.15-.33,.1-.1,.23-.18,.38-.23,.15-.05,.29-.08,.42-.08,.1,0,.19,.02,.29,.07,.1,.05,.16,.12,.2,.22l2.27,6.12,2.27-6.05c.04-.11,.09-.19,.17-.26,.08-.07,.18-.1,.32-.1,.12,0,.25,.03,.4,.08,.14,.05,.28,.13,.4,.23,.12,.1,.18,.21,.18,.33,0,.06,0,.11-.03,.16s-.03,.09-.04,.13l-2.95,7.47c-.05,.1-.14,.17-.27,.23-.13,.06-.28,.09-.43,.09Z"/><path class="cls-2" d="M61.37,182.02c-.25,0-.47-.09-.66-.26s-.28-.38-.28-.6,.09-.43,.28-.59c.19-.17,.4-.25,.66-.25s.48,.08,.66,.25c.17,.17,.26,.37,.26,.59s-.09,.43-.26,.6c-.17,.17-.39,.26-.66,.26Zm0,10.87c-.22,0-.39-.06-.53-.17-.14-.11-.21-.24-.21-.37v-7.47c0-.16,.07-.28,.21-.38,.14-.1,.31-.14,.53-.14,.2,0,.38,.05,.53,.14,.15,.1,.23,.22,.23,.38v7.47c0,.13-.08,.26-.23,.37-.15,.11-.33,.17-.53,.17Z"/><path class="cls-2" d="M66.68,193.04c-.58,0-1.09-.08-1.53-.23s-.79-.33-1.04-.53-.38-.41-.38-.61c0-.1,.02-.19,.07-.3s.11-.19,.19-.27,.17-.12,.26-.12c.14,0,.3,.07,.47,.21,.17,.14,.4,.28,.68,.42s.7,.22,1.24,.22c.64,0,1.08-.12,1.33-.35s.38-.5,.38-.78c0-.37-.11-.66-.32-.85-.22-.2-.49-.35-.83-.47-.34-.11-.69-.23-1.06-.33-.37-.11-.73-.24-1.06-.4-.34-.16-.61-.39-.82-.68s-.31-.69-.31-1.18c0-.4,.1-.79,.29-1.17,.19-.38,.5-.7,.94-.96,.43-.26,1.01-.39,1.73-.39,.42,0,.82,.04,1.21,.14,.39,.09,.71,.21,.95,.36,.25,.15,.37,.31,.37,.48,0,.07-.02,.17-.07,.29s-.11,.23-.2,.32c-.08,.1-.19,.14-.32,.14-.1,0-.23-.04-.4-.13-.17-.09-.38-.18-.63-.26-.25-.08-.54-.13-.89-.13-.4,0-.71,.07-.95,.21-.24,.14-.41,.3-.52,.49-.11,.19-.16,.38-.16,.57,0,.3,.1,.53,.31,.7,.21,.17,.49,.3,.83,.41s.7,.2,1.07,.31c.37,.1,.73,.25,1.06,.43,.34,.19,.61,.44,.83,.77,.22,.32,.32,.76,.32,1.3,0,.73-.26,1.32-.79,1.75-.53,.44-1.27,.66-2.23,.66Z"/><path class="cls-2" d="M73.21,193.04c-.67,0-1.25-.19-1.72-.58s-.71-.99-.71-1.81c0-.66,.18-1.17,.54-1.54,.36-.37,.85-.62,1.48-.76,.63-.14,1.36-.21,2.19-.21h.86v-.38c0-.36-.07-.71-.2-1.05-.13-.34-.34-.62-.62-.85-.28-.22-.67-.33-1.16-.33-.42,0-.75,.04-1,.13-.25,.08-.44,.17-.58,.26-.14,.09-.27,.14-.38,.14-.18,0-.32-.09-.41-.26-.1-.17-.14-.34-.14-.5,0-.19,.13-.37,.4-.52,.26-.16,.59-.28,.99-.38,.4-.1,.79-.14,1.17-.14,.84,0,1.51,.17,2.02,.5,.5,.34,.87,.77,1.09,1.3,.22,.53,.33,1.09,.33,1.69v4.61c0,.14-.07,.27-.21,.38-.14,.11-.32,.16-.53,.16-.19,0-.35-.05-.49-.16-.13-.11-.2-.23-.2-.38v-.72c-.31,.36-.69,.68-1.13,.97-.44,.29-.97,.43-1.58,.43Zm.47-1.21c.35,0,.69-.1,1.02-.29,.33-.19,.61-.43,.83-.72,.22-.29,.33-.56,.33-.83v-.94h-.63c-.5,0-.98,.03-1.43,.09-.45,.06-.81,.19-1.09,.39-.28,.2-.41,.51-.41,.94,0,.47,.13,.81,.4,1.03,.26,.22,.59,.32,.99,.32Z"/><path class="cls-2" d="M83.88,192.9c-.22,0-.39-.06-.53-.17-.14-.11-.21-.24-.21-.37v-12.62c0-.16,.07-.28,.21-.38,.14-.1,.32-.14,.53-.14,.2,0,.38,.05,.53,.14,.15,.1,.22,.22,.22,.38v12.62c0,.13-.08,.26-.22,.37-.15,.11-.33,.17-.53,.17Z"/><path class="cls-2" d="M88.8,193.04c-.67,0-1.25-.19-1.72-.58s-.71-.99-.71-1.81c0-.66,.18-1.17,.54-1.54,.36-.37,.86-.62,1.49-.76,.63-.14,1.36-.21,2.19-.21h.86v-.38c0-.36-.07-.71-.2-1.05-.13-.34-.34-.62-.62-.85s-.67-.33-1.16-.33c-.42,0-.75,.04-1,.13s-.44,.17-.58,.26c-.14,.09-.27,.14-.38,.14-.18,0-.32-.09-.41-.26-.1-.17-.14-.34-.14-.5,0-.19,.13-.37,.4-.52,.26-.16,.59-.28,.99-.38,.4-.1,.79-.14,1.17-.14,.84,0,1.51,.17,2.02,.5,.5,.34,.87,.77,1.09,1.3,.22,.53,.33,1.09,.33,1.69v4.61c0,.14-.07,.27-.21,.38-.14,.11-.32,.16-.53,.16-.19,0-.35-.05-.49-.16s-.2-.23-.2-.38v-.72c-.31,.36-.69,.68-1.13,.97-.44,.29-.97,.43-1.58,.43Zm.47-1.21c.35,0,.69-.1,1.02-.29,.33-.19,.61-.43,.83-.72,.22-.29,.33-.56,.33-.83v-.94h-.63c-.5,0-.98,.03-1.43,.09-.45,.06-.81,.19-1.09,.39-.28,.2-.41,.51-.41,.94,0,.47,.13,.81,.4,1.03,.26,.22,.59,.32,.99,.32Z"/><path class="cls-2" d="M101.69,197.02c-.71,0-1.34-.1-1.91-.3-.56-.2-1.01-.48-1.34-.85-.33-.37-.5-.79-.5-1.29s.15-.92,.44-1.23c.29-.32,.63-.56,1.02-.73-.26-.1-.48-.24-.66-.42-.17-.19-.26-.45-.26-.78s.08-.6,.25-.8c.17-.2,.38-.38,.65-.53-.32-.26-.58-.59-.76-.98-.18-.39-.27-.82-.27-1.29v-.59c0-.59,.13-1.1,.4-1.55,.26-.44,.64-.79,1.12-1.04,.49-.25,1.05-.38,1.7-.38,.42,0,.81,.06,1.16,.19,.35,.13,.66,.3,.93,.51,.19-.4,.39-.69,.6-.88s.42-.29,.62-.29c.22,0,.38,.06,.49,.18,.11,.12,.16,.25,.16,.38,0,.1-.03,.18-.09,.25-.06,.07-.13,.13-.22,.16-.13,.04-.29,.11-.46,.22s-.34,.29-.5,.54c.18,.23,.32,.49,.41,.78,.09,.29,.13,.6,.13,.93v.59c0,.56-.14,1.07-.41,1.53-.28,.46-.66,.81-1.15,1.07-.49,.26-1.06,.39-1.69,.39-.49,0-.93-.09-1.31-.27-.12,.07-.23,.15-.32,.24-.1,.09-.14,.21-.14,.37,0,.25,.14,.43,.41,.54,.27,.11,.62,.19,1.04,.23,.42,.05,.86,.1,1.33,.16s.91,.17,1.33,.31c.42,.15,.76,.38,1.04,.69,.27,.31,.4,.74,.4,1.3,0,.59-.16,1.08-.49,1.47-.32,.39-.76,.68-1.3,.87-.55,.19-1.16,.29-1.85,.29Zm-.04-1.04c.68,0,1.22-.14,1.62-.42,.4-.28,.59-.66,.59-1.12,0-.34-.1-.6-.31-.78s-.47-.32-.79-.41-.66-.15-1.02-.18c-.35-.03-.67-.06-.96-.1-.38,.12-.72,.3-1,.54-.28,.24-.42,.55-.42,.94,0,.47,.21,.84,.63,1.12,.42,.28,.97,.42,1.66,.42Zm-.05-6.19c.55,0,.98-.19,1.3-.56s.47-.84,.47-1.4v-.59c0-.55-.16-1.01-.47-1.39-.31-.37-.75-.56-1.31-.56s-1,.19-1.31,.56c-.31,.37-.46,.83-.46,1.39v.58c0,.56,.16,1.04,.47,1.41,.31,.38,.75,.57,1.31,.57Z"/><path class="cls-2" d="M108.71,193.04c-.67,0-1.25-.19-1.72-.58s-.71-.99-.71-1.81c0-.66,.18-1.17,.54-1.54,.36-.37,.86-.62,1.49-.76,.63-.14,1.36-.21,2.19-.21h.86v-.38c0-.36-.07-.71-.2-1.05-.13-.34-.34-.62-.62-.85s-.67-.33-1.16-.33c-.42,0-.75,.04-1,.13s-.44,.17-.58,.26c-.14,.09-.27,.14-.38,.14-.18,0-.32-.09-.41-.26-.1-.17-.14-.34-.14-.5,0-.19,.13-.37,.4-.52,.26-.16,.59-.28,.99-.38,.4-.1,.79-.14,1.17-.14,.84,0,1.51,.17,2.02,.5,.5,.34,.87,.77,1.09,1.3,.22,.53,.33,1.09,.33,1.69v4.61c0,.14-.07,.27-.21,.38-.14,.11-.32,.16-.53,.16-.19,0-.35-.05-.49-.16s-.2-.23-.2-.38v-.72c-.31,.36-.69,.68-1.13,.97-.44,.29-.97,.43-1.58,.43Zm.47-1.21c.35,0,.69-.1,1.02-.29,.33-.19,.61-.43,.83-.72,.22-.29,.33-.56,.33-.83v-.94h-.63c-.5,0-.98,.03-1.43,.09-.45,.06-.81,.19-1.09,.39-.28,.2-.41,.51-.41,.94,0,.47,.13,.81,.4,1.03,.26,.22,.59,.32,.99,.32Z"/><path class="cls-2" d="M115.78,192.9c-.22,0-.39-.06-.53-.17-.14-.11-.21-.24-.21-.37v-12.62c0-.16,.07-.28,.21-.38,.14-.1,.32-.14,.53-.14,.2,0,.38,.05,.53,.14,.15,.1,.22,.22,.22,.38v12.62c0,.13-.08,.26-.22,.37-.15,.11-.33,.17-.53,.17Z"/><path class="cls-2" d="M122.51,193.04c-.78,0-1.47-.15-2.07-.44-.6-.29-1.07-.7-1.42-1.22s-.52-1.13-.52-1.83v-1.89c0-.61,.16-1.18,.5-1.69,.33-.52,.76-.93,1.3-1.24s1.13-.47,1.78-.47,1.2,.14,1.72,.43c.52,.29,.94,.68,1.26,1.17,.32,.49,.48,1.06,.48,1.71,0,.48-.08,.83-.23,1.04-.16,.21-.35,.34-.59,.39-.24,.05-.49,.07-.76,.07h-3.96v.54c0,.67,.24,1.2,.72,1.59,.48,.39,1.1,.58,1.85,.58,.44,0,.8-.06,1.06-.18,.26-.12,.48-.24,.65-.35,.17-.11,.32-.17,.45-.17s.24,.04,.33,.12c.09,.08,.16,.17,.21,.28s.07,.2,.07,.29c0,.16-.11,.33-.34,.53-.23,.2-.56,.37-.98,.52s-.93,.23-1.5,.23Zm-2.52-4.99h3.33c.32,0,.54-.04,.64-.12,.1-.08,.15-.23,.15-.46,0-.36-.09-.69-.26-1s-.42-.55-.73-.75c-.31-.19-.67-.29-1.06-.29-.37,0-.71,.09-1.03,.26-.31,.17-.56,.41-.76,.71-.19,.3-.29,.63-.29,.99v.65Z"/><path class="cls-2" d="M127.91,192.9c-.2,0-.38-.06-.51-.17-.14-.11-.21-.24-.21-.37v-7.47c0-.16,.07-.28,.21-.38,.14-.1,.31-.14,.51-.14s.37,.05,.5,.14c.13,.1,.2,.22,.2,.38v.85c.13-.25,.31-.49,.54-.71,.23-.22,.49-.4,.8-.55,.31-.14,.64-.22,1.02-.22h.61c.16,0,.29,.07,.41,.2,.11,.13,.17,.29,.17,.49,0,.18-.06,.34-.17,.47-.11,.13-.25,.2-.41,.2h-.61c-.38,0-.75,.11-1.1,.32-.35,.22-.63,.52-.86,.91-.22,.39-.33,.86-.33,1.41v4.1c0,.13-.08,.26-.22,.37-.15,.11-.33,.17-.55,.17Z"/><path class="cls-2" d="M133.37,182.4c-.14,0-.27-.07-.38-.2-.11-.13-.16-.27-.16-.41,0-.19,.08-.32,.23-.4l2.11-1.12c.07-.02,.13-.04,.18-.04,.16,0,.28,.06,.37,.19s.14,.27,.14,.42c0,.19-.08,.34-.25,.43l-2.03,1.04s-.07,.03-.1,.04-.06,.03-.1,.03Zm.72,10.49c-.22,0-.39-.06-.53-.17-.14-.11-.21-.24-.21-.37v-7.47c0-.16,.07-.28,.21-.38,.14-.1,.32-.14,.53-.14,.2,0,.38,.05,.53,.14,.15,.1,.22,.22,.22,.38v7.47c0,.13-.08,.26-.22,.37-.15,.11-.33,.17-.53,.17Z"/><path class="cls-2" d="M138.82,193.04c-.67,0-1.25-.19-1.72-.58s-.71-.99-.71-1.81c0-.66,.18-1.17,.54-1.54,.36-.37,.86-.62,1.49-.76,.63-.14,1.36-.21,2.19-.21h.86v-.38c0-.36-.07-.71-.2-1.05-.13-.34-.34-.62-.62-.85s-.67-.33-1.16-.33c-.42,0-.75,.04-1,.13s-.44,.17-.58,.26c-.14,.09-.27,.14-.38,.14-.18,0-.32-.09-.41-.26-.1-.17-.14-.34-.14-.5,0-.19,.13-.37,.4-.52,.26-.16,.59-.28,.99-.38,.4-.1,.79-.14,1.17-.14,.84,0,1.51,.17,2.02,.5,.5,.34,.87,.77,1.09,1.3,.22,.53,.33,1.09,.33,1.69v4.61c0,.14-.07,.27-.21,.38-.14,.11-.32,.16-.53,.16-.19,0-.35-.05-.49-.16s-.2-.23-.2-.38v-.72c-.31,.36-.69,.68-1.13,.97-.44,.29-.97,.43-1.58,.43Zm.47-1.21c.35,0,.69-.1,1.02-.29,.33-.19,.61-.43,.83-.72,.22-.29,.33-.56,.33-.83v-.94h-.63c-.5,0-.98,.03-1.43,.09-.45,.06-.81,.19-1.09,.39-.28,.2-.41,.51-.41,.94,0,.47,.13,.81,.4,1.03,.26,.22,.59,.32,.99,.32Z"/></g><path class="cls-3" d="M162.1,60.23c-.23,0-.44-.07-.64-.21-.2-.14-.3-.33-.3-.59v-23.05l-1.55,2.73c-.1,.18-.21,.3-.34,.38-.13,.08-.25,.11-.38,.11-.23,0-.42-.09-.57-.27-.15-.18-.23-.37-.23-.57,0-.18,.06-.37,.17-.57,.11-.2,.21-.35,.28-.45l2.77-4.62c.13-.18,.25-.32,.36-.44,.11-.11,.3-.17,.55-.17,.23,0,.42,.06,.59,.19,.16,.13,.25,.32,.25,.57v26.15c0,.25-.09,.45-.29,.59-.19,.14-.41,.21-.66,.21Z"/></g></g></g></svg>