<?xml version="1.0" encoding="UTF-8"?><svg xmlns="http://www.w3.org/2000/svg" xmlns:xlink="http://www.w3.org/1999/xlink" viewBox="0 0 217.21 267.96"><defs><style>.cls-1{fill:#5c6060;font-family:Dosis-Light, Dosis;font-size:37.9px;font-variation-settings:'wght' 300;}.cls-2{fill:#c58b8a;}.cls-3{fill:#726f6b;}.cls-4{letter-spacing:-.02em;}.cls-5{letter-spacing:-.02em;}.cls-6{mix-blend-mode:color-dodge;}.cls-6,.cls-7,.cls-8{fill:#fff;}.cls-7{filter:url(#drop-shadow-1);}.cls-8{filter:url(#drop-shadow-2);}.cls-9{fill:#676661;font-family:Dosis-Medium, Dosis;font-size:18px;font-variation-settings:'wght' 500;}.cls-10{isolation:isolate;}.cls-11{fill:none;mix-blend-mode:screen;stroke:#f0b070;stroke-miterlimit:10;stroke-width:8px;}</style><filter id="drop-shadow-1" filterUnits="userSpaceOnUse"><feOffset dx="0" dy="10"/><feGaussianBlur result="blur" stdDeviation="6"/><feFlood flood-color="#665f60" flood-opacity=".48"/><feComposite in2="blur" operator="in"/><feComposite in="SourceGraphic"/></filter><filter id="drop-shadow-2" filterUnits="userSpaceOnUse"><feOffset dx="4" dy="7"/><feGaussianBlur result="blur-2" stdDeviation="5"/><feFlood flood-color="#665f60" flood-opacity=".48"/><feComposite in2="blur-2" operator="in"/><feComposite in="SourceGraphic"/></filter></defs><g class="cls-10"><g id="Layer_2"><g id="Layer_6"><path class="cls-7" d="M160.89,8.08c21.09,0,38.18,17.09,38.18,38.18s-17.09,38.18-38.18,38.18"/></g><g id="Layer_1-2"><rect class="cls-2" y="27.98" width="176.96" height="202.32" rx="16.96" ry="16.96"/><polygon class="cls-8" points="160.56 211.54 88.1 245.91 16.41 211.54 16.41 46.74 160.56 46.74 160.56 211.54"/><circle class="cls-2" cx="160.8" cy="46.99" r="38.18"/></g><g id="Layer_2-2"><text class="cls-9" transform="translate(21.88 192.39)"><tspan x="0" y="0">Ma</tspan><tspan class="cls-4" x="20.23" y="0">r</tspan><tspan x="26.06" y="0">ca la f</tspan><tspan class="cls-5" x="66.49" y="0">r</tspan><tspan x="72.32" y="0">ecuencia</tspan><tspan x="17.05" y="20">de la donación</tspan></text></g><g id="Layer_3"><path class="cls-3" d="M75.78,88.83h23.71v-6.59c0-2.18,1.76-3.95,3.95-3.95s3.95,1.77,3.95,3.95v6.59h6.59c5.81,0,10.54,4.72,10.54,10.54v52.7c0,5.81-4.73,10.54-10.54,10.54H61.29c-5.82,0-10.54-4.73-10.54-10.54v-52.7c0-5.82,4.72-10.54,10.54-10.54h6.59v-6.59c0-2.18,1.76-3.95,3.95-3.95s3.95,1.77,3.95,3.95v6.59Zm-17.13,63.24c0,1.45,1.18,2.63,2.63,2.63h52.7c1.45,0,2.63-1.19,2.63-2.63v-42.16H58.65v42.16Z"/></g><g id="Layer_5"><g><circle class="cls-6" cx="161.16" cy="47.01" r="25.71"/><circle class="cls-11" cx="161.16" cy="47.01" r="25.71"/></g></g><g id="Layer_4"><text class="cls-1" transform="translate(153.08 60.87)"><tspan x="0" y="0">4</tspan></text></g></g></g></svg>