<?xml version="1.0" encoding="UTF-8"?><svg xmlns="http://www.w3.org/2000/svg" xmlns:xlink="http://www.w3.org/1999/xlink" viewBox="0 0 216.97 267.48"><defs><style>.cls-1{fill:#676661;}.cls-2{fill:#f0b070;}.cls-3{fill:#5c6060;}.cls-4{fill:#726f6b;}.cls-5{mix-blend-mode:color-dodge;}.cls-5,.cls-6,.cls-7{fill:#fff;}.cls-6{filter:url(#drop-shadow-1);}.cls-7{filter:url(#drop-shadow-2);}.cls-8{isolation:isolate;}.cls-9{fill:none;mix-blend-mode:screen;stroke:#f0b070;stroke-miterlimit:10;stroke-width:8px;}</style><filter id="drop-shadow-1" filterUnits="userSpaceOnUse"><feOffset dx="0" dy="10"/><feGaussianBlur result="blur" stdDeviation="6"/><feFlood flood-color="#665f60" flood-opacity=".48"/><feComposite in2="blur" operator="in"/><feComposite in="SourceGraphic"/></filter><filter id="drop-shadow-2" filterUnits="userSpaceOnUse"><feOffset dx="4" dy="7"/><feGaussianBlur result="blur-2" stdDeviation="5"/><feFlood flood-color="#665f60" flood-opacity=".48"/><feComposite in2="blur-2" operator="in"/><feComposite in="SourceGraphic"/></filter></defs><g class="cls-8"><g id="Layer_2"><g id="Layer_6"><path class="cls-6" d="M160.57,8.06c21.09,0,38.18,17.09,38.18,38.18s-17.09,38.18-38.18,38.18"/></g><g id="Layer_1-2"><rect class="cls-2" y="27.48" width="176.96" height="202.32" rx="16.96" ry="16.96"/><polygon class="cls-7" points="160.56 211.04 88.1 245.42 16.41 211.04 16.41 46.24 160.56 46.24 160.56 211.04"/><circle class="cls-2" cx="160.8" cy="46.5" r="38.18"/></g><g id="Layer_3"><path class="cls-4" d="M90.57,83.6v1.63c.99,.19,1.95,.42,2.82,.65,1.99,.53,3.17,2.58,2.64,4.56s-2.58,3.17-4.56,2.64c-1.69-.45-3.27-.76-4.69-.78-1.13-.02-2.28,.26-3.01,.68-.33,.2-.48,.37-.54,.47-.05,.08-.11,.19-.11,.43v.09s.14,.19,.51,.4c.9,.54,2.23,.96,4.25,1.57l.14,.05h0c1.72,.51,4.02,1.21,5.88,2.37,2.13,1.33,4.05,3.55,4.1,6.97,.05,3.49-1.77,6.04-4.14,7.52-1.04,.64-2.16,1.09-3.3,1.37v1.64c0,2.06-1.66,3.72-3.72,3.72s-3.72-1.66-3.72-3.72v-1.77c-1.47-.36-2.82-.82-3.97-1.21-.33-.11-.64-.22-.93-.31-1.95-.65-3.01-2.76-2.36-4.72s2.76-3.01,4.72-2.36c.4,.14,.78,.26,1.13,.39,2.11,.71,3.63,1.23,5.26,1.29,1.24,.05,2.34-.25,2.98-.64,.29-.19,.43-.34,.5-.45,.06-.09,.14-.28,.12-.64v-.03c0-.16,0-.33-.62-.71-.88-.56-2.22-.99-4.2-1.6l-.29-.09c-1.68-.5-3.88-1.16-5.65-2.23-2.09-1.26-4.11-3.41-4.13-6.84-.02-3.55,2-5.99,4.3-7.35,.99-.59,2.06-.99,3.13-1.27v-1.72c0-2.06,1.66-3.72,3.72-3.72s3.72,1.66,3.72,3.72h.03Zm39.75,48.45c2.03,2.76,1.44,6.64-1.32,8.67l-19.64,14.48c-3.63,2.67-8.01,4.11-12.52,4.11H47.13c-2.75,0-4.96-2.22-4.96-4.96v-9.93c0-2.75,2.22-4.96,4.96-4.96h5.71l6.97-5.59c3.52-2.82,7.9-4.34,12.41-4.34h24.56c2.75,0,4.96,2.22,4.96,4.96s-2.22,4.96-4.96,4.96h-12.41c-1.37,0-2.48,1.12-2.48,2.48s1.12,2.48,2.48,2.48h18.71l18.57-13.68c2.76-2.03,6.64-1.44,8.67,1.32Zm-58.12,7.4h0Z"/></g><g id="Layer_5"><g><circle class="cls-5" cx="161.53" cy="46.44" r="25.71"/><circle class="cls-9" cx="161.53" cy="46.44" r="25.71"/></g></g><g id="Layer_7"><g><path class="cls-1" d="M32.1,191.13c-.77,0-1.44-.12-2.02-.35s-1.02-.51-1.33-.83c-.31-.32-.47-.6-.47-.85,0-.12,.03-.24,.1-.37s.15-.23,.25-.32,.21-.13,.31-.13c.14,0,.29,.07,.42,.22,.14,.14,.31,.32,.52,.51,.21,.2,.48,.37,.82,.51,.34,.14,.77,.22,1.31,.22,.5,0,.94-.08,1.31-.24s.66-.41,.87-.74,.31-.75,.31-1.25-.11-.94-.32-1.26c-.22-.32-.5-.59-.85-.81-.35-.22-.74-.41-1.15-.58-.41-.17-.83-.34-1.26-.51-.43-.17-.81-.39-1.16-.65s-.63-.59-.85-1c-.22-.41-.32-.92-.32-1.55,0-.66,.12-1.21,.36-1.64,.24-.43,.56-.77,.95-1.03s.83-.43,1.29-.53c.46-.1,.92-.15,1.36-.15,.32,0,.67,.02,1.03,.07,.36,.05,.7,.12,1.03,.22,.32,.1,.59,.22,.79,.37,.2,.15,.31,.33,.31,.53,0,.1-.02,.21-.07,.33-.05,.13-.12,.24-.22,.34-.1,.1-.22,.15-.36,.15-.13,0-.29-.06-.49-.17s-.45-.23-.77-.34c-.32-.11-.73-.17-1.25-.17-.43,0-.84,.06-1.21,.18s-.68,.32-.9,.59c-.22,.28-.33,.64-.33,1.1,0,.43,.11,.79,.32,1.06,.22,.28,.5,.5,.85,.68,.35,.18,.73,.35,1.15,.5,.42,.15,.84,.32,1.26,.52,.42,.2,.81,.44,1.16,.73s.64,.66,.85,1.12c.22,.46,.32,1.04,.32,1.74,0,.86-.17,1.58-.51,2.13-.34,.56-.81,.97-1.4,1.24-.59,.27-1.27,.4-2.03,.4Z"/><path class="cls-1" d="M41.48,191.13c-.78,0-1.47-.15-2.07-.44-.6-.29-1.07-.7-1.42-1.22-.35-.52-.52-1.13-.52-1.83v-1.89c0-.61,.17-1.18,.5-1.69,.33-.52,.77-.93,1.31-1.24s1.13-.47,1.78-.47,1.2,.14,1.72,.43,.94,.68,1.26,1.17,.48,1.06,.48,1.71c0,.48-.08,.83-.23,1.04-.16,.21-.35,.34-.59,.39-.24,.05-.49,.07-.76,.07h-3.96v.54c0,.67,.24,1.2,.72,1.59,.48,.39,1.1,.58,1.85,.58,.44,0,.8-.06,1.06-.18,.26-.12,.48-.24,.65-.35,.17-.11,.32-.17,.45-.17s.24,.04,.33,.12c.09,.08,.16,.17,.21,.28,.05,.11,.07,.2,.07,.29,0,.16-.11,.33-.34,.53-.23,.2-.56,.37-.98,.52-.43,.15-.93,.22-1.5,.22Zm-2.52-4.99h3.33c.32,0,.54-.04,.64-.12,.1-.08,.15-.23,.15-.46,0-.36-.09-.69-.26-1s-.42-.55-.73-.75c-.31-.19-.67-.29-1.06-.29-.37,0-.71,.09-1.03,.26-.31,.17-.56,.41-.76,.71-.19,.3-.29,.63-.29,.99v.65Z"/><path class="cls-1" d="M47.06,190.99c-.22,0-.39-.06-.53-.17-.14-.11-.21-.24-.21-.37v-12.62c0-.16,.07-.28,.21-.38,.14-.1,.31-.14,.53-.14,.2,0,.38,.05,.53,.14,.15,.1,.22,.22,.22,.38v12.62c0,.13-.07,.25-.22,.37-.15,.11-.33,.17-.53,.17Z"/><path class="cls-1" d="M53.79,191.13c-.78,0-1.47-.15-2.07-.44-.6-.29-1.07-.7-1.42-1.22-.35-.52-.52-1.13-.52-1.83v-1.89c0-.61,.17-1.18,.5-1.69,.33-.52,.77-.93,1.31-1.24s1.13-.47,1.78-.47,1.2,.14,1.72,.43,.94,.68,1.26,1.17,.48,1.06,.48,1.71c0,.48-.08,.83-.23,1.04-.16,.21-.35,.34-.59,.39-.24,.05-.49,.07-.76,.07h-3.96v.54c0,.67,.24,1.2,.72,1.59,.48,.39,1.1,.58,1.85,.58,.44,0,.8-.06,1.06-.18,.26-.12,.48-.24,.65-.35,.17-.11,.32-.17,.45-.17s.24,.04,.33,.12c.09,.08,.16,.17,.21,.28,.05,.11,.07,.2,.07,.29,0,.16-.11,.33-.34,.53-.23,.2-.56,.37-.98,.52-.43,.15-.93,.22-1.5,.22Zm-2.52-4.99h3.33c.32,0,.54-.04,.64-.12,.1-.08,.15-.23,.15-.46,0-.36-.09-.69-.26-1s-.42-.55-.73-.75c-.31-.19-.67-.29-1.06-.29-.37,0-.71,.09-1.03,.26-.31,.17-.56,.41-.76,.71-.19,.3-.29,.63-.29,.99v.65Z"/><path class="cls-1" d="M61.79,191.13c-.83,0-1.51-.16-2.04-.47-.53-.31-.93-.73-1.19-1.25-.26-.52-.39-1.11-.39-1.77v-1.8c0-.65,.13-1.24,.39-1.76,.26-.53,.65-.95,1.19-1.26,.53-.31,1.21-.47,2.02-.47,.53,0,.99,.07,1.39,.2,.4,.13,.7,.29,.92,.49,.22,.19,.32,.38,.32,.56,0,.1-.03,.2-.08,.32-.05,.11-.13,.21-.22,.3s-.2,.13-.31,.13-.25-.05-.39-.16c-.14-.11-.32-.21-.56-.31-.23-.1-.56-.15-.98-.15-.73,0-1.28,.19-1.65,.58s-.55,.91-.55,1.57v1.8c0,.66,.18,1.18,.55,1.57,.37,.38,.92,.58,1.67,.58,.43,0,.77-.06,1.01-.17,.24-.11,.43-.22,.57-.32,.14-.1,.27-.15,.4-.15s.25,.04,.34,.12c.1,.08,.17,.17,.23,.28,.05,.11,.08,.22,.08,.32,0,.18-.11,.37-.34,.57-.23,.2-.55,.37-.95,.5-.41,.14-.88,.21-1.42,.21Z"/><path class="cls-1" d="M69.2,191.13c-.83,0-1.51-.16-2.04-.47-.53-.31-.93-.73-1.19-1.25-.26-.52-.39-1.11-.39-1.77v-1.8c0-.65,.13-1.24,.39-1.76,.26-.53,.65-.95,1.19-1.26,.53-.31,1.21-.47,2.02-.47,.53,0,.99,.07,1.39,.2,.4,.13,.7,.29,.92,.49,.22,.19,.32,.38,.32,.56,0,.1-.03,.2-.08,.32-.05,.11-.13,.21-.22,.3s-.2,.13-.31,.13-.25-.05-.39-.16c-.14-.11-.32-.21-.56-.31-.23-.1-.56-.15-.98-.15-.73,0-1.28,.19-1.65,.58s-.55,.91-.55,1.57v1.8c0,.66,.18,1.18,.55,1.57,.37,.38,.92,.58,1.67,.58,.43,0,.77-.06,1.01-.17,.24-.11,.43-.22,.57-.32,.14-.1,.27-.15,.4-.15s.25,.04,.34,.12c.1,.08,.17,.17,.23,.28,.05,.11,.08,.22,.08,.32,0,.18-.11,.37-.34,.57-.23,.2-.55,.37-.95,.5-.41,.14-.88,.21-1.42,.21Z"/><path class="cls-1" d="M74.15,180.12c-.25,0-.47-.09-.66-.26s-.28-.38-.28-.6,.09-.43,.28-.59,.4-.25,.66-.25,.48,.08,.66,.25,.26,.37,.26,.59-.09,.43-.26,.6-.39,.26-.66,.26Zm0,10.87c-.21,0-.39-.06-.53-.17-.14-.11-.21-.24-.21-.37v-7.47c0-.16,.07-.28,.21-.38,.14-.1,.32-.14,.53-.14s.38,.05,.53,.14c.15,.1,.22,.22,.22,.38v7.47c0,.13-.07,.25-.22,.37s-.33,.17-.53,.17Z"/><path class="cls-1" d="M80.24,191.13c-.64,0-1.22-.16-1.76-.49-.54-.32-.97-.75-1.3-1.29-.32-.53-.49-1.11-.49-1.72v-1.84c0-.61,.16-1.18,.48-1.7,.32-.52,.75-.95,1.29-1.27,.54-.32,1.13-.49,1.78-.49s1.22,.16,1.76,.47,.97,.73,1.3,1.25c.33,.52,.5,1.1,.5,1.74v1.84c0,.6-.17,1.17-.5,1.7-.33,.53-.76,.97-1.3,1.3s-1.13,.49-1.76,.49Zm0-1.35c.38,0,.73-.1,1.04-.31,.31-.2,.56-.47,.75-.8,.19-.33,.28-.67,.28-1.03v-1.84c0-.36-.09-.7-.28-1.02-.19-.32-.44-.58-.75-.78-.31-.2-.66-.31-1.04-.31s-.73,.1-1.04,.31c-.31,.2-.55,.47-.74,.78-.19,.32-.28,.66-.28,1.02v1.84c0,.36,.09,.71,.27,1.03,.18,.33,.43,.6,.75,.8,.32,.2,.66,.31,1.04,.31Z"/><path class="cls-1" d="M86.34,190.99c-.22,0-.39-.06-.53-.17-.14-.11-.21-.24-.21-.37v-7.47c0-.16,.07-.28,.21-.38,.14-.1,.32-.14,.53-.14,.19,0,.35,.05,.49,.14,.13,.1,.2,.22,.2,.38v.74c.19-.35,.49-.66,.9-.94s.91-.42,1.51-.42,1.1,.16,1.58,.48c.48,.32,.86,.74,1.15,1.25,.29,.52,.43,1.09,.43,1.73v4.64c0,.18-.08,.32-.23,.41-.16,.09-.33,.13-.52,.13-.18,0-.35-.04-.5-.13s-.23-.23-.23-.41v-4.64c0-.35-.09-.68-.28-1.01-.19-.32-.44-.59-.75-.79-.31-.2-.65-.31-1.03-.31-.32,0-.64,.09-.94,.26-.3,.17-.55,.41-.74,.72-.19,.31-.29,.68-.29,1.12v4.64c0,.13-.08,.25-.22,.37-.15,.11-.33,.17-.53,.17Z"/><path class="cls-1" d="M96.51,191.13c-.67,0-1.25-.19-1.72-.58-.47-.39-.71-.99-.71-1.81,0-.66,.18-1.17,.54-1.54s.86-.62,1.49-.76,1.36-.21,2.19-.21h.86v-.38c0-.36-.07-.71-.2-1.05-.13-.34-.34-.62-.62-.85-.28-.22-.67-.33-1.16-.33-.42,0-.75,.04-1,.13-.25,.08-.44,.17-.58,.26-.14,.09-.27,.13-.38,.13-.18,0-.32-.09-.41-.26-.1-.17-.14-.34-.14-.5,0-.19,.13-.37,.4-.52,.26-.16,.59-.28,.99-.38,.4-.1,.79-.14,1.17-.14,.84,0,1.51,.17,2.02,.5s.87,.77,1.09,1.3c.22,.53,.33,1.09,.33,1.69v4.61c0,.14-.07,.27-.21,.38-.14,.11-.32,.16-.53,.16-.19,0-.35-.05-.49-.16-.13-.11-.2-.23-.2-.38v-.72c-.31,.36-.69,.68-1.13,.97-.44,.29-.97,.43-1.58,.43Zm.47-1.21c.35,0,.69-.1,1.02-.29,.33-.19,.61-.43,.83-.72,.22-.29,.33-.56,.33-.83v-.94h-.63c-.5,0-.98,.03-1.43,.09-.45,.06-.81,.19-1.09,.39-.28,.2-.41,.51-.41,.95,0,.47,.13,.81,.4,1.03,.26,.22,.59,.32,.99,.32Z"/><path class="cls-1" d="M109.97,191.13c-.78,0-1.47-.15-2.07-.44-.6-.29-1.07-.7-1.42-1.22-.35-.52-.52-1.13-.52-1.83v-1.89c0-.61,.16-1.18,.5-1.69,.33-.52,.76-.93,1.3-1.24s1.13-.47,1.78-.47,1.2,.14,1.72,.43c.52,.29,.94,.68,1.26,1.17s.48,1.06,.48,1.71c0,.48-.08,.83-.23,1.04s-.35,.34-.59,.39c-.24,.05-.49,.07-.76,.07h-3.96v.54c0,.67,.24,1.2,.72,1.59,.48,.39,1.1,.58,1.85,.58,.44,0,.8-.06,1.06-.18,.26-.12,.48-.24,.65-.35,.17-.11,.32-.17,.45-.17s.24,.04,.33,.12,.16,.17,.21,.28c.05,.11,.07,.2,.07,.29,0,.16-.11,.33-.34,.53-.23,.2-.56,.37-.98,.52-.43,.15-.93,.22-1.5,.22Zm-2.52-4.99h3.33c.32,0,.54-.04,.64-.12,.1-.08,.15-.23,.15-.46,0-.36-.09-.69-.26-1s-.42-.55-.73-.75c-.31-.19-.67-.29-1.06-.29-.37,0-.71,.09-1.03,.26-.31,.17-.56,.41-.76,.71-.19,.3-.29,.63-.29,.99v.65Z"/><path class="cls-1" d="M115.55,190.99c-.22,0-.39-.06-.53-.17s-.21-.24-.21-.37v-12.62c0-.16,.07-.28,.21-.38,.14-.1,.32-.14,.53-.14,.2,0,.38,.05,.53,.14,.15,.1,.22,.22,.22,.38v12.62c0,.13-.08,.25-.22,.37-.15,.11-.33,.17-.53,.17Z"/><path class="cls-1" d="M125.14,190.99c-.97,0-1.71-.22-2.22-.65-.51-.43-.76-1.12-.76-2.07v-9.27c0-.16,.08-.28,.23-.38,.16-.1,.32-.14,.5-.14,.19,0,.37,.05,.52,.14,.16,.1,.23,.22,.23,.38v3.46h2.27c.14,0,.25,.06,.33,.18s.12,.26,.12,.41-.04,.29-.12,.41c-.08,.11-.19,.17-.33,.17h-2.27v4.64c0,.52,.11,.88,.33,1.09,.22,.21,.61,.31,1.16,.31h.56c.22,0,.38,.07,.49,.2,.11,.13,.16,.28,.16,.45s-.05,.32-.16,.46c-.11,.14-.27,.21-.49,.21h-.56Z"/><path class="cls-1" d="M128.49,180.12c-.25,0-.47-.09-.66-.26-.19-.17-.28-.38-.28-.6s.09-.43,.28-.59c.19-.17,.41-.25,.66-.25s.48,.08,.66,.25,.26,.37,.26,.59-.09,.43-.26,.6-.39,.26-.66,.26Zm0,10.87c-.22,0-.39-.06-.53-.17-.14-.11-.21-.24-.21-.37v-7.47c0-.16,.07-.28,.21-.38,.14-.1,.32-.14,.53-.14,.2,0,.38,.05,.53,.14,.15,.1,.22,.22,.22,.38v7.47c0,.13-.08,.25-.22,.37-.15,.11-.33,.17-.53,.17Z"/><path class="cls-1" d="M132.09,195.11c-.2,0-.38-.06-.51-.17-.14-.11-.21-.24-.21-.37v-11.59c0-.16,.07-.28,.21-.38,.14-.1,.31-.14,.51-.14s.37,.05,.5,.14c.13,.1,.2,.22,.2,.38v.74c.2-.35,.51-.66,.92-.94s.91-.42,1.49-.42,1.15,.16,1.64,.48c.49,.32,.88,.74,1.17,1.25,.29,.52,.43,1.09,.43,1.73v1.84c0,.6-.15,1.17-.44,1.7-.29,.53-.68,.97-1.16,1.3-.48,.33-1.01,.49-1.58,.49-.54,0-1.03-.14-1.46-.42-.43-.28-.74-.61-.94-.98v4.84c0,.13-.08,.25-.23,.37-.15,.11-.33,.17-.55,.17Zm2.81-5.33c.36,0,.7-.1,1.01-.31,.31-.2,.56-.47,.76-.81,.19-.34,.29-.68,.29-1.03v-1.84c0-.35-.1-.68-.29-1.01-.19-.32-.44-.59-.76-.79-.31-.2-.66-.31-1.04-.31-.32,0-.64,.09-.95,.26-.31,.17-.56,.41-.76,.72-.2,.31-.3,.68-.3,1.12v2.32c0,.16,.09,.37,.26,.63,.17,.26,.41,.5,.72,.71,.31,.21,.66,.32,1.05,.32Z"/><path class="cls-1" d="M143.47,191.13c-.64,0-1.22-.16-1.76-.49-.54-.32-.97-.75-1.3-1.29-.32-.53-.49-1.11-.49-1.72v-1.84c0-.61,.16-1.18,.48-1.7,.32-.52,.75-.95,1.29-1.27,.54-.32,1.13-.49,1.78-.49s1.22,.16,1.76,.47,.97,.73,1.3,1.25c.33,.52,.5,1.1,.5,1.74v1.84c0,.6-.17,1.17-.5,1.7-.33,.53-.76,.97-1.3,1.3s-1.13,.49-1.76,.49Zm0-1.35c.38,0,.73-.1,1.04-.31,.31-.2,.56-.47,.75-.8,.19-.33,.28-.67,.28-1.03v-1.84c0-.36-.09-.7-.28-1.02-.19-.32-.44-.58-.75-.78-.31-.2-.66-.31-1.04-.31s-.73,.1-1.04,.31c-.31,.2-.55,.47-.74,.78-.19,.32-.28,.66-.28,1.02v1.84c0,.36,.09,.71,.27,1.03,.18,.33,.43,.6,.75,.8,.32,.2,.66,.31,1.04,.31Z"/><path class="cls-1" d="M60.27,211.13c-.56,0-1.09-.16-1.57-.49-.49-.33-.88-.76-1.17-1.3-.29-.53-.44-1.1-.44-1.7v-1.84c0-.64,.15-1.21,.44-1.73,.29-.52,.68-.93,1.17-1.25,.49-.32,1.02-.48,1.61-.48s1.06,.14,1.47,.42c.4,.28,.7,.6,.89,.94v-5.89c0-.16,.07-.28,.23-.38,.15-.1,.33-.14,.55-.14s.39,.05,.52,.14c.13,.1,.2,.22,.2,.38v12.62c0,.13-.07,.25-.2,.37-.13,.11-.31,.17-.52,.17-.19,0-.36-.06-.49-.17-.14-.11-.21-.24-.21-.37v-.72c-.18,.37-.5,.7-.95,.98-.46,.28-.96,.42-1.51,.42Zm.36-1.35c.38,0,.73-.1,1.03-.32,.31-.21,.55-.45,.73-.71,.18-.26,.27-.47,.27-.63v-2.32c0-.44-.1-.82-.3-1.12-.2-.31-.45-.55-.77-.72-.31-.17-.63-.26-.95-.26-.38,0-.73,.1-1.04,.31-.31,.2-.56,.47-.75,.79-.19,.32-.28,.66-.28,1.01v1.84c0,.35,.09,.69,.28,1.03,.19,.34,.43,.61,.75,.81s.65,.31,1.03,.31Z"/><path class="cls-1" d="M69.99,211.13c-.78,0-1.47-.15-2.07-.44-.6-.29-1.07-.7-1.42-1.22-.35-.52-.52-1.13-.52-1.83v-1.89c0-.61,.17-1.18,.5-1.69,.33-.52,.77-.93,1.31-1.24s1.13-.47,1.78-.47,1.2,.14,1.72,.43,.94,.68,1.26,1.17,.48,1.06,.48,1.71c0,.48-.08,.83-.23,1.04-.16,.21-.35,.34-.59,.39-.24,.05-.49,.07-.76,.07h-3.96v.54c0,.67,.24,1.2,.72,1.59,.48,.39,1.1,.58,1.85,.58,.44,0,.8-.06,1.06-.18,.26-.12,.48-.24,.65-.35,.17-.11,.32-.17,.45-.17s.24,.04,.33,.12c.09,.08,.16,.17,.21,.28,.05,.11,.07,.2,.07,.29,0,.16-.11,.33-.34,.53-.23,.2-.56,.37-.98,.52-.43,.15-.93,.22-1.5,.22Zm-2.52-4.99h3.33c.32,0,.54-.04,.64-.12,.1-.08,.15-.23,.15-.46,0-.36-.09-.69-.26-1s-.42-.55-.73-.75c-.31-.19-.67-.29-1.06-.29-.37,0-.71,.09-1.03,.26-.31,.17-.56,.41-.76,.71-.19,.3-.29,.63-.29,.99v.65Z"/><path class="cls-1" d="M80.14,211.13c-.67,0-1.25-.19-1.72-.58-.47-.39-.71-.99-.71-1.81,0-.66,.18-1.17,.54-1.54s.86-.62,1.49-.76,1.36-.21,2.19-.21h.86v-.38c0-.36-.07-.71-.2-1.05-.13-.34-.34-.62-.62-.85-.28-.22-.67-.33-1.16-.33-.42,0-.75,.04-1,.13-.25,.08-.44,.17-.58,.26-.14,.09-.27,.13-.38,.13-.18,0-.32-.09-.41-.26-.1-.17-.14-.34-.14-.5,0-.19,.13-.37,.4-.52,.26-.16,.59-.28,.99-.38,.4-.1,.79-.14,1.17-.14,.84,0,1.51,.17,2.02,.5s.87,.77,1.09,1.3c.22,.53,.33,1.09,.33,1.69v4.61c0,.14-.07,.27-.21,.38-.14,.11-.32,.16-.53,.16-.19,0-.35-.05-.49-.16-.13-.11-.2-.23-.2-.38v-.72c-.31,.36-.69,.68-1.13,.97-.44,.29-.97,.43-1.58,.43Zm.47-1.21c.35,0,.69-.1,1.02-.29,.33-.19,.61-.43,.83-.72,.22-.29,.33-.56,.33-.83v-.94h-.63c-.5,0-.98,.03-1.43,.09-.45,.06-.81,.19-1.09,.39-.28,.2-.41,.51-.41,.95,0,.47,.13,.81,.4,1.03,.26,.22,.59,.32,.99,.32Z"/><path class="cls-1" d="M87.06,215.11c-.2,0-.38-.06-.51-.17-.14-.11-.21-.24-.21-.37v-11.59c0-.16,.07-.28,.21-.38,.14-.1,.31-.14,.51-.14s.37,.05,.5,.14c.13,.1,.2,.22,.2,.38v.74c.2-.35,.51-.66,.92-.94s.91-.42,1.49-.42,1.15,.16,1.64,.48c.49,.32,.88,.74,1.17,1.25,.29,.52,.43,1.09,.43,1.73v1.84c0,.6-.15,1.17-.44,1.7-.29,.53-.68,.97-1.16,1.3-.48,.33-1.01,.49-1.58,.49-.54,0-1.03-.14-1.46-.42-.43-.28-.74-.61-.94-.98v4.84c0,.13-.08,.25-.23,.37-.15,.11-.33,.17-.55,.17Zm2.81-5.33c.36,0,.7-.1,1.01-.31,.31-.2,.56-.47,.76-.81,.19-.34,.29-.68,.29-1.03v-1.84c0-.35-.1-.68-.29-1.01-.19-.32-.44-.59-.76-.79-.31-.2-.66-.31-1.04-.31-.32,0-.64,.09-.95,.26-.31,.17-.56,.41-.76,.72-.2,.31-.3,.68-.3,1.12v2.32c0,.16,.09,.37,.26,.63,.17,.26,.41,.5,.72,.71,.31,.21,.66,.32,1.05,.32Z"/><path class="cls-1" d="M98.43,211.13c-.64,0-1.22-.16-1.76-.49-.54-.32-.97-.75-1.3-1.29-.32-.53-.49-1.11-.49-1.72v-1.84c0-.61,.16-1.18,.48-1.7,.32-.52,.75-.95,1.29-1.27,.54-.32,1.13-.49,1.78-.49s1.22,.16,1.76,.47,.97,.73,1.3,1.25c.33,.52,.5,1.1,.5,1.74v1.84c0,.6-.17,1.17-.5,1.7-.33,.53-.76,.97-1.3,1.3s-1.13,.49-1.76,.49Zm0-1.35c.38,0,.73-.1,1.04-.31,.31-.2,.56-.47,.75-.8,.19-.33,.28-.67,.28-1.03v-1.84c0-.36-.09-.7-.28-1.02-.19-.32-.44-.58-.75-.78-.31-.2-.66-.31-1.04-.31s-.73,.1-1.04,.31c-.31,.2-.55,.47-.74,.78-.19,.32-.28,.66-.28,1.02v1.84c0,.36,.09,.71,.27,1.03,.18,.33,.43,.6,.75,.8,.32,.2,.66,.31,1.04,.31Z"/><path class="cls-1" d="M103.6,215.11c-.19,0-.35-.04-.49-.13s-.2-.27-.2-.53c0-.17,.03-.32,.1-.45,.07-.13,.18-.2,.33-.2,.26,0,.53-.08,.79-.22,.26-.15,.52-.37,.76-.67s.46-.64,.64-1.04c.18-.4,.31-.83,.4-1.31l-2.99-7.29c-.04-.07-.05-.14-.05-.2,0-.13,.05-.25,.16-.36s.24-.19,.39-.26c.15-.07,.29-.1,.42-.1,.1,0,.19,.02,.29,.07,.1,.05,.16,.13,.18,.23l2.39,6.26,2.14-6.26c.04-.11,.1-.19,.19-.23,.09-.05,.18-.07,.28-.07,.12,0,.25,.03,.41,.1,.15,.07,.28,.15,.39,.26s.16,.23,.16,.38c0,.07-.01,.13-.04,.18l-2.75,7.33c-.18,.49-.37,1-.58,1.53-.21,.53-.45,1.02-.73,1.47-.28,.45-.63,.82-1.05,1.1-.42,.28-.94,.42-1.55,.42Z"/><path class="cls-1" d="M114.81,211.13c-.64,0-1.22-.16-1.76-.49-.54-.32-.97-.75-1.3-1.29-.32-.53-.49-1.11-.49-1.72v-1.84c0-.61,.16-1.18,.48-1.7,.32-.52,.75-.95,1.29-1.27,.54-.32,1.13-.49,1.78-.49s1.22,.16,1.76,.47,.97,.73,1.3,1.25c.33,.52,.5,1.1,.5,1.74v1.84c0,.6-.17,1.17-.5,1.7-.33,.53-.76,.97-1.3,1.3s-1.13,.49-1.76,.49Zm0-1.35c.38,0,.73-.1,1.04-.31,.31-.2,.56-.47,.75-.8,.19-.33,.28-.67,.28-1.03v-1.84c0-.36-.09-.7-.28-1.02-.19-.32-.44-.58-.75-.78-.31-.2-.66-.31-1.04-.31s-.73,.1-1.04,.31c-.31,.2-.55,.47-.74,.78-.19,.32-.28,.66-.28,1.02v1.84c0,.36,.09,.71,.27,1.03,.18,.33,.43,.6,.75,.8,.32,.2,.66,.31,1.04,.31Z"/></g><path class="cls-3" d="M161.55,60.41c-1.29,0-2.41-.19-3.37-.57-.96-.38-1.76-.87-2.41-1.46-.64-.59-1.12-1.24-1.42-1.95-.3-.71-.46-1.42-.46-2.12,0-.48,.08-.8,.23-.95,.15-.15,.37-.23,.64-.23,.38,0,.64,.09,.78,.27,.14,.18,.21,.4,.21,.68,0,.38,.08,.83,.25,1.35s.46,1.02,.87,1.5c.42,.48,1,.88,1.74,1.19,.75,.32,1.69,.47,2.82,.47,1.87,0,3.31-.49,4.32-1.48s1.52-2.51,1.52-4.59v-.72c0-1.82-.52-3.17-1.55-4.06-1.04-.88-2.43-1.33-4.17-1.33-.3,0-.52-.09-.64-.27-.13-.18-.19-.38-.19-.61s.06-.43,.19-.61c.13-.18,.33-.27,.61-.27,1.11,0,2.05-.16,2.8-.49,.76-.33,1.33-.87,1.71-1.63,.38-.76,.57-1.77,.57-3.03,0-1.74-.39-3.06-1.16-3.94-.77-.88-2.03-1.33-3.77-1.33-1.09,0-1.97,.15-2.65,.45-.68,.3-1.21,.69-1.59,1.16-.38,.47-.64,.95-.78,1.44s-.21,.95-.21,1.38c0,.3-.08,.56-.23,.76-.15,.2-.38,.3-.68,.3-.23,0-.42-.04-.57-.11s-.25-.21-.3-.42c-.05-.2-.08-.46-.08-.76,0-.48,.1-1.06,.3-1.74,.2-.68,.56-1.35,1.06-1.99s1.23-1.18,2.18-1.61,2.17-.64,3.66-.64c1.31,0,2.47,.21,3.47,.64s1.78,1.12,2.35,2.08c.57,.96,.85,2.26,.85,3.9,0,1.79-.31,3.21-.93,4.25s-1.36,1.77-2.22,2.2c1.11,.48,2.03,1.21,2.77,2.2,.73,.99,1.1,2.34,1.1,4.06v.72c0,1.9-.34,3.42-1.02,4.59-.68,1.16-1.6,2-2.75,2.52-1.15,.52-2.43,.78-3.85,.78Z"/></g></g></g></svg>