<?xml version="1.0" encoding="UTF-8"?><svg xmlns="http://www.w3.org/2000/svg" xmlns:xlink="http://www.w3.org/1999/xlink" viewBox="0 0 216.97 267.48"><defs><style>.cls-1{fill:#f8cf8e;}.cls-2{fill:#676661;}.cls-3{fill:#5c6060;}.cls-4{fill:#726f6b;}.cls-5{mix-blend-mode:color-dodge;}.cls-5,.cls-6,.cls-7{fill:#fff;}.cls-6{filter:url(#drop-shadow-1);}.cls-7{filter:url(#drop-shadow-2);}.cls-8{isolation:isolate;}.cls-9{fill:none;mix-blend-mode:screen;stroke:#f0b070;stroke-miterlimit:10;stroke-width:8px;}</style><filter id="drop-shadow-1" filterUnits="userSpaceOnUse"><feOffset dx="0" dy="10"/><feGaussianBlur result="blur" stdDeviation="6"/><feFlood flood-color="#665f60" flood-opacity=".48"/><feComposite in2="blur" operator="in"/><feComposite in="SourceGraphic"/></filter><filter id="drop-shadow-2" filterUnits="userSpaceOnUse"><feOffset dx="4" dy="7"/><feGaussianBlur result="blur-2" stdDeviation="5"/><feFlood flood-color="#665f60" flood-opacity=".48"/><feComposite in2="blur-2" operator="in"/><feComposite in="SourceGraphic"/></filter></defs><g class="cls-8"><g id="Layer_2"><g id="Layer_6"><path class="cls-6" d="M160.57,8.08c21.09,0,38.18,17.09,38.18,38.18s-17.09,38.18-38.18,38.18"/></g><g id="Layer_1-2"><rect class="cls-1" y="27.37" width="176.96" height="202.32" rx="16.96" ry="16.96"/><polygon class="cls-7" points="160.56 210.93 88.1 245.3 16.41 210.93 16.41 46.13 160.56 46.13 160.56 210.93"/><circle class="cls-1" cx="160.78" cy="46.4" r="38.18"/></g><g id="Layer_3"><path class="cls-4" d="M72.79,89.98c2.09-5.96,7.78-10.22,14.46-10.22s12.36,4.26,14.46,10.22h5.99c5.64,0,10.22,4.58,10.22,10.22v51.11c0,5.64-4.58,10.22-10.22,10.22h-40.89c-5.64,0-10.22-4.58-10.22-10.22v-51.11c0-5.64,4.58-10.22,10.22-10.22h5.99Zm19.57,5.11c0-2.83-2.28-5.11-5.11-5.11s-5.11,2.28-5.11,5.11,2.28,5.11,5.11,5.11,5.11-2.28,5.11-5.11Zm-10.22,43.45c0,1.41,1.15,2.56,2.56,2.56h20.45c1.41,0,2.56-1.15,2.56-2.56s-1.15-2.56-2.56-2.56h-20.45c-1.41,0-2.56,1.15-2.56,2.56Zm-10.22,3.83c2.12,0,3.83-1.71,3.83-3.83s-1.71-3.83-3.83-3.83-3.83,1.71-3.83,3.83,1.71,3.83,3.83,3.83Zm10.22-19.17c0,1.41,1.15,2.56,2.56,2.56h20.45c1.41,0,2.56-1.15,2.56-2.56s-1.15-2.56-2.56-2.56h-20.45c-1.41,0-2.56,1.15-2.56,2.56Zm-10.22,3.83c2.12,0,3.83-1.71,3.83-3.83s-1.71-3.83-3.83-3.83-3.83,1.71-3.83,3.83,1.71,3.83,3.83,3.83Z"/></g><g id="Layer_5"><g><circle class="cls-5" cx="161.38" cy="46.26" r="25.71"/><circle class="cls-9" cx="161.38" cy="46.26" r="25.71"/></g></g><g id="Layer_7"><g><path class="cls-2" d="M37.15,191.22c-.14,0-.27-.06-.39-.18-.11-.12-.21-.26-.3-.41l-2.7-5.27h-2.09v5.29c0,.18-.08,.31-.23,.41-.16,.09-.33,.13-.52,.13-.18,0-.35-.04-.51-.13-.16-.09-.24-.23-.24-.41v-12.1c0-.14,.05-.26,.15-.36,.1-.1,.23-.15,.39-.16h3.29c.73,0,1.4,.11,2.01,.33,.61,.22,1.09,.59,1.45,1.12,.36,.52,.54,1.24,.54,2.15,0,.73-.12,1.34-.35,1.82-.23,.48-.56,.86-.96,1.12-.41,.27-.86,.46-1.37,.57l2.66,5.06s.04,.09,.05,.14c.01,.04,.02,.08,.02,.12,0,.13-.04,.26-.14,.38-.09,.12-.2,.22-.34,.29-.14,.07-.28,.11-.42,.11Zm-5.47-7.13h2.32c.74,0,1.34-.18,1.8-.54,.46-.36,.68-.97,.68-1.82s-.23-1.45-.68-1.81c-.46-.35-1.06-.53-1.8-.53h-2.32v4.7Z"/><path class="cls-2" d="M43.15,191.33c-.78,0-1.47-.15-2.07-.44-.6-.29-1.07-.7-1.42-1.22s-.52-1.13-.52-1.83v-1.89c0-.61,.17-1.18,.5-1.69,.33-.52,.77-.93,1.31-1.24s1.13-.47,1.78-.47,1.2,.14,1.72,.43,.94,.68,1.26,1.17c.32,.49,.48,1.06,.48,1.71,0,.48-.08,.83-.23,1.04-.16,.21-.35,.34-.59,.39-.24,.05-.49,.07-.76,.07h-3.96v.54c0,.67,.24,1.2,.72,1.59,.48,.39,1.1,.58,1.85,.58,.44,0,.8-.06,1.06-.18,.26-.12,.48-.24,.65-.35,.17-.11,.32-.17,.45-.17s.24,.04,.33,.12c.09,.08,.16,.17,.21,.28s.07,.2,.07,.29c0,.16-.11,.33-.34,.53-.23,.2-.56,.37-.98,.52s-.93,.23-1.5,.23Zm-2.52-4.99h3.33c.32,0,.54-.04,.64-.12,.1-.08,.15-.23,.15-.46,0-.36-.09-.69-.26-1s-.42-.55-.73-.75c-.31-.19-.67-.29-1.06-.29-.37,0-.71,.09-1.03,.26s-.56,.41-.76,.71c-.19,.3-.29,.63-.29,.99v.65Z"/><path class="cls-2" d="M50.27,191.33c-.58,0-1.09-.08-1.53-.23s-.79-.33-1.04-.53-.38-.41-.38-.61c0-.1,.02-.19,.07-.3s.11-.19,.19-.27,.17-.12,.26-.12c.14,0,.3,.07,.47,.21,.17,.14,.4,.28,.68,.42s.7,.22,1.24,.22c.64,0,1.08-.12,1.33-.35s.38-.5,.38-.78c0-.37-.11-.66-.32-.85-.22-.2-.49-.35-.83-.47-.34-.11-.69-.23-1.06-.33-.37-.11-.73-.24-1.06-.4-.34-.16-.61-.39-.82-.68s-.31-.69-.31-1.18c0-.4,.1-.79,.29-1.17,.19-.38,.5-.7,.94-.96,.43-.26,1.01-.39,1.73-.39,.42,0,.82,.04,1.21,.14,.39,.09,.71,.21,.95,.36,.25,.15,.37,.31,.37,.48,0,.07-.02,.17-.07,.29s-.11,.23-.2,.32c-.08,.1-.19,.14-.32,.14-.1,0-.23-.04-.4-.13-.17-.09-.38-.18-.63-.26-.25-.08-.54-.13-.89-.13-.4,0-.71,.07-.95,.21-.24,.14-.41,.3-.52,.49-.11,.19-.16,.38-.16,.57,0,.3,.1,.53,.31,.7,.21,.17,.49,.3,.83,.41s.7,.2,1.07,.31c.37,.1,.73,.25,1.06,.43,.34,.19,.61,.44,.83,.77,.22,.32,.32,.76,.32,1.3,0,.73-.26,1.32-.79,1.75-.53,.44-1.27,.66-2.23,.66Z"/><path class="cls-2" d="M55.67,195.31c-.2,0-.38-.06-.51-.17-.14-.11-.21-.24-.21-.37v-11.59c0-.16,.07-.28,.21-.38,.14-.1,.31-.14,.51-.14s.37,.05,.5,.14c.13,.1,.2,.22,.2,.38v.74c.2-.35,.51-.66,.92-.94,.41-.28,.91-.42,1.49-.42s1.15,.16,1.64,.48c.49,.32,.88,.74,1.17,1.25,.29,.52,.43,1.09,.43,1.73v1.84c0,.6-.15,1.17-.44,1.7-.29,.53-.68,.97-1.16,1.3-.48,.33-1.01,.5-1.58,.5-.54,0-1.03-.14-1.46-.42-.43-.28-.74-.61-.94-.98v4.84c0,.13-.08,.25-.23,.37-.15,.11-.33,.17-.55,.17Zm2.81-5.33c.36,0,.7-.1,1.01-.31,.31-.2,.56-.47,.76-.81,.19-.34,.29-.68,.29-1.03v-1.84c0-.35-.1-.68-.29-1.01-.19-.32-.44-.59-.76-.79-.31-.2-.66-.31-1.04-.31-.32,0-.64,.09-.94,.26s-.56,.41-.76,.72c-.2,.31-.3,.68-.3,1.12v2.32c0,.16,.09,.37,.26,.63,.17,.26,.41,.5,.72,.71,.31,.21,.66,.31,1.05,.31Z"/><path class="cls-2" d="M67.05,191.33c-.64,0-1.22-.16-1.76-.49-.54-.32-.97-.75-1.3-1.29-.32-.53-.49-1.11-.49-1.72v-1.84c0-.61,.16-1.18,.48-1.7,.32-.52,.75-.95,1.29-1.27,.54-.32,1.13-.49,1.78-.49s1.22,.16,1.76,.47,.98,.73,1.31,1.25,.5,1.1,.5,1.74v1.84c0,.6-.17,1.17-.5,1.7-.33,.53-.77,.97-1.31,1.3-.54,.33-1.13,.5-1.76,.5Zm0-1.35c.38,0,.73-.1,1.04-.31,.31-.2,.56-.47,.75-.8,.19-.33,.28-.67,.28-1.04v-1.84c0-.36-.09-.7-.28-1.02-.19-.32-.44-.58-.75-.78-.31-.2-.66-.31-1.04-.31s-.73,.1-1.04,.31-.55,.46-.74,.78c-.19,.32-.28,.66-.28,1.02v1.84c0,.36,.09,.71,.27,1.04s.43,.6,.75,.8c.32,.2,.66,.31,1.04,.31Z"/><path class="cls-2" d="M73.15,191.19c-.22,0-.39-.06-.53-.17-.14-.11-.21-.24-.21-.37v-7.47c0-.16,.07-.28,.21-.38,.14-.1,.31-.14,.53-.14,.19,0,.35,.05,.49,.14,.13,.1,.2,.22,.2,.38v.74c.19-.35,.49-.66,.9-.94,.41-.28,.91-.42,1.51-.42s1.1,.16,1.58,.48c.48,.32,.86,.74,1.15,1.25,.29,.52,.43,1.09,.43,1.73v4.64c0,.18-.08,.31-.23,.41-.16,.09-.33,.13-.52,.13-.18,0-.35-.04-.5-.13-.16-.09-.23-.23-.23-.41v-4.64c0-.35-.09-.68-.28-1.01-.19-.32-.44-.59-.75-.79-.31-.2-.65-.31-1.03-.31-.32,0-.64,.09-.94,.26-.3,.17-.55,.41-.74,.72-.19,.31-.29,.68-.29,1.12v4.64c0,.13-.08,.26-.23,.37-.15,.11-.33,.17-.53,.17Z"/><path class="cls-2" d="M84.31,191.33c-.56,0-1.09-.17-1.58-.5-.49-.33-.88-.76-1.17-1.3-.29-.53-.44-1.1-.44-1.7v-1.84c0-.64,.15-1.21,.44-1.73,.29-.52,.68-.93,1.17-1.25,.49-.32,1.02-.48,1.61-.48s1.06,.14,1.47,.42c.4,.28,.7,.6,.89,.94v-5.89c0-.16,.07-.28,.22-.38,.15-.1,.33-.14,.55-.14s.39,.05,.52,.14c.13,.1,.2,.22,.2,.38v12.62c0,.13-.07,.26-.2,.37-.13,.11-.31,.17-.52,.17-.19,0-.36-.06-.5-.17-.14-.11-.21-.24-.21-.37v-.72c-.18,.37-.5,.7-.95,.98-.46,.28-.96,.42-1.51,.42Zm.36-1.35c.38,0,.73-.1,1.04-.31,.31-.21,.55-.45,.73-.71,.18-.26,.27-.47,.27-.63v-2.32c0-.44-.1-.82-.3-1.12-.2-.31-.45-.55-.77-.72s-.63-.26-.95-.26c-.38,0-.73,.1-1.04,.31-.31,.2-.56,.47-.75,.79-.19,.32-.28,.66-.28,1.01v1.84c0,.35,.09,.69,.28,1.03,.19,.34,.44,.61,.75,.81,.31,.2,.65,.31,1.03,.31Z"/><path class="cls-2" d="M94.03,191.33c-.78,0-1.47-.15-2.07-.44-.6-.29-1.07-.7-1.42-1.22s-.52-1.13-.52-1.83v-1.89c0-.61,.16-1.18,.5-1.69,.33-.52,.76-.93,1.3-1.24s1.13-.47,1.78-.47,1.2,.14,1.72,.43c.52,.29,.94,.68,1.26,1.17,.32,.49,.48,1.06,.48,1.71,0,.48-.08,.83-.23,1.04s-.35,.34-.59,.39c-.24,.05-.49,.07-.76,.07h-3.96v.54c0,.67,.24,1.2,.72,1.59,.48,.39,1.1,.58,1.85,.58,.44,0,.8-.06,1.06-.18,.26-.12,.48-.24,.65-.35,.17-.11,.32-.17,.45-.17s.24,.04,.33,.12c.09,.08,.16,.17,.21,.28s.07,.2,.07,.29c0,.16-.11,.33-.34,.53-.23,.2-.56,.37-.98,.52s-.93,.23-1.5,.23Zm-2.52-4.99h3.33c.32,0,.54-.04,.64-.12,.1-.08,.15-.23,.15-.46,0-.36-.09-.69-.26-1s-.42-.55-.73-.75c-.31-.19-.67-.29-1.06-.29-.37,0-.71,.09-1.03,.26-.31,.17-.56,.41-.76,.71-.19,.3-.29,.63-.29,.99v.65Z"/><path class="cls-2" d="M102.15,195.31c-.19,0-.35-.04-.49-.14-.13-.09-.2-.27-.2-.53,0-.17,.03-.32,.1-.45,.07-.13,.18-.2,.33-.2,.26,0,.53-.08,.79-.23,.26-.15,.52-.37,.76-.67s.46-.64,.64-1.04c.18-.4,.31-.83,.4-1.31l-2.99-7.29c-.04-.07-.05-.14-.05-.2,0-.13,.05-.25,.16-.36,.11-.11,.24-.2,.39-.26,.15-.07,.29-.1,.42-.1,.1,0,.19,.02,.29,.07,.1,.05,.16,.13,.18,.23l2.39,6.26,2.14-6.26c.04-.11,.1-.19,.19-.23s.18-.07,.28-.07c.12,0,.25,.03,.41,.1s.28,.15,.39,.26c.11,.11,.16,.23,.16,.38,0,.07-.01,.13-.04,.18l-2.75,7.33c-.18,.49-.37,1-.58,1.53-.21,.53-.45,1.02-.73,1.47-.28,.45-.63,.82-1.05,1.1-.42,.28-.94,.42-1.55,.42Z"/><path class="cls-2" d="M117.43,191.33c-.78,0-1.47-.15-2.07-.44-.6-.29-1.07-.7-1.42-1.22s-.52-1.13-.52-1.83v-1.89c0-.61,.16-1.18,.5-1.69,.33-.52,.76-.93,1.3-1.24s1.13-.47,1.78-.47,1.2,.14,1.72,.43c.52,.29,.94,.68,1.26,1.17,.32,.49,.48,1.06,.48,1.71,0,.48-.08,.83-.23,1.04s-.35,.34-.59,.39c-.24,.05-.49,.07-.76,.07h-3.96v.54c0,.67,.24,1.2,.72,1.59,.48,.39,1.1,.58,1.85,.58,.44,0,.8-.06,1.06-.18,.26-.12,.48-.24,.65-.35,.17-.11,.32-.17,.45-.17s.24,.04,.33,.12c.09,.08,.16,.17,.21,.28s.07,.2,.07,.29c0,.16-.11,.33-.34,.53-.23,.2-.56,.37-.98,.52s-.93,.23-1.5,.23Zm-2.52-4.99h3.33c.32,0,.54-.04,.64-.12,.1-.08,.15-.23,.15-.46,0-.36-.09-.69-.26-1s-.42-.55-.73-.75c-.31-.19-.67-.29-1.06-.29-.37,0-.71,.09-1.03,.26-.31,.17-.56,.41-.76,.71-.19,.3-.29,.63-.29,.99v.65Z"/><path class="cls-2" d="M122.85,191.19c-.22,0-.39-.06-.53-.17-.14-.11-.21-.24-.21-.37v-7.47c0-.16,.07-.28,.21-.38,.14-.1,.32-.14,.53-.14,.19,0,.35,.05,.49,.14,.13,.1,.2,.22,.2,.38v.74c.19-.35,.49-.66,.9-.94,.41-.28,.91-.42,1.51-.42s1.1,.16,1.58,.48c.48,.32,.86,.74,1.15,1.25,.29,.52,.43,1.09,.43,1.73v4.64c0,.18-.08,.31-.23,.41-.16,.09-.33,.13-.52,.13-.18,0-.35-.04-.5-.13-.16-.09-.23-.23-.23-.41v-4.64c0-.35-.09-.68-.28-1.01-.19-.32-.44-.59-.75-.79-.31-.2-.65-.31-1.03-.31-.32,0-.64,.09-.94,.26s-.55,.41-.74,.72c-.19,.31-.29,.68-.29,1.12v4.64c0,.13-.08,.26-.22,.37-.15,.11-.33,.17-.53,.17Z"/><path class="cls-2" d="M133.88,191.35c-.16,0-.3-.03-.42-.08-.13-.05-.21-.14-.26-.24l-2.95-7.47s-.03-.07-.04-.13c-.02-.06-.03-.11-.03-.16,0-.12,.05-.23,.15-.33,.1-.1,.23-.18,.38-.23,.15-.05,.29-.08,.42-.08,.1,0,.19,.02,.29,.07,.1,.05,.16,.12,.2,.22l2.27,6.12,2.27-6.05c.04-.11,.09-.19,.17-.26,.08-.07,.18-.1,.31-.1,.12,0,.25,.03,.4,.08,.14,.05,.28,.13,.4,.23s.18,.21,.18,.33c0,.06,0,.11-.03,.16s-.03,.09-.04,.13l-2.95,7.47c-.05,.1-.14,.17-.27,.23-.13,.06-.28,.09-.43,.09Z"/><path class="cls-2" d="M138.89,180.69c-.14,0-.27-.07-.38-.2-.11-.13-.16-.27-.16-.41,0-.19,.08-.32,.23-.4l2.11-1.12c.07-.02,.13-.04,.18-.04,.16,0,.28,.06,.37,.19s.14,.27,.14,.42c0,.19-.08,.34-.25,.43l-2.03,1.04s-.07,.03-.1,.04-.06,.03-.1,.03Zm.72,10.49c-.22,0-.39-.06-.53-.17-.14-.11-.21-.24-.21-.37v-7.47c0-.16,.07-.28,.21-.38,.14-.1,.32-.14,.53-.14,.2,0,.38,.05,.53,.14,.15,.1,.22,.22,.22,.38v7.47c0,.13-.08,.26-.22,.37-.15,.11-.33,.17-.53,.17Z"/><path class="cls-2" d="M144.34,191.33c-.67,0-1.25-.19-1.72-.58s-.71-.99-.71-1.81c0-.66,.18-1.17,.54-1.54,.36-.37,.86-.62,1.49-.76,.63-.14,1.36-.21,2.19-.21h.86v-.38c0-.36-.07-.71-.2-1.05-.13-.34-.34-.62-.62-.85s-.67-.33-1.16-.33c-.42,0-.75,.04-1,.13s-.44,.17-.58,.26c-.14,.09-.27,.14-.38,.14-.18,0-.32-.09-.41-.26-.1-.17-.14-.34-.14-.5,0-.19,.13-.37,.4-.52,.26-.16,.59-.28,.99-.38,.4-.1,.79-.14,1.17-.14,.84,0,1.51,.17,2.02,.5,.5,.34,.87,.77,1.09,1.3,.22,.53,.33,1.09,.33,1.69v4.61c0,.14-.07,.27-.21,.38-.14,.11-.32,.16-.53,.16-.19,0-.35-.05-.49-.16s-.2-.23-.2-.38v-.72c-.31,.36-.69,.68-1.13,.97-.44,.29-.97,.43-1.58,.43Zm.47-1.21c.35,0,.69-.1,1.02-.29,.33-.19,.61-.43,.83-.72,.22-.29,.33-.56,.33-.83v-.94h-.63c-.5,0-.98,.03-1.43,.09-.45,.06-.81,.19-1.09,.39-.28,.2-.41,.51-.41,.94,0,.47,.13,.81,.4,1.03,.26,.22,.59,.32,.99,.32Z"/><path class="cls-2" d="M43.34,211.33c-.78,0-1.47-.15-2.07-.44-.6-.29-1.07-.7-1.42-1.22s-.52-1.13-.52-1.83v-1.89c0-.61,.17-1.18,.5-1.69,.33-.52,.77-.93,1.31-1.24s1.13-.47,1.78-.47,1.2,.14,1.72,.43,.94,.68,1.26,1.17c.32,.49,.48,1.06,.48,1.71,0,.48-.08,.83-.23,1.04-.16,.21-.35,.34-.59,.39-.24,.05-.49,.07-.76,.07h-3.96v.54c0,.67,.24,1.2,.72,1.59,.48,.39,1.1,.58,1.85,.58,.44,0,.8-.06,1.06-.18,.26-.12,.48-.24,.65-.35,.17-.11,.32-.17,.45-.17s.24,.04,.33,.12c.09,.08,.16,.17,.21,.28s.07,.2,.07,.29c0,.16-.11,.33-.34,.53-.23,.2-.56,.37-.98,.52s-.93,.23-1.5,.23Zm-2.52-4.99h3.33c.32,0,.54-.04,.64-.12,.1-.08,.15-.23,.15-.46,0-.36-.09-.69-.26-1s-.42-.55-.73-.75c-.31-.19-.67-.29-1.06-.29-.37,0-.71,.09-1.03,.26s-.56,.41-.76,.71c-.19,.3-.29,.63-.29,.99v.65Z"/><path class="cls-2" d="M48.92,211.19c-.22,0-.39-.06-.53-.17-.14-.11-.21-.24-.21-.37v-12.62c0-.16,.07-.28,.21-.38,.14-.1,.31-.14,.53-.14,.2,0,.38,.05,.53,.14,.15,.1,.22,.22,.22,.38v12.62c0,.13-.07,.26-.22,.37-.15,.11-.33,.17-.53,.17Z"/><path class="cls-2" d="M58.88,211.33c-.83,0-1.51-.16-2.04-.47-.53-.31-.93-.73-1.19-1.25-.26-.52-.39-1.11-.39-1.77v-1.8c0-.65,.13-1.24,.39-1.76,.26-.53,.65-.95,1.19-1.26,.53-.31,1.21-.47,2.02-.47,.53,0,.99,.07,1.39,.2,.4,.13,.7,.29,.92,.49,.22,.19,.32,.38,.32,.56,0,.1-.03,.2-.08,.31-.05,.11-.13,.21-.22,.3-.09,.08-.2,.13-.31,.13s-.25-.05-.39-.16c-.14-.11-.32-.21-.56-.32-.23-.1-.56-.15-.98-.15-.73,0-1.28,.19-1.65,.58s-.55,.91-.55,1.57v1.8c0,.66,.18,1.18,.55,1.57,.37,.38,.92,.58,1.67,.58,.43,0,.77-.06,1.01-.17,.24-.11,.43-.22,.57-.32,.14-.1,.27-.15,.4-.15s.25,.04,.34,.12c.1,.08,.17,.17,.23,.28,.05,.11,.08,.22,.08,.32,0,.18-.11,.37-.34,.57-.23,.2-.55,.37-.95,.5-.41,.14-.88,.21-1.42,.21Z"/><path class="cls-2" d="M66.58,211.33c-.66,0-1.26-.16-1.8-.49-.54-.32-.97-.75-1.3-1.28-.32-.53-.49-1.09-.49-1.69v-4.68c0-.13,.07-.25,.22-.37s.33-.17,.53-.17,.38,.06,.52,.17,.22,.24,.22,.37v4.68c0,.36,.09,.7,.28,1.02,.19,.32,.43,.58,.75,.78,.31,.2,.66,.31,1.04,.31s.73-.1,1.04-.31c.31-.2,.56-.46,.74-.78,.18-.32,.27-.66,.27-1.02v-4.7c0-.14,.08-.27,.23-.37,.16-.1,.33-.15,.52-.15,.23,0,.41,.05,.54,.15,.13,.1,.2,.23,.2,.37v4.7c0,.61-.16,1.18-.48,1.7s-.75,.94-1.29,1.27c-.54,.32-1.13,.49-1.76,.49Z"/><path class="cls-2" d="M75.85,211.33c-.78,0-1.47-.15-2.07-.44-.6-.29-1.07-.7-1.42-1.22s-.52-1.13-.52-1.83v-1.89c0-.61,.17-1.18,.5-1.69,.33-.52,.77-.93,1.31-1.24s1.13-.47,1.78-.47,1.2,.14,1.72,.43,.94,.68,1.26,1.17c.32,.49,.48,1.06,.48,1.71,0,.48-.08,.83-.23,1.04s-.36,.34-.59,.39c-.24,.05-.49,.07-.76,.07h-3.96v.54c0,.67,.24,1.2,.72,1.59,.48,.39,1.1,.58,1.85,.58,.44,0,.8-.06,1.06-.18s.48-.24,.65-.35c.17-.11,.32-.17,.45-.17s.24,.04,.33,.12c.09,.08,.16,.17,.21,.28,.05,.11,.07,.2,.07,.29,0,.16-.11,.33-.34,.53-.23,.2-.55,.37-.98,.52-.43,.15-.93,.23-1.5,.23Zm-2.52-4.99h3.33c.32,0,.54-.04,.64-.12s.15-.23,.15-.46c0-.36-.09-.69-.26-1-.17-.31-.42-.55-.73-.75-.31-.19-.67-.29-1.06-.29-.37,0-.71,.09-1.03,.26s-.56,.41-.76,.71c-.19,.3-.29,.63-.29,.99v.65Z"/><path class="cls-2" d="M82.98,211.33c-.58,0-1.09-.08-1.53-.23-.44-.15-.79-.33-1.04-.53-.25-.2-.38-.41-.38-.61,0-.1,.02-.19,.07-.3s.11-.19,.19-.27c.08-.08,.16-.12,.26-.12,.14,0,.3,.07,.47,.21,.17,.14,.4,.28,.68,.42,.29,.14,.7,.22,1.24,.22,.64,0,1.08-.12,1.33-.35s.38-.5,.38-.78c0-.37-.11-.66-.32-.85-.22-.2-.49-.35-.83-.47-.34-.11-.69-.23-1.06-.33s-.73-.24-1.06-.4c-.34-.16-.61-.39-.82-.68s-.31-.69-.31-1.18c0-.4,.1-.79,.29-1.17,.19-.38,.5-.7,.94-.96,.43-.26,1.01-.39,1.73-.39,.42,0,.83,.04,1.22,.14,.39,.09,.71,.21,.95,.36,.25,.15,.37,.31,.37,.48,0,.07-.02,.17-.07,.29-.05,.12-.11,.23-.2,.32-.08,.1-.19,.14-.32,.14-.1,0-.23-.04-.41-.13-.17-.09-.38-.18-.63-.26-.25-.08-.54-.13-.89-.13-.4,0-.71,.07-.95,.21-.24,.14-.41,.3-.52,.49-.11,.19-.16,.38-.16,.57,0,.3,.1,.53,.31,.7,.21,.17,.49,.3,.83,.41s.7,.2,1.07,.31c.37,.1,.73,.25,1.06,.43,.34,.19,.61,.44,.83,.77,.22,.32,.32,.76,.32,1.3,0,.73-.26,1.32-.79,1.75-.53,.44-1.27,.66-2.23,.66Z"/><path class="cls-2" d="M90.59,211.19c-.97,0-1.71-.22-2.22-.65s-.76-1.12-.76-2.07v-9.27c0-.16,.08-.28,.23-.38,.16-.1,.32-.14,.5-.14,.19,0,.37,.05,.52,.14,.16,.1,.23,.22,.23,.38v3.46h2.27c.14,0,.25,.06,.33,.18,.08,.12,.12,.26,.12,.41s-.04,.29-.12,.4c-.08,.11-.19,.17-.33,.17h-2.27v4.64c0,.52,.11,.88,.33,1.09,.22,.21,.61,.31,1.16,.31h.56c.22,0,.38,.07,.49,.2,.11,.13,.16,.28,.16,.45s-.05,.32-.16,.46c-.11,.14-.27,.21-.49,.21h-.56Z"/><path class="cls-2" d="M93.94,200.32c-.25,0-.47-.09-.66-.26-.19-.17-.28-.38-.28-.6s.09-.43,.28-.59c.19-.17,.41-.25,.66-.25s.48,.08,.66,.25c.17,.17,.26,.37,.26,.59s-.09,.43-.26,.6-.39,.26-.66,.26Zm0,10.87c-.22,0-.39-.06-.53-.17-.14-.11-.21-.24-.21-.37v-7.47c0-.16,.07-.28,.21-.38,.14-.1,.32-.14,.53-.14,.2,0,.38,.05,.53,.14,.15,.1,.22,.22,.22,.38v7.47c0,.13-.08,.26-.22,.37-.15,.11-.33,.17-.53,.17Z"/><path class="cls-2" d="M100.02,211.33c-.64,0-1.22-.16-1.76-.49-.54-.32-.97-.75-1.3-1.29-.32-.53-.49-1.11-.49-1.72v-1.84c0-.61,.16-1.18,.48-1.7,.32-.52,.75-.95,1.29-1.27,.54-.32,1.13-.49,1.78-.49s1.22,.16,1.76,.47,.97,.73,1.3,1.25,.5,1.1,.5,1.74v1.84c0,.6-.17,1.17-.5,1.7-.33,.53-.76,.97-1.3,1.3-.54,.33-1.13,.5-1.76,.5Zm0-1.35c.38,0,.73-.1,1.04-.31,.31-.2,.56-.47,.75-.8,.19-.33,.28-.67,.28-1.04v-1.84c0-.36-.09-.7-.28-1.02-.19-.32-.44-.58-.75-.78-.31-.2-.66-.31-1.04-.31s-.73,.1-1.04,.31-.55,.46-.74,.78c-.19,.32-.28,.66-.28,1.02v1.84c0,.36,.09,.71,.27,1.04s.43,.6,.75,.8c.32,.2,.66,.31,1.04,.31Z"/><path class="cls-2" d="M106.13,211.19c-.22,0-.39-.06-.53-.17-.14-.11-.21-.24-.21-.37v-7.47c0-.16,.07-.28,.21-.38,.14-.1,.32-.14,.53-.14,.19,0,.35,.05,.49,.14,.13,.1,.2,.22,.2,.38v.74c.19-.35,.49-.66,.9-.94,.41-.28,.91-.42,1.51-.42s1.1,.16,1.58,.48c.48,.32,.86,.74,1.15,1.25,.29,.52,.43,1.09,.43,1.73v4.64c0,.18-.08,.31-.23,.41-.16,.09-.33,.13-.52,.13-.18,0-.35-.04-.5-.13-.16-.09-.23-.23-.23-.41v-4.64c0-.35-.09-.68-.28-1.01-.19-.32-.44-.59-.75-.79-.31-.2-.65-.31-1.03-.31-.32,0-.64,.09-.94,.26s-.55,.41-.74,.72c-.19,.31-.29,.68-.29,1.12v4.64c0,.13-.08,.26-.22,.37-.15,.11-.33,.17-.53,.17Z"/><path class="cls-2" d="M116.3,211.33c-.67,0-1.25-.19-1.72-.58s-.71-.99-.71-1.81c0-.66,.18-1.17,.54-1.54,.36-.37,.86-.62,1.49-.76,.63-.14,1.36-.21,2.19-.21h.86v-.38c0-.36-.07-.71-.2-1.05-.13-.34-.34-.62-.62-.85s-.67-.33-1.16-.33c-.42,0-.75,.04-1,.13s-.44,.17-.58,.26c-.14,.09-.27,.14-.38,.14-.18,0-.32-.09-.41-.26-.1-.17-.14-.34-.14-.5,0-.19,.13-.37,.4-.52,.26-.16,.59-.28,.99-.38,.4-.1,.79-.14,1.17-.14,.84,0,1.51,.17,2.02,.5,.5,.34,.87,.77,1.09,1.3,.22,.53,.33,1.09,.33,1.69v4.61c0,.14-.07,.27-.21,.38-.14,.11-.32,.16-.53,.16-.19,0-.35-.05-.49-.16s-.2-.23-.2-.38v-.72c-.31,.36-.69,.68-1.13,.97-.44,.29-.97,.43-1.58,.43Zm.47-1.21c.35,0,.69-.1,1.02-.29,.33-.19,.61-.43,.83-.72,.22-.29,.33-.56,.33-.83v-.94h-.63c-.5,0-.98,.03-1.43,.09-.45,.06-.81,.19-1.09,.39-.28,.2-.41,.51-.41,.94,0,.47,.13,.81,.4,1.03,.26,.22,.59,.32,.99,.32Z"/><path class="cls-2" d="M123.19,211.19c-.2,0-.38-.06-.51-.17-.14-.11-.21-.24-.21-.37v-7.47c0-.16,.07-.28,.21-.38,.14-.1,.31-.14,.51-.14s.37,.05,.5,.14c.13,.1,.2,.22,.2,.38v.85c.13-.25,.31-.49,.54-.71,.23-.22,.49-.4,.8-.55,.31-.14,.64-.22,1.02-.22h.61c.16,0,.29,.07,.41,.2,.11,.13,.17,.29,.17,.49,0,.18-.06,.34-.17,.47-.11,.13-.25,.2-.41,.2h-.61c-.38,0-.75,.11-1.1,.32-.35,.22-.63,.52-.86,.91-.22,.39-.33,.86-.33,1.41v4.1c0,.13-.08,.26-.22,.37-.15,.11-.33,.17-.55,.17Z"/><path class="cls-2" d="M129.36,200.32c-.25,0-.47-.09-.66-.26-.19-.17-.28-.38-.28-.6s.09-.43,.28-.59c.19-.17,.41-.25,.66-.25s.48,.08,.66,.25c.17,.17,.26,.37,.26,.59s-.09,.43-.26,.6-.39,.26-.66,.26Zm0,10.87c-.22,0-.39-.06-.53-.17-.14-.11-.21-.24-.21-.37v-7.47c0-.16,.07-.28,.21-.38,.14-.1,.32-.14,.53-.14,.2,0,.38,.05,.53,.14,.15,.1,.22,.22,.22,.38v7.47c0,.13-.08,.26-.22,.37-.15,.11-.33,.17-.53,.17Z"/><path class="cls-2" d="M135.45,211.33c-.64,0-1.22-.16-1.76-.49-.54-.32-.97-.75-1.3-1.29-.32-.53-.49-1.11-.49-1.72v-1.84c0-.61,.16-1.18,.48-1.7,.32-.52,.75-.95,1.29-1.27,.54-.32,1.13-.49,1.78-.49s1.22,.16,1.76,.47,.97,.73,1.3,1.25,.5,1.1,.5,1.74v1.84c0,.6-.17,1.17-.5,1.7-.33,.53-.76,.97-1.3,1.3-.54,.33-1.13,.5-1.76,.5Zm0-1.35c.38,0,.73-.1,1.04-.31,.31-.2,.56-.47,.75-.8,.19-.33,.28-.67,.28-1.04v-1.84c0-.36-.09-.7-.28-1.02-.19-.32-.44-.58-.75-.78-.31-.2-.66-.31-1.04-.31s-.73,.1-1.04,.31-.55,.46-.74,.78c-.19,.32-.28,.66-.28,1.02v1.84c0,.36,.09,.71,.27,1.04s.43,.6,.75,.8c.32,.2,.66,.31,1.04,.31Z"/></g><path class="cls-3" d="M155.69,60.12c-.2,0-.4-.08-.61-.23-.2-.15-.3-.34-.3-.57v-3.68c0-1.06,.32-2.03,.95-2.92,.63-.88,1.43-1.72,2.41-2.52,.97-.8,2.02-1.57,3.13-2.33,1.11-.76,2.15-1.55,3.13-2.39,.97-.83,1.77-1.72,2.41-2.67,.63-.95,.95-2,.95-3.17,0-.88-.2-1.74-.61-2.56-.4-.82-1.01-1.5-1.82-2.05-.81-.54-1.83-.81-3.07-.81-1.42,0-2.59,.4-3.53,1.19-.94,.8-1.4,1.99-1.4,3.58,0,.18-.08,.35-.25,.53-.17,.18-.41,.27-.74,.27s-.56-.09-.68-.28c-.13-.19-.19-.52-.19-1,0-1.16,.3-2.2,.89-3.13,.59-.92,1.41-1.65,2.44-2.18,1.04-.53,2.2-.8,3.49-.8,1.46,0,2.75,.33,3.85,.99,1.1,.66,1.96,1.52,2.58,2.6,.62,1.07,.93,2.27,.93,3.58s-.32,2.55-.95,3.64c-.63,1.09-1.43,2.07-2.41,2.96-.97,.89-2.02,1.71-3.13,2.48-1.11,.77-2.15,1.52-3.13,2.24s-1.77,1.47-2.39,2.24c-.62,.77-.93,1.61-.93,2.52v2.65h12.47c.2,0,.38,.09,.55,.27,.16,.18,.25,.39,.25,.64,0,.23-.08,.44-.25,.63-.17,.19-.35,.28-.55,.28h-13.49Z"/></g></g></g></svg>